%TF.GenerationSoftware,KiCad,Pcbnew,5.1.10*%
%TF.CreationDate,2022-03-18T21:46:21+01:00*%
%TF.ProjectId,ChickenDoor_V1,43686963-6b65-46e4-946f-6f725f56312e,V1*%
%TF.SameCoordinates,Original*%
%TF.FileFunction,Paste,Top*%
%TF.FilePolarity,Positive*%
%FSLAX46Y46*%
G04 Gerber Fmt 4.6, Leading zero omitted, Abs format (unit mm)*
G04 Created by KiCad (PCBNEW 5.1.10) date 2022-03-18 21:46:21*
%MOMM*%
%LPD*%
G01*
G04 APERTURE LIST*
%ADD10R,0.800000X0.900000*%
%ADD11R,0.900000X1.200000*%
%ADD12R,1.200000X0.900000*%
G04 APERTURE END LIST*
%TO.C,R7*%
G36*
G01*
X83227500Y-103320002D02*
X83227500Y-102419998D01*
G75*
G02*
X83477498Y-102170000I249998J0D01*
G01*
X84002502Y-102170000D01*
G75*
G02*
X84252500Y-102419998I0J-249998D01*
G01*
X84252500Y-103320002D01*
G75*
G02*
X84002502Y-103570000I-249998J0D01*
G01*
X83477498Y-103570000D01*
G75*
G02*
X83227500Y-103320002I0J249998D01*
G01*
G37*
G36*
G01*
X81402500Y-103320002D02*
X81402500Y-102419998D01*
G75*
G02*
X81652498Y-102170000I249998J0D01*
G01*
X82177502Y-102170000D01*
G75*
G02*
X82427500Y-102419998I0J-249998D01*
G01*
X82427500Y-103320002D01*
G75*
G02*
X82177502Y-103570000I-249998J0D01*
G01*
X81652498Y-103570000D01*
G75*
G02*
X81402500Y-103320002I0J249998D01*
G01*
G37*
%TD*%
D10*
%TO.C,Q4*%
X71755000Y-98425000D03*
X72705000Y-100425000D03*
X70805000Y-100425000D03*
%TD*%
%TO.C,D4*%
G36*
G01*
X108595000Y-143145000D02*
X109845000Y-143145000D01*
G75*
G02*
X110095000Y-143395000I0J-250000D01*
G01*
X110095000Y-144145000D01*
G75*
G02*
X109845000Y-144395000I-250000J0D01*
G01*
X108595000Y-144395000D01*
G75*
G02*
X108345000Y-144145000I0J250000D01*
G01*
X108345000Y-143395000D01*
G75*
G02*
X108595000Y-143145000I250000J0D01*
G01*
G37*
G36*
G01*
X108595000Y-140345000D02*
X109845000Y-140345000D01*
G75*
G02*
X110095000Y-140595000I0J-250000D01*
G01*
X110095000Y-141345000D01*
G75*
G02*
X109845000Y-141595000I-250000J0D01*
G01*
X108595000Y-141595000D01*
G75*
G02*
X108345000Y-141345000I0J250000D01*
G01*
X108345000Y-140595000D01*
G75*
G02*
X108595000Y-140345000I250000J0D01*
G01*
G37*
%TD*%
%TO.C,D3*%
G36*
G01*
X86370000Y-142885000D02*
X87620000Y-142885000D01*
G75*
G02*
X87870000Y-143135000I0J-250000D01*
G01*
X87870000Y-143885000D01*
G75*
G02*
X87620000Y-144135000I-250000J0D01*
G01*
X86370000Y-144135000D01*
G75*
G02*
X86120000Y-143885000I0J250000D01*
G01*
X86120000Y-143135000D01*
G75*
G02*
X86370000Y-142885000I250000J0D01*
G01*
G37*
G36*
G01*
X86370000Y-140085000D02*
X87620000Y-140085000D01*
G75*
G02*
X87870000Y-140335000I0J-250000D01*
G01*
X87870000Y-141085000D01*
G75*
G02*
X87620000Y-141335000I-250000J0D01*
G01*
X86370000Y-141335000D01*
G75*
G02*
X86120000Y-141085000I0J250000D01*
G01*
X86120000Y-140335000D01*
G75*
G02*
X86370000Y-140085000I250000J0D01*
G01*
G37*
%TD*%
%TO.C,D1*%
G36*
G01*
X64145000Y-142885000D02*
X65395000Y-142885000D01*
G75*
G02*
X65645000Y-143135000I0J-250000D01*
G01*
X65645000Y-143885000D01*
G75*
G02*
X65395000Y-144135000I-250000J0D01*
G01*
X64145000Y-144135000D01*
G75*
G02*
X63895000Y-143885000I0J250000D01*
G01*
X63895000Y-143135000D01*
G75*
G02*
X64145000Y-142885000I250000J0D01*
G01*
G37*
G36*
G01*
X64145000Y-140085000D02*
X65395000Y-140085000D01*
G75*
G02*
X65645000Y-140335000I0J-250000D01*
G01*
X65645000Y-141085000D01*
G75*
G02*
X65395000Y-141335000I-250000J0D01*
G01*
X64145000Y-141335000D01*
G75*
G02*
X63895000Y-141085000I0J250000D01*
G01*
X63895000Y-140335000D01*
G75*
G02*
X64145000Y-140085000I250000J0D01*
G01*
G37*
%TD*%
%TO.C,Q3*%
X102705000Y-129580000D03*
X101755000Y-127580000D03*
X103655000Y-127580000D03*
%TD*%
%TO.C,Q2*%
X124930000Y-129580000D03*
X123980000Y-127580000D03*
X125880000Y-127580000D03*
%TD*%
%TO.C,Q1*%
X80480000Y-129580000D03*
X79530000Y-127580000D03*
X81430000Y-127580000D03*
%TD*%
D11*
%TO.C,D6*%
X116165000Y-128580000D03*
X112865000Y-128580000D03*
%TD*%
%TO.C,D5*%
X93940000Y-128580000D03*
X90640000Y-128580000D03*
%TD*%
%TO.C,D2*%
X71715000Y-128580000D03*
X68415000Y-128580000D03*
%TD*%
%TO.C,R9*%
G36*
G01*
X82427500Y-96704998D02*
X82427500Y-97605002D01*
G75*
G02*
X82177502Y-97855000I-249998J0D01*
G01*
X81652498Y-97855000D01*
G75*
G02*
X81402500Y-97605002I0J249998D01*
G01*
X81402500Y-96704998D01*
G75*
G02*
X81652498Y-96455000I249998J0D01*
G01*
X82177502Y-96455000D01*
G75*
G02*
X82427500Y-96704998I0J-249998D01*
G01*
G37*
G36*
G01*
X84252500Y-96704998D02*
X84252500Y-97605002D01*
G75*
G02*
X84002502Y-97855000I-249998J0D01*
G01*
X83477498Y-97855000D01*
G75*
G02*
X83227500Y-97605002I0J249998D01*
G01*
X83227500Y-96704998D01*
G75*
G02*
X83477498Y-96455000I249998J0D01*
G01*
X84002502Y-96455000D01*
G75*
G02*
X84252500Y-96704998I0J-249998D01*
G01*
G37*
%TD*%
%TO.C,R8*%
G36*
G01*
X71304998Y-94102500D02*
X72205002Y-94102500D01*
G75*
G02*
X72455000Y-94352498I0J-249998D01*
G01*
X72455000Y-94877502D01*
G75*
G02*
X72205002Y-95127500I-249998J0D01*
G01*
X71304998Y-95127500D01*
G75*
G02*
X71055000Y-94877502I0J249998D01*
G01*
X71055000Y-94352498D01*
G75*
G02*
X71304998Y-94102500I249998J0D01*
G01*
G37*
G36*
G01*
X71304998Y-92277500D02*
X72205002Y-92277500D01*
G75*
G02*
X72455000Y-92527498I0J-249998D01*
G01*
X72455000Y-93052502D01*
G75*
G02*
X72205002Y-93302500I-249998J0D01*
G01*
X71304998Y-93302500D01*
G75*
G02*
X71055000Y-93052502I0J249998D01*
G01*
X71055000Y-92527498D01*
G75*
G02*
X71304998Y-92277500I249998J0D01*
G01*
G37*
%TD*%
%TO.C,R4*%
G36*
G01*
X119450000Y-128129998D02*
X119450000Y-129030002D01*
G75*
G02*
X119200002Y-129280000I-249998J0D01*
G01*
X118674998Y-129280000D01*
G75*
G02*
X118425000Y-129030002I0J249998D01*
G01*
X118425000Y-128129998D01*
G75*
G02*
X118674998Y-127880000I249998J0D01*
G01*
X119200002Y-127880000D01*
G75*
G02*
X119450000Y-128129998I0J-249998D01*
G01*
G37*
G36*
G01*
X121275000Y-128129998D02*
X121275000Y-129030002D01*
G75*
G02*
X121025002Y-129280000I-249998J0D01*
G01*
X120499998Y-129280000D01*
G75*
G02*
X120250000Y-129030002I0J249998D01*
G01*
X120250000Y-128129998D01*
G75*
G02*
X120499998Y-127880000I249998J0D01*
G01*
X121025002Y-127880000D01*
G75*
G02*
X121275000Y-128129998I0J-249998D01*
G01*
G37*
%TD*%
%TO.C,R3*%
G36*
G01*
X97225000Y-128129998D02*
X97225000Y-129030002D01*
G75*
G02*
X96975002Y-129280000I-249998J0D01*
G01*
X96449998Y-129280000D01*
G75*
G02*
X96200000Y-129030002I0J249998D01*
G01*
X96200000Y-128129998D01*
G75*
G02*
X96449998Y-127880000I249998J0D01*
G01*
X96975002Y-127880000D01*
G75*
G02*
X97225000Y-128129998I0J-249998D01*
G01*
G37*
G36*
G01*
X99050000Y-128129998D02*
X99050000Y-129030002D01*
G75*
G02*
X98800002Y-129280000I-249998J0D01*
G01*
X98274998Y-129280000D01*
G75*
G02*
X98025000Y-129030002I0J249998D01*
G01*
X98025000Y-128129998D01*
G75*
G02*
X98274998Y-127880000I249998J0D01*
G01*
X98800002Y-127880000D01*
G75*
G02*
X99050000Y-128129998I0J-249998D01*
G01*
G37*
%TD*%
%TO.C,R1*%
G36*
G01*
X75000000Y-128129998D02*
X75000000Y-129030002D01*
G75*
G02*
X74750002Y-129280000I-249998J0D01*
G01*
X74224998Y-129280000D01*
G75*
G02*
X73975000Y-129030002I0J249998D01*
G01*
X73975000Y-128129998D01*
G75*
G02*
X74224998Y-127880000I249998J0D01*
G01*
X74750002Y-127880000D01*
G75*
G02*
X75000000Y-128129998I0J-249998D01*
G01*
G37*
G36*
G01*
X76825000Y-128129998D02*
X76825000Y-129030002D01*
G75*
G02*
X76575002Y-129280000I-249998J0D01*
G01*
X76049998Y-129280000D01*
G75*
G02*
X75800000Y-129030002I0J249998D01*
G01*
X75800000Y-128129998D01*
G75*
G02*
X76049998Y-127880000I249998J0D01*
G01*
X76575002Y-127880000D01*
G75*
G02*
X76825000Y-128129998I0J-249998D01*
G01*
G37*
%TD*%
%TO.C,R6*%
G36*
G01*
X108769998Y-137282500D02*
X109670002Y-137282500D01*
G75*
G02*
X109920000Y-137532498I0J-249998D01*
G01*
X109920000Y-138057502D01*
G75*
G02*
X109670002Y-138307500I-249998J0D01*
G01*
X108769998Y-138307500D01*
G75*
G02*
X108520000Y-138057502I0J249998D01*
G01*
X108520000Y-137532498D01*
G75*
G02*
X108769998Y-137282500I249998J0D01*
G01*
G37*
G36*
G01*
X108769998Y-135457500D02*
X109670002Y-135457500D01*
G75*
G02*
X109920000Y-135707498I0J-249998D01*
G01*
X109920000Y-136232502D01*
G75*
G02*
X109670002Y-136482500I-249998J0D01*
G01*
X108769998Y-136482500D01*
G75*
G02*
X108520000Y-136232502I0J249998D01*
G01*
X108520000Y-135707498D01*
G75*
G02*
X108769998Y-135457500I249998J0D01*
G01*
G37*
%TD*%
%TO.C,R5*%
G36*
G01*
X86544998Y-137282500D02*
X87445002Y-137282500D01*
G75*
G02*
X87695000Y-137532498I0J-249998D01*
G01*
X87695000Y-138057502D01*
G75*
G02*
X87445002Y-138307500I-249998J0D01*
G01*
X86544998Y-138307500D01*
G75*
G02*
X86295000Y-138057502I0J249998D01*
G01*
X86295000Y-137532498D01*
G75*
G02*
X86544998Y-137282500I249998J0D01*
G01*
G37*
G36*
G01*
X86544998Y-135457500D02*
X87445002Y-135457500D01*
G75*
G02*
X87695000Y-135707498I0J-249998D01*
G01*
X87695000Y-136232502D01*
G75*
G02*
X87445002Y-136482500I-249998J0D01*
G01*
X86544998Y-136482500D01*
G75*
G02*
X86295000Y-136232502I0J249998D01*
G01*
X86295000Y-135707498D01*
G75*
G02*
X86544998Y-135457500I249998J0D01*
G01*
G37*
%TD*%
%TO.C,R2*%
G36*
G01*
X64319998Y-137282500D02*
X65220002Y-137282500D01*
G75*
G02*
X65470000Y-137532498I0J-249998D01*
G01*
X65470000Y-138057502D01*
G75*
G02*
X65220002Y-138307500I-249998J0D01*
G01*
X64319998Y-138307500D01*
G75*
G02*
X64070000Y-138057502I0J249998D01*
G01*
X64070000Y-137532498D01*
G75*
G02*
X64319998Y-137282500I249998J0D01*
G01*
G37*
G36*
G01*
X64319998Y-135457500D02*
X65220002Y-135457500D01*
G75*
G02*
X65470000Y-135707498I0J-249998D01*
G01*
X65470000Y-136232502D01*
G75*
G02*
X65220002Y-136482500I-249998J0D01*
G01*
X64319998Y-136482500D01*
G75*
G02*
X64070000Y-136232502I0J249998D01*
G01*
X64070000Y-135707498D01*
G75*
G02*
X64319998Y-135457500I249998J0D01*
G01*
G37*
%TD*%
D12*
%TO.C,D10*%
X115570000Y-165225000D03*
X115570000Y-161925000D03*
%TD*%
%TO.C,D9*%
X115570000Y-158240000D03*
X115570000Y-154940000D03*
%TD*%
%TO.C,D8*%
X120015000Y-165225000D03*
X120015000Y-161925000D03*
%TD*%
%TO.C,D7*%
X120015000Y-158240000D03*
X120015000Y-154940000D03*
%TD*%
M02*
