%TF.GenerationSoftware,KiCad,Pcbnew,5.1.10*%
%TF.CreationDate,2022-03-18T21:46:21+01:00*%
%TF.ProjectId,ChickenDoor_V1,43686963-6b65-46e4-946f-6f725f56312e,V1*%
%TF.SameCoordinates,Original*%
%TF.FileFunction,Copper,L2,Bot*%
%TF.FilePolarity,Positive*%
%FSLAX46Y46*%
G04 Gerber Fmt 4.6, Leading zero omitted, Abs format (unit mm)*
G04 Created by KiCad (PCBNEW 5.1.10) date 2022-03-18 21:46:21*
%MOMM*%
%LPD*%
G01*
G04 APERTURE LIST*
%TA.AperFunction,ComponentPad*%
%ADD10C,3.000000*%
%TD*%
%TA.AperFunction,ComponentPad*%
%ADD11O,1.700000X1.700000*%
%TD*%
%TA.AperFunction,ComponentPad*%
%ADD12R,1.700000X1.700000*%
%TD*%
%TA.AperFunction,ComponentPad*%
%ADD13C,2.600000*%
%TD*%
%TA.AperFunction,ComponentPad*%
%ADD14R,2.600000X2.600000*%
%TD*%
%TA.AperFunction,ComponentPad*%
%ADD15C,1.676400*%
%TD*%
%TA.AperFunction,ComponentPad*%
%ADD16C,1.524000*%
%TD*%
%TA.AperFunction,ComponentPad*%
%ADD17C,1.508000*%
%TD*%
%TA.AperFunction,ComponentPad*%
%ADD18R,1.508000X1.508000*%
%TD*%
%TA.AperFunction,ComponentPad*%
%ADD19C,2.000000*%
%TD*%
%TA.AperFunction,ViaPad*%
%ADD20C,0.800000*%
%TD*%
%TA.AperFunction,Conductor*%
%ADD21C,0.350000*%
%TD*%
%TA.AperFunction,Conductor*%
%ADD22C,1.000000*%
%TD*%
%TA.AperFunction,Conductor*%
%ADD23C,0.254000*%
%TD*%
%TA.AperFunction,Conductor*%
%ADD24C,0.100000*%
%TD*%
G04 APERTURE END LIST*
D10*
%TO.P,J6,17*%
%TO.N,N/C*%
X121500000Y-68000000D03*
X80500000Y-68000000D03*
X80500000Y-108000000D03*
D11*
%TO.P,J6,16*%
%TO.N,GND*%
X77500000Y-68900000D03*
%TO.P,J6,15*%
%TO.N,Net-(J6-Pad15)*%
X77500000Y-71440000D03*
%TO.P,J6,14*%
%TO.N,Net-(J6-Pad14)*%
X77500000Y-73980000D03*
%TO.P,J6,13*%
%TO.N,Net-(J6-Pad13)*%
X77500000Y-76520000D03*
%TO.P,J6,12*%
%TO.N,Net-(J6-Pad12)*%
X77500000Y-79060000D03*
%TO.P,J6,11*%
%TO.N,Net-(J6-Pad11)*%
X77500000Y-81600000D03*
%TO.P,J6,10*%
%TO.N,/TFT_CS*%
X77500000Y-84140000D03*
%TO.P,J6,9*%
%TO.N,/SD_SCK*%
X77500000Y-86680000D03*
%TO.P,J6,8*%
%TO.N,/SD_MOSI*%
X77500000Y-89220000D03*
%TO.P,J6,7*%
%TO.N,/TFT_DataOrCommand*%
X77500000Y-91760000D03*
%TO.P,J6,6*%
%TO.N,/TFT_reset*%
X77500000Y-94300000D03*
%TO.P,J6,5*%
%TO.N,N/C*%
X77500000Y-96840000D03*
%TO.P,J6,4*%
X77500000Y-99380000D03*
%TO.P,J6,3*%
X77500000Y-101920000D03*
%TO.P,J6,2*%
%TO.N,+5V*%
X77500000Y-104460000D03*
D12*
%TO.P,J6,1*%
%TO.N,GND*%
X77500000Y-107000000D03*
%TD*%
D13*
%TO.P,J7,2*%
%TO.N,Net-(D10-Pad1)*%
X132580000Y-161500000D03*
D14*
%TO.P,J7,1*%
%TO.N,Net-(D7-Pad2)*%
X127500000Y-161500000D03*
%TD*%
D13*
%TO.P,J4,2*%
%TO.N,GND*%
X75565000Y-161410000D03*
D14*
%TO.P,J4,1*%
%TO.N,/DoorPositionDown*%
X70485000Y-161410000D03*
%TD*%
D13*
%TO.P,J3,2*%
%TO.N,GND*%
X63180000Y-161360000D03*
D14*
%TO.P,J3,1*%
%TO.N,/DoorPositionUp*%
X58100000Y-161360000D03*
%TD*%
D13*
%TO.P,J2,2*%
%TO.N,Net-(D10-Pad2)*%
X108420000Y-161410000D03*
D14*
%TO.P,J2,1*%
%TO.N,Net-(D7-Pad1)*%
X103340000Y-161410000D03*
%TD*%
D13*
%TO.P,J1,3*%
%TO.N,Net-(J1-Pad3)*%
X95720000Y-161410000D03*
%TO.P,J1,2*%
%TO.N,Net-(J1-Pad2)*%
X90640000Y-161410000D03*
D14*
%TO.P,J1,1*%
%TO.N,Net-(J1-Pad1)*%
X85560000Y-161410000D03*
%TD*%
D15*
%TO.P,U1,MOSI*%
%TO.N,/SD_MOSI*%
X86995000Y-94615000D03*
%TO.P,U1,5V_3*%
%TO.N,+5V*%
X86995000Y-92075000D03*
%TO.P,U1,MISO*%
%TO.N,/SD_MISO*%
X89535000Y-92075000D03*
%TO.P,U1,SCK*%
%TO.N,/SD_SCK*%
X89535000Y-94615000D03*
%TO.P,U1,GND_3*%
%TO.N,GND*%
X86995000Y-97155000D03*
%TO.P,U1,RESET*%
%TO.N,N/C*%
X89535000Y-97155000D03*
%TO.P,U1,D53*%
X89535000Y-84455000D03*
%TO.P,U1,D52*%
X86995000Y-84455000D03*
%TO.P,U1,D50*%
X86995000Y-81915000D03*
%TO.P,U1,D51*%
X89535000Y-81915000D03*
%TO.P,U1,D49*%
X89535000Y-79375000D03*
%TO.P,U1,D48*%
X86995000Y-79375000D03*
%TO.P,U1,D47*%
X86995000Y-76835000D03*
%TO.P,U1,D46*%
X86995000Y-74295000D03*
%TO.P,U1,D45*%
X89535000Y-76835000D03*
%TO.P,U1,D44*%
X89535000Y-74295000D03*
%TO.P,U1,D43*%
X92075000Y-76835000D03*
%TO.P,U1,D42*%
X92075000Y-74295000D03*
%TO.P,U1,D41*%
X94615000Y-76835000D03*
%TO.P,U1,D40*%
X94615000Y-74295000D03*
%TO.P,U1,D39*%
X97155000Y-76835000D03*
%TO.P,U1,D38*%
X97155000Y-74295000D03*
%TO.P,U1,D37*%
X99695000Y-76835000D03*
%TO.P,U1,D36*%
X99695000Y-74295000D03*
%TO.P,U1,D35*%
X102235000Y-76835000D03*
%TO.P,U1,D34*%
X102235000Y-74295000D03*
%TO.P,U1,D33*%
X104775000Y-76835000D03*
%TO.P,U1,D32*%
X104775000Y-74295000D03*
%TO.P,U1,A15*%
X107315000Y-76835000D03*
%TO.P,U1,A14*%
X107315000Y-74295000D03*
%TO.P,U1,A13*%
X109855000Y-76835000D03*
%TO.P,U1,A12*%
X109855000Y-74295000D03*
%TO.P,U1,A11*%
X112395000Y-76835000D03*
%TO.P,U1,A10*%
X112395000Y-74295000D03*
%TO.P,U1,A9*%
X114935000Y-76835000D03*
%TO.P,U1,A8*%
X114935000Y-74295000D03*
%TO.P,U1,A7*%
X117475000Y-76835000D03*
%TO.P,U1,A6*%
X117475000Y-74295000D03*
%TO.P,U1,A4*%
X120015000Y-74295000D03*
%TO.P,U1,A5*%
X120015000Y-76835000D03*
%TO.P,U1,A3*%
X122555000Y-76835000D03*
%TO.P,U1,A2*%
X122555000Y-74295000D03*
%TO.P,U1,A0*%
X125095000Y-74295000D03*
%TO.P,U1,A1*%
X125095000Y-76835000D03*
%TO.P,U1,D22*%
%TO.N,/SW_BackButton*%
X97155000Y-107315000D03*
%TO.P,U1,D24*%
%TO.N,/SW_UpButton*%
X94615000Y-107315000D03*
%TO.P,U1,D26*%
%TO.N,/DoorPositionUp*%
X92075000Y-107315000D03*
%TO.P,U1,D28*%
%TO.N,N/C*%
X89535000Y-107315000D03*
%TO.P,U1,D30*%
X86995000Y-107315000D03*
%TO.P,U1,D31*%
X86995000Y-109855000D03*
%TO.P,U1,D29*%
X89535000Y-109855000D03*
%TO.P,U1,D27*%
%TO.N,/DoorPositionDown*%
X92075000Y-109855000D03*
%TO.P,U1,D25*%
%TO.N,/SW_DownButton*%
X94615000Y-109855000D03*
%TO.P,U1,D23*%
%TO.N,/SW_EnterButton*%
X97155000Y-109855000D03*
%TO.P,U1,D20*%
%TO.N,/RTC_SDA*%
X99695000Y-107315000D03*
%TO.P,U1,D18*%
%TO.N,N/C*%
X102235000Y-107315000D03*
%TO.P,U1,D16*%
X104775000Y-107315000D03*
%TO.P,U1,D14*%
X107315000Y-107315000D03*
%TO.P,U1,D12*%
%TO.N,/SD_CS*%
X109855000Y-107315000D03*
%TO.P,U1,D10*%
%TO.N,/TFT_CS*%
X112395000Y-107315000D03*
%TO.P,U1,D8*%
%TO.N,/TFT_DataOrCommand*%
X114935000Y-107315000D03*
%TO.P,U1,D6*%
%TO.N,/Motor_Down*%
X117475000Y-107315000D03*
%TO.P,U1,D4*%
%TO.N,/TFT_Dimming*%
X120015000Y-107315000D03*
%TO.P,U1,D2*%
%TO.N,N/C*%
X122555000Y-107315000D03*
%TO.P,U1,D21*%
%TO.N,/RTC_SCL*%
X99695000Y-109855000D03*
%TO.P,U1,D19*%
%TO.N,N/C*%
X102235000Y-109855000D03*
%TO.P,U1,D17*%
X104775000Y-109855000D03*
%TO.P,U1,D15*%
X107315000Y-109855000D03*
%TO.P,U1,D13*%
X109855000Y-109855000D03*
%TO.P,U1,D11*%
X112395000Y-109855000D03*
%TO.P,U1,D9*%
%TO.N,/TFT_reset*%
X114935000Y-109855000D03*
%TO.P,U1,D7*%
%TO.N,/Motor_Up*%
X117475000Y-109855000D03*
%TO.P,U1,D5*%
%TO.N,/IndoorLighting*%
X120015000Y-109855000D03*
%TO.P,U1,D3*%
%TO.N,N/C*%
X122555000Y-109855000D03*
%TO.P,U1,TX*%
X125095000Y-109855000D03*
%TO.P,U1,RX*%
X125095000Y-107315000D03*
%TO.P,U1,AREF*%
X127635000Y-107315000D03*
%TO.P,U1,RST*%
X127635000Y-109855000D03*
%TO.P,U1,3V3_1*%
%TO.N,+3V3*%
X130175000Y-109855000D03*
%TO.P,U1,3V3_2*%
X130175000Y-107315000D03*
%TO.P,U1,5V_2*%
%TO.N,+5V*%
X132715000Y-107315000D03*
%TO.P,U1,5V_1*%
X132715000Y-109855000D03*
%TO.P,U1,GND_1*%
%TO.N,GND*%
X135255000Y-109855000D03*
%TO.P,U1,GND_2*%
X135255000Y-107315000D03*
%TO.P,U1,VIN_1*%
%TO.N,Net-(U1-PadVIN_1)*%
X137795000Y-109855000D03*
%TO.P,U1,VIN_2*%
X137795000Y-107315000D03*
%TD*%
D16*
%TO.P,U2,6*%
%TO.N,GND*%
X66675000Y-109855000D03*
%TO.P,U2,5*%
%TO.N,+5V*%
X64135000Y-109855000D03*
%TO.P,U2,4*%
%TO.N,/RTC_SDA*%
X61595000Y-109855000D03*
%TO.P,U2,3*%
%TO.N,/RTC_SCL*%
X59055000Y-109855000D03*
D17*
%TO.P,U2,6*%
%TO.N,GND*%
X69215000Y-73660000D03*
%TO.P,U2,5*%
%TO.N,+5V*%
X66675000Y-73660000D03*
%TO.P,U2,4*%
%TO.N,/RTC_SDA*%
X64135000Y-73660000D03*
%TO.P,U2,3*%
%TO.N,/RTC_SCL*%
X61595000Y-73660000D03*
%TO.P,U2,2*%
%TO.N,N/C*%
X59055000Y-73660000D03*
D18*
%TO.P,U2,1*%
X56515000Y-73660000D03*
%TD*%
D10*
%TO.P,K3,11*%
%TO.N,Net-(D10-Pad1)*%
X119215000Y-133660000D03*
%TO.P,K3,A2*%
%TO.N,Net-(D6-Pad2)*%
X125215000Y-135660000D03*
%TO.P,K3,12*%
%TO.N,Net-(D10-Pad2)*%
X125215000Y-147860000D03*
%TO.P,K3,14*%
%TO.N,Net-(D7-Pad1)*%
X113215000Y-147860000D03*
%TO.P,K3,A1*%
%TO.N,+5V*%
X113215000Y-135660000D03*
%TD*%
%TO.P,K2,11*%
%TO.N,Net-(D7-Pad2)*%
X96990000Y-133660000D03*
%TO.P,K2,A2*%
%TO.N,Net-(D5-Pad2)*%
X102990000Y-135660000D03*
%TO.P,K2,12*%
%TO.N,Net-(D10-Pad2)*%
X102990000Y-147860000D03*
%TO.P,K2,14*%
%TO.N,Net-(D7-Pad1)*%
X90990000Y-147860000D03*
%TO.P,K2,A1*%
%TO.N,+5V*%
X90990000Y-135660000D03*
%TD*%
%TO.P,K1,11*%
%TO.N,Net-(J1-Pad2)*%
X74765000Y-133660000D03*
%TO.P,K1,A2*%
%TO.N,Net-(D2-Pad2)*%
X80765000Y-135660000D03*
%TO.P,K1,12*%
%TO.N,Net-(J1-Pad3)*%
X80765000Y-147860000D03*
%TO.P,K1,14*%
%TO.N,Net-(J1-Pad1)*%
X68765000Y-147860000D03*
%TO.P,K1,A1*%
%TO.N,+5V*%
X68765000Y-135660000D03*
%TD*%
D19*
%TO.P,SW4,1*%
%TO.N,/SW_DownButton*%
X117000000Y-120000000D03*
%TO.P,SW4,2*%
%TO.N,GND*%
X117000000Y-115500000D03*
%TO.P,SW4,1*%
%TO.N,/SW_DownButton*%
X123500000Y-120000000D03*
%TO.P,SW4,2*%
%TO.N,GND*%
X123500000Y-115500000D03*
%TD*%
%TO.P,SW3,1*%
%TO.N,/SW_UpButton*%
X104500000Y-120000000D03*
%TO.P,SW3,2*%
%TO.N,GND*%
X104500000Y-115500000D03*
%TO.P,SW3,1*%
%TO.N,/SW_UpButton*%
X111000000Y-120000000D03*
%TO.P,SW3,2*%
%TO.N,GND*%
X111000000Y-115500000D03*
%TD*%
%TO.P,SW2,1*%
%TO.N,/SW_EnterButton*%
X92000000Y-119985000D03*
%TO.P,SW2,2*%
%TO.N,GND*%
X92000000Y-115485000D03*
%TO.P,SW2,1*%
%TO.N,/SW_EnterButton*%
X98500000Y-119985000D03*
%TO.P,SW2,2*%
%TO.N,GND*%
X98500000Y-115485000D03*
%TD*%
%TO.P,SW1,1*%
%TO.N,/SW_BackButton*%
X79500000Y-120000000D03*
%TO.P,SW1,2*%
%TO.N,GND*%
X79500000Y-115500000D03*
%TO.P,SW1,1*%
%TO.N,/SW_BackButton*%
X86000000Y-120000000D03*
%TO.P,SW1,2*%
%TO.N,GND*%
X86000000Y-115500000D03*
%TD*%
D20*
%TO.N,Net-(D2-Pad2)*%
X80480000Y-132550000D03*
X71755000Y-126365000D03*
X64770000Y-133985000D03*
%TO.N,+5V*%
X66675000Y-80645000D03*
X66675000Y-100330000D03*
X116840000Y-123190000D03*
X126365000Y-123190000D03*
X85090000Y-97155000D03*
X87630000Y-123190000D03*
X91440000Y-123190000D03*
%TO.N,Net-(D6-Pad2)*%
X124930000Y-132550000D03*
X116205000Y-126365000D03*
X109220000Y-133985000D03*
%TO.N,Net-(D7-Pad2)*%
X121920000Y-160020000D03*
%TO.N,Net-(D7-Pad1)*%
X103340000Y-154775000D03*
X115570000Y-153035000D03*
%TO.N,Net-(D10-Pad2)*%
X108340000Y-153210000D03*
%TO.N,Net-(D10-Pad1)*%
X117475000Y-154940000D03*
%TO.N,GND*%
X101755000Y-125885000D03*
X79530000Y-125885000D03*
X123980000Y-125885000D03*
X76200000Y-120015000D03*
X89535000Y-121285000D03*
X89535000Y-125730000D03*
%TO.N,Net-(Q4-Pad1)*%
X80010000Y-102870000D03*
X72390000Y-102870000D03*
%TO.N,/IndoorLighting*%
X74930000Y-125095000D03*
X113665000Y-112395000D03*
%TO.N,/Motor_Up*%
X96712500Y-125287500D03*
%TO.N,/Motor_Down*%
X120015000Y-121920000D03*
%TO.N,/TFT_reset*%
X80150000Y-97155000D03*
X83820000Y-100330000D03*
%TO.N,/TFT_Dimming*%
X102235000Y-102870000D03*
%TO.N,/SW_DownButton*%
X107950000Y-112395000D03*
%TO.N,/TFT_CS*%
X110490000Y-100965000D03*
%TO.N,/TFT_DataOrCommand*%
X113665000Y-101600000D03*
%TO.N,Net-(D5-Pad2)*%
X102629990Y-132474990D03*
X93980000Y-126365000D03*
X86995000Y-133985000D03*
%TO.N,Net-(J6-Pad14)*%
X92075000Y-97155000D03*
X84455000Y-90805000D03*
%TO.N,Net-(J6-Pad13)*%
X98425000Y-93980000D03*
X83185000Y-89535000D03*
%TO.N,Net-(J6-Pad12)*%
X98425000Y-90805000D03*
X81915000Y-88265000D03*
%TO.N,Net-(J6-Pad11)*%
X98425000Y-87630000D03*
%TD*%
D21*
%TO.N,Net-(D2-Pad2)*%
X80480000Y-132550000D02*
X74295000Y-126365000D01*
X74295000Y-126365000D02*
X71755000Y-126365000D01*
X71755000Y-126365000D02*
X71755000Y-126365000D01*
X67945000Y-126365000D02*
X71755000Y-126365000D01*
X64770000Y-129540000D02*
X67945000Y-126365000D01*
X64770000Y-133985000D02*
X64770000Y-129540000D01*
D22*
%TO.N,+5V*%
X66675000Y-80645000D02*
X66675000Y-100330000D01*
X132715000Y-109855000D02*
X132715000Y-107315000D01*
X116840000Y-123190000D02*
X126365000Y-123190000D01*
D21*
X85090000Y-97155000D02*
X85090000Y-92710000D01*
X85090000Y-92710000D02*
X85725000Y-92075000D01*
X85725000Y-92075000D02*
X86995000Y-92075000D01*
D22*
X87630000Y-123190000D02*
X91440000Y-123190000D01*
D21*
%TO.N,Net-(D6-Pad2)*%
X124930000Y-132550000D02*
X118745000Y-126365000D01*
X118745000Y-126365000D02*
X116205000Y-126365000D01*
X116205000Y-126365000D02*
X116205000Y-126365000D01*
X112395000Y-126365000D02*
X116205000Y-126365000D01*
X109220000Y-129540000D02*
X112395000Y-126365000D01*
X109220000Y-133985000D02*
X109220000Y-129540000D01*
D22*
%TO.N,Net-(D7-Pad2)*%
X123310000Y-161410000D02*
X121920000Y-160020000D01*
X127470000Y-161410000D02*
X123310000Y-161410000D01*
X121920000Y-160020000D02*
X118406002Y-160020000D01*
X96990000Y-133660000D02*
X106045000Y-142715000D01*
X106045000Y-147658998D02*
X118406002Y-160020000D01*
X106045000Y-142715000D02*
X106045000Y-147658998D01*
%TO.N,Net-(D7-Pad1)*%
X90990000Y-147860000D02*
X96425000Y-147860000D01*
X103340000Y-154775000D02*
X103340000Y-154775000D01*
X96425000Y-147860000D02*
X103340000Y-154775000D01*
X103340000Y-154775000D02*
X103340000Y-161410000D01*
X115570000Y-150215000D02*
X113215000Y-147860000D01*
X115570000Y-153035000D02*
X115570000Y-150215000D01*
%TO.N,Net-(D10-Pad2)*%
X108340000Y-153210000D02*
X108340000Y-153210000D01*
X108340000Y-161410000D02*
X108340000Y-153210000D01*
X108340000Y-153210000D02*
X102990000Y-147860000D01*
%TO.N,Net-(D10-Pad1)*%
X119215000Y-133660000D02*
X119215000Y-148155000D01*
X117475000Y-154940000D02*
X121737500Y-150677500D01*
X121737500Y-150677500D02*
X132470000Y-161410000D01*
X119215000Y-148155000D02*
X121737500Y-150677500D01*
%TO.N,Net-(J1-Pad1)*%
X82315000Y-161410000D02*
X68765000Y-147860000D01*
X85560000Y-161410000D02*
X82315000Y-161410000D01*
%TO.N,Net-(J1-Pad2)*%
X74765000Y-149060000D02*
X74765000Y-133660000D01*
X83185000Y-157480000D02*
X74765000Y-149060000D01*
X86630000Y-157480000D02*
X83185000Y-157480000D01*
X90560000Y-161410000D02*
X86630000Y-157480000D01*
D21*
%TO.N,Net-(Q4-Pad1)*%
X72665001Y-103145001D02*
X72390000Y-102870000D01*
X79734999Y-103145001D02*
X72665001Y-103145001D01*
X80010000Y-102870000D02*
X79734999Y-103145001D01*
D22*
%TO.N,Net-(J1-Pad3)*%
X95560000Y-161410000D02*
X95560000Y-157155000D01*
X95560000Y-157155000D02*
X92710000Y-154305000D01*
X80765000Y-147860000D02*
X80765000Y-150615000D01*
X84455000Y-154305000D02*
X92710000Y-154305000D01*
X80765000Y-150615000D02*
X84455000Y-154305000D01*
D21*
%TO.N,/DoorPositionUp*%
X61595000Y-153670000D02*
X58100000Y-157165000D01*
X58100000Y-157165000D02*
X58100000Y-161360000D01*
X61595000Y-125730000D02*
X61595000Y-153670000D01*
X69850000Y-117475000D02*
X61595000Y-125730000D01*
X86995000Y-117475000D02*
X69850000Y-117475000D01*
X88265000Y-116205000D02*
X86995000Y-117475000D01*
X88265000Y-116205000D02*
X88265000Y-113665000D01*
X90861799Y-108528201D02*
X92075000Y-107315000D01*
X90861799Y-111068201D02*
X90861799Y-108528201D01*
X88265000Y-113665000D02*
X90861799Y-111068201D01*
%TO.N,/DoorPositionDown*%
X70485000Y-161410000D02*
X62865000Y-153790000D01*
X62865000Y-153790000D02*
X62865000Y-126365000D01*
X92075000Y-109855000D02*
X92075000Y-111760000D01*
X62865000Y-126365000D02*
X66040000Y-123190000D01*
X89535000Y-115914998D02*
X89535000Y-114300000D01*
X89535000Y-114300000D02*
X92075000Y-111760000D01*
X89535000Y-119380000D02*
X85725000Y-123190000D01*
X89535000Y-119380000D02*
X89535000Y-115914998D01*
X66040000Y-123190000D02*
X85725000Y-123190000D01*
%TO.N,/IndoorLighting*%
X74930000Y-125095000D02*
X75565000Y-124460000D01*
X75565000Y-124460000D02*
X95250000Y-124460000D01*
X95250000Y-124460000D02*
X96520000Y-123190000D01*
X96520000Y-123190000D02*
X112395000Y-123190000D01*
X112395000Y-123190000D02*
X113665000Y-121920000D01*
X113665000Y-121920000D02*
X113665000Y-113030000D01*
X113665000Y-113030000D02*
X113665000Y-112395000D01*
%TO.N,/Motor_Up*%
X114935000Y-121920000D02*
X114935000Y-113665000D01*
X117475000Y-111125000D02*
X117475000Y-109855000D01*
X114935000Y-113665000D02*
X117475000Y-111125000D01*
X113030000Y-123825000D02*
X114935000Y-121920000D01*
X98175000Y-123825000D02*
X113030000Y-123825000D01*
X96712500Y-125287500D02*
X98175000Y-123825000D01*
%TO.N,/Motor_Down*%
X120015000Y-121920000D02*
X120015000Y-114300000D01*
X118688201Y-108528201D02*
X117475000Y-107315000D01*
X118688201Y-112973201D02*
X118688201Y-108528201D01*
X120015000Y-114300000D02*
X118688201Y-112973201D01*
%TO.N,/TFT_reset*%
X83820000Y-100330000D02*
X81915000Y-100330000D01*
X80150000Y-98565000D02*
X80150000Y-97155000D01*
X81915000Y-100330000D02*
X80150000Y-98565000D01*
%TO.N,/TFT_Dimming*%
X120015000Y-104775000D02*
X120015000Y-107315000D01*
X118110000Y-102870000D02*
X120015000Y-104775000D01*
X118110000Y-102870000D02*
X102235000Y-102870000D01*
%TO.N,/SW_DownButton*%
X94615000Y-109855000D02*
X97155000Y-112395000D01*
X97155000Y-112395000D02*
X107950000Y-112395000D01*
%TO.N,/TFT_CS*%
X77500000Y-84140000D02*
X80645000Y-87285000D01*
X80645000Y-87285000D02*
X80645000Y-92075000D01*
X80645000Y-92075000D02*
X80645000Y-92600538D01*
X80645000Y-92600538D02*
X80645000Y-95885000D01*
X80645000Y-95885000D02*
X85725000Y-100965000D01*
X85725000Y-100965000D02*
X110490000Y-100965000D01*
%TO.N,/TFT_DataOrCommand*%
X79375000Y-92075000D02*
X79060000Y-91760000D01*
X79375000Y-99695000D02*
X79375000Y-92075000D01*
X81420001Y-101740001D02*
X79375000Y-99695000D01*
X79060000Y-91760000D02*
X77500000Y-91760000D01*
X113524999Y-101740001D02*
X81420001Y-101740001D01*
X113665000Y-101600000D02*
X113524999Y-101740001D01*
%TO.N,/RTC_SDA*%
X64135000Y-81947549D02*
X64135000Y-73660000D01*
X61595000Y-84487549D02*
X64135000Y-81947549D01*
X61595000Y-109855000D02*
X61595000Y-84487549D01*
X83820000Y-105410000D02*
X85725000Y-103505000D01*
X83820000Y-109220000D02*
X83820000Y-105410000D01*
X82550000Y-110490000D02*
X83820000Y-109220000D01*
X98425000Y-103505000D02*
X99695000Y-104775000D01*
X69850000Y-110490000D02*
X82550000Y-110490000D01*
X68580000Y-111760000D02*
X69850000Y-110490000D01*
X62230000Y-111760000D02*
X68580000Y-111760000D01*
X85725000Y-103505000D02*
X98425000Y-103505000D01*
X61595000Y-111125000D02*
X62230000Y-111760000D01*
X99695000Y-104775000D02*
X99695000Y-107315000D01*
X61595000Y-109855000D02*
X61595000Y-111125000D01*
%TO.N,/RTC_SCL*%
X59055000Y-109855000D02*
X59055000Y-84455000D01*
X59055000Y-84455000D02*
X61595000Y-81915000D01*
X61595000Y-81915000D02*
X61595000Y-73660000D01*
X97155000Y-104775000D02*
X98481799Y-106101799D01*
X85090000Y-109855000D02*
X85090000Y-106045000D01*
X98481799Y-106101799D02*
X98481799Y-108641799D01*
X86360000Y-104775000D02*
X97155000Y-104775000D01*
X71120000Y-111760000D02*
X83185000Y-111760000D01*
X98481799Y-108641799D02*
X99695000Y-109855000D01*
X85090000Y-106045000D02*
X86360000Y-104775000D01*
X69215000Y-113665000D02*
X71120000Y-111760000D01*
X83185000Y-111760000D02*
X85090000Y-109855000D01*
X60960000Y-113665000D02*
X69215000Y-113665000D01*
X59055000Y-111760000D02*
X60960000Y-113665000D01*
X59055000Y-109855000D02*
X59055000Y-111760000D01*
D22*
%TO.N,+3V3*%
X130175000Y-109855000D02*
X130175000Y-107315000D01*
D21*
%TO.N,Net-(D5-Pad2)*%
X102629990Y-132474990D02*
X96520000Y-126365000D01*
X96520000Y-126365000D02*
X93980000Y-126365000D01*
X93980000Y-126365000D02*
X93980000Y-126365000D01*
X86995000Y-133350000D02*
X93980000Y-126365000D01*
X86995000Y-133985000D02*
X86995000Y-133350000D01*
D22*
%TO.N,Net-(U1-PadVIN_1)*%
X137795000Y-109855000D02*
X137795000Y-107315000D01*
D21*
%TO.N,Net-(J6-Pad14)*%
X92075000Y-97155000D02*
X92075000Y-92075000D01*
X92075000Y-92075000D02*
X90805000Y-90805000D01*
X90805000Y-90805000D02*
X84455000Y-90805000D01*
%TO.N,Net-(J6-Pad13)*%
X83185000Y-89535000D02*
X90805000Y-89535000D01*
X95250000Y-93980000D02*
X98425000Y-93980000D01*
X90805000Y-89535000D02*
X95250000Y-93980000D01*
%TO.N,Net-(J6-Pad12)*%
X98425000Y-90805000D02*
X93345000Y-90805000D01*
X93345000Y-90805000D02*
X90805000Y-88265000D01*
X90805000Y-88265000D02*
X81915000Y-88265000D01*
%TO.N,Net-(J6-Pad11)*%
X98425000Y-87630000D02*
X97790000Y-86995000D01*
X82895000Y-86995000D02*
X77500000Y-81600000D01*
X97790000Y-86995000D02*
X82895000Y-86995000D01*
%TD*%
D23*
%TO.N,GND*%
X123677334Y-64282723D02*
X123854499Y-64341778D01*
X124020919Y-64440689D01*
X138584086Y-75363065D01*
X138708198Y-75475535D01*
X138805864Y-75604246D01*
X138878122Y-75748762D01*
X138922492Y-75904121D01*
X138938000Y-76070889D01*
X138938000Y-106374581D01*
X138734110Y-106170691D01*
X138492822Y-106009467D01*
X138224717Y-105898414D01*
X137940098Y-105841800D01*
X137649902Y-105841800D01*
X137365283Y-105898414D01*
X137097178Y-106009467D01*
X136855890Y-106170691D01*
X136650691Y-106375890D01*
X136527711Y-106559943D01*
X136522844Y-106550838D01*
X136274975Y-106474630D01*
X135434605Y-107315000D01*
X136274975Y-108155370D01*
X136522844Y-108079162D01*
X136527399Y-108069592D01*
X136650691Y-108254110D01*
X136660001Y-108263420D01*
X136660000Y-108906581D01*
X136650691Y-108915890D01*
X136527711Y-109099943D01*
X136522844Y-109090838D01*
X136274975Y-109014630D01*
X135434605Y-109855000D01*
X136274975Y-110695370D01*
X136522844Y-110619162D01*
X136527399Y-110609592D01*
X136650691Y-110794110D01*
X136855890Y-110999309D01*
X137097178Y-111160533D01*
X137365283Y-111271586D01*
X137649902Y-111328200D01*
X137940098Y-111328200D01*
X138224717Y-111271586D01*
X138492822Y-111160533D01*
X138734110Y-110999309D01*
X138938000Y-110795419D01*
X138938000Y-119594552D01*
X138920624Y-119770976D01*
X138870978Y-119934637D01*
X138790363Y-120085458D01*
X138677898Y-120222496D01*
X128477496Y-130422898D01*
X128340458Y-130535363D01*
X128189637Y-130615978D01*
X128025976Y-130665624D01*
X127849552Y-130683000D01*
X124208513Y-130683000D01*
X119345900Y-125820388D01*
X119320528Y-125789472D01*
X119197189Y-125688251D01*
X119056473Y-125613037D01*
X118903788Y-125566720D01*
X118784791Y-125555000D01*
X118784788Y-125555000D01*
X118745000Y-125551081D01*
X118705212Y-125555000D01*
X116855700Y-125555000D01*
X116695256Y-125447795D01*
X116506898Y-125369774D01*
X116306939Y-125330000D01*
X116103061Y-125330000D01*
X115903102Y-125369774D01*
X115714744Y-125447795D01*
X115554300Y-125555000D01*
X112434787Y-125555000D01*
X112394999Y-125551081D01*
X112355211Y-125555000D01*
X112355209Y-125555000D01*
X112236212Y-125566720D01*
X112083527Y-125613037D01*
X112018024Y-125648049D01*
X111942810Y-125688251D01*
X111891939Y-125730000D01*
X111819472Y-125789472D01*
X111794107Y-125820380D01*
X108675383Y-128939105D01*
X108644473Y-128964472D01*
X108619108Y-128995380D01*
X108543251Y-129087811D01*
X108468038Y-129228527D01*
X108421721Y-129381213D01*
X108406081Y-129540000D01*
X108410001Y-129579798D01*
X108410001Y-130683000D01*
X101983513Y-130683000D01*
X97382112Y-126081599D01*
X97516437Y-125947274D01*
X97629705Y-125777756D01*
X97707726Y-125589398D01*
X97745371Y-125400141D01*
X98510513Y-124635000D01*
X112990212Y-124635000D01*
X113030000Y-124638919D01*
X113069788Y-124635000D01*
X113069791Y-124635000D01*
X113188788Y-124623280D01*
X113341473Y-124576963D01*
X113482189Y-124501749D01*
X113605528Y-124400528D01*
X113630899Y-124369613D01*
X115479619Y-122520894D01*
X115510528Y-122495528D01*
X115559214Y-122436204D01*
X115611749Y-122372190D01*
X115686962Y-122231474D01*
X115686963Y-122231473D01*
X115733280Y-122078788D01*
X115745000Y-121959791D01*
X115745000Y-121959788D01*
X115748919Y-121920000D01*
X115745000Y-121880212D01*
X115745000Y-121057239D01*
X115957748Y-121269987D01*
X116225537Y-121448918D01*
X116523088Y-121572168D01*
X116838967Y-121635000D01*
X117161033Y-121635000D01*
X117476912Y-121572168D01*
X117774463Y-121448918D01*
X118042252Y-121269987D01*
X118269987Y-121042252D01*
X118448918Y-120774463D01*
X118572168Y-120476912D01*
X118635000Y-120161033D01*
X118635000Y-119838967D01*
X118572168Y-119523088D01*
X118448918Y-119225537D01*
X118269987Y-118957748D01*
X118042252Y-118730013D01*
X117774463Y-118551082D01*
X117476912Y-118427832D01*
X117161033Y-118365000D01*
X116838967Y-118365000D01*
X116523088Y-118427832D01*
X116225537Y-118551082D01*
X115957748Y-118730013D01*
X115745000Y-118942761D01*
X115745000Y-116635413D01*
X116044192Y-116635413D01*
X116139956Y-116899814D01*
X116429571Y-117040704D01*
X116741108Y-117122384D01*
X117062595Y-117141718D01*
X117381675Y-117097961D01*
X117686088Y-116992795D01*
X117860044Y-116899814D01*
X117955808Y-116635413D01*
X117000000Y-115679605D01*
X116044192Y-116635413D01*
X115745000Y-116635413D01*
X115745000Y-116412495D01*
X115864587Y-116455808D01*
X116820395Y-115500000D01*
X117179605Y-115500000D01*
X118135413Y-116455808D01*
X118399814Y-116360044D01*
X118540704Y-116070429D01*
X118622384Y-115758892D01*
X118641718Y-115437405D01*
X118597961Y-115118325D01*
X118492795Y-114813912D01*
X118399814Y-114639956D01*
X118135413Y-114544192D01*
X117179605Y-115500000D01*
X116820395Y-115500000D01*
X115864587Y-114544192D01*
X115745000Y-114587505D01*
X115745000Y-114364587D01*
X116044192Y-114364587D01*
X117000000Y-115320395D01*
X117955808Y-114364587D01*
X117860044Y-114100186D01*
X117570429Y-113959296D01*
X117258892Y-113877616D01*
X116937405Y-113858282D01*
X116618325Y-113902039D01*
X116313912Y-114007205D01*
X116139956Y-114100186D01*
X116044192Y-114364587D01*
X115745000Y-114364587D01*
X115745000Y-114000512D01*
X117878201Y-111867312D01*
X117878201Y-112933413D01*
X117874282Y-112973201D01*
X117878201Y-113012989D01*
X117878201Y-113012991D01*
X117889921Y-113131988D01*
X117936238Y-113284673D01*
X117936239Y-113284674D01*
X118011452Y-113425390D01*
X118042904Y-113463714D01*
X118112673Y-113548729D01*
X118143588Y-113574100D01*
X119205001Y-114635514D01*
X119205000Y-121269300D01*
X119097795Y-121429744D01*
X119019774Y-121618102D01*
X118980000Y-121818061D01*
X118980000Y-122021939D01*
X118986576Y-122055000D01*
X116784248Y-122055000D01*
X116617501Y-122071423D01*
X116403553Y-122136324D01*
X116206377Y-122241716D01*
X116033551Y-122383551D01*
X115891716Y-122556377D01*
X115786324Y-122753553D01*
X115721423Y-122967501D01*
X115699509Y-123190000D01*
X115721423Y-123412499D01*
X115786324Y-123626447D01*
X115891716Y-123823623D01*
X116033551Y-123996449D01*
X116206377Y-124138284D01*
X116403553Y-124243676D01*
X116617501Y-124308577D01*
X116784248Y-124325000D01*
X126420752Y-124325000D01*
X126587499Y-124308577D01*
X126801447Y-124243676D01*
X126998623Y-124138284D01*
X127171449Y-123996449D01*
X127313284Y-123823623D01*
X127418676Y-123626447D01*
X127483577Y-123412499D01*
X127505491Y-123190000D01*
X127483577Y-122967501D01*
X127418676Y-122753553D01*
X127313284Y-122556377D01*
X127171449Y-122383551D01*
X126998623Y-122241716D01*
X126801447Y-122136324D01*
X126587499Y-122071423D01*
X126420752Y-122055000D01*
X121043424Y-122055000D01*
X121050000Y-122021939D01*
X121050000Y-121818061D01*
X121010226Y-121618102D01*
X120932205Y-121429744D01*
X120825000Y-121269300D01*
X120825000Y-119838967D01*
X121865000Y-119838967D01*
X121865000Y-120161033D01*
X121927832Y-120476912D01*
X122051082Y-120774463D01*
X122230013Y-121042252D01*
X122457748Y-121269987D01*
X122725537Y-121448918D01*
X123023088Y-121572168D01*
X123338967Y-121635000D01*
X123661033Y-121635000D01*
X123976912Y-121572168D01*
X124274463Y-121448918D01*
X124542252Y-121269987D01*
X124769987Y-121042252D01*
X124948918Y-120774463D01*
X125072168Y-120476912D01*
X125135000Y-120161033D01*
X125135000Y-119838967D01*
X125072168Y-119523088D01*
X124948918Y-119225537D01*
X124769987Y-118957748D01*
X124542252Y-118730013D01*
X124274463Y-118551082D01*
X123976912Y-118427832D01*
X123661033Y-118365000D01*
X123338967Y-118365000D01*
X123023088Y-118427832D01*
X122725537Y-118551082D01*
X122457748Y-118730013D01*
X122230013Y-118957748D01*
X122051082Y-119225537D01*
X121927832Y-119523088D01*
X121865000Y-119838967D01*
X120825000Y-119838967D01*
X120825000Y-116635413D01*
X122544192Y-116635413D01*
X122639956Y-116899814D01*
X122929571Y-117040704D01*
X123241108Y-117122384D01*
X123562595Y-117141718D01*
X123881675Y-117097961D01*
X124186088Y-116992795D01*
X124360044Y-116899814D01*
X124455808Y-116635413D01*
X123500000Y-115679605D01*
X122544192Y-116635413D01*
X120825000Y-116635413D01*
X120825000Y-115562595D01*
X121858282Y-115562595D01*
X121902039Y-115881675D01*
X122007205Y-116186088D01*
X122100186Y-116360044D01*
X122364587Y-116455808D01*
X123320395Y-115500000D01*
X123679605Y-115500000D01*
X124635413Y-116455808D01*
X124899814Y-116360044D01*
X125040704Y-116070429D01*
X125122384Y-115758892D01*
X125141718Y-115437405D01*
X125097961Y-115118325D01*
X124992795Y-114813912D01*
X124899814Y-114639956D01*
X124635413Y-114544192D01*
X123679605Y-115500000D01*
X123320395Y-115500000D01*
X122364587Y-114544192D01*
X122100186Y-114639956D01*
X121959296Y-114929571D01*
X121877616Y-115241108D01*
X121858282Y-115562595D01*
X120825000Y-115562595D01*
X120825000Y-114364587D01*
X122544192Y-114364587D01*
X123500000Y-115320395D01*
X124455808Y-114364587D01*
X124360044Y-114100186D01*
X124070429Y-113959296D01*
X123758892Y-113877616D01*
X123437405Y-113858282D01*
X123118325Y-113902039D01*
X122813912Y-114007205D01*
X122639956Y-114100186D01*
X122544192Y-114364587D01*
X120825000Y-114364587D01*
X120825000Y-114339787D01*
X120828919Y-114299999D01*
X120825000Y-114260209D01*
X120813280Y-114141212D01*
X120766963Y-113988527D01*
X120731951Y-113923024D01*
X120691749Y-113847810D01*
X120646119Y-113792210D01*
X120590528Y-113724472D01*
X120559618Y-113699105D01*
X119498201Y-112637689D01*
X119498201Y-111235515D01*
X119585283Y-111271586D01*
X119869902Y-111328200D01*
X120160098Y-111328200D01*
X120444717Y-111271586D01*
X120712822Y-111160533D01*
X120954110Y-110999309D01*
X121159309Y-110794110D01*
X121285000Y-110606001D01*
X121410691Y-110794110D01*
X121615890Y-110999309D01*
X121857178Y-111160533D01*
X122125283Y-111271586D01*
X122409902Y-111328200D01*
X122700098Y-111328200D01*
X122984717Y-111271586D01*
X123252822Y-111160533D01*
X123494110Y-110999309D01*
X123699309Y-110794110D01*
X123825000Y-110606001D01*
X123950691Y-110794110D01*
X124155890Y-110999309D01*
X124397178Y-111160533D01*
X124665283Y-111271586D01*
X124949902Y-111328200D01*
X125240098Y-111328200D01*
X125524717Y-111271586D01*
X125792822Y-111160533D01*
X126034110Y-110999309D01*
X126239309Y-110794110D01*
X126365000Y-110606001D01*
X126490691Y-110794110D01*
X126695890Y-110999309D01*
X126937178Y-111160533D01*
X127205283Y-111271586D01*
X127489902Y-111328200D01*
X127780098Y-111328200D01*
X128064717Y-111271586D01*
X128332822Y-111160533D01*
X128574110Y-110999309D01*
X128779309Y-110794110D01*
X128905000Y-110606001D01*
X129030691Y-110794110D01*
X129235890Y-110999309D01*
X129477178Y-111160533D01*
X129745283Y-111271586D01*
X130029902Y-111328200D01*
X130320098Y-111328200D01*
X130604717Y-111271586D01*
X130872822Y-111160533D01*
X131114110Y-110999309D01*
X131319309Y-110794110D01*
X131445000Y-110606001D01*
X131570691Y-110794110D01*
X131775890Y-110999309D01*
X132017178Y-111160533D01*
X132285283Y-111271586D01*
X132569902Y-111328200D01*
X132860098Y-111328200D01*
X133144717Y-111271586D01*
X133412822Y-111160533D01*
X133654110Y-110999309D01*
X133778444Y-110874975D01*
X134414630Y-110874975D01*
X134490838Y-111122844D01*
X134752865Y-111247563D01*
X135034189Y-111318768D01*
X135323999Y-111333719D01*
X135611157Y-111291845D01*
X135884628Y-111194754D01*
X136019162Y-111122844D01*
X136095370Y-110874975D01*
X135255000Y-110034605D01*
X134414630Y-110874975D01*
X133778444Y-110874975D01*
X133859309Y-110794110D01*
X133982289Y-110610057D01*
X133987156Y-110619162D01*
X134235025Y-110695370D01*
X135075395Y-109855000D01*
X134235025Y-109014630D01*
X133987156Y-109090838D01*
X133982601Y-109100408D01*
X133859309Y-108915890D01*
X133850000Y-108906581D01*
X133850000Y-108334975D01*
X134414630Y-108334975D01*
X134490838Y-108582844D01*
X134495105Y-108584875D01*
X134490838Y-108587156D01*
X134414630Y-108835025D01*
X135255000Y-109675395D01*
X136095370Y-108835025D01*
X136019162Y-108587156D01*
X136014895Y-108585125D01*
X136019162Y-108582844D01*
X136095370Y-108334975D01*
X135255000Y-107494605D01*
X134414630Y-108334975D01*
X133850000Y-108334975D01*
X133850000Y-108263419D01*
X133859309Y-108254110D01*
X133982289Y-108070057D01*
X133987156Y-108079162D01*
X134235025Y-108155370D01*
X135075395Y-107315000D01*
X134235025Y-106474630D01*
X133987156Y-106550838D01*
X133982601Y-106560408D01*
X133859309Y-106375890D01*
X133778444Y-106295025D01*
X134414630Y-106295025D01*
X135255000Y-107135395D01*
X136095370Y-106295025D01*
X136019162Y-106047156D01*
X135757135Y-105922437D01*
X135475811Y-105851232D01*
X135186001Y-105836281D01*
X134898843Y-105878155D01*
X134625372Y-105975246D01*
X134490838Y-106047156D01*
X134414630Y-106295025D01*
X133778444Y-106295025D01*
X133654110Y-106170691D01*
X133412822Y-106009467D01*
X133144717Y-105898414D01*
X132860098Y-105841800D01*
X132569902Y-105841800D01*
X132285283Y-105898414D01*
X132017178Y-106009467D01*
X131775890Y-106170691D01*
X131570691Y-106375890D01*
X131445000Y-106563999D01*
X131319309Y-106375890D01*
X131114110Y-106170691D01*
X130872822Y-106009467D01*
X130604717Y-105898414D01*
X130320098Y-105841800D01*
X130029902Y-105841800D01*
X129745283Y-105898414D01*
X129477178Y-106009467D01*
X129235890Y-106170691D01*
X129030691Y-106375890D01*
X128905000Y-106563999D01*
X128779309Y-106375890D01*
X128574110Y-106170691D01*
X128332822Y-106009467D01*
X128064717Y-105898414D01*
X127780098Y-105841800D01*
X127489902Y-105841800D01*
X127205283Y-105898414D01*
X126937178Y-106009467D01*
X126695890Y-106170691D01*
X126490691Y-106375890D01*
X126365000Y-106563999D01*
X126239309Y-106375890D01*
X126034110Y-106170691D01*
X125792822Y-106009467D01*
X125524717Y-105898414D01*
X125240098Y-105841800D01*
X124949902Y-105841800D01*
X124665283Y-105898414D01*
X124397178Y-106009467D01*
X124155890Y-106170691D01*
X123950691Y-106375890D01*
X123825000Y-106563999D01*
X123699309Y-106375890D01*
X123494110Y-106170691D01*
X123252822Y-106009467D01*
X122984717Y-105898414D01*
X122700098Y-105841800D01*
X122409902Y-105841800D01*
X122125283Y-105898414D01*
X121857178Y-106009467D01*
X121615890Y-106170691D01*
X121410691Y-106375890D01*
X121285000Y-106563999D01*
X121159309Y-106375890D01*
X120954110Y-106170691D01*
X120825000Y-106084422D01*
X120825000Y-104814788D01*
X120828919Y-104775000D01*
X120817399Y-104658037D01*
X120813280Y-104616212D01*
X120766963Y-104463527D01*
X120691750Y-104322812D01*
X120691749Y-104322810D01*
X120615893Y-104230380D01*
X120590528Y-104199472D01*
X120559619Y-104174106D01*
X118710899Y-102325387D01*
X118685528Y-102294472D01*
X118562189Y-102193251D01*
X118421473Y-102118037D01*
X118268788Y-102071720D01*
X118149791Y-102060000D01*
X118149788Y-102060000D01*
X118110000Y-102056081D01*
X118070212Y-102060000D01*
X114594738Y-102060000D01*
X114660226Y-101901898D01*
X114700000Y-101701939D01*
X114700000Y-101498061D01*
X114660226Y-101298102D01*
X114582205Y-101109744D01*
X114468937Y-100940226D01*
X114324774Y-100796063D01*
X114155256Y-100682795D01*
X113966898Y-100604774D01*
X113766939Y-100565000D01*
X113563061Y-100565000D01*
X113363102Y-100604774D01*
X113174744Y-100682795D01*
X113005226Y-100796063D01*
X112871288Y-100930001D01*
X111525000Y-100930001D01*
X111525000Y-100863061D01*
X111485226Y-100663102D01*
X111407205Y-100474744D01*
X111293937Y-100305226D01*
X111149774Y-100161063D01*
X110980256Y-100047795D01*
X110791898Y-99969774D01*
X110591939Y-99930000D01*
X110388061Y-99930000D01*
X110188102Y-99969774D01*
X109999744Y-100047795D01*
X109839300Y-100155000D01*
X86060513Y-100155000D01*
X81455000Y-95549488D01*
X81455000Y-89194738D01*
X81613102Y-89260226D01*
X81813061Y-89300000D01*
X82016939Y-89300000D01*
X82183039Y-89266961D01*
X82150000Y-89433061D01*
X82150000Y-89636939D01*
X82189774Y-89836898D01*
X82267795Y-90025256D01*
X82381063Y-90194774D01*
X82525226Y-90338937D01*
X82694744Y-90452205D01*
X82883102Y-90530226D01*
X83083061Y-90570000D01*
X83286939Y-90570000D01*
X83453039Y-90536961D01*
X83420000Y-90703061D01*
X83420000Y-90906939D01*
X83459774Y-91106898D01*
X83537795Y-91295256D01*
X83651063Y-91464774D01*
X83795226Y-91608937D01*
X83964744Y-91722205D01*
X84153102Y-91800226D01*
X84353061Y-91840000D01*
X84556939Y-91840000D01*
X84756898Y-91800226D01*
X84923109Y-91731379D01*
X84545383Y-92109105D01*
X84514473Y-92134472D01*
X84489108Y-92165380D01*
X84413251Y-92257811D01*
X84344481Y-92386473D01*
X84338038Y-92398527D01*
X84299009Y-92527189D01*
X84291721Y-92551213D01*
X84276081Y-92710000D01*
X84280001Y-92749798D01*
X84280000Y-96504300D01*
X84172795Y-96664744D01*
X84094774Y-96853102D01*
X84055000Y-97053061D01*
X84055000Y-97256939D01*
X84094774Y-97456898D01*
X84172795Y-97645256D01*
X84286063Y-97814774D01*
X84430226Y-97958937D01*
X84599744Y-98072205D01*
X84788102Y-98150226D01*
X84988061Y-98190000D01*
X85191939Y-98190000D01*
X85267475Y-98174975D01*
X86154630Y-98174975D01*
X86230838Y-98422844D01*
X86492865Y-98547563D01*
X86774189Y-98618768D01*
X87063999Y-98633719D01*
X87351157Y-98591845D01*
X87624628Y-98494754D01*
X87759162Y-98422844D01*
X87835370Y-98174975D01*
X86995000Y-97334605D01*
X86154630Y-98174975D01*
X85267475Y-98174975D01*
X85391898Y-98150226D01*
X85580256Y-98072205D01*
X85749774Y-97958937D01*
X85774877Y-97933834D01*
X85975025Y-97995370D01*
X86815395Y-97155000D01*
X85975025Y-96314630D01*
X85900000Y-96337697D01*
X85900000Y-95603419D01*
X86055890Y-95759309D01*
X86239943Y-95882289D01*
X86230838Y-95887156D01*
X86154630Y-96135025D01*
X86995000Y-96975395D01*
X87835370Y-96135025D01*
X87759162Y-95887156D01*
X87749592Y-95882601D01*
X87934110Y-95759309D01*
X88139309Y-95554110D01*
X88265000Y-95366001D01*
X88390691Y-95554110D01*
X88595890Y-95759309D01*
X88783999Y-95885000D01*
X88595890Y-96010691D01*
X88390691Y-96215890D01*
X88267711Y-96399943D01*
X88262844Y-96390838D01*
X88014975Y-96314630D01*
X87174605Y-97155000D01*
X88014975Y-97995370D01*
X88262844Y-97919162D01*
X88267399Y-97909592D01*
X88390691Y-98094110D01*
X88595890Y-98299309D01*
X88837178Y-98460533D01*
X89105283Y-98571586D01*
X89389902Y-98628200D01*
X89680098Y-98628200D01*
X89964717Y-98571586D01*
X90232822Y-98460533D01*
X90474110Y-98299309D01*
X90679309Y-98094110D01*
X90840533Y-97852822D01*
X90951586Y-97584717D01*
X91008200Y-97300098D01*
X91008200Y-97009902D01*
X90951586Y-96725283D01*
X90840533Y-96457178D01*
X90679309Y-96215890D01*
X90474110Y-96010691D01*
X90286001Y-95885000D01*
X90474110Y-95759309D01*
X90679309Y-95554110D01*
X90840533Y-95312822D01*
X90951586Y-95044717D01*
X91008200Y-94760098D01*
X91008200Y-94469902D01*
X90951586Y-94185283D01*
X90840533Y-93917178D01*
X90679309Y-93675890D01*
X90474110Y-93470691D01*
X90286001Y-93345000D01*
X90474110Y-93219309D01*
X90679309Y-93014110D01*
X90840533Y-92772822D01*
X90951586Y-92504717D01*
X91008200Y-92220098D01*
X91008200Y-92153713D01*
X91265001Y-92410514D01*
X91265000Y-96504300D01*
X91157795Y-96664744D01*
X91079774Y-96853102D01*
X91040000Y-97053061D01*
X91040000Y-97256939D01*
X91079774Y-97456898D01*
X91157795Y-97645256D01*
X91271063Y-97814774D01*
X91415226Y-97958937D01*
X91584744Y-98072205D01*
X91773102Y-98150226D01*
X91973061Y-98190000D01*
X92176939Y-98190000D01*
X92376898Y-98150226D01*
X92565256Y-98072205D01*
X92734774Y-97958937D01*
X92878937Y-97814774D01*
X92992205Y-97645256D01*
X93070226Y-97456898D01*
X93110000Y-97256939D01*
X93110000Y-97053061D01*
X93070226Y-96853102D01*
X92992205Y-96664744D01*
X92885000Y-96504300D01*
X92885000Y-92760513D01*
X94649105Y-94524618D01*
X94674472Y-94555528D01*
X94742210Y-94611119D01*
X94797810Y-94656749D01*
X94873024Y-94696951D01*
X94938527Y-94731963D01*
X95091212Y-94778280D01*
X95210209Y-94790000D01*
X95210211Y-94790000D01*
X95249999Y-94793919D01*
X95289787Y-94790000D01*
X97774300Y-94790000D01*
X97934744Y-94897205D01*
X98123102Y-94975226D01*
X98323061Y-95015000D01*
X98526939Y-95015000D01*
X98726898Y-94975226D01*
X98915256Y-94897205D01*
X99084774Y-94783937D01*
X99228937Y-94639774D01*
X99342205Y-94470256D01*
X99420226Y-94281898D01*
X99460000Y-94081939D01*
X99460000Y-93878061D01*
X99420226Y-93678102D01*
X99342205Y-93489744D01*
X99228937Y-93320226D01*
X99084774Y-93176063D01*
X98915256Y-93062795D01*
X98726898Y-92984774D01*
X98526939Y-92945000D01*
X98323061Y-92945000D01*
X98123102Y-92984774D01*
X97934744Y-93062795D01*
X97774300Y-93170000D01*
X95585513Y-93170000D01*
X94030513Y-91615000D01*
X97774300Y-91615000D01*
X97934744Y-91722205D01*
X98123102Y-91800226D01*
X98323061Y-91840000D01*
X98526939Y-91840000D01*
X98726898Y-91800226D01*
X98915256Y-91722205D01*
X99084774Y-91608937D01*
X99228937Y-91464774D01*
X99342205Y-91295256D01*
X99420226Y-91106898D01*
X99460000Y-90906939D01*
X99460000Y-90703061D01*
X99420226Y-90503102D01*
X99342205Y-90314744D01*
X99228937Y-90145226D01*
X99084774Y-90001063D01*
X98915256Y-89887795D01*
X98726898Y-89809774D01*
X98526939Y-89770000D01*
X98323061Y-89770000D01*
X98123102Y-89809774D01*
X97934744Y-89887795D01*
X97774300Y-89995000D01*
X93680513Y-89995000D01*
X91490512Y-87805000D01*
X97404533Y-87805000D01*
X97429774Y-87931898D01*
X97507795Y-88120256D01*
X97621063Y-88289774D01*
X97765226Y-88433937D01*
X97934744Y-88547205D01*
X98123102Y-88625226D01*
X98323061Y-88665000D01*
X98526939Y-88665000D01*
X98726898Y-88625226D01*
X98915256Y-88547205D01*
X99084774Y-88433937D01*
X99228937Y-88289774D01*
X99342205Y-88120256D01*
X99420226Y-87931898D01*
X99460000Y-87731939D01*
X99460000Y-87528061D01*
X99420226Y-87328102D01*
X99342205Y-87139744D01*
X99228937Y-86970226D01*
X99084774Y-86826063D01*
X98915256Y-86712795D01*
X98726898Y-86634774D01*
X98537641Y-86597129D01*
X98390899Y-86450387D01*
X98365528Y-86419472D01*
X98242189Y-86318251D01*
X98101473Y-86243037D01*
X97948788Y-86196720D01*
X97829791Y-86185000D01*
X97829788Y-86185000D01*
X97790000Y-86181081D01*
X97750212Y-86185000D01*
X83230513Y-86185000D01*
X78952941Y-81907429D01*
X78985000Y-81746260D01*
X78985000Y-81453740D01*
X78927932Y-81166842D01*
X78815990Y-80896589D01*
X78653475Y-80653368D01*
X78446632Y-80446525D01*
X78272240Y-80330000D01*
X78446632Y-80213475D01*
X78653475Y-80006632D01*
X78815990Y-79763411D01*
X78927932Y-79493158D01*
X78985000Y-79206260D01*
X78985000Y-78913740D01*
X78927932Y-78626842D01*
X78815990Y-78356589D01*
X78653475Y-78113368D01*
X78446632Y-77906525D01*
X78272240Y-77790000D01*
X78446632Y-77673475D01*
X78653475Y-77466632D01*
X78815990Y-77223411D01*
X78927932Y-76953158D01*
X78985000Y-76666260D01*
X78985000Y-76373740D01*
X78927932Y-76086842D01*
X78815990Y-75816589D01*
X78653475Y-75573368D01*
X78446632Y-75366525D01*
X78272240Y-75250000D01*
X78446632Y-75133475D01*
X78653475Y-74926632D01*
X78815990Y-74683411D01*
X78927932Y-74413158D01*
X78980297Y-74149902D01*
X85521800Y-74149902D01*
X85521800Y-74440098D01*
X85578414Y-74724717D01*
X85689467Y-74992822D01*
X85850691Y-75234110D01*
X86055890Y-75439309D01*
X86243999Y-75565000D01*
X86055890Y-75690691D01*
X85850691Y-75895890D01*
X85689467Y-76137178D01*
X85578414Y-76405283D01*
X85521800Y-76689902D01*
X85521800Y-76980098D01*
X85578414Y-77264717D01*
X85689467Y-77532822D01*
X85850691Y-77774110D01*
X86055890Y-77979309D01*
X86243999Y-78105000D01*
X86055890Y-78230691D01*
X85850691Y-78435890D01*
X85689467Y-78677178D01*
X85578414Y-78945283D01*
X85521800Y-79229902D01*
X85521800Y-79520098D01*
X85578414Y-79804717D01*
X85689467Y-80072822D01*
X85850691Y-80314110D01*
X86055890Y-80519309D01*
X86243999Y-80645000D01*
X86055890Y-80770691D01*
X85850691Y-80975890D01*
X85689467Y-81217178D01*
X85578414Y-81485283D01*
X85521800Y-81769902D01*
X85521800Y-82060098D01*
X85578414Y-82344717D01*
X85689467Y-82612822D01*
X85850691Y-82854110D01*
X86055890Y-83059309D01*
X86243999Y-83185000D01*
X86055890Y-83310691D01*
X85850691Y-83515890D01*
X85689467Y-83757178D01*
X85578414Y-84025283D01*
X85521800Y-84309902D01*
X85521800Y-84600098D01*
X85578414Y-84884717D01*
X85689467Y-85152822D01*
X85850691Y-85394110D01*
X86055890Y-85599309D01*
X86297178Y-85760533D01*
X86565283Y-85871586D01*
X86849902Y-85928200D01*
X87140098Y-85928200D01*
X87424717Y-85871586D01*
X87692822Y-85760533D01*
X87934110Y-85599309D01*
X88139309Y-85394110D01*
X88265000Y-85206001D01*
X88390691Y-85394110D01*
X88595890Y-85599309D01*
X88837178Y-85760533D01*
X89105283Y-85871586D01*
X89389902Y-85928200D01*
X89680098Y-85928200D01*
X89964717Y-85871586D01*
X90232822Y-85760533D01*
X90474110Y-85599309D01*
X90679309Y-85394110D01*
X90840533Y-85152822D01*
X90951586Y-84884717D01*
X91008200Y-84600098D01*
X91008200Y-84309902D01*
X90951586Y-84025283D01*
X90840533Y-83757178D01*
X90679309Y-83515890D01*
X90474110Y-83310691D01*
X90286001Y-83185000D01*
X90474110Y-83059309D01*
X90679309Y-82854110D01*
X90840533Y-82612822D01*
X90951586Y-82344717D01*
X91008200Y-82060098D01*
X91008200Y-81769902D01*
X90951586Y-81485283D01*
X90840533Y-81217178D01*
X90679309Y-80975890D01*
X90474110Y-80770691D01*
X90286001Y-80645000D01*
X90474110Y-80519309D01*
X90679309Y-80314110D01*
X90840533Y-80072822D01*
X90951586Y-79804717D01*
X91008200Y-79520098D01*
X91008200Y-79229902D01*
X90951586Y-78945283D01*
X90840533Y-78677178D01*
X90679309Y-78435890D01*
X90474110Y-78230691D01*
X90286001Y-78105000D01*
X90474110Y-77979309D01*
X90679309Y-77774110D01*
X90805000Y-77586001D01*
X90930691Y-77774110D01*
X91135890Y-77979309D01*
X91377178Y-78140533D01*
X91645283Y-78251586D01*
X91929902Y-78308200D01*
X92220098Y-78308200D01*
X92504717Y-78251586D01*
X92772822Y-78140533D01*
X93014110Y-77979309D01*
X93219309Y-77774110D01*
X93345000Y-77586001D01*
X93470691Y-77774110D01*
X93675890Y-77979309D01*
X93917178Y-78140533D01*
X94185283Y-78251586D01*
X94469902Y-78308200D01*
X94760098Y-78308200D01*
X95044717Y-78251586D01*
X95312822Y-78140533D01*
X95554110Y-77979309D01*
X95759309Y-77774110D01*
X95885000Y-77586001D01*
X96010691Y-77774110D01*
X96215890Y-77979309D01*
X96457178Y-78140533D01*
X96725283Y-78251586D01*
X97009902Y-78308200D01*
X97300098Y-78308200D01*
X97584717Y-78251586D01*
X97852822Y-78140533D01*
X98094110Y-77979309D01*
X98299309Y-77774110D01*
X98425000Y-77586001D01*
X98550691Y-77774110D01*
X98755890Y-77979309D01*
X98997178Y-78140533D01*
X99265283Y-78251586D01*
X99549902Y-78308200D01*
X99840098Y-78308200D01*
X100124717Y-78251586D01*
X100392822Y-78140533D01*
X100634110Y-77979309D01*
X100839309Y-77774110D01*
X100965000Y-77586001D01*
X101090691Y-77774110D01*
X101295890Y-77979309D01*
X101537178Y-78140533D01*
X101805283Y-78251586D01*
X102089902Y-78308200D01*
X102380098Y-78308200D01*
X102664717Y-78251586D01*
X102932822Y-78140533D01*
X103174110Y-77979309D01*
X103379309Y-77774110D01*
X103505000Y-77586001D01*
X103630691Y-77774110D01*
X103835890Y-77979309D01*
X104077178Y-78140533D01*
X104345283Y-78251586D01*
X104629902Y-78308200D01*
X104920098Y-78308200D01*
X105204717Y-78251586D01*
X105472822Y-78140533D01*
X105714110Y-77979309D01*
X105919309Y-77774110D01*
X106045000Y-77586001D01*
X106170691Y-77774110D01*
X106375890Y-77979309D01*
X106617178Y-78140533D01*
X106885283Y-78251586D01*
X107169902Y-78308200D01*
X107460098Y-78308200D01*
X107744717Y-78251586D01*
X108012822Y-78140533D01*
X108254110Y-77979309D01*
X108459309Y-77774110D01*
X108585000Y-77586001D01*
X108710691Y-77774110D01*
X108915890Y-77979309D01*
X109157178Y-78140533D01*
X109425283Y-78251586D01*
X109709902Y-78308200D01*
X110000098Y-78308200D01*
X110284717Y-78251586D01*
X110552822Y-78140533D01*
X110794110Y-77979309D01*
X110999309Y-77774110D01*
X111125000Y-77586001D01*
X111250691Y-77774110D01*
X111455890Y-77979309D01*
X111697178Y-78140533D01*
X111965283Y-78251586D01*
X112249902Y-78308200D01*
X112540098Y-78308200D01*
X112824717Y-78251586D01*
X113092822Y-78140533D01*
X113334110Y-77979309D01*
X113539309Y-77774110D01*
X113665000Y-77586001D01*
X113790691Y-77774110D01*
X113995890Y-77979309D01*
X114237178Y-78140533D01*
X114505283Y-78251586D01*
X114789902Y-78308200D01*
X115080098Y-78308200D01*
X115364717Y-78251586D01*
X115632822Y-78140533D01*
X115874110Y-77979309D01*
X116079309Y-77774110D01*
X116205000Y-77586001D01*
X116330691Y-77774110D01*
X116535890Y-77979309D01*
X116777178Y-78140533D01*
X117045283Y-78251586D01*
X117329902Y-78308200D01*
X117620098Y-78308200D01*
X117904717Y-78251586D01*
X118172822Y-78140533D01*
X118414110Y-77979309D01*
X118619309Y-77774110D01*
X118745000Y-77586001D01*
X118870691Y-77774110D01*
X119075890Y-77979309D01*
X119317178Y-78140533D01*
X119585283Y-78251586D01*
X119869902Y-78308200D01*
X120160098Y-78308200D01*
X120444717Y-78251586D01*
X120712822Y-78140533D01*
X120954110Y-77979309D01*
X121159309Y-77774110D01*
X121285000Y-77586001D01*
X121410691Y-77774110D01*
X121615890Y-77979309D01*
X121857178Y-78140533D01*
X122125283Y-78251586D01*
X122409902Y-78308200D01*
X122700098Y-78308200D01*
X122984717Y-78251586D01*
X123252822Y-78140533D01*
X123494110Y-77979309D01*
X123699309Y-77774110D01*
X123825000Y-77586001D01*
X123950691Y-77774110D01*
X124155890Y-77979309D01*
X124397178Y-78140533D01*
X124665283Y-78251586D01*
X124949902Y-78308200D01*
X125240098Y-78308200D01*
X125524717Y-78251586D01*
X125792822Y-78140533D01*
X126034110Y-77979309D01*
X126239309Y-77774110D01*
X126400533Y-77532822D01*
X126511586Y-77264717D01*
X126568200Y-76980098D01*
X126568200Y-76689902D01*
X126511586Y-76405283D01*
X126400533Y-76137178D01*
X126239309Y-75895890D01*
X126034110Y-75690691D01*
X125846001Y-75565000D01*
X126034110Y-75439309D01*
X126239309Y-75234110D01*
X126400533Y-74992822D01*
X126511586Y-74724717D01*
X126568200Y-74440098D01*
X126568200Y-74149902D01*
X126511586Y-73865283D01*
X126400533Y-73597178D01*
X126239309Y-73355890D01*
X126034110Y-73150691D01*
X125792822Y-72989467D01*
X125524717Y-72878414D01*
X125240098Y-72821800D01*
X124949902Y-72821800D01*
X124665283Y-72878414D01*
X124397178Y-72989467D01*
X124155890Y-73150691D01*
X123950691Y-73355890D01*
X123825000Y-73543999D01*
X123699309Y-73355890D01*
X123494110Y-73150691D01*
X123252822Y-72989467D01*
X122984717Y-72878414D01*
X122700098Y-72821800D01*
X122409902Y-72821800D01*
X122125283Y-72878414D01*
X121857178Y-72989467D01*
X121615890Y-73150691D01*
X121410691Y-73355890D01*
X121285000Y-73543999D01*
X121159309Y-73355890D01*
X120954110Y-73150691D01*
X120712822Y-72989467D01*
X120444717Y-72878414D01*
X120160098Y-72821800D01*
X119869902Y-72821800D01*
X119585283Y-72878414D01*
X119317178Y-72989467D01*
X119075890Y-73150691D01*
X118870691Y-73355890D01*
X118745000Y-73543999D01*
X118619309Y-73355890D01*
X118414110Y-73150691D01*
X118172822Y-72989467D01*
X117904717Y-72878414D01*
X117620098Y-72821800D01*
X117329902Y-72821800D01*
X117045283Y-72878414D01*
X116777178Y-72989467D01*
X116535890Y-73150691D01*
X116330691Y-73355890D01*
X116205000Y-73543999D01*
X116079309Y-73355890D01*
X115874110Y-73150691D01*
X115632822Y-72989467D01*
X115364717Y-72878414D01*
X115080098Y-72821800D01*
X114789902Y-72821800D01*
X114505283Y-72878414D01*
X114237178Y-72989467D01*
X113995890Y-73150691D01*
X113790691Y-73355890D01*
X113665000Y-73543999D01*
X113539309Y-73355890D01*
X113334110Y-73150691D01*
X113092822Y-72989467D01*
X112824717Y-72878414D01*
X112540098Y-72821800D01*
X112249902Y-72821800D01*
X111965283Y-72878414D01*
X111697178Y-72989467D01*
X111455890Y-73150691D01*
X111250691Y-73355890D01*
X111125000Y-73543999D01*
X110999309Y-73355890D01*
X110794110Y-73150691D01*
X110552822Y-72989467D01*
X110284717Y-72878414D01*
X110000098Y-72821800D01*
X109709902Y-72821800D01*
X109425283Y-72878414D01*
X109157178Y-72989467D01*
X108915890Y-73150691D01*
X108710691Y-73355890D01*
X108585000Y-73543999D01*
X108459309Y-73355890D01*
X108254110Y-73150691D01*
X108012822Y-72989467D01*
X107744717Y-72878414D01*
X107460098Y-72821800D01*
X107169902Y-72821800D01*
X106885283Y-72878414D01*
X106617178Y-72989467D01*
X106375890Y-73150691D01*
X106170691Y-73355890D01*
X106045000Y-73543999D01*
X105919309Y-73355890D01*
X105714110Y-73150691D01*
X105472822Y-72989467D01*
X105204717Y-72878414D01*
X104920098Y-72821800D01*
X104629902Y-72821800D01*
X104345283Y-72878414D01*
X104077178Y-72989467D01*
X103835890Y-73150691D01*
X103630691Y-73355890D01*
X103505000Y-73543999D01*
X103379309Y-73355890D01*
X103174110Y-73150691D01*
X102932822Y-72989467D01*
X102664717Y-72878414D01*
X102380098Y-72821800D01*
X102089902Y-72821800D01*
X101805283Y-72878414D01*
X101537178Y-72989467D01*
X101295890Y-73150691D01*
X101090691Y-73355890D01*
X100965000Y-73543999D01*
X100839309Y-73355890D01*
X100634110Y-73150691D01*
X100392822Y-72989467D01*
X100124717Y-72878414D01*
X99840098Y-72821800D01*
X99549902Y-72821800D01*
X99265283Y-72878414D01*
X98997178Y-72989467D01*
X98755890Y-73150691D01*
X98550691Y-73355890D01*
X98425000Y-73543999D01*
X98299309Y-73355890D01*
X98094110Y-73150691D01*
X97852822Y-72989467D01*
X97584717Y-72878414D01*
X97300098Y-72821800D01*
X97009902Y-72821800D01*
X96725283Y-72878414D01*
X96457178Y-72989467D01*
X96215890Y-73150691D01*
X96010691Y-73355890D01*
X95885000Y-73543999D01*
X95759309Y-73355890D01*
X95554110Y-73150691D01*
X95312822Y-72989467D01*
X95044717Y-72878414D01*
X94760098Y-72821800D01*
X94469902Y-72821800D01*
X94185283Y-72878414D01*
X93917178Y-72989467D01*
X93675890Y-73150691D01*
X93470691Y-73355890D01*
X93345000Y-73543999D01*
X93219309Y-73355890D01*
X93014110Y-73150691D01*
X92772822Y-72989467D01*
X92504717Y-72878414D01*
X92220098Y-72821800D01*
X91929902Y-72821800D01*
X91645283Y-72878414D01*
X91377178Y-72989467D01*
X91135890Y-73150691D01*
X90930691Y-73355890D01*
X90805000Y-73543999D01*
X90679309Y-73355890D01*
X90474110Y-73150691D01*
X90232822Y-72989467D01*
X89964717Y-72878414D01*
X89680098Y-72821800D01*
X89389902Y-72821800D01*
X89105283Y-72878414D01*
X88837178Y-72989467D01*
X88595890Y-73150691D01*
X88390691Y-73355890D01*
X88265000Y-73543999D01*
X88139309Y-73355890D01*
X87934110Y-73150691D01*
X87692822Y-72989467D01*
X87424717Y-72878414D01*
X87140098Y-72821800D01*
X86849902Y-72821800D01*
X86565283Y-72878414D01*
X86297178Y-72989467D01*
X86055890Y-73150691D01*
X85850691Y-73355890D01*
X85689467Y-73597178D01*
X85578414Y-73865283D01*
X85521800Y-74149902D01*
X78980297Y-74149902D01*
X78985000Y-74126260D01*
X78985000Y-73833740D01*
X78927932Y-73546842D01*
X78815990Y-73276589D01*
X78653475Y-73033368D01*
X78446632Y-72826525D01*
X78272240Y-72710000D01*
X78446632Y-72593475D01*
X78653475Y-72386632D01*
X78815990Y-72143411D01*
X78927932Y-71873158D01*
X78985000Y-71586260D01*
X78985000Y-71293740D01*
X78927932Y-71006842D01*
X78815990Y-70736589D01*
X78653475Y-70493368D01*
X78446632Y-70286525D01*
X78264466Y-70164805D01*
X78381355Y-70095178D01*
X78597588Y-69900269D01*
X78771641Y-69666920D01*
X78892930Y-69412276D01*
X79139017Y-69658363D01*
X79488698Y-69892012D01*
X79877244Y-70052953D01*
X80289721Y-70135000D01*
X80710279Y-70135000D01*
X81122756Y-70052953D01*
X81511302Y-69892012D01*
X81860983Y-69658363D01*
X82158363Y-69360983D01*
X82392012Y-69011302D01*
X82552953Y-68622756D01*
X82635000Y-68210279D01*
X82635000Y-67789721D01*
X119365000Y-67789721D01*
X119365000Y-68210279D01*
X119447047Y-68622756D01*
X119607988Y-69011302D01*
X119841637Y-69360983D01*
X120139017Y-69658363D01*
X120488698Y-69892012D01*
X120877244Y-70052953D01*
X121289721Y-70135000D01*
X121710279Y-70135000D01*
X122122756Y-70052953D01*
X122511302Y-69892012D01*
X122860983Y-69658363D01*
X123158363Y-69360983D01*
X123392012Y-69011302D01*
X123552953Y-68622756D01*
X123635000Y-68210279D01*
X123635000Y-67789721D01*
X123552953Y-67377244D01*
X123392012Y-66988698D01*
X123158363Y-66639017D01*
X122860983Y-66341637D01*
X122511302Y-66107988D01*
X122122756Y-65947047D01*
X121710279Y-65865000D01*
X121289721Y-65865000D01*
X120877244Y-65947047D01*
X120488698Y-66107988D01*
X120139017Y-66341637D01*
X119841637Y-66639017D01*
X119607988Y-66988698D01*
X119447047Y-67377244D01*
X119365000Y-67789721D01*
X82635000Y-67789721D01*
X82552953Y-67377244D01*
X82392012Y-66988698D01*
X82158363Y-66639017D01*
X81860983Y-66341637D01*
X81511302Y-66107988D01*
X81122756Y-65947047D01*
X80710279Y-65865000D01*
X80289721Y-65865000D01*
X79877244Y-65947047D01*
X79488698Y-66107988D01*
X79139017Y-66341637D01*
X78841637Y-66639017D01*
X78607988Y-66988698D01*
X78447047Y-67377244D01*
X78381807Y-67705229D01*
X78381355Y-67704822D01*
X78131252Y-67555843D01*
X77856891Y-67458519D01*
X77627000Y-67579186D01*
X77627000Y-68773000D01*
X77647000Y-68773000D01*
X77647000Y-69027000D01*
X77627000Y-69027000D01*
X77627000Y-69047000D01*
X77373000Y-69047000D01*
X77373000Y-69027000D01*
X76179845Y-69027000D01*
X76058524Y-69256890D01*
X76103175Y-69404099D01*
X76228359Y-69666920D01*
X76402412Y-69900269D01*
X76618645Y-70095178D01*
X76735534Y-70164805D01*
X76553368Y-70286525D01*
X76346525Y-70493368D01*
X76184010Y-70736589D01*
X76072068Y-71006842D01*
X76015000Y-71293740D01*
X76015000Y-71586260D01*
X76072068Y-71873158D01*
X76184010Y-72143411D01*
X76346525Y-72386632D01*
X76553368Y-72593475D01*
X76727760Y-72710000D01*
X76553368Y-72826525D01*
X76346525Y-73033368D01*
X76184010Y-73276589D01*
X76072068Y-73546842D01*
X76015000Y-73833740D01*
X76015000Y-74126260D01*
X76072068Y-74413158D01*
X76184010Y-74683411D01*
X76346525Y-74926632D01*
X76553368Y-75133475D01*
X76727760Y-75250000D01*
X76553368Y-75366525D01*
X76346525Y-75573368D01*
X76184010Y-75816589D01*
X76072068Y-76086842D01*
X76015000Y-76373740D01*
X76015000Y-76666260D01*
X76072068Y-76953158D01*
X76184010Y-77223411D01*
X76346525Y-77466632D01*
X76553368Y-77673475D01*
X76727760Y-77790000D01*
X76553368Y-77906525D01*
X76346525Y-78113368D01*
X76184010Y-78356589D01*
X76072068Y-78626842D01*
X76015000Y-78913740D01*
X76015000Y-79206260D01*
X76072068Y-79493158D01*
X76184010Y-79763411D01*
X76346525Y-80006632D01*
X76553368Y-80213475D01*
X76727760Y-80330000D01*
X76553368Y-80446525D01*
X76346525Y-80653368D01*
X76184010Y-80896589D01*
X76072068Y-81166842D01*
X76015000Y-81453740D01*
X76015000Y-81746260D01*
X76072068Y-82033158D01*
X76184010Y-82303411D01*
X76346525Y-82546632D01*
X76553368Y-82753475D01*
X76727760Y-82870000D01*
X76553368Y-82986525D01*
X76346525Y-83193368D01*
X76184010Y-83436589D01*
X76072068Y-83706842D01*
X76015000Y-83993740D01*
X76015000Y-84286260D01*
X76072068Y-84573158D01*
X76184010Y-84843411D01*
X76346525Y-85086632D01*
X76553368Y-85293475D01*
X76727760Y-85410000D01*
X76553368Y-85526525D01*
X76346525Y-85733368D01*
X76184010Y-85976589D01*
X76072068Y-86246842D01*
X76015000Y-86533740D01*
X76015000Y-86826260D01*
X76072068Y-87113158D01*
X76184010Y-87383411D01*
X76346525Y-87626632D01*
X76553368Y-87833475D01*
X76727760Y-87950000D01*
X76553368Y-88066525D01*
X76346525Y-88273368D01*
X76184010Y-88516589D01*
X76072068Y-88786842D01*
X76015000Y-89073740D01*
X76015000Y-89366260D01*
X76072068Y-89653158D01*
X76184010Y-89923411D01*
X76346525Y-90166632D01*
X76553368Y-90373475D01*
X76727760Y-90490000D01*
X76553368Y-90606525D01*
X76346525Y-90813368D01*
X76184010Y-91056589D01*
X76072068Y-91326842D01*
X76015000Y-91613740D01*
X76015000Y-91906260D01*
X76072068Y-92193158D01*
X76184010Y-92463411D01*
X76346525Y-92706632D01*
X76553368Y-92913475D01*
X76727760Y-93030000D01*
X76553368Y-93146525D01*
X76346525Y-93353368D01*
X76184010Y-93596589D01*
X76072068Y-93866842D01*
X76015000Y-94153740D01*
X76015000Y-94446260D01*
X76072068Y-94733158D01*
X76184010Y-95003411D01*
X76346525Y-95246632D01*
X76553368Y-95453475D01*
X76727760Y-95570000D01*
X76553368Y-95686525D01*
X76346525Y-95893368D01*
X76184010Y-96136589D01*
X76072068Y-96406842D01*
X76015000Y-96693740D01*
X76015000Y-96986260D01*
X76072068Y-97273158D01*
X76184010Y-97543411D01*
X76346525Y-97786632D01*
X76553368Y-97993475D01*
X76727760Y-98110000D01*
X76553368Y-98226525D01*
X76346525Y-98433368D01*
X76184010Y-98676589D01*
X76072068Y-98946842D01*
X76015000Y-99233740D01*
X76015000Y-99526260D01*
X76072068Y-99813158D01*
X76184010Y-100083411D01*
X76346525Y-100326632D01*
X76553368Y-100533475D01*
X76727760Y-100650000D01*
X76553368Y-100766525D01*
X76346525Y-100973368D01*
X76184010Y-101216589D01*
X76072068Y-101486842D01*
X76015000Y-101773740D01*
X76015000Y-102066260D01*
X76068456Y-102335001D01*
X73277309Y-102335001D01*
X73193937Y-102210226D01*
X73049774Y-102066063D01*
X72880256Y-101952795D01*
X72691898Y-101874774D01*
X72491939Y-101835000D01*
X72288061Y-101835000D01*
X72088102Y-101874774D01*
X71899744Y-101952795D01*
X71730226Y-102066063D01*
X71586063Y-102210226D01*
X71472795Y-102379744D01*
X71394774Y-102568102D01*
X71355000Y-102768061D01*
X71355000Y-102971939D01*
X71394774Y-103171898D01*
X71472795Y-103360256D01*
X71586063Y-103529774D01*
X71730226Y-103673937D01*
X71899744Y-103787205D01*
X72088102Y-103865226D01*
X72288061Y-103905000D01*
X72380019Y-103905000D01*
X72506213Y-103943281D01*
X72625210Y-103955001D01*
X72625212Y-103955001D01*
X72665000Y-103958920D01*
X72704788Y-103955001D01*
X76101825Y-103955001D01*
X76072068Y-104026842D01*
X76015000Y-104313740D01*
X76015000Y-104606260D01*
X76072068Y-104893158D01*
X76184010Y-105163411D01*
X76346525Y-105406632D01*
X76478380Y-105538487D01*
X76405820Y-105560498D01*
X76295506Y-105619463D01*
X76198815Y-105698815D01*
X76119463Y-105795506D01*
X76060498Y-105905820D01*
X76024188Y-106025518D01*
X76011928Y-106150000D01*
X76015000Y-106714250D01*
X76173750Y-106873000D01*
X77373000Y-106873000D01*
X77373000Y-106853000D01*
X77627000Y-106853000D01*
X77627000Y-106873000D01*
X77647000Y-106873000D01*
X77647000Y-107127000D01*
X77627000Y-107127000D01*
X77627000Y-108326250D01*
X77785750Y-108485000D01*
X78350000Y-108488072D01*
X78418907Y-108481286D01*
X78447047Y-108622756D01*
X78607988Y-109011302D01*
X78841637Y-109360983D01*
X79139017Y-109658363D01*
X79171399Y-109680000D01*
X69889787Y-109680000D01*
X69849999Y-109676081D01*
X69810211Y-109680000D01*
X69810209Y-109680000D01*
X69691212Y-109691720D01*
X69538527Y-109738037D01*
X69488792Y-109764621D01*
X69397810Y-109813251D01*
X69346939Y-109855000D01*
X69274472Y-109914472D01*
X69249107Y-109945380D01*
X68244488Y-110950000D01*
X67424851Y-110950000D01*
X67460960Y-110820565D01*
X66675000Y-110034605D01*
X65889040Y-110820565D01*
X65925149Y-110950000D01*
X65010749Y-110950000D01*
X65025535Y-110940120D01*
X65220120Y-110745535D01*
X65373005Y-110516727D01*
X65402692Y-110445057D01*
X65407364Y-110458023D01*
X65469344Y-110573980D01*
X65709435Y-110640960D01*
X66495395Y-109855000D01*
X66854605Y-109855000D01*
X67640565Y-110640960D01*
X67880656Y-110573980D01*
X67997756Y-110324952D01*
X68064023Y-110057865D01*
X68076910Y-109782983D01*
X68035922Y-109510867D01*
X67942636Y-109251977D01*
X67880656Y-109136020D01*
X67640565Y-109069040D01*
X66854605Y-109855000D01*
X66495395Y-109855000D01*
X65709435Y-109069040D01*
X65469344Y-109136020D01*
X65405515Y-109271760D01*
X65373005Y-109193273D01*
X65220120Y-108964465D01*
X65145090Y-108889435D01*
X65889040Y-108889435D01*
X66675000Y-109675395D01*
X67460960Y-108889435D01*
X67393980Y-108649344D01*
X67144952Y-108532244D01*
X66877865Y-108465977D01*
X66602983Y-108453090D01*
X66330867Y-108494078D01*
X66071977Y-108587364D01*
X65956020Y-108649344D01*
X65889040Y-108889435D01*
X65145090Y-108889435D01*
X65025535Y-108769880D01*
X64796727Y-108616995D01*
X64542490Y-108511686D01*
X64272592Y-108458000D01*
X63997408Y-108458000D01*
X63727510Y-108511686D01*
X63473273Y-108616995D01*
X63244465Y-108769880D01*
X63049880Y-108964465D01*
X62896995Y-109193273D01*
X62865000Y-109270515D01*
X62833005Y-109193273D01*
X62680120Y-108964465D01*
X62485535Y-108769880D01*
X62405000Y-108716068D01*
X62405000Y-107850000D01*
X76011928Y-107850000D01*
X76024188Y-107974482D01*
X76060498Y-108094180D01*
X76119463Y-108204494D01*
X76198815Y-108301185D01*
X76295506Y-108380537D01*
X76405820Y-108439502D01*
X76525518Y-108475812D01*
X76650000Y-108488072D01*
X77214250Y-108485000D01*
X77373000Y-108326250D01*
X77373000Y-107127000D01*
X76173750Y-107127000D01*
X76015000Y-107285750D01*
X76011928Y-107850000D01*
X62405000Y-107850000D01*
X62405000Y-84823061D01*
X64679619Y-82548443D01*
X64710528Y-82523077D01*
X64811749Y-82399738D01*
X64886963Y-82259022D01*
X64933280Y-82106337D01*
X64945000Y-81987340D01*
X64945000Y-81987338D01*
X64948919Y-81947550D01*
X64945000Y-81907762D01*
X64945000Y-80589249D01*
X65540000Y-80589249D01*
X65540001Y-100385752D01*
X65556424Y-100552499D01*
X65621325Y-100766447D01*
X65726717Y-100963623D01*
X65868552Y-101136449D01*
X66041378Y-101278284D01*
X66238554Y-101383676D01*
X66452502Y-101448577D01*
X66675000Y-101470491D01*
X66897499Y-101448577D01*
X67111447Y-101383676D01*
X67308623Y-101278284D01*
X67481449Y-101136449D01*
X67623284Y-100963623D01*
X67728676Y-100766447D01*
X67793577Y-100552499D01*
X67810000Y-100385752D01*
X67810000Y-80589248D01*
X67793577Y-80422501D01*
X67728676Y-80208553D01*
X67623284Y-80011377D01*
X67481449Y-79838551D01*
X67308623Y-79696716D01*
X67111446Y-79591324D01*
X66897498Y-79526423D01*
X66675000Y-79504509D01*
X66452501Y-79526423D01*
X66238553Y-79591324D01*
X66041377Y-79696716D01*
X65868551Y-79838551D01*
X65726716Y-80011377D01*
X65621324Y-80208554D01*
X65556423Y-80422502D01*
X65540000Y-80589249D01*
X64945000Y-80589249D01*
X64945000Y-74789312D01*
X65020436Y-74738907D01*
X65213907Y-74545436D01*
X65365916Y-74317938D01*
X65405000Y-74223581D01*
X65444084Y-74317938D01*
X65596093Y-74545436D01*
X65789564Y-74738907D01*
X66017062Y-74890916D01*
X66269844Y-74995622D01*
X66538195Y-75049000D01*
X66811805Y-75049000D01*
X67080156Y-74995622D01*
X67332938Y-74890916D01*
X67560436Y-74738907D01*
X67679492Y-74619851D01*
X68434754Y-74619851D01*
X68500765Y-74859127D01*
X68748426Y-74975426D01*
X69014018Y-75041174D01*
X69287334Y-75053845D01*
X69557870Y-75012951D01*
X69815229Y-74920063D01*
X69929235Y-74859127D01*
X69995246Y-74619851D01*
X69215000Y-73839605D01*
X68434754Y-74619851D01*
X67679492Y-74619851D01*
X67753907Y-74545436D01*
X67905916Y-74317938D01*
X67943242Y-74227826D01*
X67954937Y-74260229D01*
X68015873Y-74374235D01*
X68255149Y-74440246D01*
X69035395Y-73660000D01*
X69394605Y-73660000D01*
X70174851Y-74440246D01*
X70414127Y-74374235D01*
X70530426Y-74126574D01*
X70596174Y-73860982D01*
X70608845Y-73587666D01*
X70567951Y-73317130D01*
X70475063Y-73059771D01*
X70414127Y-72945765D01*
X70174851Y-72879754D01*
X69394605Y-73660000D01*
X69035395Y-73660000D01*
X68255149Y-72879754D01*
X68015873Y-72945765D01*
X67945060Y-73096563D01*
X67905916Y-73002062D01*
X67753907Y-72774564D01*
X67679492Y-72700149D01*
X68434754Y-72700149D01*
X69215000Y-73480395D01*
X69995246Y-72700149D01*
X69929235Y-72460873D01*
X69681574Y-72344574D01*
X69415982Y-72278826D01*
X69142666Y-72266155D01*
X68872130Y-72307049D01*
X68614771Y-72399937D01*
X68500765Y-72460873D01*
X68434754Y-72700149D01*
X67679492Y-72700149D01*
X67560436Y-72581093D01*
X67332938Y-72429084D01*
X67080156Y-72324378D01*
X66811805Y-72271000D01*
X66538195Y-72271000D01*
X66269844Y-72324378D01*
X66017062Y-72429084D01*
X65789564Y-72581093D01*
X65596093Y-72774564D01*
X65444084Y-73002062D01*
X65405000Y-73096419D01*
X65365916Y-73002062D01*
X65213907Y-72774564D01*
X65020436Y-72581093D01*
X64792938Y-72429084D01*
X64540156Y-72324378D01*
X64271805Y-72271000D01*
X63998195Y-72271000D01*
X63729844Y-72324378D01*
X63477062Y-72429084D01*
X63249564Y-72581093D01*
X63056093Y-72774564D01*
X62904084Y-73002062D01*
X62865000Y-73096419D01*
X62825916Y-73002062D01*
X62673907Y-72774564D01*
X62480436Y-72581093D01*
X62252938Y-72429084D01*
X62000156Y-72324378D01*
X61731805Y-72271000D01*
X61458195Y-72271000D01*
X61189844Y-72324378D01*
X60937062Y-72429084D01*
X60709564Y-72581093D01*
X60516093Y-72774564D01*
X60364084Y-73002062D01*
X60325000Y-73096419D01*
X60285916Y-73002062D01*
X60133907Y-72774564D01*
X59940436Y-72581093D01*
X59712938Y-72429084D01*
X59460156Y-72324378D01*
X59191805Y-72271000D01*
X58918195Y-72271000D01*
X58649844Y-72324378D01*
X58397062Y-72429084D01*
X58169564Y-72581093D01*
X57976093Y-72774564D01*
X57904657Y-72881476D01*
X57894812Y-72781518D01*
X57858502Y-72661820D01*
X57799537Y-72551506D01*
X57720185Y-72454815D01*
X57623494Y-72375463D01*
X57513180Y-72316498D01*
X57393482Y-72280188D01*
X57269000Y-72267928D01*
X55761000Y-72267928D01*
X55636518Y-72280188D01*
X55516820Y-72316498D01*
X55406506Y-72375463D01*
X55309815Y-72454815D01*
X55230463Y-72551506D01*
X55171498Y-72661820D01*
X55135188Y-72781518D01*
X55122928Y-72906000D01*
X55122928Y-74414000D01*
X55135188Y-74538482D01*
X55171498Y-74658180D01*
X55230463Y-74768494D01*
X55309815Y-74865185D01*
X55406506Y-74944537D01*
X55516820Y-75003502D01*
X55636518Y-75039812D01*
X55761000Y-75052072D01*
X57269000Y-75052072D01*
X57393482Y-75039812D01*
X57513180Y-75003502D01*
X57623494Y-74944537D01*
X57720185Y-74865185D01*
X57799537Y-74768494D01*
X57858502Y-74658180D01*
X57894812Y-74538482D01*
X57904657Y-74438524D01*
X57976093Y-74545436D01*
X58169564Y-74738907D01*
X58397062Y-74890916D01*
X58649844Y-74995622D01*
X58918195Y-75049000D01*
X59191805Y-75049000D01*
X59460156Y-74995622D01*
X59712938Y-74890916D01*
X59940436Y-74738907D01*
X60133907Y-74545436D01*
X60285916Y-74317938D01*
X60325000Y-74223581D01*
X60364084Y-74317938D01*
X60516093Y-74545436D01*
X60709564Y-74738907D01*
X60785001Y-74789312D01*
X60785000Y-81579487D01*
X58510383Y-83854105D01*
X58479473Y-83879472D01*
X58454108Y-83910380D01*
X58378251Y-84002811D01*
X58303038Y-84143527D01*
X58256721Y-84296213D01*
X58241081Y-84455000D01*
X58245001Y-84494798D01*
X58245000Y-108716068D01*
X58164465Y-108769880D01*
X57969880Y-108964465D01*
X57816995Y-109193273D01*
X57711686Y-109447510D01*
X57658000Y-109717408D01*
X57658000Y-109992592D01*
X57711686Y-110262490D01*
X57816995Y-110516727D01*
X57969880Y-110745535D01*
X58164465Y-110940120D01*
X58245001Y-110993932D01*
X58245001Y-111720202D01*
X58241081Y-111760000D01*
X58255305Y-111904410D01*
X58256721Y-111918788D01*
X58303038Y-112071473D01*
X58378251Y-112212189D01*
X58432292Y-112278037D01*
X58479473Y-112335528D01*
X58510381Y-112360893D01*
X60359105Y-114209618D01*
X60384472Y-114240528D01*
X60415380Y-114265893D01*
X60507810Y-114341749D01*
X60550538Y-114364587D01*
X60648527Y-114416963D01*
X60801212Y-114463280D01*
X60920209Y-114475000D01*
X60920212Y-114475000D01*
X60960000Y-114478919D01*
X60999788Y-114475000D01*
X69175212Y-114475000D01*
X69215000Y-114478919D01*
X69254788Y-114475000D01*
X69254791Y-114475000D01*
X69373788Y-114463280D01*
X69526473Y-114416963D01*
X69624461Y-114364587D01*
X78544192Y-114364587D01*
X79500000Y-115320395D01*
X80455808Y-114364587D01*
X85044192Y-114364587D01*
X86000000Y-115320395D01*
X86955808Y-114364587D01*
X86860044Y-114100186D01*
X86570429Y-113959296D01*
X86258892Y-113877616D01*
X85937405Y-113858282D01*
X85618325Y-113902039D01*
X85313912Y-114007205D01*
X85139956Y-114100186D01*
X85044192Y-114364587D01*
X80455808Y-114364587D01*
X80360044Y-114100186D01*
X80070429Y-113959296D01*
X79758892Y-113877616D01*
X79437405Y-113858282D01*
X79118325Y-113902039D01*
X78813912Y-114007205D01*
X78639956Y-114100186D01*
X78544192Y-114364587D01*
X69624461Y-114364587D01*
X69667189Y-114341749D01*
X69790528Y-114240528D01*
X69815899Y-114209613D01*
X71455513Y-112570000D01*
X83145212Y-112570000D01*
X83185000Y-112573919D01*
X83224788Y-112570000D01*
X83224791Y-112570000D01*
X83343788Y-112558280D01*
X83496473Y-112511963D01*
X83637189Y-112436749D01*
X83760528Y-112335528D01*
X83785899Y-112304613D01*
X85634621Y-110455892D01*
X85645589Y-110446891D01*
X85689467Y-110552822D01*
X85850691Y-110794110D01*
X86055890Y-110999309D01*
X86297178Y-111160533D01*
X86565283Y-111271586D01*
X86849902Y-111328200D01*
X87140098Y-111328200D01*
X87424717Y-111271586D01*
X87692822Y-111160533D01*
X87934110Y-110999309D01*
X88139309Y-110794110D01*
X88265000Y-110606001D01*
X88390691Y-110794110D01*
X88595890Y-110999309D01*
X88837178Y-111160533D01*
X89105283Y-111271586D01*
X89389902Y-111328200D01*
X89456287Y-111328200D01*
X87720383Y-113064105D01*
X87689473Y-113089472D01*
X87643852Y-113145061D01*
X87588251Y-113212811D01*
X87519481Y-113341473D01*
X87513038Y-113353527D01*
X87474009Y-113482189D01*
X87466721Y-113506213D01*
X87451081Y-113665000D01*
X87455001Y-113704798D01*
X87455001Y-114743203D01*
X87399814Y-114639956D01*
X87135413Y-114544192D01*
X86179605Y-115500000D01*
X86193748Y-115514143D01*
X86014143Y-115693748D01*
X86000000Y-115679605D01*
X85044192Y-116635413D01*
X85054908Y-116665000D01*
X80445092Y-116665000D01*
X80455808Y-116635413D01*
X79500000Y-115679605D01*
X78544192Y-116635413D01*
X78554908Y-116665000D01*
X69889788Y-116665000D01*
X69850000Y-116661081D01*
X69810212Y-116665000D01*
X69810209Y-116665000D01*
X69691212Y-116676720D01*
X69538527Y-116723037D01*
X69488792Y-116749621D01*
X69397810Y-116798251D01*
X69333796Y-116850786D01*
X69274472Y-116899472D01*
X69249107Y-116930380D01*
X61050388Y-125129100D01*
X61019472Y-125154472D01*
X60949703Y-125239487D01*
X60918251Y-125277811D01*
X60890356Y-125330000D01*
X60843037Y-125418528D01*
X60796720Y-125571213D01*
X60792601Y-125613037D01*
X60781081Y-125730000D01*
X60785000Y-125769788D01*
X60785000Y-130683000D01*
X60491571Y-130683000D01*
X60306829Y-130663929D01*
X60136144Y-130609519D01*
X59974450Y-130518153D01*
X50828611Y-124027558D01*
X50697056Y-123913670D01*
X50660000Y-123866371D01*
X50660000Y-115562595D01*
X77858282Y-115562595D01*
X77902039Y-115881675D01*
X78007205Y-116186088D01*
X78100186Y-116360044D01*
X78364587Y-116455808D01*
X79320395Y-115500000D01*
X79679605Y-115500000D01*
X80635413Y-116455808D01*
X80899814Y-116360044D01*
X81040704Y-116070429D01*
X81122384Y-115758892D01*
X81134189Y-115562595D01*
X84358282Y-115562595D01*
X84402039Y-115881675D01*
X84507205Y-116186088D01*
X84600186Y-116360044D01*
X84864587Y-116455808D01*
X85820395Y-115500000D01*
X84864587Y-114544192D01*
X84600186Y-114639956D01*
X84459296Y-114929571D01*
X84377616Y-115241108D01*
X84358282Y-115562595D01*
X81134189Y-115562595D01*
X81141718Y-115437405D01*
X81097961Y-115118325D01*
X80992795Y-114813912D01*
X80899814Y-114639956D01*
X80635413Y-114544192D01*
X79679605Y-115500000D01*
X79320395Y-115500000D01*
X78364587Y-114544192D01*
X78100186Y-114639956D01*
X77959296Y-114929571D01*
X77877616Y-115241108D01*
X77858282Y-115562595D01*
X50660000Y-115562595D01*
X50660000Y-102621606D01*
X50922063Y-76065905D01*
X50938873Y-75901049D01*
X50983835Y-75747636D01*
X51056029Y-75605010D01*
X51153037Y-75477949D01*
X51275940Y-75366795D01*
X60374186Y-68543110D01*
X76058524Y-68543110D01*
X76179845Y-68773000D01*
X77373000Y-68773000D01*
X77373000Y-67579186D01*
X77143109Y-67458519D01*
X76868748Y-67555843D01*
X76618645Y-67704822D01*
X76402412Y-67899731D01*
X76228359Y-68133080D01*
X76103175Y-68395901D01*
X76058524Y-68543110D01*
X60374186Y-68543110D01*
X65844081Y-64440689D01*
X66010501Y-64341778D01*
X66187666Y-64282723D01*
X66380148Y-64262000D01*
X123484852Y-64262000D01*
X123677334Y-64282723D01*
%TA.AperFunction,Conductor*%
D24*
G36*
X123677334Y-64282723D02*
G01*
X123854499Y-64341778D01*
X124020919Y-64440689D01*
X138584086Y-75363065D01*
X138708198Y-75475535D01*
X138805864Y-75604246D01*
X138878122Y-75748762D01*
X138922492Y-75904121D01*
X138938000Y-76070889D01*
X138938000Y-106374581D01*
X138734110Y-106170691D01*
X138492822Y-106009467D01*
X138224717Y-105898414D01*
X137940098Y-105841800D01*
X137649902Y-105841800D01*
X137365283Y-105898414D01*
X137097178Y-106009467D01*
X136855890Y-106170691D01*
X136650691Y-106375890D01*
X136527711Y-106559943D01*
X136522844Y-106550838D01*
X136274975Y-106474630D01*
X135434605Y-107315000D01*
X136274975Y-108155370D01*
X136522844Y-108079162D01*
X136527399Y-108069592D01*
X136650691Y-108254110D01*
X136660001Y-108263420D01*
X136660000Y-108906581D01*
X136650691Y-108915890D01*
X136527711Y-109099943D01*
X136522844Y-109090838D01*
X136274975Y-109014630D01*
X135434605Y-109855000D01*
X136274975Y-110695370D01*
X136522844Y-110619162D01*
X136527399Y-110609592D01*
X136650691Y-110794110D01*
X136855890Y-110999309D01*
X137097178Y-111160533D01*
X137365283Y-111271586D01*
X137649902Y-111328200D01*
X137940098Y-111328200D01*
X138224717Y-111271586D01*
X138492822Y-111160533D01*
X138734110Y-110999309D01*
X138938000Y-110795419D01*
X138938000Y-119594552D01*
X138920624Y-119770976D01*
X138870978Y-119934637D01*
X138790363Y-120085458D01*
X138677898Y-120222496D01*
X128477496Y-130422898D01*
X128340458Y-130535363D01*
X128189637Y-130615978D01*
X128025976Y-130665624D01*
X127849552Y-130683000D01*
X124208513Y-130683000D01*
X119345900Y-125820388D01*
X119320528Y-125789472D01*
X119197189Y-125688251D01*
X119056473Y-125613037D01*
X118903788Y-125566720D01*
X118784791Y-125555000D01*
X118784788Y-125555000D01*
X118745000Y-125551081D01*
X118705212Y-125555000D01*
X116855700Y-125555000D01*
X116695256Y-125447795D01*
X116506898Y-125369774D01*
X116306939Y-125330000D01*
X116103061Y-125330000D01*
X115903102Y-125369774D01*
X115714744Y-125447795D01*
X115554300Y-125555000D01*
X112434787Y-125555000D01*
X112394999Y-125551081D01*
X112355211Y-125555000D01*
X112355209Y-125555000D01*
X112236212Y-125566720D01*
X112083527Y-125613037D01*
X112018024Y-125648049D01*
X111942810Y-125688251D01*
X111891939Y-125730000D01*
X111819472Y-125789472D01*
X111794107Y-125820380D01*
X108675383Y-128939105D01*
X108644473Y-128964472D01*
X108619108Y-128995380D01*
X108543251Y-129087811D01*
X108468038Y-129228527D01*
X108421721Y-129381213D01*
X108406081Y-129540000D01*
X108410001Y-129579798D01*
X108410001Y-130683000D01*
X101983513Y-130683000D01*
X97382112Y-126081599D01*
X97516437Y-125947274D01*
X97629705Y-125777756D01*
X97707726Y-125589398D01*
X97745371Y-125400141D01*
X98510513Y-124635000D01*
X112990212Y-124635000D01*
X113030000Y-124638919D01*
X113069788Y-124635000D01*
X113069791Y-124635000D01*
X113188788Y-124623280D01*
X113341473Y-124576963D01*
X113482189Y-124501749D01*
X113605528Y-124400528D01*
X113630899Y-124369613D01*
X115479619Y-122520894D01*
X115510528Y-122495528D01*
X115559214Y-122436204D01*
X115611749Y-122372190D01*
X115686962Y-122231474D01*
X115686963Y-122231473D01*
X115733280Y-122078788D01*
X115745000Y-121959791D01*
X115745000Y-121959788D01*
X115748919Y-121920000D01*
X115745000Y-121880212D01*
X115745000Y-121057239D01*
X115957748Y-121269987D01*
X116225537Y-121448918D01*
X116523088Y-121572168D01*
X116838967Y-121635000D01*
X117161033Y-121635000D01*
X117476912Y-121572168D01*
X117774463Y-121448918D01*
X118042252Y-121269987D01*
X118269987Y-121042252D01*
X118448918Y-120774463D01*
X118572168Y-120476912D01*
X118635000Y-120161033D01*
X118635000Y-119838967D01*
X118572168Y-119523088D01*
X118448918Y-119225537D01*
X118269987Y-118957748D01*
X118042252Y-118730013D01*
X117774463Y-118551082D01*
X117476912Y-118427832D01*
X117161033Y-118365000D01*
X116838967Y-118365000D01*
X116523088Y-118427832D01*
X116225537Y-118551082D01*
X115957748Y-118730013D01*
X115745000Y-118942761D01*
X115745000Y-116635413D01*
X116044192Y-116635413D01*
X116139956Y-116899814D01*
X116429571Y-117040704D01*
X116741108Y-117122384D01*
X117062595Y-117141718D01*
X117381675Y-117097961D01*
X117686088Y-116992795D01*
X117860044Y-116899814D01*
X117955808Y-116635413D01*
X117000000Y-115679605D01*
X116044192Y-116635413D01*
X115745000Y-116635413D01*
X115745000Y-116412495D01*
X115864587Y-116455808D01*
X116820395Y-115500000D01*
X117179605Y-115500000D01*
X118135413Y-116455808D01*
X118399814Y-116360044D01*
X118540704Y-116070429D01*
X118622384Y-115758892D01*
X118641718Y-115437405D01*
X118597961Y-115118325D01*
X118492795Y-114813912D01*
X118399814Y-114639956D01*
X118135413Y-114544192D01*
X117179605Y-115500000D01*
X116820395Y-115500000D01*
X115864587Y-114544192D01*
X115745000Y-114587505D01*
X115745000Y-114364587D01*
X116044192Y-114364587D01*
X117000000Y-115320395D01*
X117955808Y-114364587D01*
X117860044Y-114100186D01*
X117570429Y-113959296D01*
X117258892Y-113877616D01*
X116937405Y-113858282D01*
X116618325Y-113902039D01*
X116313912Y-114007205D01*
X116139956Y-114100186D01*
X116044192Y-114364587D01*
X115745000Y-114364587D01*
X115745000Y-114000512D01*
X117878201Y-111867312D01*
X117878201Y-112933413D01*
X117874282Y-112973201D01*
X117878201Y-113012989D01*
X117878201Y-113012991D01*
X117889921Y-113131988D01*
X117936238Y-113284673D01*
X117936239Y-113284674D01*
X118011452Y-113425390D01*
X118042904Y-113463714D01*
X118112673Y-113548729D01*
X118143588Y-113574100D01*
X119205001Y-114635514D01*
X119205000Y-121269300D01*
X119097795Y-121429744D01*
X119019774Y-121618102D01*
X118980000Y-121818061D01*
X118980000Y-122021939D01*
X118986576Y-122055000D01*
X116784248Y-122055000D01*
X116617501Y-122071423D01*
X116403553Y-122136324D01*
X116206377Y-122241716D01*
X116033551Y-122383551D01*
X115891716Y-122556377D01*
X115786324Y-122753553D01*
X115721423Y-122967501D01*
X115699509Y-123190000D01*
X115721423Y-123412499D01*
X115786324Y-123626447D01*
X115891716Y-123823623D01*
X116033551Y-123996449D01*
X116206377Y-124138284D01*
X116403553Y-124243676D01*
X116617501Y-124308577D01*
X116784248Y-124325000D01*
X126420752Y-124325000D01*
X126587499Y-124308577D01*
X126801447Y-124243676D01*
X126998623Y-124138284D01*
X127171449Y-123996449D01*
X127313284Y-123823623D01*
X127418676Y-123626447D01*
X127483577Y-123412499D01*
X127505491Y-123190000D01*
X127483577Y-122967501D01*
X127418676Y-122753553D01*
X127313284Y-122556377D01*
X127171449Y-122383551D01*
X126998623Y-122241716D01*
X126801447Y-122136324D01*
X126587499Y-122071423D01*
X126420752Y-122055000D01*
X121043424Y-122055000D01*
X121050000Y-122021939D01*
X121050000Y-121818061D01*
X121010226Y-121618102D01*
X120932205Y-121429744D01*
X120825000Y-121269300D01*
X120825000Y-119838967D01*
X121865000Y-119838967D01*
X121865000Y-120161033D01*
X121927832Y-120476912D01*
X122051082Y-120774463D01*
X122230013Y-121042252D01*
X122457748Y-121269987D01*
X122725537Y-121448918D01*
X123023088Y-121572168D01*
X123338967Y-121635000D01*
X123661033Y-121635000D01*
X123976912Y-121572168D01*
X124274463Y-121448918D01*
X124542252Y-121269987D01*
X124769987Y-121042252D01*
X124948918Y-120774463D01*
X125072168Y-120476912D01*
X125135000Y-120161033D01*
X125135000Y-119838967D01*
X125072168Y-119523088D01*
X124948918Y-119225537D01*
X124769987Y-118957748D01*
X124542252Y-118730013D01*
X124274463Y-118551082D01*
X123976912Y-118427832D01*
X123661033Y-118365000D01*
X123338967Y-118365000D01*
X123023088Y-118427832D01*
X122725537Y-118551082D01*
X122457748Y-118730013D01*
X122230013Y-118957748D01*
X122051082Y-119225537D01*
X121927832Y-119523088D01*
X121865000Y-119838967D01*
X120825000Y-119838967D01*
X120825000Y-116635413D01*
X122544192Y-116635413D01*
X122639956Y-116899814D01*
X122929571Y-117040704D01*
X123241108Y-117122384D01*
X123562595Y-117141718D01*
X123881675Y-117097961D01*
X124186088Y-116992795D01*
X124360044Y-116899814D01*
X124455808Y-116635413D01*
X123500000Y-115679605D01*
X122544192Y-116635413D01*
X120825000Y-116635413D01*
X120825000Y-115562595D01*
X121858282Y-115562595D01*
X121902039Y-115881675D01*
X122007205Y-116186088D01*
X122100186Y-116360044D01*
X122364587Y-116455808D01*
X123320395Y-115500000D01*
X123679605Y-115500000D01*
X124635413Y-116455808D01*
X124899814Y-116360044D01*
X125040704Y-116070429D01*
X125122384Y-115758892D01*
X125141718Y-115437405D01*
X125097961Y-115118325D01*
X124992795Y-114813912D01*
X124899814Y-114639956D01*
X124635413Y-114544192D01*
X123679605Y-115500000D01*
X123320395Y-115500000D01*
X122364587Y-114544192D01*
X122100186Y-114639956D01*
X121959296Y-114929571D01*
X121877616Y-115241108D01*
X121858282Y-115562595D01*
X120825000Y-115562595D01*
X120825000Y-114364587D01*
X122544192Y-114364587D01*
X123500000Y-115320395D01*
X124455808Y-114364587D01*
X124360044Y-114100186D01*
X124070429Y-113959296D01*
X123758892Y-113877616D01*
X123437405Y-113858282D01*
X123118325Y-113902039D01*
X122813912Y-114007205D01*
X122639956Y-114100186D01*
X122544192Y-114364587D01*
X120825000Y-114364587D01*
X120825000Y-114339787D01*
X120828919Y-114299999D01*
X120825000Y-114260209D01*
X120813280Y-114141212D01*
X120766963Y-113988527D01*
X120731951Y-113923024D01*
X120691749Y-113847810D01*
X120646119Y-113792210D01*
X120590528Y-113724472D01*
X120559618Y-113699105D01*
X119498201Y-112637689D01*
X119498201Y-111235515D01*
X119585283Y-111271586D01*
X119869902Y-111328200D01*
X120160098Y-111328200D01*
X120444717Y-111271586D01*
X120712822Y-111160533D01*
X120954110Y-110999309D01*
X121159309Y-110794110D01*
X121285000Y-110606001D01*
X121410691Y-110794110D01*
X121615890Y-110999309D01*
X121857178Y-111160533D01*
X122125283Y-111271586D01*
X122409902Y-111328200D01*
X122700098Y-111328200D01*
X122984717Y-111271586D01*
X123252822Y-111160533D01*
X123494110Y-110999309D01*
X123699309Y-110794110D01*
X123825000Y-110606001D01*
X123950691Y-110794110D01*
X124155890Y-110999309D01*
X124397178Y-111160533D01*
X124665283Y-111271586D01*
X124949902Y-111328200D01*
X125240098Y-111328200D01*
X125524717Y-111271586D01*
X125792822Y-111160533D01*
X126034110Y-110999309D01*
X126239309Y-110794110D01*
X126365000Y-110606001D01*
X126490691Y-110794110D01*
X126695890Y-110999309D01*
X126937178Y-111160533D01*
X127205283Y-111271586D01*
X127489902Y-111328200D01*
X127780098Y-111328200D01*
X128064717Y-111271586D01*
X128332822Y-111160533D01*
X128574110Y-110999309D01*
X128779309Y-110794110D01*
X128905000Y-110606001D01*
X129030691Y-110794110D01*
X129235890Y-110999309D01*
X129477178Y-111160533D01*
X129745283Y-111271586D01*
X130029902Y-111328200D01*
X130320098Y-111328200D01*
X130604717Y-111271586D01*
X130872822Y-111160533D01*
X131114110Y-110999309D01*
X131319309Y-110794110D01*
X131445000Y-110606001D01*
X131570691Y-110794110D01*
X131775890Y-110999309D01*
X132017178Y-111160533D01*
X132285283Y-111271586D01*
X132569902Y-111328200D01*
X132860098Y-111328200D01*
X133144717Y-111271586D01*
X133412822Y-111160533D01*
X133654110Y-110999309D01*
X133778444Y-110874975D01*
X134414630Y-110874975D01*
X134490838Y-111122844D01*
X134752865Y-111247563D01*
X135034189Y-111318768D01*
X135323999Y-111333719D01*
X135611157Y-111291845D01*
X135884628Y-111194754D01*
X136019162Y-111122844D01*
X136095370Y-110874975D01*
X135255000Y-110034605D01*
X134414630Y-110874975D01*
X133778444Y-110874975D01*
X133859309Y-110794110D01*
X133982289Y-110610057D01*
X133987156Y-110619162D01*
X134235025Y-110695370D01*
X135075395Y-109855000D01*
X134235025Y-109014630D01*
X133987156Y-109090838D01*
X133982601Y-109100408D01*
X133859309Y-108915890D01*
X133850000Y-108906581D01*
X133850000Y-108334975D01*
X134414630Y-108334975D01*
X134490838Y-108582844D01*
X134495105Y-108584875D01*
X134490838Y-108587156D01*
X134414630Y-108835025D01*
X135255000Y-109675395D01*
X136095370Y-108835025D01*
X136019162Y-108587156D01*
X136014895Y-108585125D01*
X136019162Y-108582844D01*
X136095370Y-108334975D01*
X135255000Y-107494605D01*
X134414630Y-108334975D01*
X133850000Y-108334975D01*
X133850000Y-108263419D01*
X133859309Y-108254110D01*
X133982289Y-108070057D01*
X133987156Y-108079162D01*
X134235025Y-108155370D01*
X135075395Y-107315000D01*
X134235025Y-106474630D01*
X133987156Y-106550838D01*
X133982601Y-106560408D01*
X133859309Y-106375890D01*
X133778444Y-106295025D01*
X134414630Y-106295025D01*
X135255000Y-107135395D01*
X136095370Y-106295025D01*
X136019162Y-106047156D01*
X135757135Y-105922437D01*
X135475811Y-105851232D01*
X135186001Y-105836281D01*
X134898843Y-105878155D01*
X134625372Y-105975246D01*
X134490838Y-106047156D01*
X134414630Y-106295025D01*
X133778444Y-106295025D01*
X133654110Y-106170691D01*
X133412822Y-106009467D01*
X133144717Y-105898414D01*
X132860098Y-105841800D01*
X132569902Y-105841800D01*
X132285283Y-105898414D01*
X132017178Y-106009467D01*
X131775890Y-106170691D01*
X131570691Y-106375890D01*
X131445000Y-106563999D01*
X131319309Y-106375890D01*
X131114110Y-106170691D01*
X130872822Y-106009467D01*
X130604717Y-105898414D01*
X130320098Y-105841800D01*
X130029902Y-105841800D01*
X129745283Y-105898414D01*
X129477178Y-106009467D01*
X129235890Y-106170691D01*
X129030691Y-106375890D01*
X128905000Y-106563999D01*
X128779309Y-106375890D01*
X128574110Y-106170691D01*
X128332822Y-106009467D01*
X128064717Y-105898414D01*
X127780098Y-105841800D01*
X127489902Y-105841800D01*
X127205283Y-105898414D01*
X126937178Y-106009467D01*
X126695890Y-106170691D01*
X126490691Y-106375890D01*
X126365000Y-106563999D01*
X126239309Y-106375890D01*
X126034110Y-106170691D01*
X125792822Y-106009467D01*
X125524717Y-105898414D01*
X125240098Y-105841800D01*
X124949902Y-105841800D01*
X124665283Y-105898414D01*
X124397178Y-106009467D01*
X124155890Y-106170691D01*
X123950691Y-106375890D01*
X123825000Y-106563999D01*
X123699309Y-106375890D01*
X123494110Y-106170691D01*
X123252822Y-106009467D01*
X122984717Y-105898414D01*
X122700098Y-105841800D01*
X122409902Y-105841800D01*
X122125283Y-105898414D01*
X121857178Y-106009467D01*
X121615890Y-106170691D01*
X121410691Y-106375890D01*
X121285000Y-106563999D01*
X121159309Y-106375890D01*
X120954110Y-106170691D01*
X120825000Y-106084422D01*
X120825000Y-104814788D01*
X120828919Y-104775000D01*
X120817399Y-104658037D01*
X120813280Y-104616212D01*
X120766963Y-104463527D01*
X120691750Y-104322812D01*
X120691749Y-104322810D01*
X120615893Y-104230380D01*
X120590528Y-104199472D01*
X120559619Y-104174106D01*
X118710899Y-102325387D01*
X118685528Y-102294472D01*
X118562189Y-102193251D01*
X118421473Y-102118037D01*
X118268788Y-102071720D01*
X118149791Y-102060000D01*
X118149788Y-102060000D01*
X118110000Y-102056081D01*
X118070212Y-102060000D01*
X114594738Y-102060000D01*
X114660226Y-101901898D01*
X114700000Y-101701939D01*
X114700000Y-101498061D01*
X114660226Y-101298102D01*
X114582205Y-101109744D01*
X114468937Y-100940226D01*
X114324774Y-100796063D01*
X114155256Y-100682795D01*
X113966898Y-100604774D01*
X113766939Y-100565000D01*
X113563061Y-100565000D01*
X113363102Y-100604774D01*
X113174744Y-100682795D01*
X113005226Y-100796063D01*
X112871288Y-100930001D01*
X111525000Y-100930001D01*
X111525000Y-100863061D01*
X111485226Y-100663102D01*
X111407205Y-100474744D01*
X111293937Y-100305226D01*
X111149774Y-100161063D01*
X110980256Y-100047795D01*
X110791898Y-99969774D01*
X110591939Y-99930000D01*
X110388061Y-99930000D01*
X110188102Y-99969774D01*
X109999744Y-100047795D01*
X109839300Y-100155000D01*
X86060513Y-100155000D01*
X81455000Y-95549488D01*
X81455000Y-89194738D01*
X81613102Y-89260226D01*
X81813061Y-89300000D01*
X82016939Y-89300000D01*
X82183039Y-89266961D01*
X82150000Y-89433061D01*
X82150000Y-89636939D01*
X82189774Y-89836898D01*
X82267795Y-90025256D01*
X82381063Y-90194774D01*
X82525226Y-90338937D01*
X82694744Y-90452205D01*
X82883102Y-90530226D01*
X83083061Y-90570000D01*
X83286939Y-90570000D01*
X83453039Y-90536961D01*
X83420000Y-90703061D01*
X83420000Y-90906939D01*
X83459774Y-91106898D01*
X83537795Y-91295256D01*
X83651063Y-91464774D01*
X83795226Y-91608937D01*
X83964744Y-91722205D01*
X84153102Y-91800226D01*
X84353061Y-91840000D01*
X84556939Y-91840000D01*
X84756898Y-91800226D01*
X84923109Y-91731379D01*
X84545383Y-92109105D01*
X84514473Y-92134472D01*
X84489108Y-92165380D01*
X84413251Y-92257811D01*
X84344481Y-92386473D01*
X84338038Y-92398527D01*
X84299009Y-92527189D01*
X84291721Y-92551213D01*
X84276081Y-92710000D01*
X84280001Y-92749798D01*
X84280000Y-96504300D01*
X84172795Y-96664744D01*
X84094774Y-96853102D01*
X84055000Y-97053061D01*
X84055000Y-97256939D01*
X84094774Y-97456898D01*
X84172795Y-97645256D01*
X84286063Y-97814774D01*
X84430226Y-97958937D01*
X84599744Y-98072205D01*
X84788102Y-98150226D01*
X84988061Y-98190000D01*
X85191939Y-98190000D01*
X85267475Y-98174975D01*
X86154630Y-98174975D01*
X86230838Y-98422844D01*
X86492865Y-98547563D01*
X86774189Y-98618768D01*
X87063999Y-98633719D01*
X87351157Y-98591845D01*
X87624628Y-98494754D01*
X87759162Y-98422844D01*
X87835370Y-98174975D01*
X86995000Y-97334605D01*
X86154630Y-98174975D01*
X85267475Y-98174975D01*
X85391898Y-98150226D01*
X85580256Y-98072205D01*
X85749774Y-97958937D01*
X85774877Y-97933834D01*
X85975025Y-97995370D01*
X86815395Y-97155000D01*
X85975025Y-96314630D01*
X85900000Y-96337697D01*
X85900000Y-95603419D01*
X86055890Y-95759309D01*
X86239943Y-95882289D01*
X86230838Y-95887156D01*
X86154630Y-96135025D01*
X86995000Y-96975395D01*
X87835370Y-96135025D01*
X87759162Y-95887156D01*
X87749592Y-95882601D01*
X87934110Y-95759309D01*
X88139309Y-95554110D01*
X88265000Y-95366001D01*
X88390691Y-95554110D01*
X88595890Y-95759309D01*
X88783999Y-95885000D01*
X88595890Y-96010691D01*
X88390691Y-96215890D01*
X88267711Y-96399943D01*
X88262844Y-96390838D01*
X88014975Y-96314630D01*
X87174605Y-97155000D01*
X88014975Y-97995370D01*
X88262844Y-97919162D01*
X88267399Y-97909592D01*
X88390691Y-98094110D01*
X88595890Y-98299309D01*
X88837178Y-98460533D01*
X89105283Y-98571586D01*
X89389902Y-98628200D01*
X89680098Y-98628200D01*
X89964717Y-98571586D01*
X90232822Y-98460533D01*
X90474110Y-98299309D01*
X90679309Y-98094110D01*
X90840533Y-97852822D01*
X90951586Y-97584717D01*
X91008200Y-97300098D01*
X91008200Y-97009902D01*
X90951586Y-96725283D01*
X90840533Y-96457178D01*
X90679309Y-96215890D01*
X90474110Y-96010691D01*
X90286001Y-95885000D01*
X90474110Y-95759309D01*
X90679309Y-95554110D01*
X90840533Y-95312822D01*
X90951586Y-95044717D01*
X91008200Y-94760098D01*
X91008200Y-94469902D01*
X90951586Y-94185283D01*
X90840533Y-93917178D01*
X90679309Y-93675890D01*
X90474110Y-93470691D01*
X90286001Y-93345000D01*
X90474110Y-93219309D01*
X90679309Y-93014110D01*
X90840533Y-92772822D01*
X90951586Y-92504717D01*
X91008200Y-92220098D01*
X91008200Y-92153713D01*
X91265001Y-92410514D01*
X91265000Y-96504300D01*
X91157795Y-96664744D01*
X91079774Y-96853102D01*
X91040000Y-97053061D01*
X91040000Y-97256939D01*
X91079774Y-97456898D01*
X91157795Y-97645256D01*
X91271063Y-97814774D01*
X91415226Y-97958937D01*
X91584744Y-98072205D01*
X91773102Y-98150226D01*
X91973061Y-98190000D01*
X92176939Y-98190000D01*
X92376898Y-98150226D01*
X92565256Y-98072205D01*
X92734774Y-97958937D01*
X92878937Y-97814774D01*
X92992205Y-97645256D01*
X93070226Y-97456898D01*
X93110000Y-97256939D01*
X93110000Y-97053061D01*
X93070226Y-96853102D01*
X92992205Y-96664744D01*
X92885000Y-96504300D01*
X92885000Y-92760513D01*
X94649105Y-94524618D01*
X94674472Y-94555528D01*
X94742210Y-94611119D01*
X94797810Y-94656749D01*
X94873024Y-94696951D01*
X94938527Y-94731963D01*
X95091212Y-94778280D01*
X95210209Y-94790000D01*
X95210211Y-94790000D01*
X95249999Y-94793919D01*
X95289787Y-94790000D01*
X97774300Y-94790000D01*
X97934744Y-94897205D01*
X98123102Y-94975226D01*
X98323061Y-95015000D01*
X98526939Y-95015000D01*
X98726898Y-94975226D01*
X98915256Y-94897205D01*
X99084774Y-94783937D01*
X99228937Y-94639774D01*
X99342205Y-94470256D01*
X99420226Y-94281898D01*
X99460000Y-94081939D01*
X99460000Y-93878061D01*
X99420226Y-93678102D01*
X99342205Y-93489744D01*
X99228937Y-93320226D01*
X99084774Y-93176063D01*
X98915256Y-93062795D01*
X98726898Y-92984774D01*
X98526939Y-92945000D01*
X98323061Y-92945000D01*
X98123102Y-92984774D01*
X97934744Y-93062795D01*
X97774300Y-93170000D01*
X95585513Y-93170000D01*
X94030513Y-91615000D01*
X97774300Y-91615000D01*
X97934744Y-91722205D01*
X98123102Y-91800226D01*
X98323061Y-91840000D01*
X98526939Y-91840000D01*
X98726898Y-91800226D01*
X98915256Y-91722205D01*
X99084774Y-91608937D01*
X99228937Y-91464774D01*
X99342205Y-91295256D01*
X99420226Y-91106898D01*
X99460000Y-90906939D01*
X99460000Y-90703061D01*
X99420226Y-90503102D01*
X99342205Y-90314744D01*
X99228937Y-90145226D01*
X99084774Y-90001063D01*
X98915256Y-89887795D01*
X98726898Y-89809774D01*
X98526939Y-89770000D01*
X98323061Y-89770000D01*
X98123102Y-89809774D01*
X97934744Y-89887795D01*
X97774300Y-89995000D01*
X93680513Y-89995000D01*
X91490512Y-87805000D01*
X97404533Y-87805000D01*
X97429774Y-87931898D01*
X97507795Y-88120256D01*
X97621063Y-88289774D01*
X97765226Y-88433937D01*
X97934744Y-88547205D01*
X98123102Y-88625226D01*
X98323061Y-88665000D01*
X98526939Y-88665000D01*
X98726898Y-88625226D01*
X98915256Y-88547205D01*
X99084774Y-88433937D01*
X99228937Y-88289774D01*
X99342205Y-88120256D01*
X99420226Y-87931898D01*
X99460000Y-87731939D01*
X99460000Y-87528061D01*
X99420226Y-87328102D01*
X99342205Y-87139744D01*
X99228937Y-86970226D01*
X99084774Y-86826063D01*
X98915256Y-86712795D01*
X98726898Y-86634774D01*
X98537641Y-86597129D01*
X98390899Y-86450387D01*
X98365528Y-86419472D01*
X98242189Y-86318251D01*
X98101473Y-86243037D01*
X97948788Y-86196720D01*
X97829791Y-86185000D01*
X97829788Y-86185000D01*
X97790000Y-86181081D01*
X97750212Y-86185000D01*
X83230513Y-86185000D01*
X78952941Y-81907429D01*
X78985000Y-81746260D01*
X78985000Y-81453740D01*
X78927932Y-81166842D01*
X78815990Y-80896589D01*
X78653475Y-80653368D01*
X78446632Y-80446525D01*
X78272240Y-80330000D01*
X78446632Y-80213475D01*
X78653475Y-80006632D01*
X78815990Y-79763411D01*
X78927932Y-79493158D01*
X78985000Y-79206260D01*
X78985000Y-78913740D01*
X78927932Y-78626842D01*
X78815990Y-78356589D01*
X78653475Y-78113368D01*
X78446632Y-77906525D01*
X78272240Y-77790000D01*
X78446632Y-77673475D01*
X78653475Y-77466632D01*
X78815990Y-77223411D01*
X78927932Y-76953158D01*
X78985000Y-76666260D01*
X78985000Y-76373740D01*
X78927932Y-76086842D01*
X78815990Y-75816589D01*
X78653475Y-75573368D01*
X78446632Y-75366525D01*
X78272240Y-75250000D01*
X78446632Y-75133475D01*
X78653475Y-74926632D01*
X78815990Y-74683411D01*
X78927932Y-74413158D01*
X78980297Y-74149902D01*
X85521800Y-74149902D01*
X85521800Y-74440098D01*
X85578414Y-74724717D01*
X85689467Y-74992822D01*
X85850691Y-75234110D01*
X86055890Y-75439309D01*
X86243999Y-75565000D01*
X86055890Y-75690691D01*
X85850691Y-75895890D01*
X85689467Y-76137178D01*
X85578414Y-76405283D01*
X85521800Y-76689902D01*
X85521800Y-76980098D01*
X85578414Y-77264717D01*
X85689467Y-77532822D01*
X85850691Y-77774110D01*
X86055890Y-77979309D01*
X86243999Y-78105000D01*
X86055890Y-78230691D01*
X85850691Y-78435890D01*
X85689467Y-78677178D01*
X85578414Y-78945283D01*
X85521800Y-79229902D01*
X85521800Y-79520098D01*
X85578414Y-79804717D01*
X85689467Y-80072822D01*
X85850691Y-80314110D01*
X86055890Y-80519309D01*
X86243999Y-80645000D01*
X86055890Y-80770691D01*
X85850691Y-80975890D01*
X85689467Y-81217178D01*
X85578414Y-81485283D01*
X85521800Y-81769902D01*
X85521800Y-82060098D01*
X85578414Y-82344717D01*
X85689467Y-82612822D01*
X85850691Y-82854110D01*
X86055890Y-83059309D01*
X86243999Y-83185000D01*
X86055890Y-83310691D01*
X85850691Y-83515890D01*
X85689467Y-83757178D01*
X85578414Y-84025283D01*
X85521800Y-84309902D01*
X85521800Y-84600098D01*
X85578414Y-84884717D01*
X85689467Y-85152822D01*
X85850691Y-85394110D01*
X86055890Y-85599309D01*
X86297178Y-85760533D01*
X86565283Y-85871586D01*
X86849902Y-85928200D01*
X87140098Y-85928200D01*
X87424717Y-85871586D01*
X87692822Y-85760533D01*
X87934110Y-85599309D01*
X88139309Y-85394110D01*
X88265000Y-85206001D01*
X88390691Y-85394110D01*
X88595890Y-85599309D01*
X88837178Y-85760533D01*
X89105283Y-85871586D01*
X89389902Y-85928200D01*
X89680098Y-85928200D01*
X89964717Y-85871586D01*
X90232822Y-85760533D01*
X90474110Y-85599309D01*
X90679309Y-85394110D01*
X90840533Y-85152822D01*
X90951586Y-84884717D01*
X91008200Y-84600098D01*
X91008200Y-84309902D01*
X90951586Y-84025283D01*
X90840533Y-83757178D01*
X90679309Y-83515890D01*
X90474110Y-83310691D01*
X90286001Y-83185000D01*
X90474110Y-83059309D01*
X90679309Y-82854110D01*
X90840533Y-82612822D01*
X90951586Y-82344717D01*
X91008200Y-82060098D01*
X91008200Y-81769902D01*
X90951586Y-81485283D01*
X90840533Y-81217178D01*
X90679309Y-80975890D01*
X90474110Y-80770691D01*
X90286001Y-80645000D01*
X90474110Y-80519309D01*
X90679309Y-80314110D01*
X90840533Y-80072822D01*
X90951586Y-79804717D01*
X91008200Y-79520098D01*
X91008200Y-79229902D01*
X90951586Y-78945283D01*
X90840533Y-78677178D01*
X90679309Y-78435890D01*
X90474110Y-78230691D01*
X90286001Y-78105000D01*
X90474110Y-77979309D01*
X90679309Y-77774110D01*
X90805000Y-77586001D01*
X90930691Y-77774110D01*
X91135890Y-77979309D01*
X91377178Y-78140533D01*
X91645283Y-78251586D01*
X91929902Y-78308200D01*
X92220098Y-78308200D01*
X92504717Y-78251586D01*
X92772822Y-78140533D01*
X93014110Y-77979309D01*
X93219309Y-77774110D01*
X93345000Y-77586001D01*
X93470691Y-77774110D01*
X93675890Y-77979309D01*
X93917178Y-78140533D01*
X94185283Y-78251586D01*
X94469902Y-78308200D01*
X94760098Y-78308200D01*
X95044717Y-78251586D01*
X95312822Y-78140533D01*
X95554110Y-77979309D01*
X95759309Y-77774110D01*
X95885000Y-77586001D01*
X96010691Y-77774110D01*
X96215890Y-77979309D01*
X96457178Y-78140533D01*
X96725283Y-78251586D01*
X97009902Y-78308200D01*
X97300098Y-78308200D01*
X97584717Y-78251586D01*
X97852822Y-78140533D01*
X98094110Y-77979309D01*
X98299309Y-77774110D01*
X98425000Y-77586001D01*
X98550691Y-77774110D01*
X98755890Y-77979309D01*
X98997178Y-78140533D01*
X99265283Y-78251586D01*
X99549902Y-78308200D01*
X99840098Y-78308200D01*
X100124717Y-78251586D01*
X100392822Y-78140533D01*
X100634110Y-77979309D01*
X100839309Y-77774110D01*
X100965000Y-77586001D01*
X101090691Y-77774110D01*
X101295890Y-77979309D01*
X101537178Y-78140533D01*
X101805283Y-78251586D01*
X102089902Y-78308200D01*
X102380098Y-78308200D01*
X102664717Y-78251586D01*
X102932822Y-78140533D01*
X103174110Y-77979309D01*
X103379309Y-77774110D01*
X103505000Y-77586001D01*
X103630691Y-77774110D01*
X103835890Y-77979309D01*
X104077178Y-78140533D01*
X104345283Y-78251586D01*
X104629902Y-78308200D01*
X104920098Y-78308200D01*
X105204717Y-78251586D01*
X105472822Y-78140533D01*
X105714110Y-77979309D01*
X105919309Y-77774110D01*
X106045000Y-77586001D01*
X106170691Y-77774110D01*
X106375890Y-77979309D01*
X106617178Y-78140533D01*
X106885283Y-78251586D01*
X107169902Y-78308200D01*
X107460098Y-78308200D01*
X107744717Y-78251586D01*
X108012822Y-78140533D01*
X108254110Y-77979309D01*
X108459309Y-77774110D01*
X108585000Y-77586001D01*
X108710691Y-77774110D01*
X108915890Y-77979309D01*
X109157178Y-78140533D01*
X109425283Y-78251586D01*
X109709902Y-78308200D01*
X110000098Y-78308200D01*
X110284717Y-78251586D01*
X110552822Y-78140533D01*
X110794110Y-77979309D01*
X110999309Y-77774110D01*
X111125000Y-77586001D01*
X111250691Y-77774110D01*
X111455890Y-77979309D01*
X111697178Y-78140533D01*
X111965283Y-78251586D01*
X112249902Y-78308200D01*
X112540098Y-78308200D01*
X112824717Y-78251586D01*
X113092822Y-78140533D01*
X113334110Y-77979309D01*
X113539309Y-77774110D01*
X113665000Y-77586001D01*
X113790691Y-77774110D01*
X113995890Y-77979309D01*
X114237178Y-78140533D01*
X114505283Y-78251586D01*
X114789902Y-78308200D01*
X115080098Y-78308200D01*
X115364717Y-78251586D01*
X115632822Y-78140533D01*
X115874110Y-77979309D01*
X116079309Y-77774110D01*
X116205000Y-77586001D01*
X116330691Y-77774110D01*
X116535890Y-77979309D01*
X116777178Y-78140533D01*
X117045283Y-78251586D01*
X117329902Y-78308200D01*
X117620098Y-78308200D01*
X117904717Y-78251586D01*
X118172822Y-78140533D01*
X118414110Y-77979309D01*
X118619309Y-77774110D01*
X118745000Y-77586001D01*
X118870691Y-77774110D01*
X119075890Y-77979309D01*
X119317178Y-78140533D01*
X119585283Y-78251586D01*
X119869902Y-78308200D01*
X120160098Y-78308200D01*
X120444717Y-78251586D01*
X120712822Y-78140533D01*
X120954110Y-77979309D01*
X121159309Y-77774110D01*
X121285000Y-77586001D01*
X121410691Y-77774110D01*
X121615890Y-77979309D01*
X121857178Y-78140533D01*
X122125283Y-78251586D01*
X122409902Y-78308200D01*
X122700098Y-78308200D01*
X122984717Y-78251586D01*
X123252822Y-78140533D01*
X123494110Y-77979309D01*
X123699309Y-77774110D01*
X123825000Y-77586001D01*
X123950691Y-77774110D01*
X124155890Y-77979309D01*
X124397178Y-78140533D01*
X124665283Y-78251586D01*
X124949902Y-78308200D01*
X125240098Y-78308200D01*
X125524717Y-78251586D01*
X125792822Y-78140533D01*
X126034110Y-77979309D01*
X126239309Y-77774110D01*
X126400533Y-77532822D01*
X126511586Y-77264717D01*
X126568200Y-76980098D01*
X126568200Y-76689902D01*
X126511586Y-76405283D01*
X126400533Y-76137178D01*
X126239309Y-75895890D01*
X126034110Y-75690691D01*
X125846001Y-75565000D01*
X126034110Y-75439309D01*
X126239309Y-75234110D01*
X126400533Y-74992822D01*
X126511586Y-74724717D01*
X126568200Y-74440098D01*
X126568200Y-74149902D01*
X126511586Y-73865283D01*
X126400533Y-73597178D01*
X126239309Y-73355890D01*
X126034110Y-73150691D01*
X125792822Y-72989467D01*
X125524717Y-72878414D01*
X125240098Y-72821800D01*
X124949902Y-72821800D01*
X124665283Y-72878414D01*
X124397178Y-72989467D01*
X124155890Y-73150691D01*
X123950691Y-73355890D01*
X123825000Y-73543999D01*
X123699309Y-73355890D01*
X123494110Y-73150691D01*
X123252822Y-72989467D01*
X122984717Y-72878414D01*
X122700098Y-72821800D01*
X122409902Y-72821800D01*
X122125283Y-72878414D01*
X121857178Y-72989467D01*
X121615890Y-73150691D01*
X121410691Y-73355890D01*
X121285000Y-73543999D01*
X121159309Y-73355890D01*
X120954110Y-73150691D01*
X120712822Y-72989467D01*
X120444717Y-72878414D01*
X120160098Y-72821800D01*
X119869902Y-72821800D01*
X119585283Y-72878414D01*
X119317178Y-72989467D01*
X119075890Y-73150691D01*
X118870691Y-73355890D01*
X118745000Y-73543999D01*
X118619309Y-73355890D01*
X118414110Y-73150691D01*
X118172822Y-72989467D01*
X117904717Y-72878414D01*
X117620098Y-72821800D01*
X117329902Y-72821800D01*
X117045283Y-72878414D01*
X116777178Y-72989467D01*
X116535890Y-73150691D01*
X116330691Y-73355890D01*
X116205000Y-73543999D01*
X116079309Y-73355890D01*
X115874110Y-73150691D01*
X115632822Y-72989467D01*
X115364717Y-72878414D01*
X115080098Y-72821800D01*
X114789902Y-72821800D01*
X114505283Y-72878414D01*
X114237178Y-72989467D01*
X113995890Y-73150691D01*
X113790691Y-73355890D01*
X113665000Y-73543999D01*
X113539309Y-73355890D01*
X113334110Y-73150691D01*
X113092822Y-72989467D01*
X112824717Y-72878414D01*
X112540098Y-72821800D01*
X112249902Y-72821800D01*
X111965283Y-72878414D01*
X111697178Y-72989467D01*
X111455890Y-73150691D01*
X111250691Y-73355890D01*
X111125000Y-73543999D01*
X110999309Y-73355890D01*
X110794110Y-73150691D01*
X110552822Y-72989467D01*
X110284717Y-72878414D01*
X110000098Y-72821800D01*
X109709902Y-72821800D01*
X109425283Y-72878414D01*
X109157178Y-72989467D01*
X108915890Y-73150691D01*
X108710691Y-73355890D01*
X108585000Y-73543999D01*
X108459309Y-73355890D01*
X108254110Y-73150691D01*
X108012822Y-72989467D01*
X107744717Y-72878414D01*
X107460098Y-72821800D01*
X107169902Y-72821800D01*
X106885283Y-72878414D01*
X106617178Y-72989467D01*
X106375890Y-73150691D01*
X106170691Y-73355890D01*
X106045000Y-73543999D01*
X105919309Y-73355890D01*
X105714110Y-73150691D01*
X105472822Y-72989467D01*
X105204717Y-72878414D01*
X104920098Y-72821800D01*
X104629902Y-72821800D01*
X104345283Y-72878414D01*
X104077178Y-72989467D01*
X103835890Y-73150691D01*
X103630691Y-73355890D01*
X103505000Y-73543999D01*
X103379309Y-73355890D01*
X103174110Y-73150691D01*
X102932822Y-72989467D01*
X102664717Y-72878414D01*
X102380098Y-72821800D01*
X102089902Y-72821800D01*
X101805283Y-72878414D01*
X101537178Y-72989467D01*
X101295890Y-73150691D01*
X101090691Y-73355890D01*
X100965000Y-73543999D01*
X100839309Y-73355890D01*
X100634110Y-73150691D01*
X100392822Y-72989467D01*
X100124717Y-72878414D01*
X99840098Y-72821800D01*
X99549902Y-72821800D01*
X99265283Y-72878414D01*
X98997178Y-72989467D01*
X98755890Y-73150691D01*
X98550691Y-73355890D01*
X98425000Y-73543999D01*
X98299309Y-73355890D01*
X98094110Y-73150691D01*
X97852822Y-72989467D01*
X97584717Y-72878414D01*
X97300098Y-72821800D01*
X97009902Y-72821800D01*
X96725283Y-72878414D01*
X96457178Y-72989467D01*
X96215890Y-73150691D01*
X96010691Y-73355890D01*
X95885000Y-73543999D01*
X95759309Y-73355890D01*
X95554110Y-73150691D01*
X95312822Y-72989467D01*
X95044717Y-72878414D01*
X94760098Y-72821800D01*
X94469902Y-72821800D01*
X94185283Y-72878414D01*
X93917178Y-72989467D01*
X93675890Y-73150691D01*
X93470691Y-73355890D01*
X93345000Y-73543999D01*
X93219309Y-73355890D01*
X93014110Y-73150691D01*
X92772822Y-72989467D01*
X92504717Y-72878414D01*
X92220098Y-72821800D01*
X91929902Y-72821800D01*
X91645283Y-72878414D01*
X91377178Y-72989467D01*
X91135890Y-73150691D01*
X90930691Y-73355890D01*
X90805000Y-73543999D01*
X90679309Y-73355890D01*
X90474110Y-73150691D01*
X90232822Y-72989467D01*
X89964717Y-72878414D01*
X89680098Y-72821800D01*
X89389902Y-72821800D01*
X89105283Y-72878414D01*
X88837178Y-72989467D01*
X88595890Y-73150691D01*
X88390691Y-73355890D01*
X88265000Y-73543999D01*
X88139309Y-73355890D01*
X87934110Y-73150691D01*
X87692822Y-72989467D01*
X87424717Y-72878414D01*
X87140098Y-72821800D01*
X86849902Y-72821800D01*
X86565283Y-72878414D01*
X86297178Y-72989467D01*
X86055890Y-73150691D01*
X85850691Y-73355890D01*
X85689467Y-73597178D01*
X85578414Y-73865283D01*
X85521800Y-74149902D01*
X78980297Y-74149902D01*
X78985000Y-74126260D01*
X78985000Y-73833740D01*
X78927932Y-73546842D01*
X78815990Y-73276589D01*
X78653475Y-73033368D01*
X78446632Y-72826525D01*
X78272240Y-72710000D01*
X78446632Y-72593475D01*
X78653475Y-72386632D01*
X78815990Y-72143411D01*
X78927932Y-71873158D01*
X78985000Y-71586260D01*
X78985000Y-71293740D01*
X78927932Y-71006842D01*
X78815990Y-70736589D01*
X78653475Y-70493368D01*
X78446632Y-70286525D01*
X78264466Y-70164805D01*
X78381355Y-70095178D01*
X78597588Y-69900269D01*
X78771641Y-69666920D01*
X78892930Y-69412276D01*
X79139017Y-69658363D01*
X79488698Y-69892012D01*
X79877244Y-70052953D01*
X80289721Y-70135000D01*
X80710279Y-70135000D01*
X81122756Y-70052953D01*
X81511302Y-69892012D01*
X81860983Y-69658363D01*
X82158363Y-69360983D01*
X82392012Y-69011302D01*
X82552953Y-68622756D01*
X82635000Y-68210279D01*
X82635000Y-67789721D01*
X119365000Y-67789721D01*
X119365000Y-68210279D01*
X119447047Y-68622756D01*
X119607988Y-69011302D01*
X119841637Y-69360983D01*
X120139017Y-69658363D01*
X120488698Y-69892012D01*
X120877244Y-70052953D01*
X121289721Y-70135000D01*
X121710279Y-70135000D01*
X122122756Y-70052953D01*
X122511302Y-69892012D01*
X122860983Y-69658363D01*
X123158363Y-69360983D01*
X123392012Y-69011302D01*
X123552953Y-68622756D01*
X123635000Y-68210279D01*
X123635000Y-67789721D01*
X123552953Y-67377244D01*
X123392012Y-66988698D01*
X123158363Y-66639017D01*
X122860983Y-66341637D01*
X122511302Y-66107988D01*
X122122756Y-65947047D01*
X121710279Y-65865000D01*
X121289721Y-65865000D01*
X120877244Y-65947047D01*
X120488698Y-66107988D01*
X120139017Y-66341637D01*
X119841637Y-66639017D01*
X119607988Y-66988698D01*
X119447047Y-67377244D01*
X119365000Y-67789721D01*
X82635000Y-67789721D01*
X82552953Y-67377244D01*
X82392012Y-66988698D01*
X82158363Y-66639017D01*
X81860983Y-66341637D01*
X81511302Y-66107988D01*
X81122756Y-65947047D01*
X80710279Y-65865000D01*
X80289721Y-65865000D01*
X79877244Y-65947047D01*
X79488698Y-66107988D01*
X79139017Y-66341637D01*
X78841637Y-66639017D01*
X78607988Y-66988698D01*
X78447047Y-67377244D01*
X78381807Y-67705229D01*
X78381355Y-67704822D01*
X78131252Y-67555843D01*
X77856891Y-67458519D01*
X77627000Y-67579186D01*
X77627000Y-68773000D01*
X77647000Y-68773000D01*
X77647000Y-69027000D01*
X77627000Y-69027000D01*
X77627000Y-69047000D01*
X77373000Y-69047000D01*
X77373000Y-69027000D01*
X76179845Y-69027000D01*
X76058524Y-69256890D01*
X76103175Y-69404099D01*
X76228359Y-69666920D01*
X76402412Y-69900269D01*
X76618645Y-70095178D01*
X76735534Y-70164805D01*
X76553368Y-70286525D01*
X76346525Y-70493368D01*
X76184010Y-70736589D01*
X76072068Y-71006842D01*
X76015000Y-71293740D01*
X76015000Y-71586260D01*
X76072068Y-71873158D01*
X76184010Y-72143411D01*
X76346525Y-72386632D01*
X76553368Y-72593475D01*
X76727760Y-72710000D01*
X76553368Y-72826525D01*
X76346525Y-73033368D01*
X76184010Y-73276589D01*
X76072068Y-73546842D01*
X76015000Y-73833740D01*
X76015000Y-74126260D01*
X76072068Y-74413158D01*
X76184010Y-74683411D01*
X76346525Y-74926632D01*
X76553368Y-75133475D01*
X76727760Y-75250000D01*
X76553368Y-75366525D01*
X76346525Y-75573368D01*
X76184010Y-75816589D01*
X76072068Y-76086842D01*
X76015000Y-76373740D01*
X76015000Y-76666260D01*
X76072068Y-76953158D01*
X76184010Y-77223411D01*
X76346525Y-77466632D01*
X76553368Y-77673475D01*
X76727760Y-77790000D01*
X76553368Y-77906525D01*
X76346525Y-78113368D01*
X76184010Y-78356589D01*
X76072068Y-78626842D01*
X76015000Y-78913740D01*
X76015000Y-79206260D01*
X76072068Y-79493158D01*
X76184010Y-79763411D01*
X76346525Y-80006632D01*
X76553368Y-80213475D01*
X76727760Y-80330000D01*
X76553368Y-80446525D01*
X76346525Y-80653368D01*
X76184010Y-80896589D01*
X76072068Y-81166842D01*
X76015000Y-81453740D01*
X76015000Y-81746260D01*
X76072068Y-82033158D01*
X76184010Y-82303411D01*
X76346525Y-82546632D01*
X76553368Y-82753475D01*
X76727760Y-82870000D01*
X76553368Y-82986525D01*
X76346525Y-83193368D01*
X76184010Y-83436589D01*
X76072068Y-83706842D01*
X76015000Y-83993740D01*
X76015000Y-84286260D01*
X76072068Y-84573158D01*
X76184010Y-84843411D01*
X76346525Y-85086632D01*
X76553368Y-85293475D01*
X76727760Y-85410000D01*
X76553368Y-85526525D01*
X76346525Y-85733368D01*
X76184010Y-85976589D01*
X76072068Y-86246842D01*
X76015000Y-86533740D01*
X76015000Y-86826260D01*
X76072068Y-87113158D01*
X76184010Y-87383411D01*
X76346525Y-87626632D01*
X76553368Y-87833475D01*
X76727760Y-87950000D01*
X76553368Y-88066525D01*
X76346525Y-88273368D01*
X76184010Y-88516589D01*
X76072068Y-88786842D01*
X76015000Y-89073740D01*
X76015000Y-89366260D01*
X76072068Y-89653158D01*
X76184010Y-89923411D01*
X76346525Y-90166632D01*
X76553368Y-90373475D01*
X76727760Y-90490000D01*
X76553368Y-90606525D01*
X76346525Y-90813368D01*
X76184010Y-91056589D01*
X76072068Y-91326842D01*
X76015000Y-91613740D01*
X76015000Y-91906260D01*
X76072068Y-92193158D01*
X76184010Y-92463411D01*
X76346525Y-92706632D01*
X76553368Y-92913475D01*
X76727760Y-93030000D01*
X76553368Y-93146525D01*
X76346525Y-93353368D01*
X76184010Y-93596589D01*
X76072068Y-93866842D01*
X76015000Y-94153740D01*
X76015000Y-94446260D01*
X76072068Y-94733158D01*
X76184010Y-95003411D01*
X76346525Y-95246632D01*
X76553368Y-95453475D01*
X76727760Y-95570000D01*
X76553368Y-95686525D01*
X76346525Y-95893368D01*
X76184010Y-96136589D01*
X76072068Y-96406842D01*
X76015000Y-96693740D01*
X76015000Y-96986260D01*
X76072068Y-97273158D01*
X76184010Y-97543411D01*
X76346525Y-97786632D01*
X76553368Y-97993475D01*
X76727760Y-98110000D01*
X76553368Y-98226525D01*
X76346525Y-98433368D01*
X76184010Y-98676589D01*
X76072068Y-98946842D01*
X76015000Y-99233740D01*
X76015000Y-99526260D01*
X76072068Y-99813158D01*
X76184010Y-100083411D01*
X76346525Y-100326632D01*
X76553368Y-100533475D01*
X76727760Y-100650000D01*
X76553368Y-100766525D01*
X76346525Y-100973368D01*
X76184010Y-101216589D01*
X76072068Y-101486842D01*
X76015000Y-101773740D01*
X76015000Y-102066260D01*
X76068456Y-102335001D01*
X73277309Y-102335001D01*
X73193937Y-102210226D01*
X73049774Y-102066063D01*
X72880256Y-101952795D01*
X72691898Y-101874774D01*
X72491939Y-101835000D01*
X72288061Y-101835000D01*
X72088102Y-101874774D01*
X71899744Y-101952795D01*
X71730226Y-102066063D01*
X71586063Y-102210226D01*
X71472795Y-102379744D01*
X71394774Y-102568102D01*
X71355000Y-102768061D01*
X71355000Y-102971939D01*
X71394774Y-103171898D01*
X71472795Y-103360256D01*
X71586063Y-103529774D01*
X71730226Y-103673937D01*
X71899744Y-103787205D01*
X72088102Y-103865226D01*
X72288061Y-103905000D01*
X72380019Y-103905000D01*
X72506213Y-103943281D01*
X72625210Y-103955001D01*
X72625212Y-103955001D01*
X72665000Y-103958920D01*
X72704788Y-103955001D01*
X76101825Y-103955001D01*
X76072068Y-104026842D01*
X76015000Y-104313740D01*
X76015000Y-104606260D01*
X76072068Y-104893158D01*
X76184010Y-105163411D01*
X76346525Y-105406632D01*
X76478380Y-105538487D01*
X76405820Y-105560498D01*
X76295506Y-105619463D01*
X76198815Y-105698815D01*
X76119463Y-105795506D01*
X76060498Y-105905820D01*
X76024188Y-106025518D01*
X76011928Y-106150000D01*
X76015000Y-106714250D01*
X76173750Y-106873000D01*
X77373000Y-106873000D01*
X77373000Y-106853000D01*
X77627000Y-106853000D01*
X77627000Y-106873000D01*
X77647000Y-106873000D01*
X77647000Y-107127000D01*
X77627000Y-107127000D01*
X77627000Y-108326250D01*
X77785750Y-108485000D01*
X78350000Y-108488072D01*
X78418907Y-108481286D01*
X78447047Y-108622756D01*
X78607988Y-109011302D01*
X78841637Y-109360983D01*
X79139017Y-109658363D01*
X79171399Y-109680000D01*
X69889787Y-109680000D01*
X69849999Y-109676081D01*
X69810211Y-109680000D01*
X69810209Y-109680000D01*
X69691212Y-109691720D01*
X69538527Y-109738037D01*
X69488792Y-109764621D01*
X69397810Y-109813251D01*
X69346939Y-109855000D01*
X69274472Y-109914472D01*
X69249107Y-109945380D01*
X68244488Y-110950000D01*
X67424851Y-110950000D01*
X67460960Y-110820565D01*
X66675000Y-110034605D01*
X65889040Y-110820565D01*
X65925149Y-110950000D01*
X65010749Y-110950000D01*
X65025535Y-110940120D01*
X65220120Y-110745535D01*
X65373005Y-110516727D01*
X65402692Y-110445057D01*
X65407364Y-110458023D01*
X65469344Y-110573980D01*
X65709435Y-110640960D01*
X66495395Y-109855000D01*
X66854605Y-109855000D01*
X67640565Y-110640960D01*
X67880656Y-110573980D01*
X67997756Y-110324952D01*
X68064023Y-110057865D01*
X68076910Y-109782983D01*
X68035922Y-109510867D01*
X67942636Y-109251977D01*
X67880656Y-109136020D01*
X67640565Y-109069040D01*
X66854605Y-109855000D01*
X66495395Y-109855000D01*
X65709435Y-109069040D01*
X65469344Y-109136020D01*
X65405515Y-109271760D01*
X65373005Y-109193273D01*
X65220120Y-108964465D01*
X65145090Y-108889435D01*
X65889040Y-108889435D01*
X66675000Y-109675395D01*
X67460960Y-108889435D01*
X67393980Y-108649344D01*
X67144952Y-108532244D01*
X66877865Y-108465977D01*
X66602983Y-108453090D01*
X66330867Y-108494078D01*
X66071977Y-108587364D01*
X65956020Y-108649344D01*
X65889040Y-108889435D01*
X65145090Y-108889435D01*
X65025535Y-108769880D01*
X64796727Y-108616995D01*
X64542490Y-108511686D01*
X64272592Y-108458000D01*
X63997408Y-108458000D01*
X63727510Y-108511686D01*
X63473273Y-108616995D01*
X63244465Y-108769880D01*
X63049880Y-108964465D01*
X62896995Y-109193273D01*
X62865000Y-109270515D01*
X62833005Y-109193273D01*
X62680120Y-108964465D01*
X62485535Y-108769880D01*
X62405000Y-108716068D01*
X62405000Y-107850000D01*
X76011928Y-107850000D01*
X76024188Y-107974482D01*
X76060498Y-108094180D01*
X76119463Y-108204494D01*
X76198815Y-108301185D01*
X76295506Y-108380537D01*
X76405820Y-108439502D01*
X76525518Y-108475812D01*
X76650000Y-108488072D01*
X77214250Y-108485000D01*
X77373000Y-108326250D01*
X77373000Y-107127000D01*
X76173750Y-107127000D01*
X76015000Y-107285750D01*
X76011928Y-107850000D01*
X62405000Y-107850000D01*
X62405000Y-84823061D01*
X64679619Y-82548443D01*
X64710528Y-82523077D01*
X64811749Y-82399738D01*
X64886963Y-82259022D01*
X64933280Y-82106337D01*
X64945000Y-81987340D01*
X64945000Y-81987338D01*
X64948919Y-81947550D01*
X64945000Y-81907762D01*
X64945000Y-80589249D01*
X65540000Y-80589249D01*
X65540001Y-100385752D01*
X65556424Y-100552499D01*
X65621325Y-100766447D01*
X65726717Y-100963623D01*
X65868552Y-101136449D01*
X66041378Y-101278284D01*
X66238554Y-101383676D01*
X66452502Y-101448577D01*
X66675000Y-101470491D01*
X66897499Y-101448577D01*
X67111447Y-101383676D01*
X67308623Y-101278284D01*
X67481449Y-101136449D01*
X67623284Y-100963623D01*
X67728676Y-100766447D01*
X67793577Y-100552499D01*
X67810000Y-100385752D01*
X67810000Y-80589248D01*
X67793577Y-80422501D01*
X67728676Y-80208553D01*
X67623284Y-80011377D01*
X67481449Y-79838551D01*
X67308623Y-79696716D01*
X67111446Y-79591324D01*
X66897498Y-79526423D01*
X66675000Y-79504509D01*
X66452501Y-79526423D01*
X66238553Y-79591324D01*
X66041377Y-79696716D01*
X65868551Y-79838551D01*
X65726716Y-80011377D01*
X65621324Y-80208554D01*
X65556423Y-80422502D01*
X65540000Y-80589249D01*
X64945000Y-80589249D01*
X64945000Y-74789312D01*
X65020436Y-74738907D01*
X65213907Y-74545436D01*
X65365916Y-74317938D01*
X65405000Y-74223581D01*
X65444084Y-74317938D01*
X65596093Y-74545436D01*
X65789564Y-74738907D01*
X66017062Y-74890916D01*
X66269844Y-74995622D01*
X66538195Y-75049000D01*
X66811805Y-75049000D01*
X67080156Y-74995622D01*
X67332938Y-74890916D01*
X67560436Y-74738907D01*
X67679492Y-74619851D01*
X68434754Y-74619851D01*
X68500765Y-74859127D01*
X68748426Y-74975426D01*
X69014018Y-75041174D01*
X69287334Y-75053845D01*
X69557870Y-75012951D01*
X69815229Y-74920063D01*
X69929235Y-74859127D01*
X69995246Y-74619851D01*
X69215000Y-73839605D01*
X68434754Y-74619851D01*
X67679492Y-74619851D01*
X67753907Y-74545436D01*
X67905916Y-74317938D01*
X67943242Y-74227826D01*
X67954937Y-74260229D01*
X68015873Y-74374235D01*
X68255149Y-74440246D01*
X69035395Y-73660000D01*
X69394605Y-73660000D01*
X70174851Y-74440246D01*
X70414127Y-74374235D01*
X70530426Y-74126574D01*
X70596174Y-73860982D01*
X70608845Y-73587666D01*
X70567951Y-73317130D01*
X70475063Y-73059771D01*
X70414127Y-72945765D01*
X70174851Y-72879754D01*
X69394605Y-73660000D01*
X69035395Y-73660000D01*
X68255149Y-72879754D01*
X68015873Y-72945765D01*
X67945060Y-73096563D01*
X67905916Y-73002062D01*
X67753907Y-72774564D01*
X67679492Y-72700149D01*
X68434754Y-72700149D01*
X69215000Y-73480395D01*
X69995246Y-72700149D01*
X69929235Y-72460873D01*
X69681574Y-72344574D01*
X69415982Y-72278826D01*
X69142666Y-72266155D01*
X68872130Y-72307049D01*
X68614771Y-72399937D01*
X68500765Y-72460873D01*
X68434754Y-72700149D01*
X67679492Y-72700149D01*
X67560436Y-72581093D01*
X67332938Y-72429084D01*
X67080156Y-72324378D01*
X66811805Y-72271000D01*
X66538195Y-72271000D01*
X66269844Y-72324378D01*
X66017062Y-72429084D01*
X65789564Y-72581093D01*
X65596093Y-72774564D01*
X65444084Y-73002062D01*
X65405000Y-73096419D01*
X65365916Y-73002062D01*
X65213907Y-72774564D01*
X65020436Y-72581093D01*
X64792938Y-72429084D01*
X64540156Y-72324378D01*
X64271805Y-72271000D01*
X63998195Y-72271000D01*
X63729844Y-72324378D01*
X63477062Y-72429084D01*
X63249564Y-72581093D01*
X63056093Y-72774564D01*
X62904084Y-73002062D01*
X62865000Y-73096419D01*
X62825916Y-73002062D01*
X62673907Y-72774564D01*
X62480436Y-72581093D01*
X62252938Y-72429084D01*
X62000156Y-72324378D01*
X61731805Y-72271000D01*
X61458195Y-72271000D01*
X61189844Y-72324378D01*
X60937062Y-72429084D01*
X60709564Y-72581093D01*
X60516093Y-72774564D01*
X60364084Y-73002062D01*
X60325000Y-73096419D01*
X60285916Y-73002062D01*
X60133907Y-72774564D01*
X59940436Y-72581093D01*
X59712938Y-72429084D01*
X59460156Y-72324378D01*
X59191805Y-72271000D01*
X58918195Y-72271000D01*
X58649844Y-72324378D01*
X58397062Y-72429084D01*
X58169564Y-72581093D01*
X57976093Y-72774564D01*
X57904657Y-72881476D01*
X57894812Y-72781518D01*
X57858502Y-72661820D01*
X57799537Y-72551506D01*
X57720185Y-72454815D01*
X57623494Y-72375463D01*
X57513180Y-72316498D01*
X57393482Y-72280188D01*
X57269000Y-72267928D01*
X55761000Y-72267928D01*
X55636518Y-72280188D01*
X55516820Y-72316498D01*
X55406506Y-72375463D01*
X55309815Y-72454815D01*
X55230463Y-72551506D01*
X55171498Y-72661820D01*
X55135188Y-72781518D01*
X55122928Y-72906000D01*
X55122928Y-74414000D01*
X55135188Y-74538482D01*
X55171498Y-74658180D01*
X55230463Y-74768494D01*
X55309815Y-74865185D01*
X55406506Y-74944537D01*
X55516820Y-75003502D01*
X55636518Y-75039812D01*
X55761000Y-75052072D01*
X57269000Y-75052072D01*
X57393482Y-75039812D01*
X57513180Y-75003502D01*
X57623494Y-74944537D01*
X57720185Y-74865185D01*
X57799537Y-74768494D01*
X57858502Y-74658180D01*
X57894812Y-74538482D01*
X57904657Y-74438524D01*
X57976093Y-74545436D01*
X58169564Y-74738907D01*
X58397062Y-74890916D01*
X58649844Y-74995622D01*
X58918195Y-75049000D01*
X59191805Y-75049000D01*
X59460156Y-74995622D01*
X59712938Y-74890916D01*
X59940436Y-74738907D01*
X60133907Y-74545436D01*
X60285916Y-74317938D01*
X60325000Y-74223581D01*
X60364084Y-74317938D01*
X60516093Y-74545436D01*
X60709564Y-74738907D01*
X60785001Y-74789312D01*
X60785000Y-81579487D01*
X58510383Y-83854105D01*
X58479473Y-83879472D01*
X58454108Y-83910380D01*
X58378251Y-84002811D01*
X58303038Y-84143527D01*
X58256721Y-84296213D01*
X58241081Y-84455000D01*
X58245001Y-84494798D01*
X58245000Y-108716068D01*
X58164465Y-108769880D01*
X57969880Y-108964465D01*
X57816995Y-109193273D01*
X57711686Y-109447510D01*
X57658000Y-109717408D01*
X57658000Y-109992592D01*
X57711686Y-110262490D01*
X57816995Y-110516727D01*
X57969880Y-110745535D01*
X58164465Y-110940120D01*
X58245001Y-110993932D01*
X58245001Y-111720202D01*
X58241081Y-111760000D01*
X58255305Y-111904410D01*
X58256721Y-111918788D01*
X58303038Y-112071473D01*
X58378251Y-112212189D01*
X58432292Y-112278037D01*
X58479473Y-112335528D01*
X58510381Y-112360893D01*
X60359105Y-114209618D01*
X60384472Y-114240528D01*
X60415380Y-114265893D01*
X60507810Y-114341749D01*
X60550538Y-114364587D01*
X60648527Y-114416963D01*
X60801212Y-114463280D01*
X60920209Y-114475000D01*
X60920212Y-114475000D01*
X60960000Y-114478919D01*
X60999788Y-114475000D01*
X69175212Y-114475000D01*
X69215000Y-114478919D01*
X69254788Y-114475000D01*
X69254791Y-114475000D01*
X69373788Y-114463280D01*
X69526473Y-114416963D01*
X69624461Y-114364587D01*
X78544192Y-114364587D01*
X79500000Y-115320395D01*
X80455808Y-114364587D01*
X85044192Y-114364587D01*
X86000000Y-115320395D01*
X86955808Y-114364587D01*
X86860044Y-114100186D01*
X86570429Y-113959296D01*
X86258892Y-113877616D01*
X85937405Y-113858282D01*
X85618325Y-113902039D01*
X85313912Y-114007205D01*
X85139956Y-114100186D01*
X85044192Y-114364587D01*
X80455808Y-114364587D01*
X80360044Y-114100186D01*
X80070429Y-113959296D01*
X79758892Y-113877616D01*
X79437405Y-113858282D01*
X79118325Y-113902039D01*
X78813912Y-114007205D01*
X78639956Y-114100186D01*
X78544192Y-114364587D01*
X69624461Y-114364587D01*
X69667189Y-114341749D01*
X69790528Y-114240528D01*
X69815899Y-114209613D01*
X71455513Y-112570000D01*
X83145212Y-112570000D01*
X83185000Y-112573919D01*
X83224788Y-112570000D01*
X83224791Y-112570000D01*
X83343788Y-112558280D01*
X83496473Y-112511963D01*
X83637189Y-112436749D01*
X83760528Y-112335528D01*
X83785899Y-112304613D01*
X85634621Y-110455892D01*
X85645589Y-110446891D01*
X85689467Y-110552822D01*
X85850691Y-110794110D01*
X86055890Y-110999309D01*
X86297178Y-111160533D01*
X86565283Y-111271586D01*
X86849902Y-111328200D01*
X87140098Y-111328200D01*
X87424717Y-111271586D01*
X87692822Y-111160533D01*
X87934110Y-110999309D01*
X88139309Y-110794110D01*
X88265000Y-110606001D01*
X88390691Y-110794110D01*
X88595890Y-110999309D01*
X88837178Y-111160533D01*
X89105283Y-111271586D01*
X89389902Y-111328200D01*
X89456287Y-111328200D01*
X87720383Y-113064105D01*
X87689473Y-113089472D01*
X87643852Y-113145061D01*
X87588251Y-113212811D01*
X87519481Y-113341473D01*
X87513038Y-113353527D01*
X87474009Y-113482189D01*
X87466721Y-113506213D01*
X87451081Y-113665000D01*
X87455001Y-113704798D01*
X87455001Y-114743203D01*
X87399814Y-114639956D01*
X87135413Y-114544192D01*
X86179605Y-115500000D01*
X86193748Y-115514143D01*
X86014143Y-115693748D01*
X86000000Y-115679605D01*
X85044192Y-116635413D01*
X85054908Y-116665000D01*
X80445092Y-116665000D01*
X80455808Y-116635413D01*
X79500000Y-115679605D01*
X78544192Y-116635413D01*
X78554908Y-116665000D01*
X69889788Y-116665000D01*
X69850000Y-116661081D01*
X69810212Y-116665000D01*
X69810209Y-116665000D01*
X69691212Y-116676720D01*
X69538527Y-116723037D01*
X69488792Y-116749621D01*
X69397810Y-116798251D01*
X69333796Y-116850786D01*
X69274472Y-116899472D01*
X69249107Y-116930380D01*
X61050388Y-125129100D01*
X61019472Y-125154472D01*
X60949703Y-125239487D01*
X60918251Y-125277811D01*
X60890356Y-125330000D01*
X60843037Y-125418528D01*
X60796720Y-125571213D01*
X60792601Y-125613037D01*
X60781081Y-125730000D01*
X60785000Y-125769788D01*
X60785000Y-130683000D01*
X60491571Y-130683000D01*
X60306829Y-130663929D01*
X60136144Y-130609519D01*
X59974450Y-130518153D01*
X50828611Y-124027558D01*
X50697056Y-123913670D01*
X50660000Y-123866371D01*
X50660000Y-115562595D01*
X77858282Y-115562595D01*
X77902039Y-115881675D01*
X78007205Y-116186088D01*
X78100186Y-116360044D01*
X78364587Y-116455808D01*
X79320395Y-115500000D01*
X79679605Y-115500000D01*
X80635413Y-116455808D01*
X80899814Y-116360044D01*
X81040704Y-116070429D01*
X81122384Y-115758892D01*
X81134189Y-115562595D01*
X84358282Y-115562595D01*
X84402039Y-115881675D01*
X84507205Y-116186088D01*
X84600186Y-116360044D01*
X84864587Y-116455808D01*
X85820395Y-115500000D01*
X84864587Y-114544192D01*
X84600186Y-114639956D01*
X84459296Y-114929571D01*
X84377616Y-115241108D01*
X84358282Y-115562595D01*
X81134189Y-115562595D01*
X81141718Y-115437405D01*
X81097961Y-115118325D01*
X80992795Y-114813912D01*
X80899814Y-114639956D01*
X80635413Y-114544192D01*
X79679605Y-115500000D01*
X79320395Y-115500000D01*
X78364587Y-114544192D01*
X78100186Y-114639956D01*
X77959296Y-114929571D01*
X77877616Y-115241108D01*
X77858282Y-115562595D01*
X50660000Y-115562595D01*
X50660000Y-102621606D01*
X50922063Y-76065905D01*
X50938873Y-75901049D01*
X50983835Y-75747636D01*
X51056029Y-75605010D01*
X51153037Y-75477949D01*
X51275940Y-75366795D01*
X60374186Y-68543110D01*
X76058524Y-68543110D01*
X76179845Y-68773000D01*
X77373000Y-68773000D01*
X77373000Y-67579186D01*
X77143109Y-67458519D01*
X76868748Y-67555843D01*
X76618645Y-67704822D01*
X76402412Y-67899731D01*
X76228359Y-68133080D01*
X76103175Y-68395901D01*
X76058524Y-68543110D01*
X60374186Y-68543110D01*
X65844081Y-64440689D01*
X66010501Y-64341778D01*
X66187666Y-64282723D01*
X66380148Y-64262000D01*
X123484852Y-64262000D01*
X123677334Y-64282723D01*
G37*
%TD.AperFunction*%
D23*
X95677500Y-125185561D02*
X95677500Y-125389439D01*
X95710432Y-125555000D01*
X94630700Y-125555000D01*
X94470256Y-125447795D01*
X94281898Y-125369774D01*
X94081939Y-125330000D01*
X93878061Y-125330000D01*
X93678102Y-125369774D01*
X93489744Y-125447795D01*
X93320226Y-125561063D01*
X93176063Y-125705226D01*
X93062795Y-125874744D01*
X92984774Y-126063102D01*
X92947129Y-126252358D01*
X88516488Y-130683000D01*
X79758513Y-130683000D01*
X75176715Y-126101203D01*
X75231898Y-126090226D01*
X75420256Y-126012205D01*
X75589774Y-125898937D01*
X75733937Y-125754774D01*
X75847205Y-125585256D01*
X75925226Y-125396898D01*
X75950467Y-125270000D01*
X95210212Y-125270000D01*
X95250000Y-125273919D01*
X95289788Y-125270000D01*
X95289791Y-125270000D01*
X95408788Y-125258280D01*
X95561473Y-125211963D01*
X95685427Y-125145708D01*
X95677500Y-125185561D01*
%TA.AperFunction,Conductor*%
D24*
G36*
X95677500Y-125185561D02*
G01*
X95677500Y-125389439D01*
X95710432Y-125555000D01*
X94630700Y-125555000D01*
X94470256Y-125447795D01*
X94281898Y-125369774D01*
X94081939Y-125330000D01*
X93878061Y-125330000D01*
X93678102Y-125369774D01*
X93489744Y-125447795D01*
X93320226Y-125561063D01*
X93176063Y-125705226D01*
X93062795Y-125874744D01*
X92984774Y-126063102D01*
X92947129Y-126252358D01*
X88516488Y-130683000D01*
X79758513Y-130683000D01*
X75176715Y-126101203D01*
X75231898Y-126090226D01*
X75420256Y-126012205D01*
X75589774Y-125898937D01*
X75733937Y-125754774D01*
X75847205Y-125585256D01*
X75925226Y-125396898D01*
X75950467Y-125270000D01*
X95210212Y-125270000D01*
X95250000Y-125273919D01*
X95289788Y-125270000D01*
X95289791Y-125270000D01*
X95408788Y-125258280D01*
X95561473Y-125211963D01*
X95685427Y-125145708D01*
X95677500Y-125185561D01*
G37*
%TD.AperFunction*%
D23*
X116330691Y-110794110D02*
X116495534Y-110958953D01*
X114591378Y-112863109D01*
X114660226Y-112696898D01*
X114700000Y-112496939D01*
X114700000Y-112293061D01*
X114660226Y-112093102D01*
X114582205Y-111904744D01*
X114468937Y-111735226D01*
X114324774Y-111591063D01*
X114155256Y-111477795D01*
X113966898Y-111399774D01*
X113766939Y-111360000D01*
X113563061Y-111360000D01*
X113363102Y-111399774D01*
X113174744Y-111477795D01*
X113005226Y-111591063D01*
X112861063Y-111735226D01*
X112747795Y-111904744D01*
X112669774Y-112093102D01*
X112630000Y-112293061D01*
X112630000Y-112496939D01*
X112669774Y-112696898D01*
X112747795Y-112885256D01*
X112855000Y-113045700D01*
X112855000Y-113069790D01*
X112855001Y-113069800D01*
X112855000Y-121584487D01*
X112059488Y-122380000D01*
X96559787Y-122380000D01*
X96519999Y-122376081D01*
X96480211Y-122380000D01*
X96480209Y-122380000D01*
X96361212Y-122391720D01*
X96208527Y-122438037D01*
X96158794Y-122464620D01*
X96067810Y-122513251D01*
X96015261Y-122556377D01*
X95944472Y-122614472D01*
X95919107Y-122645380D01*
X94914488Y-123650000D01*
X92481087Y-123650000D01*
X92493676Y-123626447D01*
X92558577Y-123412499D01*
X92580491Y-123190000D01*
X92558577Y-122967501D01*
X92493676Y-122753553D01*
X92388284Y-122556377D01*
X92246449Y-122383551D01*
X92073623Y-122241716D01*
X91876447Y-122136324D01*
X91662499Y-122071423D01*
X91495752Y-122055000D01*
X88005512Y-122055000D01*
X90079619Y-119980894D01*
X90110528Y-119955528D01*
X90211749Y-119832189D01*
X90216144Y-119823967D01*
X90365000Y-119823967D01*
X90365000Y-120146033D01*
X90427832Y-120461912D01*
X90551082Y-120759463D01*
X90730013Y-121027252D01*
X90957748Y-121254987D01*
X91225537Y-121433918D01*
X91523088Y-121557168D01*
X91838967Y-121620000D01*
X92161033Y-121620000D01*
X92476912Y-121557168D01*
X92774463Y-121433918D01*
X93042252Y-121254987D01*
X93269987Y-121027252D01*
X93448918Y-120759463D01*
X93572168Y-120461912D01*
X93635000Y-120146033D01*
X93635000Y-119823967D01*
X96865000Y-119823967D01*
X96865000Y-120146033D01*
X96927832Y-120461912D01*
X97051082Y-120759463D01*
X97230013Y-121027252D01*
X97457748Y-121254987D01*
X97725537Y-121433918D01*
X98023088Y-121557168D01*
X98338967Y-121620000D01*
X98661033Y-121620000D01*
X98976912Y-121557168D01*
X99274463Y-121433918D01*
X99542252Y-121254987D01*
X99769987Y-121027252D01*
X99948918Y-120759463D01*
X100072168Y-120461912D01*
X100135000Y-120146033D01*
X100135000Y-119838967D01*
X102865000Y-119838967D01*
X102865000Y-120161033D01*
X102927832Y-120476912D01*
X103051082Y-120774463D01*
X103230013Y-121042252D01*
X103457748Y-121269987D01*
X103725537Y-121448918D01*
X104023088Y-121572168D01*
X104338967Y-121635000D01*
X104661033Y-121635000D01*
X104976912Y-121572168D01*
X105274463Y-121448918D01*
X105542252Y-121269987D01*
X105769987Y-121042252D01*
X105948918Y-120774463D01*
X106072168Y-120476912D01*
X106135000Y-120161033D01*
X106135000Y-119838967D01*
X109365000Y-119838967D01*
X109365000Y-120161033D01*
X109427832Y-120476912D01*
X109551082Y-120774463D01*
X109730013Y-121042252D01*
X109957748Y-121269987D01*
X110225537Y-121448918D01*
X110523088Y-121572168D01*
X110838967Y-121635000D01*
X111161033Y-121635000D01*
X111476912Y-121572168D01*
X111774463Y-121448918D01*
X112042252Y-121269987D01*
X112269987Y-121042252D01*
X112448918Y-120774463D01*
X112572168Y-120476912D01*
X112635000Y-120161033D01*
X112635000Y-119838967D01*
X112572168Y-119523088D01*
X112448918Y-119225537D01*
X112269987Y-118957748D01*
X112042252Y-118730013D01*
X111774463Y-118551082D01*
X111476912Y-118427832D01*
X111161033Y-118365000D01*
X110838967Y-118365000D01*
X110523088Y-118427832D01*
X110225537Y-118551082D01*
X109957748Y-118730013D01*
X109730013Y-118957748D01*
X109551082Y-119225537D01*
X109427832Y-119523088D01*
X109365000Y-119838967D01*
X106135000Y-119838967D01*
X106072168Y-119523088D01*
X105948918Y-119225537D01*
X105769987Y-118957748D01*
X105542252Y-118730013D01*
X105274463Y-118551082D01*
X104976912Y-118427832D01*
X104661033Y-118365000D01*
X104338967Y-118365000D01*
X104023088Y-118427832D01*
X103725537Y-118551082D01*
X103457748Y-118730013D01*
X103230013Y-118957748D01*
X103051082Y-119225537D01*
X102927832Y-119523088D01*
X102865000Y-119838967D01*
X100135000Y-119838967D01*
X100135000Y-119823967D01*
X100072168Y-119508088D01*
X99948918Y-119210537D01*
X99769987Y-118942748D01*
X99542252Y-118715013D01*
X99274463Y-118536082D01*
X98976912Y-118412832D01*
X98661033Y-118350000D01*
X98338967Y-118350000D01*
X98023088Y-118412832D01*
X97725537Y-118536082D01*
X97457748Y-118715013D01*
X97230013Y-118942748D01*
X97051082Y-119210537D01*
X96927832Y-119508088D01*
X96865000Y-119823967D01*
X93635000Y-119823967D01*
X93572168Y-119508088D01*
X93448918Y-119210537D01*
X93269987Y-118942748D01*
X93042252Y-118715013D01*
X92774463Y-118536082D01*
X92476912Y-118412832D01*
X92161033Y-118350000D01*
X91838967Y-118350000D01*
X91523088Y-118412832D01*
X91225537Y-118536082D01*
X90957748Y-118715013D01*
X90730013Y-118942748D01*
X90551082Y-119210537D01*
X90427832Y-119508088D01*
X90365000Y-119823967D01*
X90216144Y-119823967D01*
X90286963Y-119691474D01*
X90297743Y-119655937D01*
X90333280Y-119538788D01*
X90345000Y-119419791D01*
X90345000Y-119419788D01*
X90348919Y-119380000D01*
X90345000Y-119340212D01*
X90345000Y-116620413D01*
X91044192Y-116620413D01*
X91139956Y-116884814D01*
X91429571Y-117025704D01*
X91741108Y-117107384D01*
X92062595Y-117126718D01*
X92381675Y-117082961D01*
X92686088Y-116977795D01*
X92860044Y-116884814D01*
X92955808Y-116620413D01*
X97544192Y-116620413D01*
X97639956Y-116884814D01*
X97929571Y-117025704D01*
X98241108Y-117107384D01*
X98562595Y-117126718D01*
X98881675Y-117082961D01*
X99186088Y-116977795D01*
X99360044Y-116884814D01*
X99450375Y-116635413D01*
X103544192Y-116635413D01*
X103639956Y-116899814D01*
X103929571Y-117040704D01*
X104241108Y-117122384D01*
X104562595Y-117141718D01*
X104881675Y-117097961D01*
X105186088Y-116992795D01*
X105360044Y-116899814D01*
X105455808Y-116635413D01*
X110044192Y-116635413D01*
X110139956Y-116899814D01*
X110429571Y-117040704D01*
X110741108Y-117122384D01*
X111062595Y-117141718D01*
X111381675Y-117097961D01*
X111686088Y-116992795D01*
X111860044Y-116899814D01*
X111955808Y-116635413D01*
X111000000Y-115679605D01*
X110044192Y-116635413D01*
X105455808Y-116635413D01*
X104500000Y-115679605D01*
X103544192Y-116635413D01*
X99450375Y-116635413D01*
X99455808Y-116620413D01*
X98500000Y-115664605D01*
X97544192Y-116620413D01*
X92955808Y-116620413D01*
X92000000Y-115664605D01*
X91044192Y-116620413D01*
X90345000Y-116620413D01*
X90345000Y-115547595D01*
X90358282Y-115547595D01*
X90402039Y-115866675D01*
X90507205Y-116171088D01*
X90600186Y-116345044D01*
X90864587Y-116440808D01*
X91820395Y-115485000D01*
X92179605Y-115485000D01*
X93135413Y-116440808D01*
X93399814Y-116345044D01*
X93540704Y-116055429D01*
X93622384Y-115743892D01*
X93634189Y-115547595D01*
X96858282Y-115547595D01*
X96902039Y-115866675D01*
X97007205Y-116171088D01*
X97100186Y-116345044D01*
X97364587Y-116440808D01*
X98320395Y-115485000D01*
X98679605Y-115485000D01*
X99635413Y-116440808D01*
X99899814Y-116345044D01*
X100040704Y-116055429D01*
X100122384Y-115743892D01*
X100133287Y-115562595D01*
X102858282Y-115562595D01*
X102902039Y-115881675D01*
X103007205Y-116186088D01*
X103100186Y-116360044D01*
X103364587Y-116455808D01*
X104320395Y-115500000D01*
X104679605Y-115500000D01*
X105635413Y-116455808D01*
X105899814Y-116360044D01*
X106040704Y-116070429D01*
X106122384Y-115758892D01*
X106134189Y-115562595D01*
X109358282Y-115562595D01*
X109402039Y-115881675D01*
X109507205Y-116186088D01*
X109600186Y-116360044D01*
X109864587Y-116455808D01*
X110820395Y-115500000D01*
X111179605Y-115500000D01*
X112135413Y-116455808D01*
X112399814Y-116360044D01*
X112540704Y-116070429D01*
X112622384Y-115758892D01*
X112641718Y-115437405D01*
X112597961Y-115118325D01*
X112492795Y-114813912D01*
X112399814Y-114639956D01*
X112135413Y-114544192D01*
X111179605Y-115500000D01*
X110820395Y-115500000D01*
X109864587Y-114544192D01*
X109600186Y-114639956D01*
X109459296Y-114929571D01*
X109377616Y-115241108D01*
X109358282Y-115562595D01*
X106134189Y-115562595D01*
X106141718Y-115437405D01*
X106097961Y-115118325D01*
X105992795Y-114813912D01*
X105899814Y-114639956D01*
X105635413Y-114544192D01*
X104679605Y-115500000D01*
X104320395Y-115500000D01*
X103364587Y-114544192D01*
X103100186Y-114639956D01*
X102959296Y-114929571D01*
X102877616Y-115241108D01*
X102858282Y-115562595D01*
X100133287Y-115562595D01*
X100141718Y-115422405D01*
X100097961Y-115103325D01*
X99992795Y-114798912D01*
X99899814Y-114624956D01*
X99635413Y-114529192D01*
X98679605Y-115485000D01*
X98320395Y-115485000D01*
X97364587Y-114529192D01*
X97100186Y-114624956D01*
X96959296Y-114914571D01*
X96877616Y-115226108D01*
X96858282Y-115547595D01*
X93634189Y-115547595D01*
X93641718Y-115422405D01*
X93597961Y-115103325D01*
X93492795Y-114798912D01*
X93399814Y-114624956D01*
X93135413Y-114529192D01*
X92179605Y-115485000D01*
X91820395Y-115485000D01*
X90864587Y-114529192D01*
X90600186Y-114624956D01*
X90459296Y-114914571D01*
X90377616Y-115226108D01*
X90358282Y-115547595D01*
X90345000Y-115547595D01*
X90345000Y-114635512D01*
X90630925Y-114349587D01*
X91044192Y-114349587D01*
X92000000Y-115305395D01*
X92955808Y-114349587D01*
X97544192Y-114349587D01*
X98500000Y-115305395D01*
X99440808Y-114364587D01*
X103544192Y-114364587D01*
X104500000Y-115320395D01*
X105455808Y-114364587D01*
X110044192Y-114364587D01*
X111000000Y-115320395D01*
X111955808Y-114364587D01*
X111860044Y-114100186D01*
X111570429Y-113959296D01*
X111258892Y-113877616D01*
X110937405Y-113858282D01*
X110618325Y-113902039D01*
X110313912Y-114007205D01*
X110139956Y-114100186D01*
X110044192Y-114364587D01*
X105455808Y-114364587D01*
X105360044Y-114100186D01*
X105070429Y-113959296D01*
X104758892Y-113877616D01*
X104437405Y-113858282D01*
X104118325Y-113902039D01*
X103813912Y-114007205D01*
X103639956Y-114100186D01*
X103544192Y-114364587D01*
X99440808Y-114364587D01*
X99455808Y-114349587D01*
X99360044Y-114085186D01*
X99070429Y-113944296D01*
X98758892Y-113862616D01*
X98437405Y-113843282D01*
X98118325Y-113887039D01*
X97813912Y-113992205D01*
X97639956Y-114085186D01*
X97544192Y-114349587D01*
X92955808Y-114349587D01*
X92860044Y-114085186D01*
X92570429Y-113944296D01*
X92258892Y-113862616D01*
X91937405Y-113843282D01*
X91618325Y-113887039D01*
X91313912Y-113992205D01*
X91139956Y-114085186D01*
X91044192Y-114349587D01*
X90630925Y-114349587D01*
X92619620Y-112360893D01*
X92650528Y-112335528D01*
X92751749Y-112212189D01*
X92826963Y-112071473D01*
X92873280Y-111918788D01*
X92885000Y-111799791D01*
X92885000Y-111799789D01*
X92888919Y-111760001D01*
X92885000Y-111720213D01*
X92885000Y-111085578D01*
X93014110Y-110999309D01*
X93219309Y-110794110D01*
X93345000Y-110606001D01*
X93470691Y-110794110D01*
X93675890Y-110999309D01*
X93917178Y-111160533D01*
X94185283Y-111271586D01*
X94469902Y-111328200D01*
X94760098Y-111328200D01*
X94912394Y-111297907D01*
X96554105Y-112939618D01*
X96579472Y-112970528D01*
X96702811Y-113071749D01*
X96843527Y-113146963D01*
X96996212Y-113193280D01*
X97115209Y-113205000D01*
X97115211Y-113205000D01*
X97154999Y-113208919D01*
X97194787Y-113205000D01*
X107299300Y-113205000D01*
X107459744Y-113312205D01*
X107648102Y-113390226D01*
X107848061Y-113430000D01*
X108051939Y-113430000D01*
X108251898Y-113390226D01*
X108440256Y-113312205D01*
X108609774Y-113198937D01*
X108753937Y-113054774D01*
X108867205Y-112885256D01*
X108945226Y-112696898D01*
X108985000Y-112496939D01*
X108985000Y-112293061D01*
X108945226Y-112093102D01*
X108867205Y-111904744D01*
X108753937Y-111735226D01*
X108609774Y-111591063D01*
X108440256Y-111477795D01*
X108251898Y-111399774D01*
X108051939Y-111360000D01*
X107848061Y-111360000D01*
X107648102Y-111399774D01*
X107459744Y-111477795D01*
X107299300Y-111585000D01*
X97490513Y-111585000D01*
X97233713Y-111328200D01*
X97300098Y-111328200D01*
X97584717Y-111271586D01*
X97852822Y-111160533D01*
X98094110Y-110999309D01*
X98299309Y-110794110D01*
X98425000Y-110606001D01*
X98550691Y-110794110D01*
X98755890Y-110999309D01*
X98997178Y-111160533D01*
X99265283Y-111271586D01*
X99549902Y-111328200D01*
X99840098Y-111328200D01*
X100124717Y-111271586D01*
X100392822Y-111160533D01*
X100634110Y-110999309D01*
X100839309Y-110794110D01*
X100965000Y-110606001D01*
X101090691Y-110794110D01*
X101295890Y-110999309D01*
X101537178Y-111160533D01*
X101805283Y-111271586D01*
X102089902Y-111328200D01*
X102380098Y-111328200D01*
X102664717Y-111271586D01*
X102932822Y-111160533D01*
X103174110Y-110999309D01*
X103379309Y-110794110D01*
X103505000Y-110606001D01*
X103630691Y-110794110D01*
X103835890Y-110999309D01*
X104077178Y-111160533D01*
X104345283Y-111271586D01*
X104629902Y-111328200D01*
X104920098Y-111328200D01*
X105204717Y-111271586D01*
X105472822Y-111160533D01*
X105714110Y-110999309D01*
X105919309Y-110794110D01*
X106045000Y-110606001D01*
X106170691Y-110794110D01*
X106375890Y-110999309D01*
X106617178Y-111160533D01*
X106885283Y-111271586D01*
X107169902Y-111328200D01*
X107460098Y-111328200D01*
X107744717Y-111271586D01*
X108012822Y-111160533D01*
X108254110Y-110999309D01*
X108459309Y-110794110D01*
X108585000Y-110606001D01*
X108710691Y-110794110D01*
X108915890Y-110999309D01*
X109157178Y-111160533D01*
X109425283Y-111271586D01*
X109709902Y-111328200D01*
X110000098Y-111328200D01*
X110284717Y-111271586D01*
X110552822Y-111160533D01*
X110794110Y-110999309D01*
X110999309Y-110794110D01*
X111125000Y-110606001D01*
X111250691Y-110794110D01*
X111455890Y-110999309D01*
X111697178Y-111160533D01*
X111965283Y-111271586D01*
X112249902Y-111328200D01*
X112540098Y-111328200D01*
X112824717Y-111271586D01*
X113092822Y-111160533D01*
X113334110Y-110999309D01*
X113539309Y-110794110D01*
X113665000Y-110606001D01*
X113790691Y-110794110D01*
X113995890Y-110999309D01*
X114237178Y-111160533D01*
X114505283Y-111271586D01*
X114789902Y-111328200D01*
X115080098Y-111328200D01*
X115364717Y-111271586D01*
X115632822Y-111160533D01*
X115874110Y-110999309D01*
X116079309Y-110794110D01*
X116205000Y-110606001D01*
X116330691Y-110794110D01*
%TA.AperFunction,Conductor*%
D24*
G36*
X116330691Y-110794110D02*
G01*
X116495534Y-110958953D01*
X114591378Y-112863109D01*
X114660226Y-112696898D01*
X114700000Y-112496939D01*
X114700000Y-112293061D01*
X114660226Y-112093102D01*
X114582205Y-111904744D01*
X114468937Y-111735226D01*
X114324774Y-111591063D01*
X114155256Y-111477795D01*
X113966898Y-111399774D01*
X113766939Y-111360000D01*
X113563061Y-111360000D01*
X113363102Y-111399774D01*
X113174744Y-111477795D01*
X113005226Y-111591063D01*
X112861063Y-111735226D01*
X112747795Y-111904744D01*
X112669774Y-112093102D01*
X112630000Y-112293061D01*
X112630000Y-112496939D01*
X112669774Y-112696898D01*
X112747795Y-112885256D01*
X112855000Y-113045700D01*
X112855000Y-113069790D01*
X112855001Y-113069800D01*
X112855000Y-121584487D01*
X112059488Y-122380000D01*
X96559787Y-122380000D01*
X96519999Y-122376081D01*
X96480211Y-122380000D01*
X96480209Y-122380000D01*
X96361212Y-122391720D01*
X96208527Y-122438037D01*
X96158794Y-122464620D01*
X96067810Y-122513251D01*
X96015261Y-122556377D01*
X95944472Y-122614472D01*
X95919107Y-122645380D01*
X94914488Y-123650000D01*
X92481087Y-123650000D01*
X92493676Y-123626447D01*
X92558577Y-123412499D01*
X92580491Y-123190000D01*
X92558577Y-122967501D01*
X92493676Y-122753553D01*
X92388284Y-122556377D01*
X92246449Y-122383551D01*
X92073623Y-122241716D01*
X91876447Y-122136324D01*
X91662499Y-122071423D01*
X91495752Y-122055000D01*
X88005512Y-122055000D01*
X90079619Y-119980894D01*
X90110528Y-119955528D01*
X90211749Y-119832189D01*
X90216144Y-119823967D01*
X90365000Y-119823967D01*
X90365000Y-120146033D01*
X90427832Y-120461912D01*
X90551082Y-120759463D01*
X90730013Y-121027252D01*
X90957748Y-121254987D01*
X91225537Y-121433918D01*
X91523088Y-121557168D01*
X91838967Y-121620000D01*
X92161033Y-121620000D01*
X92476912Y-121557168D01*
X92774463Y-121433918D01*
X93042252Y-121254987D01*
X93269987Y-121027252D01*
X93448918Y-120759463D01*
X93572168Y-120461912D01*
X93635000Y-120146033D01*
X93635000Y-119823967D01*
X96865000Y-119823967D01*
X96865000Y-120146033D01*
X96927832Y-120461912D01*
X97051082Y-120759463D01*
X97230013Y-121027252D01*
X97457748Y-121254987D01*
X97725537Y-121433918D01*
X98023088Y-121557168D01*
X98338967Y-121620000D01*
X98661033Y-121620000D01*
X98976912Y-121557168D01*
X99274463Y-121433918D01*
X99542252Y-121254987D01*
X99769987Y-121027252D01*
X99948918Y-120759463D01*
X100072168Y-120461912D01*
X100135000Y-120146033D01*
X100135000Y-119838967D01*
X102865000Y-119838967D01*
X102865000Y-120161033D01*
X102927832Y-120476912D01*
X103051082Y-120774463D01*
X103230013Y-121042252D01*
X103457748Y-121269987D01*
X103725537Y-121448918D01*
X104023088Y-121572168D01*
X104338967Y-121635000D01*
X104661033Y-121635000D01*
X104976912Y-121572168D01*
X105274463Y-121448918D01*
X105542252Y-121269987D01*
X105769987Y-121042252D01*
X105948918Y-120774463D01*
X106072168Y-120476912D01*
X106135000Y-120161033D01*
X106135000Y-119838967D01*
X109365000Y-119838967D01*
X109365000Y-120161033D01*
X109427832Y-120476912D01*
X109551082Y-120774463D01*
X109730013Y-121042252D01*
X109957748Y-121269987D01*
X110225537Y-121448918D01*
X110523088Y-121572168D01*
X110838967Y-121635000D01*
X111161033Y-121635000D01*
X111476912Y-121572168D01*
X111774463Y-121448918D01*
X112042252Y-121269987D01*
X112269987Y-121042252D01*
X112448918Y-120774463D01*
X112572168Y-120476912D01*
X112635000Y-120161033D01*
X112635000Y-119838967D01*
X112572168Y-119523088D01*
X112448918Y-119225537D01*
X112269987Y-118957748D01*
X112042252Y-118730013D01*
X111774463Y-118551082D01*
X111476912Y-118427832D01*
X111161033Y-118365000D01*
X110838967Y-118365000D01*
X110523088Y-118427832D01*
X110225537Y-118551082D01*
X109957748Y-118730013D01*
X109730013Y-118957748D01*
X109551082Y-119225537D01*
X109427832Y-119523088D01*
X109365000Y-119838967D01*
X106135000Y-119838967D01*
X106072168Y-119523088D01*
X105948918Y-119225537D01*
X105769987Y-118957748D01*
X105542252Y-118730013D01*
X105274463Y-118551082D01*
X104976912Y-118427832D01*
X104661033Y-118365000D01*
X104338967Y-118365000D01*
X104023088Y-118427832D01*
X103725537Y-118551082D01*
X103457748Y-118730013D01*
X103230013Y-118957748D01*
X103051082Y-119225537D01*
X102927832Y-119523088D01*
X102865000Y-119838967D01*
X100135000Y-119838967D01*
X100135000Y-119823967D01*
X100072168Y-119508088D01*
X99948918Y-119210537D01*
X99769987Y-118942748D01*
X99542252Y-118715013D01*
X99274463Y-118536082D01*
X98976912Y-118412832D01*
X98661033Y-118350000D01*
X98338967Y-118350000D01*
X98023088Y-118412832D01*
X97725537Y-118536082D01*
X97457748Y-118715013D01*
X97230013Y-118942748D01*
X97051082Y-119210537D01*
X96927832Y-119508088D01*
X96865000Y-119823967D01*
X93635000Y-119823967D01*
X93572168Y-119508088D01*
X93448918Y-119210537D01*
X93269987Y-118942748D01*
X93042252Y-118715013D01*
X92774463Y-118536082D01*
X92476912Y-118412832D01*
X92161033Y-118350000D01*
X91838967Y-118350000D01*
X91523088Y-118412832D01*
X91225537Y-118536082D01*
X90957748Y-118715013D01*
X90730013Y-118942748D01*
X90551082Y-119210537D01*
X90427832Y-119508088D01*
X90365000Y-119823967D01*
X90216144Y-119823967D01*
X90286963Y-119691474D01*
X90297743Y-119655937D01*
X90333280Y-119538788D01*
X90345000Y-119419791D01*
X90345000Y-119419788D01*
X90348919Y-119380000D01*
X90345000Y-119340212D01*
X90345000Y-116620413D01*
X91044192Y-116620413D01*
X91139956Y-116884814D01*
X91429571Y-117025704D01*
X91741108Y-117107384D01*
X92062595Y-117126718D01*
X92381675Y-117082961D01*
X92686088Y-116977795D01*
X92860044Y-116884814D01*
X92955808Y-116620413D01*
X97544192Y-116620413D01*
X97639956Y-116884814D01*
X97929571Y-117025704D01*
X98241108Y-117107384D01*
X98562595Y-117126718D01*
X98881675Y-117082961D01*
X99186088Y-116977795D01*
X99360044Y-116884814D01*
X99450375Y-116635413D01*
X103544192Y-116635413D01*
X103639956Y-116899814D01*
X103929571Y-117040704D01*
X104241108Y-117122384D01*
X104562595Y-117141718D01*
X104881675Y-117097961D01*
X105186088Y-116992795D01*
X105360044Y-116899814D01*
X105455808Y-116635413D01*
X110044192Y-116635413D01*
X110139956Y-116899814D01*
X110429571Y-117040704D01*
X110741108Y-117122384D01*
X111062595Y-117141718D01*
X111381675Y-117097961D01*
X111686088Y-116992795D01*
X111860044Y-116899814D01*
X111955808Y-116635413D01*
X111000000Y-115679605D01*
X110044192Y-116635413D01*
X105455808Y-116635413D01*
X104500000Y-115679605D01*
X103544192Y-116635413D01*
X99450375Y-116635413D01*
X99455808Y-116620413D01*
X98500000Y-115664605D01*
X97544192Y-116620413D01*
X92955808Y-116620413D01*
X92000000Y-115664605D01*
X91044192Y-116620413D01*
X90345000Y-116620413D01*
X90345000Y-115547595D01*
X90358282Y-115547595D01*
X90402039Y-115866675D01*
X90507205Y-116171088D01*
X90600186Y-116345044D01*
X90864587Y-116440808D01*
X91820395Y-115485000D01*
X92179605Y-115485000D01*
X93135413Y-116440808D01*
X93399814Y-116345044D01*
X93540704Y-116055429D01*
X93622384Y-115743892D01*
X93634189Y-115547595D01*
X96858282Y-115547595D01*
X96902039Y-115866675D01*
X97007205Y-116171088D01*
X97100186Y-116345044D01*
X97364587Y-116440808D01*
X98320395Y-115485000D01*
X98679605Y-115485000D01*
X99635413Y-116440808D01*
X99899814Y-116345044D01*
X100040704Y-116055429D01*
X100122384Y-115743892D01*
X100133287Y-115562595D01*
X102858282Y-115562595D01*
X102902039Y-115881675D01*
X103007205Y-116186088D01*
X103100186Y-116360044D01*
X103364587Y-116455808D01*
X104320395Y-115500000D01*
X104679605Y-115500000D01*
X105635413Y-116455808D01*
X105899814Y-116360044D01*
X106040704Y-116070429D01*
X106122384Y-115758892D01*
X106134189Y-115562595D01*
X109358282Y-115562595D01*
X109402039Y-115881675D01*
X109507205Y-116186088D01*
X109600186Y-116360044D01*
X109864587Y-116455808D01*
X110820395Y-115500000D01*
X111179605Y-115500000D01*
X112135413Y-116455808D01*
X112399814Y-116360044D01*
X112540704Y-116070429D01*
X112622384Y-115758892D01*
X112641718Y-115437405D01*
X112597961Y-115118325D01*
X112492795Y-114813912D01*
X112399814Y-114639956D01*
X112135413Y-114544192D01*
X111179605Y-115500000D01*
X110820395Y-115500000D01*
X109864587Y-114544192D01*
X109600186Y-114639956D01*
X109459296Y-114929571D01*
X109377616Y-115241108D01*
X109358282Y-115562595D01*
X106134189Y-115562595D01*
X106141718Y-115437405D01*
X106097961Y-115118325D01*
X105992795Y-114813912D01*
X105899814Y-114639956D01*
X105635413Y-114544192D01*
X104679605Y-115500000D01*
X104320395Y-115500000D01*
X103364587Y-114544192D01*
X103100186Y-114639956D01*
X102959296Y-114929571D01*
X102877616Y-115241108D01*
X102858282Y-115562595D01*
X100133287Y-115562595D01*
X100141718Y-115422405D01*
X100097961Y-115103325D01*
X99992795Y-114798912D01*
X99899814Y-114624956D01*
X99635413Y-114529192D01*
X98679605Y-115485000D01*
X98320395Y-115485000D01*
X97364587Y-114529192D01*
X97100186Y-114624956D01*
X96959296Y-114914571D01*
X96877616Y-115226108D01*
X96858282Y-115547595D01*
X93634189Y-115547595D01*
X93641718Y-115422405D01*
X93597961Y-115103325D01*
X93492795Y-114798912D01*
X93399814Y-114624956D01*
X93135413Y-114529192D01*
X92179605Y-115485000D01*
X91820395Y-115485000D01*
X90864587Y-114529192D01*
X90600186Y-114624956D01*
X90459296Y-114914571D01*
X90377616Y-115226108D01*
X90358282Y-115547595D01*
X90345000Y-115547595D01*
X90345000Y-114635512D01*
X90630925Y-114349587D01*
X91044192Y-114349587D01*
X92000000Y-115305395D01*
X92955808Y-114349587D01*
X97544192Y-114349587D01*
X98500000Y-115305395D01*
X99440808Y-114364587D01*
X103544192Y-114364587D01*
X104500000Y-115320395D01*
X105455808Y-114364587D01*
X110044192Y-114364587D01*
X111000000Y-115320395D01*
X111955808Y-114364587D01*
X111860044Y-114100186D01*
X111570429Y-113959296D01*
X111258892Y-113877616D01*
X110937405Y-113858282D01*
X110618325Y-113902039D01*
X110313912Y-114007205D01*
X110139956Y-114100186D01*
X110044192Y-114364587D01*
X105455808Y-114364587D01*
X105360044Y-114100186D01*
X105070429Y-113959296D01*
X104758892Y-113877616D01*
X104437405Y-113858282D01*
X104118325Y-113902039D01*
X103813912Y-114007205D01*
X103639956Y-114100186D01*
X103544192Y-114364587D01*
X99440808Y-114364587D01*
X99455808Y-114349587D01*
X99360044Y-114085186D01*
X99070429Y-113944296D01*
X98758892Y-113862616D01*
X98437405Y-113843282D01*
X98118325Y-113887039D01*
X97813912Y-113992205D01*
X97639956Y-114085186D01*
X97544192Y-114349587D01*
X92955808Y-114349587D01*
X92860044Y-114085186D01*
X92570429Y-113944296D01*
X92258892Y-113862616D01*
X91937405Y-113843282D01*
X91618325Y-113887039D01*
X91313912Y-113992205D01*
X91139956Y-114085186D01*
X91044192Y-114349587D01*
X90630925Y-114349587D01*
X92619620Y-112360893D01*
X92650528Y-112335528D01*
X92751749Y-112212189D01*
X92826963Y-112071473D01*
X92873280Y-111918788D01*
X92885000Y-111799791D01*
X92885000Y-111799789D01*
X92888919Y-111760001D01*
X92885000Y-111720213D01*
X92885000Y-111085578D01*
X93014110Y-110999309D01*
X93219309Y-110794110D01*
X93345000Y-110606001D01*
X93470691Y-110794110D01*
X93675890Y-110999309D01*
X93917178Y-111160533D01*
X94185283Y-111271586D01*
X94469902Y-111328200D01*
X94760098Y-111328200D01*
X94912394Y-111297907D01*
X96554105Y-112939618D01*
X96579472Y-112970528D01*
X96702811Y-113071749D01*
X96843527Y-113146963D01*
X96996212Y-113193280D01*
X97115209Y-113205000D01*
X97115211Y-113205000D01*
X97154999Y-113208919D01*
X97194787Y-113205000D01*
X107299300Y-113205000D01*
X107459744Y-113312205D01*
X107648102Y-113390226D01*
X107848061Y-113430000D01*
X108051939Y-113430000D01*
X108251898Y-113390226D01*
X108440256Y-113312205D01*
X108609774Y-113198937D01*
X108753937Y-113054774D01*
X108867205Y-112885256D01*
X108945226Y-112696898D01*
X108985000Y-112496939D01*
X108985000Y-112293061D01*
X108945226Y-112093102D01*
X108867205Y-111904744D01*
X108753937Y-111735226D01*
X108609774Y-111591063D01*
X108440256Y-111477795D01*
X108251898Y-111399774D01*
X108051939Y-111360000D01*
X107848061Y-111360000D01*
X107648102Y-111399774D01*
X107459744Y-111477795D01*
X107299300Y-111585000D01*
X97490513Y-111585000D01*
X97233713Y-111328200D01*
X97300098Y-111328200D01*
X97584717Y-111271586D01*
X97852822Y-111160533D01*
X98094110Y-110999309D01*
X98299309Y-110794110D01*
X98425000Y-110606001D01*
X98550691Y-110794110D01*
X98755890Y-110999309D01*
X98997178Y-111160533D01*
X99265283Y-111271586D01*
X99549902Y-111328200D01*
X99840098Y-111328200D01*
X100124717Y-111271586D01*
X100392822Y-111160533D01*
X100634110Y-110999309D01*
X100839309Y-110794110D01*
X100965000Y-110606001D01*
X101090691Y-110794110D01*
X101295890Y-110999309D01*
X101537178Y-111160533D01*
X101805283Y-111271586D01*
X102089902Y-111328200D01*
X102380098Y-111328200D01*
X102664717Y-111271586D01*
X102932822Y-111160533D01*
X103174110Y-110999309D01*
X103379309Y-110794110D01*
X103505000Y-110606001D01*
X103630691Y-110794110D01*
X103835890Y-110999309D01*
X104077178Y-111160533D01*
X104345283Y-111271586D01*
X104629902Y-111328200D01*
X104920098Y-111328200D01*
X105204717Y-111271586D01*
X105472822Y-111160533D01*
X105714110Y-110999309D01*
X105919309Y-110794110D01*
X106045000Y-110606001D01*
X106170691Y-110794110D01*
X106375890Y-110999309D01*
X106617178Y-111160533D01*
X106885283Y-111271586D01*
X107169902Y-111328200D01*
X107460098Y-111328200D01*
X107744717Y-111271586D01*
X108012822Y-111160533D01*
X108254110Y-110999309D01*
X108459309Y-110794110D01*
X108585000Y-110606001D01*
X108710691Y-110794110D01*
X108915890Y-110999309D01*
X109157178Y-111160533D01*
X109425283Y-111271586D01*
X109709902Y-111328200D01*
X110000098Y-111328200D01*
X110284717Y-111271586D01*
X110552822Y-111160533D01*
X110794110Y-110999309D01*
X110999309Y-110794110D01*
X111125000Y-110606001D01*
X111250691Y-110794110D01*
X111455890Y-110999309D01*
X111697178Y-111160533D01*
X111965283Y-111271586D01*
X112249902Y-111328200D01*
X112540098Y-111328200D01*
X112824717Y-111271586D01*
X113092822Y-111160533D01*
X113334110Y-110999309D01*
X113539309Y-110794110D01*
X113665000Y-110606001D01*
X113790691Y-110794110D01*
X113995890Y-110999309D01*
X114237178Y-111160533D01*
X114505283Y-111271586D01*
X114789902Y-111328200D01*
X115080098Y-111328200D01*
X115364717Y-111271586D01*
X115632822Y-111160533D01*
X115874110Y-110999309D01*
X116079309Y-110794110D01*
X116205000Y-110606001D01*
X116330691Y-110794110D01*
G37*
%TD.AperFunction*%
D23*
X88725000Y-119044487D02*
X87635000Y-120134487D01*
X87635000Y-119838967D01*
X87572168Y-119523088D01*
X87448918Y-119225537D01*
X87269987Y-118957748D01*
X87042252Y-118730013D01*
X86774463Y-118551082D01*
X86476912Y-118427832D01*
X86161033Y-118365000D01*
X85838967Y-118365000D01*
X85523088Y-118427832D01*
X85225537Y-118551082D01*
X84957748Y-118730013D01*
X84730013Y-118957748D01*
X84551082Y-119225537D01*
X84427832Y-119523088D01*
X84365000Y-119838967D01*
X84365000Y-120161033D01*
X84427832Y-120476912D01*
X84551082Y-120774463D01*
X84730013Y-121042252D01*
X84957748Y-121269987D01*
X85225537Y-121448918D01*
X85523088Y-121572168D01*
X85838967Y-121635000D01*
X86134488Y-121635000D01*
X85389488Y-122380000D01*
X66090512Y-122380000D01*
X68631545Y-119838967D01*
X77865000Y-119838967D01*
X77865000Y-120161033D01*
X77927832Y-120476912D01*
X78051082Y-120774463D01*
X78230013Y-121042252D01*
X78457748Y-121269987D01*
X78725537Y-121448918D01*
X79023088Y-121572168D01*
X79338967Y-121635000D01*
X79661033Y-121635000D01*
X79976912Y-121572168D01*
X80274463Y-121448918D01*
X80542252Y-121269987D01*
X80769987Y-121042252D01*
X80948918Y-120774463D01*
X81072168Y-120476912D01*
X81135000Y-120161033D01*
X81135000Y-119838967D01*
X81072168Y-119523088D01*
X80948918Y-119225537D01*
X80769987Y-118957748D01*
X80542252Y-118730013D01*
X80274463Y-118551082D01*
X79976912Y-118427832D01*
X79661033Y-118365000D01*
X79338967Y-118365000D01*
X79023088Y-118427832D01*
X78725537Y-118551082D01*
X78457748Y-118730013D01*
X78230013Y-118957748D01*
X78051082Y-119225537D01*
X77927832Y-119523088D01*
X77865000Y-119838967D01*
X68631545Y-119838967D01*
X70185513Y-118285000D01*
X86955212Y-118285000D01*
X86995000Y-118288919D01*
X87034788Y-118285000D01*
X87034791Y-118285000D01*
X87153788Y-118273280D01*
X87306473Y-118226963D01*
X87447189Y-118151749D01*
X87570528Y-118050528D01*
X87595899Y-118019613D01*
X88725001Y-116890512D01*
X88725000Y-119044487D01*
%TA.AperFunction,Conductor*%
D24*
G36*
X88725000Y-119044487D02*
G01*
X87635000Y-120134487D01*
X87635000Y-119838967D01*
X87572168Y-119523088D01*
X87448918Y-119225537D01*
X87269987Y-118957748D01*
X87042252Y-118730013D01*
X86774463Y-118551082D01*
X86476912Y-118427832D01*
X86161033Y-118365000D01*
X85838967Y-118365000D01*
X85523088Y-118427832D01*
X85225537Y-118551082D01*
X84957748Y-118730013D01*
X84730013Y-118957748D01*
X84551082Y-119225537D01*
X84427832Y-119523088D01*
X84365000Y-119838967D01*
X84365000Y-120161033D01*
X84427832Y-120476912D01*
X84551082Y-120774463D01*
X84730013Y-121042252D01*
X84957748Y-121269987D01*
X85225537Y-121448918D01*
X85523088Y-121572168D01*
X85838967Y-121635000D01*
X86134488Y-121635000D01*
X85389488Y-122380000D01*
X66090512Y-122380000D01*
X68631545Y-119838967D01*
X77865000Y-119838967D01*
X77865000Y-120161033D01*
X77927832Y-120476912D01*
X78051082Y-120774463D01*
X78230013Y-121042252D01*
X78457748Y-121269987D01*
X78725537Y-121448918D01*
X79023088Y-121572168D01*
X79338967Y-121635000D01*
X79661033Y-121635000D01*
X79976912Y-121572168D01*
X80274463Y-121448918D01*
X80542252Y-121269987D01*
X80769987Y-121042252D01*
X80948918Y-120774463D01*
X81072168Y-120476912D01*
X81135000Y-120161033D01*
X81135000Y-119838967D01*
X81072168Y-119523088D01*
X80948918Y-119225537D01*
X80769987Y-118957748D01*
X80542252Y-118730013D01*
X80274463Y-118551082D01*
X79976912Y-118427832D01*
X79661033Y-118365000D01*
X79338967Y-118365000D01*
X79023088Y-118427832D01*
X78725537Y-118551082D01*
X78457748Y-118730013D01*
X78230013Y-118957748D01*
X78051082Y-119225537D01*
X77927832Y-119523088D01*
X77865000Y-119838967D01*
X68631545Y-119838967D01*
X70185513Y-118285000D01*
X86955212Y-118285000D01*
X86995000Y-118288919D01*
X87034788Y-118285000D01*
X87034791Y-118285000D01*
X87153788Y-118273280D01*
X87306473Y-118226963D01*
X87447189Y-118151749D01*
X87570528Y-118050528D01*
X87595899Y-118019613D01*
X88725001Y-116890512D01*
X88725000Y-119044487D01*
G37*
%TD.AperFunction*%
%TD*%
M02*
