%TF.GenerationSoftware,KiCad,Pcbnew,5.1.10*%
%TF.CreationDate,2022-03-18T21:46:21+01:00*%
%TF.ProjectId,ChickenDoor_V1,43686963-6b65-46e4-946f-6f725f56312e,V1*%
%TF.SameCoordinates,Original*%
%TF.FileFunction,Soldermask,Top*%
%TF.FilePolarity,Negative*%
%FSLAX46Y46*%
G04 Gerber Fmt 4.6, Leading zero omitted, Abs format (unit mm)*
G04 Created by KiCad (PCBNEW 5.1.10) date 2022-03-18 21:46:21*
%MOMM*%
%LPD*%
G01*
G04 APERTURE LIST*
%ADD10C,0.100000*%
%ADD11C,3.100000*%
%ADD12O,1.800000X1.800000*%
%ADD13C,2.700000*%
%ADD14C,1.776400*%
%ADD15C,1.624000*%
%ADD16C,1.608000*%
%ADD17C,4.400000*%
%ADD18C,2.100000*%
G04 APERTURE END LIST*
D10*
%TO.C,JP4*%
G36*
X95390245Y-97954039D02*
G01*
X95380866Y-97951194D01*
X95372221Y-97946573D01*
X95364645Y-97940355D01*
X95358427Y-97932779D01*
X95353806Y-97924134D01*
X95350961Y-97914755D01*
X95350000Y-97905000D01*
X95350000Y-96405000D01*
X95350961Y-96395245D01*
X95353806Y-96385866D01*
X95358427Y-96377221D01*
X95364645Y-96369645D01*
X95372221Y-96363427D01*
X95380866Y-96358806D01*
X95390245Y-96355961D01*
X95400000Y-96355000D01*
X95900000Y-96355000D01*
X95906111Y-96355602D01*
X95924534Y-96355602D01*
X95929435Y-96355843D01*
X95978266Y-96360653D01*
X95983119Y-96361373D01*
X96031244Y-96370945D01*
X96036005Y-96372137D01*
X96082960Y-96386381D01*
X96087579Y-96388034D01*
X96132912Y-96406811D01*
X96137349Y-96408909D01*
X96180622Y-96432040D01*
X96184829Y-96434562D01*
X96225628Y-96461822D01*
X96229570Y-96464746D01*
X96267499Y-96495874D01*
X96271134Y-96499169D01*
X96305831Y-96533866D01*
X96309126Y-96537501D01*
X96340254Y-96575430D01*
X96343178Y-96579372D01*
X96370438Y-96620171D01*
X96372960Y-96624378D01*
X96396091Y-96667651D01*
X96398189Y-96672088D01*
X96416966Y-96717421D01*
X96418619Y-96722040D01*
X96432863Y-96768995D01*
X96434055Y-96773756D01*
X96443627Y-96821881D01*
X96444347Y-96826734D01*
X96449157Y-96875565D01*
X96449398Y-96880466D01*
X96449398Y-96898889D01*
X96450000Y-96905000D01*
X96450000Y-97405000D01*
X96449398Y-97411111D01*
X96449398Y-97429534D01*
X96449157Y-97434435D01*
X96444347Y-97483266D01*
X96443627Y-97488119D01*
X96434055Y-97536244D01*
X96432863Y-97541005D01*
X96418619Y-97587960D01*
X96416966Y-97592579D01*
X96398189Y-97637912D01*
X96396091Y-97642349D01*
X96372960Y-97685622D01*
X96370438Y-97689829D01*
X96343178Y-97730628D01*
X96340254Y-97734570D01*
X96309126Y-97772499D01*
X96305831Y-97776134D01*
X96271134Y-97810831D01*
X96267499Y-97814126D01*
X96229570Y-97845254D01*
X96225628Y-97848178D01*
X96184829Y-97875438D01*
X96180622Y-97877960D01*
X96137349Y-97901091D01*
X96132912Y-97903189D01*
X96087579Y-97921966D01*
X96082960Y-97923619D01*
X96036005Y-97937863D01*
X96031244Y-97939055D01*
X95983119Y-97948627D01*
X95978266Y-97949347D01*
X95929435Y-97954157D01*
X95924534Y-97954398D01*
X95906111Y-97954398D01*
X95900000Y-97955000D01*
X95400000Y-97955000D01*
X95390245Y-97954039D01*
G37*
G36*
X94593889Y-97954398D02*
G01*
X94575466Y-97954398D01*
X94570565Y-97954157D01*
X94521734Y-97949347D01*
X94516881Y-97948627D01*
X94468756Y-97939055D01*
X94463995Y-97937863D01*
X94417040Y-97923619D01*
X94412421Y-97921966D01*
X94367088Y-97903189D01*
X94362651Y-97901091D01*
X94319378Y-97877960D01*
X94315171Y-97875438D01*
X94274372Y-97848178D01*
X94270430Y-97845254D01*
X94232501Y-97814126D01*
X94228866Y-97810831D01*
X94194169Y-97776134D01*
X94190874Y-97772499D01*
X94159746Y-97734570D01*
X94156822Y-97730628D01*
X94129562Y-97689829D01*
X94127040Y-97685622D01*
X94103909Y-97642349D01*
X94101811Y-97637912D01*
X94083034Y-97592579D01*
X94081381Y-97587960D01*
X94067137Y-97541005D01*
X94065945Y-97536244D01*
X94056373Y-97488119D01*
X94055653Y-97483266D01*
X94050843Y-97434435D01*
X94050602Y-97429534D01*
X94050602Y-97411111D01*
X94050000Y-97405000D01*
X94050000Y-96905000D01*
X94050602Y-96898889D01*
X94050602Y-96880466D01*
X94050843Y-96875565D01*
X94055653Y-96826734D01*
X94056373Y-96821881D01*
X94065945Y-96773756D01*
X94067137Y-96768995D01*
X94081381Y-96722040D01*
X94083034Y-96717421D01*
X94101811Y-96672088D01*
X94103909Y-96667651D01*
X94127040Y-96624378D01*
X94129562Y-96620171D01*
X94156822Y-96579372D01*
X94159746Y-96575430D01*
X94190874Y-96537501D01*
X94194169Y-96533866D01*
X94228866Y-96499169D01*
X94232501Y-96495874D01*
X94270430Y-96464746D01*
X94274372Y-96461822D01*
X94315171Y-96434562D01*
X94319378Y-96432040D01*
X94362651Y-96408909D01*
X94367088Y-96406811D01*
X94412421Y-96388034D01*
X94417040Y-96386381D01*
X94463995Y-96372137D01*
X94468756Y-96370945D01*
X94516881Y-96361373D01*
X94521734Y-96360653D01*
X94570565Y-96355843D01*
X94575466Y-96355602D01*
X94593889Y-96355602D01*
X94600000Y-96355000D01*
X95100000Y-96355000D01*
X95109755Y-96355961D01*
X95119134Y-96358806D01*
X95127779Y-96363427D01*
X95135355Y-96369645D01*
X95141573Y-96377221D01*
X95146194Y-96385866D01*
X95149039Y-96395245D01*
X95150000Y-96405000D01*
X95150000Y-97905000D01*
X95149039Y-97914755D01*
X95146194Y-97924134D01*
X95141573Y-97932779D01*
X95135355Y-97940355D01*
X95127779Y-97946573D01*
X95119134Y-97951194D01*
X95109755Y-97954039D01*
X95100000Y-97955000D01*
X94600000Y-97955000D01*
X94593889Y-97954398D01*
G37*
%TD*%
%TO.C,JP3*%
G36*
X95109755Y-93180961D02*
G01*
X95119134Y-93183806D01*
X95127779Y-93188427D01*
X95135355Y-93194645D01*
X95141573Y-93202221D01*
X95146194Y-93210866D01*
X95149039Y-93220245D01*
X95150000Y-93230000D01*
X95150000Y-94730000D01*
X95149039Y-94739755D01*
X95146194Y-94749134D01*
X95141573Y-94757779D01*
X95135355Y-94765355D01*
X95127779Y-94771573D01*
X95119134Y-94776194D01*
X95109755Y-94779039D01*
X95100000Y-94780000D01*
X94600000Y-94780000D01*
X94593889Y-94779398D01*
X94575466Y-94779398D01*
X94570565Y-94779157D01*
X94521734Y-94774347D01*
X94516881Y-94773627D01*
X94468756Y-94764055D01*
X94463995Y-94762863D01*
X94417040Y-94748619D01*
X94412421Y-94746966D01*
X94367088Y-94728189D01*
X94362651Y-94726091D01*
X94319378Y-94702960D01*
X94315171Y-94700438D01*
X94274372Y-94673178D01*
X94270430Y-94670254D01*
X94232501Y-94639126D01*
X94228866Y-94635831D01*
X94194169Y-94601134D01*
X94190874Y-94597499D01*
X94159746Y-94559570D01*
X94156822Y-94555628D01*
X94129562Y-94514829D01*
X94127040Y-94510622D01*
X94103909Y-94467349D01*
X94101811Y-94462912D01*
X94083034Y-94417579D01*
X94081381Y-94412960D01*
X94067137Y-94366005D01*
X94065945Y-94361244D01*
X94056373Y-94313119D01*
X94055653Y-94308266D01*
X94050843Y-94259435D01*
X94050602Y-94254534D01*
X94050602Y-94236111D01*
X94050000Y-94230000D01*
X94050000Y-93730000D01*
X94050602Y-93723889D01*
X94050602Y-93705466D01*
X94050843Y-93700565D01*
X94055653Y-93651734D01*
X94056373Y-93646881D01*
X94065945Y-93598756D01*
X94067137Y-93593995D01*
X94081381Y-93547040D01*
X94083034Y-93542421D01*
X94101811Y-93497088D01*
X94103909Y-93492651D01*
X94127040Y-93449378D01*
X94129562Y-93445171D01*
X94156822Y-93404372D01*
X94159746Y-93400430D01*
X94190874Y-93362501D01*
X94194169Y-93358866D01*
X94228866Y-93324169D01*
X94232501Y-93320874D01*
X94270430Y-93289746D01*
X94274372Y-93286822D01*
X94315171Y-93259562D01*
X94319378Y-93257040D01*
X94362651Y-93233909D01*
X94367088Y-93231811D01*
X94412421Y-93213034D01*
X94417040Y-93211381D01*
X94463995Y-93197137D01*
X94468756Y-93195945D01*
X94516881Y-93186373D01*
X94521734Y-93185653D01*
X94570565Y-93180843D01*
X94575466Y-93180602D01*
X94593889Y-93180602D01*
X94600000Y-93180000D01*
X95100000Y-93180000D01*
X95109755Y-93180961D01*
G37*
G36*
X95906111Y-93180602D02*
G01*
X95924534Y-93180602D01*
X95929435Y-93180843D01*
X95978266Y-93185653D01*
X95983119Y-93186373D01*
X96031244Y-93195945D01*
X96036005Y-93197137D01*
X96082960Y-93211381D01*
X96087579Y-93213034D01*
X96132912Y-93231811D01*
X96137349Y-93233909D01*
X96180622Y-93257040D01*
X96184829Y-93259562D01*
X96225628Y-93286822D01*
X96229570Y-93289746D01*
X96267499Y-93320874D01*
X96271134Y-93324169D01*
X96305831Y-93358866D01*
X96309126Y-93362501D01*
X96340254Y-93400430D01*
X96343178Y-93404372D01*
X96370438Y-93445171D01*
X96372960Y-93449378D01*
X96396091Y-93492651D01*
X96398189Y-93497088D01*
X96416966Y-93542421D01*
X96418619Y-93547040D01*
X96432863Y-93593995D01*
X96434055Y-93598756D01*
X96443627Y-93646881D01*
X96444347Y-93651734D01*
X96449157Y-93700565D01*
X96449398Y-93705466D01*
X96449398Y-93723889D01*
X96450000Y-93730000D01*
X96450000Y-94230000D01*
X96449398Y-94236111D01*
X96449398Y-94254534D01*
X96449157Y-94259435D01*
X96444347Y-94308266D01*
X96443627Y-94313119D01*
X96434055Y-94361244D01*
X96432863Y-94366005D01*
X96418619Y-94412960D01*
X96416966Y-94417579D01*
X96398189Y-94462912D01*
X96396091Y-94467349D01*
X96372960Y-94510622D01*
X96370438Y-94514829D01*
X96343178Y-94555628D01*
X96340254Y-94559570D01*
X96309126Y-94597499D01*
X96305831Y-94601134D01*
X96271134Y-94635831D01*
X96267499Y-94639126D01*
X96229570Y-94670254D01*
X96225628Y-94673178D01*
X96184829Y-94700438D01*
X96180622Y-94702960D01*
X96137349Y-94726091D01*
X96132912Y-94728189D01*
X96087579Y-94746966D01*
X96082960Y-94748619D01*
X96036005Y-94762863D01*
X96031244Y-94764055D01*
X95983119Y-94773627D01*
X95978266Y-94774347D01*
X95929435Y-94779157D01*
X95924534Y-94779398D01*
X95906111Y-94779398D01*
X95900000Y-94780000D01*
X95400000Y-94780000D01*
X95390245Y-94779039D01*
X95380866Y-94776194D01*
X95372221Y-94771573D01*
X95364645Y-94765355D01*
X95358427Y-94757779D01*
X95353806Y-94749134D01*
X95350961Y-94739755D01*
X95350000Y-94730000D01*
X95350000Y-93230000D01*
X95350961Y-93220245D01*
X95353806Y-93210866D01*
X95358427Y-93202221D01*
X95364645Y-93194645D01*
X95372221Y-93188427D01*
X95380866Y-93183806D01*
X95390245Y-93180961D01*
X95400000Y-93180000D01*
X95900000Y-93180000D01*
X95906111Y-93180602D01*
G37*
%TD*%
%TO.C,JP2*%
G36*
X95124755Y-90005961D02*
G01*
X95134134Y-90008806D01*
X95142779Y-90013427D01*
X95150355Y-90019645D01*
X95156573Y-90027221D01*
X95161194Y-90035866D01*
X95164039Y-90045245D01*
X95165000Y-90055000D01*
X95165000Y-91555000D01*
X95164039Y-91564755D01*
X95161194Y-91574134D01*
X95156573Y-91582779D01*
X95150355Y-91590355D01*
X95142779Y-91596573D01*
X95134134Y-91601194D01*
X95124755Y-91604039D01*
X95115000Y-91605000D01*
X94615000Y-91605000D01*
X94608889Y-91604398D01*
X94590466Y-91604398D01*
X94585565Y-91604157D01*
X94536734Y-91599347D01*
X94531881Y-91598627D01*
X94483756Y-91589055D01*
X94478995Y-91587863D01*
X94432040Y-91573619D01*
X94427421Y-91571966D01*
X94382088Y-91553189D01*
X94377651Y-91551091D01*
X94334378Y-91527960D01*
X94330171Y-91525438D01*
X94289372Y-91498178D01*
X94285430Y-91495254D01*
X94247501Y-91464126D01*
X94243866Y-91460831D01*
X94209169Y-91426134D01*
X94205874Y-91422499D01*
X94174746Y-91384570D01*
X94171822Y-91380628D01*
X94144562Y-91339829D01*
X94142040Y-91335622D01*
X94118909Y-91292349D01*
X94116811Y-91287912D01*
X94098034Y-91242579D01*
X94096381Y-91237960D01*
X94082137Y-91191005D01*
X94080945Y-91186244D01*
X94071373Y-91138119D01*
X94070653Y-91133266D01*
X94065843Y-91084435D01*
X94065602Y-91079534D01*
X94065602Y-91061111D01*
X94065000Y-91055000D01*
X94065000Y-90555000D01*
X94065602Y-90548889D01*
X94065602Y-90530466D01*
X94065843Y-90525565D01*
X94070653Y-90476734D01*
X94071373Y-90471881D01*
X94080945Y-90423756D01*
X94082137Y-90418995D01*
X94096381Y-90372040D01*
X94098034Y-90367421D01*
X94116811Y-90322088D01*
X94118909Y-90317651D01*
X94142040Y-90274378D01*
X94144562Y-90270171D01*
X94171822Y-90229372D01*
X94174746Y-90225430D01*
X94205874Y-90187501D01*
X94209169Y-90183866D01*
X94243866Y-90149169D01*
X94247501Y-90145874D01*
X94285430Y-90114746D01*
X94289372Y-90111822D01*
X94330171Y-90084562D01*
X94334378Y-90082040D01*
X94377651Y-90058909D01*
X94382088Y-90056811D01*
X94427421Y-90038034D01*
X94432040Y-90036381D01*
X94478995Y-90022137D01*
X94483756Y-90020945D01*
X94531881Y-90011373D01*
X94536734Y-90010653D01*
X94585565Y-90005843D01*
X94590466Y-90005602D01*
X94608889Y-90005602D01*
X94615000Y-90005000D01*
X95115000Y-90005000D01*
X95124755Y-90005961D01*
G37*
G36*
X95921111Y-90005602D02*
G01*
X95939534Y-90005602D01*
X95944435Y-90005843D01*
X95993266Y-90010653D01*
X95998119Y-90011373D01*
X96046244Y-90020945D01*
X96051005Y-90022137D01*
X96097960Y-90036381D01*
X96102579Y-90038034D01*
X96147912Y-90056811D01*
X96152349Y-90058909D01*
X96195622Y-90082040D01*
X96199829Y-90084562D01*
X96240628Y-90111822D01*
X96244570Y-90114746D01*
X96282499Y-90145874D01*
X96286134Y-90149169D01*
X96320831Y-90183866D01*
X96324126Y-90187501D01*
X96355254Y-90225430D01*
X96358178Y-90229372D01*
X96385438Y-90270171D01*
X96387960Y-90274378D01*
X96411091Y-90317651D01*
X96413189Y-90322088D01*
X96431966Y-90367421D01*
X96433619Y-90372040D01*
X96447863Y-90418995D01*
X96449055Y-90423756D01*
X96458627Y-90471881D01*
X96459347Y-90476734D01*
X96464157Y-90525565D01*
X96464398Y-90530466D01*
X96464398Y-90548889D01*
X96465000Y-90555000D01*
X96465000Y-91055000D01*
X96464398Y-91061111D01*
X96464398Y-91079534D01*
X96464157Y-91084435D01*
X96459347Y-91133266D01*
X96458627Y-91138119D01*
X96449055Y-91186244D01*
X96447863Y-91191005D01*
X96433619Y-91237960D01*
X96431966Y-91242579D01*
X96413189Y-91287912D01*
X96411091Y-91292349D01*
X96387960Y-91335622D01*
X96385438Y-91339829D01*
X96358178Y-91380628D01*
X96355254Y-91384570D01*
X96324126Y-91422499D01*
X96320831Y-91426134D01*
X96286134Y-91460831D01*
X96282499Y-91464126D01*
X96244570Y-91495254D01*
X96240628Y-91498178D01*
X96199829Y-91525438D01*
X96195622Y-91527960D01*
X96152349Y-91551091D01*
X96147912Y-91553189D01*
X96102579Y-91571966D01*
X96097960Y-91573619D01*
X96051005Y-91587863D01*
X96046244Y-91589055D01*
X95998119Y-91598627D01*
X95993266Y-91599347D01*
X95944435Y-91604157D01*
X95939534Y-91604398D01*
X95921111Y-91604398D01*
X95915000Y-91605000D01*
X95415000Y-91605000D01*
X95405245Y-91604039D01*
X95395866Y-91601194D01*
X95387221Y-91596573D01*
X95379645Y-91590355D01*
X95373427Y-91582779D01*
X95368806Y-91574134D01*
X95365961Y-91564755D01*
X95365000Y-91555000D01*
X95365000Y-90055000D01*
X95365961Y-90045245D01*
X95368806Y-90035866D01*
X95373427Y-90027221D01*
X95379645Y-90019645D01*
X95387221Y-90013427D01*
X95395866Y-90008806D01*
X95405245Y-90005961D01*
X95415000Y-90005000D01*
X95915000Y-90005000D01*
X95921111Y-90005602D01*
G37*
%TD*%
%TO.C,JP1*%
G36*
X95124755Y-86830961D02*
G01*
X95134134Y-86833806D01*
X95142779Y-86838427D01*
X95150355Y-86844645D01*
X95156573Y-86852221D01*
X95161194Y-86860866D01*
X95164039Y-86870245D01*
X95165000Y-86880000D01*
X95165000Y-88380000D01*
X95164039Y-88389755D01*
X95161194Y-88399134D01*
X95156573Y-88407779D01*
X95150355Y-88415355D01*
X95142779Y-88421573D01*
X95134134Y-88426194D01*
X95124755Y-88429039D01*
X95115000Y-88430000D01*
X94615000Y-88430000D01*
X94608889Y-88429398D01*
X94590466Y-88429398D01*
X94585565Y-88429157D01*
X94536734Y-88424347D01*
X94531881Y-88423627D01*
X94483756Y-88414055D01*
X94478995Y-88412863D01*
X94432040Y-88398619D01*
X94427421Y-88396966D01*
X94382088Y-88378189D01*
X94377651Y-88376091D01*
X94334378Y-88352960D01*
X94330171Y-88350438D01*
X94289372Y-88323178D01*
X94285430Y-88320254D01*
X94247501Y-88289126D01*
X94243866Y-88285831D01*
X94209169Y-88251134D01*
X94205874Y-88247499D01*
X94174746Y-88209570D01*
X94171822Y-88205628D01*
X94144562Y-88164829D01*
X94142040Y-88160622D01*
X94118909Y-88117349D01*
X94116811Y-88112912D01*
X94098034Y-88067579D01*
X94096381Y-88062960D01*
X94082137Y-88016005D01*
X94080945Y-88011244D01*
X94071373Y-87963119D01*
X94070653Y-87958266D01*
X94065843Y-87909435D01*
X94065602Y-87904534D01*
X94065602Y-87886111D01*
X94065000Y-87880000D01*
X94065000Y-87380000D01*
X94065602Y-87373889D01*
X94065602Y-87355466D01*
X94065843Y-87350565D01*
X94070653Y-87301734D01*
X94071373Y-87296881D01*
X94080945Y-87248756D01*
X94082137Y-87243995D01*
X94096381Y-87197040D01*
X94098034Y-87192421D01*
X94116811Y-87147088D01*
X94118909Y-87142651D01*
X94142040Y-87099378D01*
X94144562Y-87095171D01*
X94171822Y-87054372D01*
X94174746Y-87050430D01*
X94205874Y-87012501D01*
X94209169Y-87008866D01*
X94243866Y-86974169D01*
X94247501Y-86970874D01*
X94285430Y-86939746D01*
X94289372Y-86936822D01*
X94330171Y-86909562D01*
X94334378Y-86907040D01*
X94377651Y-86883909D01*
X94382088Y-86881811D01*
X94427421Y-86863034D01*
X94432040Y-86861381D01*
X94478995Y-86847137D01*
X94483756Y-86845945D01*
X94531881Y-86836373D01*
X94536734Y-86835653D01*
X94585565Y-86830843D01*
X94590466Y-86830602D01*
X94608889Y-86830602D01*
X94615000Y-86830000D01*
X95115000Y-86830000D01*
X95124755Y-86830961D01*
G37*
G36*
X95921111Y-86830602D02*
G01*
X95939534Y-86830602D01*
X95944435Y-86830843D01*
X95993266Y-86835653D01*
X95998119Y-86836373D01*
X96046244Y-86845945D01*
X96051005Y-86847137D01*
X96097960Y-86861381D01*
X96102579Y-86863034D01*
X96147912Y-86881811D01*
X96152349Y-86883909D01*
X96195622Y-86907040D01*
X96199829Y-86909562D01*
X96240628Y-86936822D01*
X96244570Y-86939746D01*
X96282499Y-86970874D01*
X96286134Y-86974169D01*
X96320831Y-87008866D01*
X96324126Y-87012501D01*
X96355254Y-87050430D01*
X96358178Y-87054372D01*
X96385438Y-87095171D01*
X96387960Y-87099378D01*
X96411091Y-87142651D01*
X96413189Y-87147088D01*
X96431966Y-87192421D01*
X96433619Y-87197040D01*
X96447863Y-87243995D01*
X96449055Y-87248756D01*
X96458627Y-87296881D01*
X96459347Y-87301734D01*
X96464157Y-87350565D01*
X96464398Y-87355466D01*
X96464398Y-87373889D01*
X96465000Y-87380000D01*
X96465000Y-87880000D01*
X96464398Y-87886111D01*
X96464398Y-87904534D01*
X96464157Y-87909435D01*
X96459347Y-87958266D01*
X96458627Y-87963119D01*
X96449055Y-88011244D01*
X96447863Y-88016005D01*
X96433619Y-88062960D01*
X96431966Y-88067579D01*
X96413189Y-88112912D01*
X96411091Y-88117349D01*
X96387960Y-88160622D01*
X96385438Y-88164829D01*
X96358178Y-88205628D01*
X96355254Y-88209570D01*
X96324126Y-88247499D01*
X96320831Y-88251134D01*
X96286134Y-88285831D01*
X96282499Y-88289126D01*
X96244570Y-88320254D01*
X96240628Y-88323178D01*
X96199829Y-88350438D01*
X96195622Y-88352960D01*
X96152349Y-88376091D01*
X96147912Y-88378189D01*
X96102579Y-88396966D01*
X96097960Y-88398619D01*
X96051005Y-88412863D01*
X96046244Y-88414055D01*
X95998119Y-88423627D01*
X95993266Y-88424347D01*
X95944435Y-88429157D01*
X95939534Y-88429398D01*
X95921111Y-88429398D01*
X95915000Y-88430000D01*
X95415000Y-88430000D01*
X95405245Y-88429039D01*
X95395866Y-88426194D01*
X95387221Y-88421573D01*
X95379645Y-88415355D01*
X95373427Y-88407779D01*
X95368806Y-88399134D01*
X95365961Y-88389755D01*
X95365000Y-88380000D01*
X95365000Y-86880000D01*
X95365961Y-86870245D01*
X95368806Y-86860866D01*
X95373427Y-86852221D01*
X95379645Y-86844645D01*
X95387221Y-86838427D01*
X95395866Y-86833806D01*
X95405245Y-86830961D01*
X95415000Y-86830000D01*
X95915000Y-86830000D01*
X95921111Y-86830602D01*
G37*
%TD*%
D11*
%TO.C,J6*%
X121500000Y-68000000D03*
X80500000Y-68000000D03*
X80500000Y-108000000D03*
D12*
X77500000Y-68900000D03*
X77500000Y-71440000D03*
X77500000Y-73980000D03*
X77500000Y-76520000D03*
X77500000Y-79060000D03*
X77500000Y-81600000D03*
X77500000Y-84140000D03*
X77500000Y-86680000D03*
X77500000Y-89220000D03*
X77500000Y-91760000D03*
X77500000Y-94300000D03*
X77500000Y-96840000D03*
X77500000Y-99380000D03*
X77500000Y-101920000D03*
X77500000Y-104460000D03*
G36*
G01*
X78400000Y-106150000D02*
X78400000Y-107850000D01*
G75*
G02*
X78350000Y-107900000I-50000J0D01*
G01*
X76650000Y-107900000D01*
G75*
G02*
X76600000Y-107850000I0J50000D01*
G01*
X76600000Y-106150000D01*
G75*
G02*
X76650000Y-106100000I50000J0D01*
G01*
X78350000Y-106100000D01*
G75*
G02*
X78400000Y-106150000I0J-50000D01*
G01*
G37*
%TD*%
D13*
%TO.C,J7*%
X132580000Y-161500000D03*
G36*
G01*
X126150000Y-162800000D02*
X126150000Y-160200000D01*
G75*
G02*
X126200000Y-160150000I50000J0D01*
G01*
X128800000Y-160150000D01*
G75*
G02*
X128850000Y-160200000I0J-50000D01*
G01*
X128850000Y-162800000D01*
G75*
G02*
X128800000Y-162850000I-50000J0D01*
G01*
X126200000Y-162850000D01*
G75*
G02*
X126150000Y-162800000I0J50000D01*
G01*
G37*
%TD*%
%TO.C,J4*%
X75565000Y-161410000D03*
G36*
G01*
X69135000Y-162710000D02*
X69135000Y-160110000D01*
G75*
G02*
X69185000Y-160060000I50000J0D01*
G01*
X71785000Y-160060000D01*
G75*
G02*
X71835000Y-160110000I0J-50000D01*
G01*
X71835000Y-162710000D01*
G75*
G02*
X71785000Y-162760000I-50000J0D01*
G01*
X69185000Y-162760000D01*
G75*
G02*
X69135000Y-162710000I0J50000D01*
G01*
G37*
%TD*%
%TO.C,J3*%
X63180000Y-161360000D03*
G36*
G01*
X56750000Y-162660000D02*
X56750000Y-160060000D01*
G75*
G02*
X56800000Y-160010000I50000J0D01*
G01*
X59400000Y-160010000D01*
G75*
G02*
X59450000Y-160060000I0J-50000D01*
G01*
X59450000Y-162660000D01*
G75*
G02*
X59400000Y-162710000I-50000J0D01*
G01*
X56800000Y-162710000D01*
G75*
G02*
X56750000Y-162660000I0J50000D01*
G01*
G37*
%TD*%
%TO.C,J2*%
X108420000Y-161410000D03*
G36*
G01*
X101990000Y-162710000D02*
X101990000Y-160110000D01*
G75*
G02*
X102040000Y-160060000I50000J0D01*
G01*
X104640000Y-160060000D01*
G75*
G02*
X104690000Y-160110000I0J-50000D01*
G01*
X104690000Y-162710000D01*
G75*
G02*
X104640000Y-162760000I-50000J0D01*
G01*
X102040000Y-162760000D01*
G75*
G02*
X101990000Y-162710000I0J50000D01*
G01*
G37*
%TD*%
%TO.C,J1*%
X95720000Y-161410000D03*
X90640000Y-161410000D03*
G36*
G01*
X84210000Y-162710000D02*
X84210000Y-160110000D01*
G75*
G02*
X84260000Y-160060000I50000J0D01*
G01*
X86860000Y-160060000D01*
G75*
G02*
X86910000Y-160110000I0J-50000D01*
G01*
X86910000Y-162710000D01*
G75*
G02*
X86860000Y-162760000I-50000J0D01*
G01*
X84260000Y-162760000D01*
G75*
G02*
X84210000Y-162710000I0J50000D01*
G01*
G37*
%TD*%
D14*
%TO.C,U1*%
X86995000Y-94615000D03*
X86995000Y-92075000D03*
X89535000Y-92075000D03*
X89535000Y-94615000D03*
X86995000Y-97155000D03*
X89535000Y-97155000D03*
X89535000Y-84455000D03*
X86995000Y-84455000D03*
X86995000Y-81915000D03*
X89535000Y-81915000D03*
X89535000Y-79375000D03*
X86995000Y-79375000D03*
X86995000Y-76835000D03*
X86995000Y-74295000D03*
X89535000Y-76835000D03*
X89535000Y-74295000D03*
X92075000Y-76835000D03*
X92075000Y-74295000D03*
X94615000Y-76835000D03*
X94615000Y-74295000D03*
X97155000Y-76835000D03*
X97155000Y-74295000D03*
X99695000Y-76835000D03*
X99695000Y-74295000D03*
X102235000Y-76835000D03*
X102235000Y-74295000D03*
X104775000Y-76835000D03*
X104775000Y-74295000D03*
X107315000Y-76835000D03*
X107315000Y-74295000D03*
X109855000Y-76835000D03*
X109855000Y-74295000D03*
X112395000Y-76835000D03*
X112395000Y-74295000D03*
X114935000Y-76835000D03*
X114935000Y-74295000D03*
X117475000Y-76835000D03*
X117475000Y-74295000D03*
X120015000Y-74295000D03*
X120015000Y-76835000D03*
X122555000Y-76835000D03*
X122555000Y-74295000D03*
X125095000Y-74295000D03*
X125095000Y-76835000D03*
X97155000Y-107315000D03*
X94615000Y-107315000D03*
X92075000Y-107315000D03*
X89535000Y-107315000D03*
X86995000Y-107315000D03*
X86995000Y-109855000D03*
X89535000Y-109855000D03*
X92075000Y-109855000D03*
X94615000Y-109855000D03*
X97155000Y-109855000D03*
X99695000Y-107315000D03*
X102235000Y-107315000D03*
X104775000Y-107315000D03*
X107315000Y-107315000D03*
X109855000Y-107315000D03*
X112395000Y-107315000D03*
X114935000Y-107315000D03*
X117475000Y-107315000D03*
X120015000Y-107315000D03*
X122555000Y-107315000D03*
X99695000Y-109855000D03*
X102235000Y-109855000D03*
X104775000Y-109855000D03*
X107315000Y-109855000D03*
X109855000Y-109855000D03*
X112395000Y-109855000D03*
X114935000Y-109855000D03*
X117475000Y-109855000D03*
X120015000Y-109855000D03*
X122555000Y-109855000D03*
X125095000Y-109855000D03*
X125095000Y-107315000D03*
X127635000Y-107315000D03*
X127635000Y-109855000D03*
X130175000Y-109855000D03*
X130175000Y-107315000D03*
X132715000Y-107315000D03*
X132715000Y-109855000D03*
X135255000Y-109855000D03*
X135255000Y-107315000D03*
X137795000Y-109855000D03*
X137795000Y-107315000D03*
%TD*%
D15*
%TO.C,U2*%
X66675000Y-109855000D03*
X64135000Y-109855000D03*
X61595000Y-109855000D03*
X59055000Y-109855000D03*
D16*
X69215000Y-73660000D03*
X66675000Y-73660000D03*
X64135000Y-73660000D03*
X61595000Y-73660000D03*
X59055000Y-73660000D03*
G36*
G01*
X55761000Y-72856000D02*
X57269000Y-72856000D01*
G75*
G02*
X57319000Y-72906000I0J-50000D01*
G01*
X57319000Y-74414000D01*
G75*
G02*
X57269000Y-74464000I-50000J0D01*
G01*
X55761000Y-74464000D01*
G75*
G02*
X55711000Y-74414000I0J50000D01*
G01*
X55711000Y-72906000D01*
G75*
G02*
X55761000Y-72856000I50000J0D01*
G01*
G37*
%TD*%
%TO.C,R7*%
G36*
G01*
X83177500Y-103345612D02*
X83177500Y-102394388D01*
G75*
G02*
X83451888Y-102120000I274388J0D01*
G01*
X84028112Y-102120000D01*
G75*
G02*
X84302500Y-102394388I0J-274388D01*
G01*
X84302500Y-103345612D01*
G75*
G02*
X84028112Y-103620000I-274388J0D01*
G01*
X83451888Y-103620000D01*
G75*
G02*
X83177500Y-103345612I0J274388D01*
G01*
G37*
G36*
G01*
X81352500Y-103345612D02*
X81352500Y-102394388D01*
G75*
G02*
X81626888Y-102120000I274388J0D01*
G01*
X82203112Y-102120000D01*
G75*
G02*
X82477500Y-102394388I0J-274388D01*
G01*
X82477500Y-103345612D01*
G75*
G02*
X82203112Y-103620000I-274388J0D01*
G01*
X81626888Y-103620000D01*
G75*
G02*
X81352500Y-103345612I0J274388D01*
G01*
G37*
%TD*%
%TO.C,Q4*%
G36*
G01*
X72155000Y-98925000D02*
X71355000Y-98925000D01*
G75*
G02*
X71305000Y-98875000I0J50000D01*
G01*
X71305000Y-97975000D01*
G75*
G02*
X71355000Y-97925000I50000J0D01*
G01*
X72155000Y-97925000D01*
G75*
G02*
X72205000Y-97975000I0J-50000D01*
G01*
X72205000Y-98875000D01*
G75*
G02*
X72155000Y-98925000I-50000J0D01*
G01*
G37*
G36*
G01*
X73105000Y-100925000D02*
X72305000Y-100925000D01*
G75*
G02*
X72255000Y-100875000I0J50000D01*
G01*
X72255000Y-99975000D01*
G75*
G02*
X72305000Y-99925000I50000J0D01*
G01*
X73105000Y-99925000D01*
G75*
G02*
X73155000Y-99975000I0J-50000D01*
G01*
X73155000Y-100875000D01*
G75*
G02*
X73105000Y-100925000I-50000J0D01*
G01*
G37*
G36*
G01*
X71205000Y-100925000D02*
X70405000Y-100925000D01*
G75*
G02*
X70355000Y-100875000I0J50000D01*
G01*
X70355000Y-99975000D01*
G75*
G02*
X70405000Y-99925000I50000J0D01*
G01*
X71205000Y-99925000D01*
G75*
G02*
X71255000Y-99975000I0J-50000D01*
G01*
X71255000Y-100875000D01*
G75*
G02*
X71205000Y-100925000I-50000J0D01*
G01*
G37*
%TD*%
%TO.C,D4*%
G36*
G01*
X108565000Y-143095000D02*
X109875000Y-143095000D01*
G75*
G02*
X110145000Y-143365000I0J-270000D01*
G01*
X110145000Y-144175000D01*
G75*
G02*
X109875000Y-144445000I-270000J0D01*
G01*
X108565000Y-144445000D01*
G75*
G02*
X108295000Y-144175000I0J270000D01*
G01*
X108295000Y-143365000D01*
G75*
G02*
X108565000Y-143095000I270000J0D01*
G01*
G37*
G36*
G01*
X108565000Y-140295000D02*
X109875000Y-140295000D01*
G75*
G02*
X110145000Y-140565000I0J-270000D01*
G01*
X110145000Y-141375000D01*
G75*
G02*
X109875000Y-141645000I-270000J0D01*
G01*
X108565000Y-141645000D01*
G75*
G02*
X108295000Y-141375000I0J270000D01*
G01*
X108295000Y-140565000D01*
G75*
G02*
X108565000Y-140295000I270000J0D01*
G01*
G37*
%TD*%
%TO.C,D3*%
G36*
G01*
X86340000Y-142835000D02*
X87650000Y-142835000D01*
G75*
G02*
X87920000Y-143105000I0J-270000D01*
G01*
X87920000Y-143915000D01*
G75*
G02*
X87650000Y-144185000I-270000J0D01*
G01*
X86340000Y-144185000D01*
G75*
G02*
X86070000Y-143915000I0J270000D01*
G01*
X86070000Y-143105000D01*
G75*
G02*
X86340000Y-142835000I270000J0D01*
G01*
G37*
G36*
G01*
X86340000Y-140035000D02*
X87650000Y-140035000D01*
G75*
G02*
X87920000Y-140305000I0J-270000D01*
G01*
X87920000Y-141115000D01*
G75*
G02*
X87650000Y-141385000I-270000J0D01*
G01*
X86340000Y-141385000D01*
G75*
G02*
X86070000Y-141115000I0J270000D01*
G01*
X86070000Y-140305000D01*
G75*
G02*
X86340000Y-140035000I270000J0D01*
G01*
G37*
%TD*%
%TO.C,D1*%
G36*
G01*
X64115000Y-142835000D02*
X65425000Y-142835000D01*
G75*
G02*
X65695000Y-143105000I0J-270000D01*
G01*
X65695000Y-143915000D01*
G75*
G02*
X65425000Y-144185000I-270000J0D01*
G01*
X64115000Y-144185000D01*
G75*
G02*
X63845000Y-143915000I0J270000D01*
G01*
X63845000Y-143105000D01*
G75*
G02*
X64115000Y-142835000I270000J0D01*
G01*
G37*
G36*
G01*
X64115000Y-140035000D02*
X65425000Y-140035000D01*
G75*
G02*
X65695000Y-140305000I0J-270000D01*
G01*
X65695000Y-141115000D01*
G75*
G02*
X65425000Y-141385000I-270000J0D01*
G01*
X64115000Y-141385000D01*
G75*
G02*
X63845000Y-141115000I0J270000D01*
G01*
X63845000Y-140305000D01*
G75*
G02*
X64115000Y-140035000I270000J0D01*
G01*
G37*
%TD*%
%TO.C,Q3*%
G36*
G01*
X102305000Y-129080000D02*
X103105000Y-129080000D01*
G75*
G02*
X103155000Y-129130000I0J-50000D01*
G01*
X103155000Y-130030000D01*
G75*
G02*
X103105000Y-130080000I-50000J0D01*
G01*
X102305000Y-130080000D01*
G75*
G02*
X102255000Y-130030000I0J50000D01*
G01*
X102255000Y-129130000D01*
G75*
G02*
X102305000Y-129080000I50000J0D01*
G01*
G37*
G36*
G01*
X101355000Y-127080000D02*
X102155000Y-127080000D01*
G75*
G02*
X102205000Y-127130000I0J-50000D01*
G01*
X102205000Y-128030000D01*
G75*
G02*
X102155000Y-128080000I-50000J0D01*
G01*
X101355000Y-128080000D01*
G75*
G02*
X101305000Y-128030000I0J50000D01*
G01*
X101305000Y-127130000D01*
G75*
G02*
X101355000Y-127080000I50000J0D01*
G01*
G37*
G36*
G01*
X103255000Y-127080000D02*
X104055000Y-127080000D01*
G75*
G02*
X104105000Y-127130000I0J-50000D01*
G01*
X104105000Y-128030000D01*
G75*
G02*
X104055000Y-128080000I-50000J0D01*
G01*
X103255000Y-128080000D01*
G75*
G02*
X103205000Y-128030000I0J50000D01*
G01*
X103205000Y-127130000D01*
G75*
G02*
X103255000Y-127080000I50000J0D01*
G01*
G37*
%TD*%
%TO.C,Q2*%
G36*
G01*
X124530000Y-129080000D02*
X125330000Y-129080000D01*
G75*
G02*
X125380000Y-129130000I0J-50000D01*
G01*
X125380000Y-130030000D01*
G75*
G02*
X125330000Y-130080000I-50000J0D01*
G01*
X124530000Y-130080000D01*
G75*
G02*
X124480000Y-130030000I0J50000D01*
G01*
X124480000Y-129130000D01*
G75*
G02*
X124530000Y-129080000I50000J0D01*
G01*
G37*
G36*
G01*
X123580000Y-127080000D02*
X124380000Y-127080000D01*
G75*
G02*
X124430000Y-127130000I0J-50000D01*
G01*
X124430000Y-128030000D01*
G75*
G02*
X124380000Y-128080000I-50000J0D01*
G01*
X123580000Y-128080000D01*
G75*
G02*
X123530000Y-128030000I0J50000D01*
G01*
X123530000Y-127130000D01*
G75*
G02*
X123580000Y-127080000I50000J0D01*
G01*
G37*
G36*
G01*
X125480000Y-127080000D02*
X126280000Y-127080000D01*
G75*
G02*
X126330000Y-127130000I0J-50000D01*
G01*
X126330000Y-128030000D01*
G75*
G02*
X126280000Y-128080000I-50000J0D01*
G01*
X125480000Y-128080000D01*
G75*
G02*
X125430000Y-128030000I0J50000D01*
G01*
X125430000Y-127130000D01*
G75*
G02*
X125480000Y-127080000I50000J0D01*
G01*
G37*
%TD*%
%TO.C,Q1*%
G36*
G01*
X80080000Y-129080000D02*
X80880000Y-129080000D01*
G75*
G02*
X80930000Y-129130000I0J-50000D01*
G01*
X80930000Y-130030000D01*
G75*
G02*
X80880000Y-130080000I-50000J0D01*
G01*
X80080000Y-130080000D01*
G75*
G02*
X80030000Y-130030000I0J50000D01*
G01*
X80030000Y-129130000D01*
G75*
G02*
X80080000Y-129080000I50000J0D01*
G01*
G37*
G36*
G01*
X79130000Y-127080000D02*
X79930000Y-127080000D01*
G75*
G02*
X79980000Y-127130000I0J-50000D01*
G01*
X79980000Y-128030000D01*
G75*
G02*
X79930000Y-128080000I-50000J0D01*
G01*
X79130000Y-128080000D01*
G75*
G02*
X79080000Y-128030000I0J50000D01*
G01*
X79080000Y-127130000D01*
G75*
G02*
X79130000Y-127080000I50000J0D01*
G01*
G37*
G36*
G01*
X81030000Y-127080000D02*
X81830000Y-127080000D01*
G75*
G02*
X81880000Y-127130000I0J-50000D01*
G01*
X81880000Y-128030000D01*
G75*
G02*
X81830000Y-128080000I-50000J0D01*
G01*
X81030000Y-128080000D01*
G75*
G02*
X80980000Y-128030000I0J50000D01*
G01*
X80980000Y-127130000D01*
G75*
G02*
X81030000Y-127080000I50000J0D01*
G01*
G37*
%TD*%
%TO.C,D6*%
G36*
G01*
X115665000Y-129180000D02*
X115665000Y-127980000D01*
G75*
G02*
X115715000Y-127930000I50000J0D01*
G01*
X116615000Y-127930000D01*
G75*
G02*
X116665000Y-127980000I0J-50000D01*
G01*
X116665000Y-129180000D01*
G75*
G02*
X116615000Y-129230000I-50000J0D01*
G01*
X115715000Y-129230000D01*
G75*
G02*
X115665000Y-129180000I0J50000D01*
G01*
G37*
G36*
G01*
X112365000Y-129180000D02*
X112365000Y-127980000D01*
G75*
G02*
X112415000Y-127930000I50000J0D01*
G01*
X113315000Y-127930000D01*
G75*
G02*
X113365000Y-127980000I0J-50000D01*
G01*
X113365000Y-129180000D01*
G75*
G02*
X113315000Y-129230000I-50000J0D01*
G01*
X112415000Y-129230000D01*
G75*
G02*
X112365000Y-129180000I0J50000D01*
G01*
G37*
%TD*%
%TO.C,D5*%
G36*
G01*
X93440000Y-129180000D02*
X93440000Y-127980000D01*
G75*
G02*
X93490000Y-127930000I50000J0D01*
G01*
X94390000Y-127930000D01*
G75*
G02*
X94440000Y-127980000I0J-50000D01*
G01*
X94440000Y-129180000D01*
G75*
G02*
X94390000Y-129230000I-50000J0D01*
G01*
X93490000Y-129230000D01*
G75*
G02*
X93440000Y-129180000I0J50000D01*
G01*
G37*
G36*
G01*
X90140000Y-129180000D02*
X90140000Y-127980000D01*
G75*
G02*
X90190000Y-127930000I50000J0D01*
G01*
X91090000Y-127930000D01*
G75*
G02*
X91140000Y-127980000I0J-50000D01*
G01*
X91140000Y-129180000D01*
G75*
G02*
X91090000Y-129230000I-50000J0D01*
G01*
X90190000Y-129230000D01*
G75*
G02*
X90140000Y-129180000I0J50000D01*
G01*
G37*
%TD*%
%TO.C,D2*%
G36*
G01*
X71215000Y-129180000D02*
X71215000Y-127980000D01*
G75*
G02*
X71265000Y-127930000I50000J0D01*
G01*
X72165000Y-127930000D01*
G75*
G02*
X72215000Y-127980000I0J-50000D01*
G01*
X72215000Y-129180000D01*
G75*
G02*
X72165000Y-129230000I-50000J0D01*
G01*
X71265000Y-129230000D01*
G75*
G02*
X71215000Y-129180000I0J50000D01*
G01*
G37*
G36*
G01*
X67915000Y-129180000D02*
X67915000Y-127980000D01*
G75*
G02*
X67965000Y-127930000I50000J0D01*
G01*
X68865000Y-127930000D01*
G75*
G02*
X68915000Y-127980000I0J-50000D01*
G01*
X68915000Y-129180000D01*
G75*
G02*
X68865000Y-129230000I-50000J0D01*
G01*
X67965000Y-129230000D01*
G75*
G02*
X67915000Y-129180000I0J50000D01*
G01*
G37*
%TD*%
%TO.C,R9*%
G36*
G01*
X82477500Y-96679388D02*
X82477500Y-97630612D01*
G75*
G02*
X82203112Y-97905000I-274388J0D01*
G01*
X81626888Y-97905000D01*
G75*
G02*
X81352500Y-97630612I0J274388D01*
G01*
X81352500Y-96679388D01*
G75*
G02*
X81626888Y-96405000I274388J0D01*
G01*
X82203112Y-96405000D01*
G75*
G02*
X82477500Y-96679388I0J-274388D01*
G01*
G37*
G36*
G01*
X84302500Y-96679388D02*
X84302500Y-97630612D01*
G75*
G02*
X84028112Y-97905000I-274388J0D01*
G01*
X83451888Y-97905000D01*
G75*
G02*
X83177500Y-97630612I0J274388D01*
G01*
X83177500Y-96679388D01*
G75*
G02*
X83451888Y-96405000I274388J0D01*
G01*
X84028112Y-96405000D01*
G75*
G02*
X84302500Y-96679388I0J-274388D01*
G01*
G37*
%TD*%
%TO.C,R8*%
G36*
G01*
X71279388Y-94052500D02*
X72230612Y-94052500D01*
G75*
G02*
X72505000Y-94326888I0J-274388D01*
G01*
X72505000Y-94903112D01*
G75*
G02*
X72230612Y-95177500I-274388J0D01*
G01*
X71279388Y-95177500D01*
G75*
G02*
X71005000Y-94903112I0J274388D01*
G01*
X71005000Y-94326888D01*
G75*
G02*
X71279388Y-94052500I274388J0D01*
G01*
G37*
G36*
G01*
X71279388Y-92227500D02*
X72230612Y-92227500D01*
G75*
G02*
X72505000Y-92501888I0J-274388D01*
G01*
X72505000Y-93078112D01*
G75*
G02*
X72230612Y-93352500I-274388J0D01*
G01*
X71279388Y-93352500D01*
G75*
G02*
X71005000Y-93078112I0J274388D01*
G01*
X71005000Y-92501888D01*
G75*
G02*
X71279388Y-92227500I274388J0D01*
G01*
G37*
%TD*%
%TO.C,R4*%
G36*
G01*
X119500000Y-128104388D02*
X119500000Y-129055612D01*
G75*
G02*
X119225612Y-129330000I-274388J0D01*
G01*
X118649388Y-129330000D01*
G75*
G02*
X118375000Y-129055612I0J274388D01*
G01*
X118375000Y-128104388D01*
G75*
G02*
X118649388Y-127830000I274388J0D01*
G01*
X119225612Y-127830000D01*
G75*
G02*
X119500000Y-128104388I0J-274388D01*
G01*
G37*
G36*
G01*
X121325000Y-128104388D02*
X121325000Y-129055612D01*
G75*
G02*
X121050612Y-129330000I-274388J0D01*
G01*
X120474388Y-129330000D01*
G75*
G02*
X120200000Y-129055612I0J274388D01*
G01*
X120200000Y-128104388D01*
G75*
G02*
X120474388Y-127830000I274388J0D01*
G01*
X121050612Y-127830000D01*
G75*
G02*
X121325000Y-128104388I0J-274388D01*
G01*
G37*
%TD*%
%TO.C,R3*%
G36*
G01*
X97275000Y-128104388D02*
X97275000Y-129055612D01*
G75*
G02*
X97000612Y-129330000I-274388J0D01*
G01*
X96424388Y-129330000D01*
G75*
G02*
X96150000Y-129055612I0J274388D01*
G01*
X96150000Y-128104388D01*
G75*
G02*
X96424388Y-127830000I274388J0D01*
G01*
X97000612Y-127830000D01*
G75*
G02*
X97275000Y-128104388I0J-274388D01*
G01*
G37*
G36*
G01*
X99100000Y-128104388D02*
X99100000Y-129055612D01*
G75*
G02*
X98825612Y-129330000I-274388J0D01*
G01*
X98249388Y-129330000D01*
G75*
G02*
X97975000Y-129055612I0J274388D01*
G01*
X97975000Y-128104388D01*
G75*
G02*
X98249388Y-127830000I274388J0D01*
G01*
X98825612Y-127830000D01*
G75*
G02*
X99100000Y-128104388I0J-274388D01*
G01*
G37*
%TD*%
%TO.C,R1*%
G36*
G01*
X75050000Y-128104388D02*
X75050000Y-129055612D01*
G75*
G02*
X74775612Y-129330000I-274388J0D01*
G01*
X74199388Y-129330000D01*
G75*
G02*
X73925000Y-129055612I0J274388D01*
G01*
X73925000Y-128104388D01*
G75*
G02*
X74199388Y-127830000I274388J0D01*
G01*
X74775612Y-127830000D01*
G75*
G02*
X75050000Y-128104388I0J-274388D01*
G01*
G37*
G36*
G01*
X76875000Y-128104388D02*
X76875000Y-129055612D01*
G75*
G02*
X76600612Y-129330000I-274388J0D01*
G01*
X76024388Y-129330000D01*
G75*
G02*
X75750000Y-129055612I0J274388D01*
G01*
X75750000Y-128104388D01*
G75*
G02*
X76024388Y-127830000I274388J0D01*
G01*
X76600612Y-127830000D01*
G75*
G02*
X76875000Y-128104388I0J-274388D01*
G01*
G37*
%TD*%
%TO.C,R6*%
G36*
G01*
X108744388Y-137232500D02*
X109695612Y-137232500D01*
G75*
G02*
X109970000Y-137506888I0J-274388D01*
G01*
X109970000Y-138083112D01*
G75*
G02*
X109695612Y-138357500I-274388J0D01*
G01*
X108744388Y-138357500D01*
G75*
G02*
X108470000Y-138083112I0J274388D01*
G01*
X108470000Y-137506888D01*
G75*
G02*
X108744388Y-137232500I274388J0D01*
G01*
G37*
G36*
G01*
X108744388Y-135407500D02*
X109695612Y-135407500D01*
G75*
G02*
X109970000Y-135681888I0J-274388D01*
G01*
X109970000Y-136258112D01*
G75*
G02*
X109695612Y-136532500I-274388J0D01*
G01*
X108744388Y-136532500D01*
G75*
G02*
X108470000Y-136258112I0J274388D01*
G01*
X108470000Y-135681888D01*
G75*
G02*
X108744388Y-135407500I274388J0D01*
G01*
G37*
%TD*%
%TO.C,R5*%
G36*
G01*
X86519388Y-137232500D02*
X87470612Y-137232500D01*
G75*
G02*
X87745000Y-137506888I0J-274388D01*
G01*
X87745000Y-138083112D01*
G75*
G02*
X87470612Y-138357500I-274388J0D01*
G01*
X86519388Y-138357500D01*
G75*
G02*
X86245000Y-138083112I0J274388D01*
G01*
X86245000Y-137506888D01*
G75*
G02*
X86519388Y-137232500I274388J0D01*
G01*
G37*
G36*
G01*
X86519388Y-135407500D02*
X87470612Y-135407500D01*
G75*
G02*
X87745000Y-135681888I0J-274388D01*
G01*
X87745000Y-136258112D01*
G75*
G02*
X87470612Y-136532500I-274388J0D01*
G01*
X86519388Y-136532500D01*
G75*
G02*
X86245000Y-136258112I0J274388D01*
G01*
X86245000Y-135681888D01*
G75*
G02*
X86519388Y-135407500I274388J0D01*
G01*
G37*
%TD*%
%TO.C,R2*%
G36*
G01*
X64294388Y-137232500D02*
X65245612Y-137232500D01*
G75*
G02*
X65520000Y-137506888I0J-274388D01*
G01*
X65520000Y-138083112D01*
G75*
G02*
X65245612Y-138357500I-274388J0D01*
G01*
X64294388Y-138357500D01*
G75*
G02*
X64020000Y-138083112I0J274388D01*
G01*
X64020000Y-137506888D01*
G75*
G02*
X64294388Y-137232500I274388J0D01*
G01*
G37*
G36*
G01*
X64294388Y-135407500D02*
X65245612Y-135407500D01*
G75*
G02*
X65520000Y-135681888I0J-274388D01*
G01*
X65520000Y-136258112D01*
G75*
G02*
X65245612Y-136532500I-274388J0D01*
G01*
X64294388Y-136532500D01*
G75*
G02*
X64020000Y-136258112I0J274388D01*
G01*
X64020000Y-135681888D01*
G75*
G02*
X64294388Y-135407500I274388J0D01*
G01*
G37*
%TD*%
D17*
%TO.C,H4*%
X56000000Y-145000000D03*
%TD*%
%TO.C,H3*%
X135000000Y-145000000D03*
%TD*%
%TO.C,H2*%
X135000000Y-65000000D03*
%TD*%
%TO.C,H1*%
X55000000Y-65000000D03*
%TD*%
D11*
%TO.C,K3*%
X119215000Y-133660000D03*
X125215000Y-135660000D03*
X125215000Y-147860000D03*
X113215000Y-147860000D03*
X113215000Y-135660000D03*
%TD*%
%TO.C,K2*%
X96990000Y-133660000D03*
X102990000Y-135660000D03*
X102990000Y-147860000D03*
X90990000Y-147860000D03*
X90990000Y-135660000D03*
%TD*%
%TO.C,K1*%
X74765000Y-133660000D03*
X80765000Y-135660000D03*
X80765000Y-147860000D03*
X68765000Y-147860000D03*
X68765000Y-135660000D03*
%TD*%
D18*
%TO.C,SW4*%
X117000000Y-120000000D03*
X117000000Y-115500000D03*
X123500000Y-120000000D03*
X123500000Y-115500000D03*
%TD*%
%TO.C,SW3*%
X104500000Y-120000000D03*
X104500000Y-115500000D03*
X111000000Y-120000000D03*
X111000000Y-115500000D03*
%TD*%
%TO.C,SW2*%
X92000000Y-119985000D03*
X92000000Y-115485000D03*
X98500000Y-119985000D03*
X98500000Y-115485000D03*
%TD*%
%TO.C,SW1*%
X79500000Y-120000000D03*
X79500000Y-115500000D03*
X86000000Y-120000000D03*
X86000000Y-115500000D03*
%TD*%
%TO.C,D10*%
G36*
G01*
X114970000Y-164725000D02*
X116170000Y-164725000D01*
G75*
G02*
X116220000Y-164775000I0J-50000D01*
G01*
X116220000Y-165675000D01*
G75*
G02*
X116170000Y-165725000I-50000J0D01*
G01*
X114970000Y-165725000D01*
G75*
G02*
X114920000Y-165675000I0J50000D01*
G01*
X114920000Y-164775000D01*
G75*
G02*
X114970000Y-164725000I50000J0D01*
G01*
G37*
G36*
G01*
X114970000Y-161425000D02*
X116170000Y-161425000D01*
G75*
G02*
X116220000Y-161475000I0J-50000D01*
G01*
X116220000Y-162375000D01*
G75*
G02*
X116170000Y-162425000I-50000J0D01*
G01*
X114970000Y-162425000D01*
G75*
G02*
X114920000Y-162375000I0J50000D01*
G01*
X114920000Y-161475000D01*
G75*
G02*
X114970000Y-161425000I50000J0D01*
G01*
G37*
%TD*%
%TO.C,D9*%
G36*
G01*
X114970000Y-157740000D02*
X116170000Y-157740000D01*
G75*
G02*
X116220000Y-157790000I0J-50000D01*
G01*
X116220000Y-158690000D01*
G75*
G02*
X116170000Y-158740000I-50000J0D01*
G01*
X114970000Y-158740000D01*
G75*
G02*
X114920000Y-158690000I0J50000D01*
G01*
X114920000Y-157790000D01*
G75*
G02*
X114970000Y-157740000I50000J0D01*
G01*
G37*
G36*
G01*
X114970000Y-154440000D02*
X116170000Y-154440000D01*
G75*
G02*
X116220000Y-154490000I0J-50000D01*
G01*
X116220000Y-155390000D01*
G75*
G02*
X116170000Y-155440000I-50000J0D01*
G01*
X114970000Y-155440000D01*
G75*
G02*
X114920000Y-155390000I0J50000D01*
G01*
X114920000Y-154490000D01*
G75*
G02*
X114970000Y-154440000I50000J0D01*
G01*
G37*
%TD*%
%TO.C,D8*%
G36*
G01*
X119415000Y-164725000D02*
X120615000Y-164725000D01*
G75*
G02*
X120665000Y-164775000I0J-50000D01*
G01*
X120665000Y-165675000D01*
G75*
G02*
X120615000Y-165725000I-50000J0D01*
G01*
X119415000Y-165725000D01*
G75*
G02*
X119365000Y-165675000I0J50000D01*
G01*
X119365000Y-164775000D01*
G75*
G02*
X119415000Y-164725000I50000J0D01*
G01*
G37*
G36*
G01*
X119415000Y-161425000D02*
X120615000Y-161425000D01*
G75*
G02*
X120665000Y-161475000I0J-50000D01*
G01*
X120665000Y-162375000D01*
G75*
G02*
X120615000Y-162425000I-50000J0D01*
G01*
X119415000Y-162425000D01*
G75*
G02*
X119365000Y-162375000I0J50000D01*
G01*
X119365000Y-161475000D01*
G75*
G02*
X119415000Y-161425000I50000J0D01*
G01*
G37*
%TD*%
%TO.C,D7*%
G36*
G01*
X119415000Y-157740000D02*
X120615000Y-157740000D01*
G75*
G02*
X120665000Y-157790000I0J-50000D01*
G01*
X120665000Y-158690000D01*
G75*
G02*
X120615000Y-158740000I-50000J0D01*
G01*
X119415000Y-158740000D01*
G75*
G02*
X119365000Y-158690000I0J50000D01*
G01*
X119365000Y-157790000D01*
G75*
G02*
X119415000Y-157740000I50000J0D01*
G01*
G37*
G36*
G01*
X119415000Y-154440000D02*
X120615000Y-154440000D01*
G75*
G02*
X120665000Y-154490000I0J-50000D01*
G01*
X120665000Y-155390000D01*
G75*
G02*
X120615000Y-155440000I-50000J0D01*
G01*
X119415000Y-155440000D01*
G75*
G02*
X119365000Y-155390000I0J50000D01*
G01*
X119365000Y-154490000D01*
G75*
G02*
X119415000Y-154440000I50000J0D01*
G01*
G37*
%TD*%
M02*
