M48
; DRILL file {KiCad 5.1.10} date Fri Mar 18 21:46:53 2022
; FORMAT={-:-/ absolute / inch / decimal}
; #@! TF.CreationDate,2022-03-18T21:46:53+01:00
; #@! TF.GenerationSoftware,Kicad,Pcbnew,5.1.10
; #@! TF.FileFunction,Plated,1,2,PTH
FMAT,2
INCH
T1C0.0157
T2C0.0300
T3C0.0315
T4C0.0394
T5C0.0433
T6C0.0512
T7C0.1181
%
G90
G05
T1
X2.55Y-5.275
X2.625Y-3.175
X2.625Y-3.95
X2.825Y-4.975
X2.85Y-4.05
X2.95Y-4.925
X3.0Y-4.725
X3.1311Y-4.9561
X3.15Y-4.05
X3.1555Y-3.825
X3.1685Y-5.2185
X3.225Y-3.475
X3.275Y-3.525
X3.3Y-3.95
X3.325Y-3.575
X3.35Y-3.825
X3.425Y-5.275
X3.45Y-4.85
X3.525Y-4.775
X3.525Y-4.95
X3.6Y-4.85
X3.625Y-3.825
X3.7Y-4.975
X3.8076Y-4.9326
X3.875Y-3.45
X3.875Y-3.575
X3.875Y-3.7
X4.0061Y-4.9561
X4.025Y-4.05
X4.0406Y-5.2156
X4.0685Y-6.0935
X4.25Y-4.425
X4.2654Y-6.0319
X4.3Y-5.275
X4.35Y-3.975
X4.475Y-4.0
X4.475Y-4.425
X4.55Y-6.025
X4.575Y-4.975
X4.6Y-4.85
X4.625Y-6.1
X4.725Y-4.8
X4.8Y-6.3
X4.8811Y-4.9561
X4.9185Y-5.2185
X4.975Y-4.85
T2
X2.225Y-2.9
X2.325Y-2.9
X2.325Y-4.325
X2.425Y-2.9
X2.425Y-4.325
X2.525Y-2.9
X2.525Y-4.325
X2.625Y-2.9
X2.625Y-4.325
X2.725Y-2.9
T3
X3.425Y-2.925
X3.425Y-3.025
X3.425Y-3.125
X3.425Y-3.225
X3.425Y-3.325
X3.425Y-3.625
X3.425Y-3.725
X3.425Y-3.825
X3.425Y-4.225
X3.425Y-4.325
X3.525Y-2.925
X3.525Y-3.025
X3.525Y-3.125
X3.525Y-3.225
X3.525Y-3.325
X3.525Y-3.625
X3.525Y-3.725
X3.525Y-3.825
X3.525Y-4.225
X3.525Y-4.325
X3.625Y-2.925
X3.625Y-3.025
X3.625Y-4.225
X3.625Y-4.325
X3.725Y-2.925
X3.725Y-3.025
X3.725Y-4.225
X3.725Y-4.325
X3.825Y-2.925
X3.825Y-3.025
X3.825Y-4.225
X3.825Y-4.325
X3.925Y-2.925
X3.925Y-3.025
X3.925Y-4.225
X3.925Y-4.325
X4.025Y-2.925
X4.025Y-3.025
X4.025Y-4.225
X4.025Y-4.325
X4.125Y-2.925
X4.125Y-3.025
X4.125Y-4.225
X4.125Y-4.325
X4.225Y-2.925
X4.225Y-3.025
X4.225Y-4.225
X4.225Y-4.325
X4.325Y-2.925
X4.325Y-3.025
X4.325Y-4.225
X4.325Y-4.325
X4.425Y-2.925
X4.425Y-3.025
X4.425Y-4.225
X4.425Y-4.325
X4.525Y-2.925
X4.525Y-3.025
X4.525Y-4.225
X4.525Y-4.325
X4.625Y-2.925
X4.625Y-3.025
X4.625Y-4.225
X4.625Y-4.325
X4.725Y-2.925
X4.725Y-3.025
X4.725Y-4.225
X4.725Y-4.325
X4.825Y-2.925
X4.825Y-3.025
X4.825Y-4.225
X4.825Y-4.325
X4.925Y-2.925
X4.925Y-3.025
X4.925Y-4.225
X4.925Y-4.325
X5.025Y-4.225
X5.025Y-4.325
X5.125Y-4.225
X5.125Y-4.325
X5.225Y-4.225
X5.225Y-4.325
X5.325Y-4.225
X5.325Y-4.325
X5.425Y-4.225
X5.425Y-4.325
T4
X3.0512Y-2.7126
X3.0512Y-2.8126
X3.0512Y-2.9126
X3.0512Y-3.0126
X3.0512Y-3.1126
X3.0512Y-3.2126
X3.0512Y-3.3126
X3.0512Y-3.4126
X3.0512Y-3.5126
X3.0512Y-3.6126
X3.0512Y-3.7126
X3.0512Y-3.8126
X3.0512Y-3.9126
X3.0512Y-4.0126
X3.0512Y-4.1126
X3.0512Y-4.2126
T5
X3.1299Y-4.5472
X3.1299Y-4.7244
X3.3858Y-4.5472
X3.3858Y-4.7244
X3.622Y-4.5467
X3.622Y-4.7238
X3.878Y-4.5467
X3.878Y-4.7238
X4.1142Y-4.5472
X4.1142Y-4.7244
X4.3701Y-4.5472
X4.3701Y-4.7244
X4.6063Y-4.5472
X4.6063Y-4.7244
X4.8622Y-4.5472
X4.8622Y-4.7244
T6
X2.2874Y-6.3528
X2.4874Y-6.3528
X2.7073Y-5.3409
X2.7073Y-5.8213
X2.775Y-6.3547
X2.9435Y-5.2622
X2.975Y-6.3547
X3.1797Y-5.3409
X3.1797Y-5.8213
X3.3685Y-6.3547
X3.5685Y-6.3547
X3.5823Y-5.3409
X3.5823Y-5.8213
X3.7685Y-6.3547
X3.8185Y-5.2622
X4.0547Y-5.3409
X4.0547Y-5.8213
X4.0685Y-6.3547
X4.2685Y-6.3547
X4.4573Y-5.3409
X4.4573Y-5.8213
X4.6935Y-5.2622
X4.9297Y-5.3409
X4.9297Y-5.8213
X5.0197Y-6.3583
X5.2197Y-6.3583
T7
X3.1693Y-2.6772
X3.1693Y-4.252
X4.7835Y-2.6772
T0
M30
