%TF.GenerationSoftware,KiCad,Pcbnew,5.1.10*%
%TF.CreationDate,2022-03-18T21:46:21+01:00*%
%TF.ProjectId,ChickenDoor_V1,43686963-6b65-46e4-946f-6f725f56312e,V1*%
%TF.SameCoordinates,Original*%
%TF.FileFunction,Legend,Top*%
%TF.FilePolarity,Positive*%
%FSLAX46Y46*%
G04 Gerber Fmt 4.6, Leading zero omitted, Abs format (unit mm)*
G04 Created by KiCad (PCBNEW 5.1.10) date 2022-03-18 21:46:21*
%MOMM*%
%LPD*%
G01*
G04 APERTURE LIST*
%ADD10C,0.300000*%
%ADD11C,0.120000*%
%ADD12C,0.127000*%
%ADD13C,0.200000*%
%ADD14C,0.150000*%
G04 APERTURE END LIST*
D10*
X103678571Y-154250000D02*
X103607142Y-154178571D01*
X103464285Y-153964285D01*
X103392857Y-153821428D01*
X103321428Y-153607142D01*
X103250000Y-153250000D01*
X103250000Y-152964285D01*
X103321428Y-152607142D01*
X103392857Y-152392857D01*
X103464285Y-152250000D01*
X103607142Y-152035714D01*
X103678571Y-151964285D01*
X104250000Y-153678571D02*
X104250000Y-152178571D01*
X104750000Y-153250000D01*
X105250000Y-152178571D01*
X105250000Y-153678571D01*
X106178571Y-153678571D02*
X106035714Y-153607142D01*
X105964285Y-153535714D01*
X105892857Y-153392857D01*
X105892857Y-152964285D01*
X105964285Y-152821428D01*
X106035714Y-152750000D01*
X106178571Y-152678571D01*
X106392857Y-152678571D01*
X106535714Y-152750000D01*
X106607142Y-152821428D01*
X106678571Y-152964285D01*
X106678571Y-153392857D01*
X106607142Y-153535714D01*
X106535714Y-153607142D01*
X106392857Y-153678571D01*
X106178571Y-153678571D01*
X107107142Y-152678571D02*
X107678571Y-152678571D01*
X107321428Y-152178571D02*
X107321428Y-153464285D01*
X107392857Y-153607142D01*
X107535714Y-153678571D01*
X107678571Y-153678571D01*
X108392857Y-153678571D02*
X108250000Y-153607142D01*
X108178571Y-153535714D01*
X108107142Y-153392857D01*
X108107142Y-152964285D01*
X108178571Y-152821428D01*
X108250000Y-152750000D01*
X108392857Y-152678571D01*
X108607142Y-152678571D01*
X108750000Y-152750000D01*
X108821428Y-152821428D01*
X108892857Y-152964285D01*
X108892857Y-153392857D01*
X108821428Y-153535714D01*
X108750000Y-153607142D01*
X108607142Y-153678571D01*
X108392857Y-153678571D01*
X109535714Y-153678571D02*
X109535714Y-152678571D01*
X109535714Y-152964285D02*
X109607142Y-152821428D01*
X109678571Y-152750000D01*
X109821428Y-152678571D01*
X109964285Y-152678571D01*
X110321428Y-154250000D02*
X110392857Y-154178571D01*
X110535714Y-153964285D01*
X110607142Y-153821428D01*
X110678571Y-153607142D01*
X110750000Y-153250000D01*
X110750000Y-152964285D01*
X110678571Y-152607142D01*
X110607142Y-152392857D01*
X110535714Y-152250000D01*
X110392857Y-152035714D01*
X110321428Y-151964285D01*
X90821428Y-154250000D02*
X90750000Y-154178571D01*
X90607142Y-153964285D01*
X90535714Y-153821428D01*
X90464285Y-153607142D01*
X90392857Y-153250000D01*
X90392857Y-152964285D01*
X90464285Y-152607142D01*
X90535714Y-152392857D01*
X90607142Y-152250000D01*
X90750000Y-152035714D01*
X90821428Y-151964285D01*
X92107142Y-153678571D02*
X91392857Y-153678571D01*
X91392857Y-152178571D01*
X93250000Y-153678571D02*
X93250000Y-152892857D01*
X93178571Y-152750000D01*
X93035714Y-152678571D01*
X92750000Y-152678571D01*
X92607142Y-152750000D01*
X93250000Y-153607142D02*
X93107142Y-153678571D01*
X92750000Y-153678571D01*
X92607142Y-153607142D01*
X92535714Y-153464285D01*
X92535714Y-153321428D01*
X92607142Y-153178571D01*
X92750000Y-153107142D01*
X93107142Y-153107142D01*
X93250000Y-153035714D01*
X93964285Y-153678571D02*
X93964285Y-152678571D01*
X93964285Y-152821428D02*
X94035714Y-152750000D01*
X94178571Y-152678571D01*
X94392857Y-152678571D01*
X94535714Y-152750000D01*
X94607142Y-152892857D01*
X94607142Y-153678571D01*
X94607142Y-152892857D02*
X94678571Y-152750000D01*
X94821428Y-152678571D01*
X95035714Y-152678571D01*
X95178571Y-152750000D01*
X95250000Y-152892857D01*
X95250000Y-153678571D01*
X95964285Y-152678571D02*
X95964285Y-154178571D01*
X95964285Y-152750000D02*
X96107142Y-152678571D01*
X96392857Y-152678571D01*
X96535714Y-152750000D01*
X96607142Y-152821428D01*
X96678571Y-152964285D01*
X96678571Y-153392857D01*
X96607142Y-153535714D01*
X96535714Y-153607142D01*
X96392857Y-153678571D01*
X96107142Y-153678571D01*
X95964285Y-153607142D01*
X97178571Y-154250000D02*
X97250000Y-154178571D01*
X97392857Y-153964285D01*
X97464285Y-153821428D01*
X97535714Y-153607142D01*
X97607142Y-153250000D01*
X97607142Y-152964285D01*
X97535714Y-152607142D01*
X97464285Y-152392857D01*
X97392857Y-152250000D01*
X97250000Y-152035714D01*
X97178571Y-151964285D01*
X51966428Y-117587142D02*
X51399761Y-117587142D01*
X51399761Y-118634761D02*
X51399761Y-116634761D01*
X52209285Y-116634761D01*
X53585476Y-117301428D02*
X53585476Y-118634761D01*
X52856904Y-117301428D02*
X52856904Y-118349047D01*
X52937857Y-118539523D01*
X53099761Y-118634761D01*
X53342619Y-118634761D01*
X53504523Y-118539523D01*
X53585476Y-118444285D01*
X54395000Y-117301428D02*
X54395000Y-118634761D01*
X54395000Y-117491904D02*
X54475952Y-117396666D01*
X54637857Y-117301428D01*
X54880714Y-117301428D01*
X55042619Y-117396666D01*
X55123571Y-117587142D01*
X55123571Y-118634761D01*
X55933095Y-118634761D02*
X55933095Y-116634761D01*
X56095000Y-117872857D02*
X56580714Y-118634761D01*
X56580714Y-117301428D02*
X55933095Y-118063333D01*
X57147380Y-117301428D02*
X57552142Y-118634761D01*
X57956904Y-117301428D02*
X57552142Y-118634761D01*
X57390238Y-119110952D01*
X57309285Y-119206190D01*
X57147380Y-119301428D01*
X60871190Y-118444285D02*
X60790238Y-118539523D01*
X60547380Y-118634761D01*
X60385476Y-118634761D01*
X60142619Y-118539523D01*
X59980714Y-118349047D01*
X59899761Y-118158571D01*
X59818809Y-117777619D01*
X59818809Y-117491904D01*
X59899761Y-117110952D01*
X59980714Y-116920476D01*
X60142619Y-116730000D01*
X60385476Y-116634761D01*
X60547380Y-116634761D01*
X60790238Y-116730000D01*
X60871190Y-116825238D01*
X61599761Y-118634761D02*
X61599761Y-116634761D01*
X62328333Y-118634761D02*
X62328333Y-117587142D01*
X62247380Y-117396666D01*
X62085476Y-117301428D01*
X61842619Y-117301428D01*
X61680714Y-117396666D01*
X61599761Y-117491904D01*
X63137857Y-118634761D02*
X63137857Y-117301428D01*
X63137857Y-116634761D02*
X63056904Y-116730000D01*
X63137857Y-116825238D01*
X63218809Y-116730000D01*
X63137857Y-116634761D01*
X63137857Y-116825238D01*
X64675952Y-118539523D02*
X64514047Y-118634761D01*
X64190238Y-118634761D01*
X64028333Y-118539523D01*
X63947380Y-118444285D01*
X63866428Y-118253809D01*
X63866428Y-117682380D01*
X63947380Y-117491904D01*
X64028333Y-117396666D01*
X64190238Y-117301428D01*
X64514047Y-117301428D01*
X64675952Y-117396666D01*
X65404523Y-118634761D02*
X65404523Y-116634761D01*
X65566428Y-117872857D02*
X66052142Y-118634761D01*
X66052142Y-117301428D02*
X65404523Y-118063333D01*
X67428333Y-118539523D02*
X67266428Y-118634761D01*
X66942619Y-118634761D01*
X66780714Y-118539523D01*
X66699761Y-118349047D01*
X66699761Y-117587142D01*
X66780714Y-117396666D01*
X66942619Y-117301428D01*
X67266428Y-117301428D01*
X67428333Y-117396666D01*
X67509285Y-117587142D01*
X67509285Y-117777619D01*
X66699761Y-117968095D01*
X68237857Y-117301428D02*
X68237857Y-118634761D01*
X68237857Y-117491904D02*
X68318809Y-117396666D01*
X68480714Y-117301428D01*
X68723571Y-117301428D01*
X68885476Y-117396666D01*
X68966428Y-117587142D01*
X68966428Y-118634761D01*
X71071190Y-118634761D02*
X71071190Y-116634761D01*
X71475952Y-116634761D01*
X71718809Y-116730000D01*
X71880714Y-116920476D01*
X71961666Y-117110952D01*
X72042619Y-117491904D01*
X72042619Y-117777619D01*
X71961666Y-118158571D01*
X71880714Y-118349047D01*
X71718809Y-118539523D01*
X71475952Y-118634761D01*
X71071190Y-118634761D01*
X73014047Y-118634761D02*
X72852142Y-118539523D01*
X72771190Y-118444285D01*
X72690238Y-118253809D01*
X72690238Y-117682380D01*
X72771190Y-117491904D01*
X72852142Y-117396666D01*
X73014047Y-117301428D01*
X73256904Y-117301428D01*
X73418809Y-117396666D01*
X73499761Y-117491904D01*
X73580714Y-117682380D01*
X73580714Y-118253809D01*
X73499761Y-118444285D01*
X73418809Y-118539523D01*
X73256904Y-118634761D01*
X73014047Y-118634761D01*
X74552142Y-118634761D02*
X74390238Y-118539523D01*
X74309285Y-118444285D01*
X74228333Y-118253809D01*
X74228333Y-117682380D01*
X74309285Y-117491904D01*
X74390238Y-117396666D01*
X74552142Y-117301428D01*
X74795000Y-117301428D01*
X74956904Y-117396666D01*
X75037857Y-117491904D01*
X75118809Y-117682380D01*
X75118809Y-118253809D01*
X75037857Y-118444285D01*
X74956904Y-118539523D01*
X74795000Y-118634761D01*
X74552142Y-118634761D01*
X75847380Y-118634761D02*
X75847380Y-117301428D01*
X75847380Y-117682380D02*
X75928333Y-117491904D01*
X76009285Y-117396666D01*
X76171190Y-117301428D01*
X76333095Y-117301428D01*
X51237857Y-120601428D02*
X51642619Y-121934761D01*
X52047380Y-120601428D01*
X52695000Y-121744285D02*
X52775952Y-121839523D01*
X52695000Y-121934761D01*
X52614047Y-121839523D01*
X52695000Y-121744285D01*
X52695000Y-121934761D01*
X55690238Y-121934761D02*
X54718809Y-121934761D01*
X55204523Y-121934761D02*
X55204523Y-119934761D01*
X55042619Y-120220476D01*
X54880714Y-120410952D01*
X54718809Y-120506190D01*
X56418809Y-121744285D02*
X56499761Y-121839523D01*
X56418809Y-121934761D01*
X56337857Y-121839523D01*
X56418809Y-121744285D01*
X56418809Y-121934761D01*
X57552142Y-119934761D02*
X57714047Y-119934761D01*
X57875952Y-120030000D01*
X57956904Y-120125238D01*
X58037857Y-120315714D01*
X58118809Y-120696666D01*
X58118809Y-121172857D01*
X58037857Y-121553809D01*
X57956904Y-121744285D01*
X57875952Y-121839523D01*
X57714047Y-121934761D01*
X57552142Y-121934761D01*
X57390238Y-121839523D01*
X57309285Y-121744285D01*
X57228333Y-121553809D01*
X57147380Y-121172857D01*
X57147380Y-120696666D01*
X57228333Y-120315714D01*
X57309285Y-120125238D01*
X57390238Y-120030000D01*
X57552142Y-119934761D01*
X58847380Y-121744285D02*
X58928333Y-121839523D01*
X58847380Y-121934761D01*
X58766428Y-121839523D01*
X58847380Y-121744285D01*
X58847380Y-121934761D01*
X59980714Y-119934761D02*
X60142619Y-119934761D01*
X60304523Y-120030000D01*
X60385476Y-120125238D01*
X60466428Y-120315714D01*
X60547380Y-120696666D01*
X60547380Y-121172857D01*
X60466428Y-121553809D01*
X60385476Y-121744285D01*
X60304523Y-121839523D01*
X60142619Y-121934761D01*
X59980714Y-121934761D01*
X59818809Y-121839523D01*
X59737857Y-121744285D01*
X59656904Y-121553809D01*
X59575952Y-121172857D01*
X59575952Y-120696666D01*
X59656904Y-120315714D01*
X59737857Y-120125238D01*
X59818809Y-120030000D01*
X59980714Y-119934761D01*
X56757857Y-84498571D02*
X56257857Y-83784285D01*
X55900714Y-84498571D02*
X55900714Y-82998571D01*
X56472142Y-82998571D01*
X56615000Y-83070000D01*
X56686428Y-83141428D01*
X56757857Y-83284285D01*
X56757857Y-83498571D01*
X56686428Y-83641428D01*
X56615000Y-83712857D01*
X56472142Y-83784285D01*
X55900714Y-83784285D01*
X57186428Y-82998571D02*
X58043571Y-82998571D01*
X57615000Y-84498571D02*
X57615000Y-82998571D01*
X59400714Y-84355714D02*
X59329285Y-84427142D01*
X59115000Y-84498571D01*
X58972142Y-84498571D01*
X58757857Y-84427142D01*
X58615000Y-84284285D01*
X58543571Y-84141428D01*
X58472142Y-83855714D01*
X58472142Y-83641428D01*
X58543571Y-83355714D01*
X58615000Y-83212857D01*
X58757857Y-83070000D01*
X58972142Y-82998571D01*
X59115000Y-82998571D01*
X59329285Y-83070000D01*
X59400714Y-83141428D01*
X60043571Y-83927142D02*
X61186428Y-83927142D01*
X61900714Y-84498571D02*
X61900714Y-82998571D01*
X62257857Y-82998571D01*
X62472142Y-83070000D01*
X62615000Y-83212857D01*
X62686428Y-83355714D01*
X62757857Y-83641428D01*
X62757857Y-83855714D01*
X62686428Y-84141428D01*
X62615000Y-84284285D01*
X62472142Y-84427142D01*
X62257857Y-84498571D01*
X61900714Y-84498571D01*
X63329285Y-84427142D02*
X63543571Y-84498571D01*
X63900714Y-84498571D01*
X64043571Y-84427142D01*
X64115000Y-84355714D01*
X64186428Y-84212857D01*
X64186428Y-84070000D01*
X64115000Y-83927142D01*
X64043571Y-83855714D01*
X63900714Y-83784285D01*
X63615000Y-83712857D01*
X63472142Y-83641428D01*
X63400714Y-83570000D01*
X63329285Y-83427142D01*
X63329285Y-83284285D01*
X63400714Y-83141428D01*
X63472142Y-83070000D01*
X63615000Y-82998571D01*
X63972142Y-82998571D01*
X64186428Y-83070000D01*
X64686428Y-82998571D02*
X65615000Y-82998571D01*
X65115000Y-83570000D01*
X65329285Y-83570000D01*
X65472142Y-83641428D01*
X65543571Y-83712857D01*
X65615000Y-83855714D01*
X65615000Y-84212857D01*
X65543571Y-84355714D01*
X65472142Y-84427142D01*
X65329285Y-84498571D01*
X64900714Y-84498571D01*
X64757857Y-84427142D01*
X64686428Y-84355714D01*
X66186428Y-83141428D02*
X66257857Y-83070000D01*
X66400714Y-82998571D01*
X66757857Y-82998571D01*
X66900714Y-83070000D01*
X66972142Y-83141428D01*
X67043571Y-83284285D01*
X67043571Y-83427142D01*
X66972142Y-83641428D01*
X66115000Y-84498571D01*
X67043571Y-84498571D01*
X67543571Y-82998571D02*
X68472142Y-82998571D01*
X67972142Y-83570000D01*
X68186428Y-83570000D01*
X68329285Y-83641428D01*
X68400714Y-83712857D01*
X68472142Y-83855714D01*
X68472142Y-84212857D01*
X68400714Y-84355714D01*
X68329285Y-84427142D01*
X68186428Y-84498571D01*
X67757857Y-84498571D01*
X67615000Y-84427142D01*
X67543571Y-84355714D01*
X69900714Y-84498571D02*
X69043571Y-84498571D01*
X69472142Y-84498571D02*
X69472142Y-82998571D01*
X69329285Y-83212857D01*
X69186428Y-83355714D01*
X69043571Y-83427142D01*
X65448571Y-150268571D02*
X65448571Y-150982857D01*
X63948571Y-150982857D01*
X65448571Y-149768571D02*
X64448571Y-149768571D01*
X63948571Y-149768571D02*
X64020000Y-149840000D01*
X64091428Y-149768571D01*
X64020000Y-149697142D01*
X63948571Y-149768571D01*
X64091428Y-149768571D01*
X64448571Y-148411428D02*
X65662857Y-148411428D01*
X65805714Y-148482857D01*
X65877142Y-148554285D01*
X65948571Y-148697142D01*
X65948571Y-148911428D01*
X65877142Y-149054285D01*
X65377142Y-148411428D02*
X65448571Y-148554285D01*
X65448571Y-148840000D01*
X65377142Y-148982857D01*
X65305714Y-149054285D01*
X65162857Y-149125714D01*
X64734285Y-149125714D01*
X64591428Y-149054285D01*
X64520000Y-148982857D01*
X64448571Y-148840000D01*
X64448571Y-148554285D01*
X64520000Y-148411428D01*
X65448571Y-147697142D02*
X63948571Y-147697142D01*
X65448571Y-147054285D02*
X64662857Y-147054285D01*
X64520000Y-147125714D01*
X64448571Y-147268571D01*
X64448571Y-147482857D01*
X64520000Y-147625714D01*
X64591428Y-147697142D01*
X64448571Y-146554285D02*
X64448571Y-145982857D01*
X63948571Y-146340000D02*
X65234285Y-146340000D01*
X65377142Y-146268571D01*
X65448571Y-146125714D01*
X65448571Y-145982857D01*
X109898571Y-151125714D02*
X108398571Y-151125714D01*
X108398571Y-150768571D01*
X108470000Y-150554285D01*
X108612857Y-150411428D01*
X108755714Y-150340000D01*
X109041428Y-150268571D01*
X109255714Y-150268571D01*
X109541428Y-150340000D01*
X109684285Y-150411428D01*
X109827142Y-150554285D01*
X109898571Y-150768571D01*
X109898571Y-151125714D01*
X109898571Y-149411428D02*
X109827142Y-149554285D01*
X109755714Y-149625714D01*
X109612857Y-149697142D01*
X109184285Y-149697142D01*
X109041428Y-149625714D01*
X108970000Y-149554285D01*
X108898571Y-149411428D01*
X108898571Y-149197142D01*
X108970000Y-149054285D01*
X109041428Y-148982857D01*
X109184285Y-148911428D01*
X109612857Y-148911428D01*
X109755714Y-148982857D01*
X109827142Y-149054285D01*
X109898571Y-149197142D01*
X109898571Y-149411428D01*
X108898571Y-148411428D02*
X109898571Y-148125714D01*
X109184285Y-147840000D01*
X109898571Y-147554285D01*
X108898571Y-147268571D01*
X108898571Y-146697142D02*
X109898571Y-146697142D01*
X109041428Y-146697142D02*
X108970000Y-146625714D01*
X108898571Y-146482857D01*
X108898571Y-146268571D01*
X108970000Y-146125714D01*
X109112857Y-146054285D01*
X109898571Y-146054285D01*
X86173571Y-150967142D02*
X87387857Y-150967142D01*
X87530714Y-150895714D01*
X87602142Y-150824285D01*
X87673571Y-150681428D01*
X87673571Y-150395714D01*
X87602142Y-150252857D01*
X87530714Y-150181428D01*
X87387857Y-150110000D01*
X86173571Y-150110000D01*
X86673571Y-149395714D02*
X88173571Y-149395714D01*
X86745000Y-149395714D02*
X86673571Y-149252857D01*
X86673571Y-148967142D01*
X86745000Y-148824285D01*
X86816428Y-148752857D01*
X86959285Y-148681428D01*
X87387857Y-148681428D01*
X87530714Y-148752857D01*
X87602142Y-148824285D01*
X87673571Y-148967142D01*
X87673571Y-149252857D01*
X87602142Y-149395714D01*
X83211428Y-168318571D02*
X83211428Y-166818571D01*
X84068571Y-168318571D01*
X84068571Y-166818571D01*
X85068571Y-166818571D02*
X85354285Y-166818571D01*
X85497142Y-166890000D01*
X85640000Y-167032857D01*
X85711428Y-167318571D01*
X85711428Y-167818571D01*
X85640000Y-168104285D01*
X85497142Y-168247142D01*
X85354285Y-168318571D01*
X85068571Y-168318571D01*
X84925714Y-168247142D01*
X84782857Y-168104285D01*
X84711428Y-167818571D01*
X84711428Y-167318571D01*
X84782857Y-167032857D01*
X84925714Y-166890000D01*
X85068571Y-166818571D01*
X89497142Y-168175714D02*
X89425714Y-168247142D01*
X89211428Y-168318571D01*
X89068571Y-168318571D01*
X88854285Y-168247142D01*
X88711428Y-168104285D01*
X88640000Y-167961428D01*
X88568571Y-167675714D01*
X88568571Y-167461428D01*
X88640000Y-167175714D01*
X88711428Y-167032857D01*
X88854285Y-166890000D01*
X89068571Y-166818571D01*
X89211428Y-166818571D01*
X89425714Y-166890000D01*
X89497142Y-166961428D01*
X90425714Y-166818571D02*
X90711428Y-166818571D01*
X90854285Y-166890000D01*
X90997142Y-167032857D01*
X91068571Y-167318571D01*
X91068571Y-167818571D01*
X90997142Y-168104285D01*
X90854285Y-168247142D01*
X90711428Y-168318571D01*
X90425714Y-168318571D01*
X90282857Y-168247142D01*
X90140000Y-168104285D01*
X90068571Y-167818571D01*
X90068571Y-167318571D01*
X90140000Y-167032857D01*
X90282857Y-166890000D01*
X90425714Y-166818571D01*
X91711428Y-168318571D02*
X91711428Y-166818571D01*
X92211428Y-167890000D01*
X92711428Y-166818571D01*
X92711428Y-168318571D01*
X95711428Y-168318571D02*
X95711428Y-166818571D01*
X96568571Y-168318571D01*
X96568571Y-166818571D01*
X98140000Y-168175714D02*
X98068571Y-168247142D01*
X97854285Y-168318571D01*
X97711428Y-168318571D01*
X97497142Y-168247142D01*
X97354285Y-168104285D01*
X97282857Y-167961428D01*
X97211428Y-167675714D01*
X97211428Y-167461428D01*
X97282857Y-167175714D01*
X97354285Y-167032857D01*
X97497142Y-166890000D01*
X97711428Y-166818571D01*
X97854285Y-166818571D01*
X98068571Y-166890000D01*
X98140000Y-166961428D01*
X67953571Y-168388571D02*
X67953571Y-166888571D01*
X68310714Y-166888571D01*
X68525000Y-166960000D01*
X68667857Y-167102857D01*
X68739285Y-167245714D01*
X68810714Y-167531428D01*
X68810714Y-167745714D01*
X68739285Y-168031428D01*
X68667857Y-168174285D01*
X68525000Y-168317142D01*
X68310714Y-168388571D01*
X67953571Y-168388571D01*
X69667857Y-168388571D02*
X69525000Y-168317142D01*
X69453571Y-168245714D01*
X69382142Y-168102857D01*
X69382142Y-167674285D01*
X69453571Y-167531428D01*
X69525000Y-167460000D01*
X69667857Y-167388571D01*
X69882142Y-167388571D01*
X70025000Y-167460000D01*
X70096428Y-167531428D01*
X70167857Y-167674285D01*
X70167857Y-168102857D01*
X70096428Y-168245714D01*
X70025000Y-168317142D01*
X69882142Y-168388571D01*
X69667857Y-168388571D01*
X70667857Y-167388571D02*
X70953571Y-168388571D01*
X71239285Y-167674285D01*
X71525000Y-168388571D01*
X71810714Y-167388571D01*
X72382142Y-167388571D02*
X72382142Y-168388571D01*
X72382142Y-167531428D02*
X72453571Y-167460000D01*
X72596428Y-167388571D01*
X72810714Y-167388571D01*
X72953571Y-167460000D01*
X73025000Y-167602857D01*
X73025000Y-168388571D01*
X74882142Y-167388571D02*
X74882142Y-168888571D01*
X74882142Y-167460000D02*
X75025000Y-167388571D01*
X75310714Y-167388571D01*
X75453571Y-167460000D01*
X75525000Y-167531428D01*
X75596428Y-167674285D01*
X75596428Y-168102857D01*
X75525000Y-168245714D01*
X75453571Y-168317142D01*
X75310714Y-168388571D01*
X75025000Y-168388571D01*
X74882142Y-168317142D01*
X76453571Y-168388571D02*
X76310714Y-168317142D01*
X76239285Y-168245714D01*
X76167857Y-168102857D01*
X76167857Y-167674285D01*
X76239285Y-167531428D01*
X76310714Y-167460000D01*
X76453571Y-167388571D01*
X76667857Y-167388571D01*
X76810714Y-167460000D01*
X76882142Y-167531428D01*
X76953571Y-167674285D01*
X76953571Y-168102857D01*
X76882142Y-168245714D01*
X76810714Y-168317142D01*
X76667857Y-168388571D01*
X76453571Y-168388571D01*
X77525000Y-168317142D02*
X77667857Y-168388571D01*
X77953571Y-168388571D01*
X78096428Y-168317142D01*
X78167857Y-168174285D01*
X78167857Y-168102857D01*
X78096428Y-167960000D01*
X77953571Y-167888571D01*
X77739285Y-167888571D01*
X77596428Y-167817142D01*
X77525000Y-167674285D01*
X77525000Y-167602857D01*
X77596428Y-167460000D01*
X77739285Y-167388571D01*
X77953571Y-167388571D01*
X78096428Y-167460000D01*
X56517142Y-166938571D02*
X56517142Y-168152857D01*
X56588571Y-168295714D01*
X56660000Y-168367142D01*
X56802857Y-168438571D01*
X57088571Y-168438571D01*
X57231428Y-168367142D01*
X57302857Y-168295714D01*
X57374285Y-168152857D01*
X57374285Y-166938571D01*
X58088571Y-167438571D02*
X58088571Y-168938571D01*
X58088571Y-167510000D02*
X58231428Y-167438571D01*
X58517142Y-167438571D01*
X58660000Y-167510000D01*
X58731428Y-167581428D01*
X58802857Y-167724285D01*
X58802857Y-168152857D01*
X58731428Y-168295714D01*
X58660000Y-168367142D01*
X58517142Y-168438571D01*
X58231428Y-168438571D01*
X58088571Y-168367142D01*
X60588571Y-167438571D02*
X60588571Y-168938571D01*
X60588571Y-167510000D02*
X60731428Y-167438571D01*
X61017142Y-167438571D01*
X61160000Y-167510000D01*
X61231428Y-167581428D01*
X61302857Y-167724285D01*
X61302857Y-168152857D01*
X61231428Y-168295714D01*
X61160000Y-168367142D01*
X61017142Y-168438571D01*
X60731428Y-168438571D01*
X60588571Y-168367142D01*
X62160000Y-168438571D02*
X62017142Y-168367142D01*
X61945714Y-168295714D01*
X61874285Y-168152857D01*
X61874285Y-167724285D01*
X61945714Y-167581428D01*
X62017142Y-167510000D01*
X62160000Y-167438571D01*
X62374285Y-167438571D01*
X62517142Y-167510000D01*
X62588571Y-167581428D01*
X62660000Y-167724285D01*
X62660000Y-168152857D01*
X62588571Y-168295714D01*
X62517142Y-168367142D01*
X62374285Y-168438571D01*
X62160000Y-168438571D01*
X63231428Y-168367142D02*
X63374285Y-168438571D01*
X63660000Y-168438571D01*
X63802857Y-168367142D01*
X63874285Y-168224285D01*
X63874285Y-168152857D01*
X63802857Y-168010000D01*
X63660000Y-167938571D01*
X63445714Y-167938571D01*
X63302857Y-167867142D01*
X63231428Y-167724285D01*
X63231428Y-167652857D01*
X63302857Y-167510000D01*
X63445714Y-167438571D01*
X63660000Y-167438571D01*
X63802857Y-167510000D01*
X102665714Y-167747142D02*
X103808571Y-167747142D01*
X103237142Y-168318571D02*
X103237142Y-167175714D01*
X107951428Y-167747142D02*
X109094285Y-167747142D01*
X127260000Y-168438571D02*
X127260000Y-166938571D01*
X127760000Y-168010000D01*
X128260000Y-166938571D01*
X128260000Y-168438571D01*
X129188571Y-168438571D02*
X129045714Y-168367142D01*
X128974285Y-168295714D01*
X128902857Y-168152857D01*
X128902857Y-167724285D01*
X128974285Y-167581428D01*
X129045714Y-167510000D01*
X129188571Y-167438571D01*
X129402857Y-167438571D01*
X129545714Y-167510000D01*
X129617142Y-167581428D01*
X129688571Y-167724285D01*
X129688571Y-168152857D01*
X129617142Y-168295714D01*
X129545714Y-168367142D01*
X129402857Y-168438571D01*
X129188571Y-168438571D01*
X130117142Y-167438571D02*
X130688571Y-167438571D01*
X130331428Y-166938571D02*
X130331428Y-168224285D01*
X130402857Y-168367142D01*
X130545714Y-168438571D01*
X130688571Y-168438571D01*
X131402857Y-168438571D02*
X131260000Y-168367142D01*
X131188571Y-168295714D01*
X131117142Y-168152857D01*
X131117142Y-167724285D01*
X131188571Y-167581428D01*
X131260000Y-167510000D01*
X131402857Y-167438571D01*
X131617142Y-167438571D01*
X131760000Y-167510000D01*
X131831428Y-167581428D01*
X131902857Y-167724285D01*
X131902857Y-168152857D01*
X131831428Y-168295714D01*
X131760000Y-168367142D01*
X131617142Y-168438571D01*
X131402857Y-168438571D01*
X132545714Y-168438571D02*
X132545714Y-167438571D01*
X132545714Y-167724285D02*
X132617142Y-167581428D01*
X132688571Y-167510000D01*
X132831428Y-167438571D01*
X132974285Y-167438571D01*
D11*
%TO.C,JP4*%
X95950000Y-98155000D02*
X94550000Y-98155000D01*
X93850000Y-97455000D02*
X93850000Y-96855000D01*
X94550000Y-96155000D02*
X95950000Y-96155000D01*
X96650000Y-96855000D02*
X96650000Y-97455000D01*
X96650000Y-97455000D02*
G75*
G02*
X95950000Y-98155000I-700000J0D01*
G01*
X95950000Y-96155000D02*
G75*
G02*
X96650000Y-96855000I0J-700000D01*
G01*
X93850000Y-96855000D02*
G75*
G02*
X94550000Y-96155000I700000J0D01*
G01*
X94550000Y-98155000D02*
G75*
G02*
X93850000Y-97455000I0J700000D01*
G01*
%TO.C,JP3*%
X94550000Y-92980000D02*
X95950000Y-92980000D01*
X96650000Y-93680000D02*
X96650000Y-94280000D01*
X95950000Y-94980000D02*
X94550000Y-94980000D01*
X93850000Y-94280000D02*
X93850000Y-93680000D01*
X93850000Y-93680000D02*
G75*
G02*
X94550000Y-92980000I700000J0D01*
G01*
X94550000Y-94980000D02*
G75*
G02*
X93850000Y-94280000I0J700000D01*
G01*
X96650000Y-94280000D02*
G75*
G02*
X95950000Y-94980000I-700000J0D01*
G01*
X95950000Y-92980000D02*
G75*
G02*
X96650000Y-93680000I0J-700000D01*
G01*
%TO.C,JP2*%
X94565000Y-89805000D02*
X95965000Y-89805000D01*
X96665000Y-90505000D02*
X96665000Y-91105000D01*
X95965000Y-91805000D02*
X94565000Y-91805000D01*
X93865000Y-91105000D02*
X93865000Y-90505000D01*
X93865000Y-90505000D02*
G75*
G02*
X94565000Y-89805000I700000J0D01*
G01*
X94565000Y-91805000D02*
G75*
G02*
X93865000Y-91105000I0J700000D01*
G01*
X96665000Y-91105000D02*
G75*
G02*
X95965000Y-91805000I-700000J0D01*
G01*
X95965000Y-89805000D02*
G75*
G02*
X96665000Y-90505000I0J-700000D01*
G01*
%TO.C,JP1*%
X94565000Y-86630000D02*
X95965000Y-86630000D01*
X96665000Y-87330000D02*
X96665000Y-87930000D01*
X95965000Y-88630000D02*
X94565000Y-88630000D01*
X93865000Y-87930000D02*
X93865000Y-87330000D01*
X93865000Y-87330000D02*
G75*
G02*
X94565000Y-86630000I700000J0D01*
G01*
X94565000Y-88630000D02*
G75*
G02*
X93865000Y-87930000I0J700000D01*
G01*
X96665000Y-87930000D02*
G75*
G02*
X95965000Y-88630000I-700000J0D01*
G01*
X95965000Y-86630000D02*
G75*
G02*
X96665000Y-87330000I0J-700000D01*
G01*
%TO.C,J6*%
X126500000Y-111000000D02*
X76500000Y-111000000D01*
X126500000Y-65000000D02*
X126500000Y-111000000D01*
X76500000Y-65000000D02*
X126500000Y-65000000D01*
X76500000Y-111000000D02*
X76500000Y-65000000D01*
X78830000Y-107830000D02*
X77500000Y-107830000D01*
X78830000Y-106500000D02*
X78830000Y-107830000D01*
X78830000Y-105230000D02*
X76170000Y-105230000D01*
X76170000Y-105730000D02*
X76170000Y-67570000D01*
X78830000Y-105230000D02*
X78830000Y-67070000D01*
X78830000Y-67070000D02*
X76170000Y-67070000D01*
X82500000Y-104000000D02*
X120500000Y-104000000D01*
X120500000Y-104000000D02*
X120500000Y-72000000D01*
X120500000Y-72000000D02*
X82500000Y-72000000D01*
X82500000Y-72000000D02*
X82500000Y-104000000D01*
X126500000Y-70500000D02*
X80000000Y-70500000D01*
X80000000Y-70500000D02*
X80000000Y-105500000D01*
X80000000Y-105500000D02*
X126500000Y-105500000D01*
%TO.C,J7*%
X124660000Y-166400000D02*
X125160000Y-166400000D01*
X124660000Y-165660000D02*
X124660000Y-166400000D01*
X131353000Y-162523000D02*
X131306000Y-162569000D01*
X133650000Y-160225000D02*
X133615000Y-160261000D01*
X131546000Y-162739000D02*
X131511000Y-162774000D01*
X133855000Y-160431000D02*
X133808000Y-160477000D01*
X135180000Y-156239000D02*
X135180000Y-166160000D01*
X124900000Y-156239000D02*
X124900000Y-166160000D01*
X124900000Y-166160000D02*
X135180000Y-166160000D01*
X124900000Y-156239000D02*
X135180000Y-156239000D01*
X124900000Y-159199000D02*
X135180000Y-159199000D01*
X124900000Y-164100000D02*
X135180000Y-164100000D01*
X124900000Y-165600000D02*
X135180000Y-165600000D01*
X134260000Y-161500000D02*
G75*
G03*
X134260000Y-161500000I-1680000J0D01*
G01*
X127528805Y-163180253D02*
G75*
G02*
X126816000Y-163035000I-28805J1680253D01*
G01*
X125964574Y-162183042D02*
G75*
G02*
X125965000Y-160816000I1535426J683042D01*
G01*
X126816958Y-159964574D02*
G75*
G02*
X128184000Y-159965000I683042J-1535426D01*
G01*
X129035426Y-160816958D02*
G75*
G02*
X129035000Y-162184000I-1535426J-683042D01*
G01*
X128183318Y-163034756D02*
G75*
G02*
X127500000Y-163180000I-683318J1534756D01*
G01*
%TO.C,J4*%
X77245000Y-161410000D02*
G75*
G03*
X77245000Y-161410000I-1680000J0D01*
G01*
X67885000Y-165510000D02*
X78165000Y-165510000D01*
X67885000Y-164010000D02*
X78165000Y-164010000D01*
X67885000Y-159109000D02*
X78165000Y-159109000D01*
X67885000Y-156149000D02*
X78165000Y-156149000D01*
X67885000Y-166070000D02*
X78165000Y-166070000D01*
X67885000Y-156149000D02*
X67885000Y-166070000D01*
X78165000Y-156149000D02*
X78165000Y-166070000D01*
X76840000Y-160341000D02*
X76793000Y-160387000D01*
X74531000Y-162649000D02*
X74496000Y-162684000D01*
X76635000Y-160135000D02*
X76600000Y-160171000D01*
X74338000Y-162433000D02*
X74291000Y-162479000D01*
X67645000Y-165570000D02*
X67645000Y-166310000D01*
X67645000Y-166310000D02*
X68145000Y-166310000D01*
X70513805Y-163090253D02*
G75*
G02*
X69801000Y-162945000I-28805J1680253D01*
G01*
X68949574Y-162093042D02*
G75*
G02*
X68950000Y-160726000I1535426J683042D01*
G01*
X69801958Y-159874574D02*
G75*
G02*
X71169000Y-159875000I683042J-1535426D01*
G01*
X72020426Y-160726958D02*
G75*
G02*
X72020000Y-162094000I-1535426J-683042D01*
G01*
X71168318Y-162944756D02*
G75*
G02*
X70485000Y-163090000I-683318J1534756D01*
G01*
%TO.C,J3*%
X55260000Y-166260000D02*
X55760000Y-166260000D01*
X55260000Y-165520000D02*
X55260000Y-166260000D01*
X61953000Y-162383000D02*
X61906000Y-162429000D01*
X64250000Y-160085000D02*
X64215000Y-160121000D01*
X62146000Y-162599000D02*
X62111000Y-162634000D01*
X64455000Y-160291000D02*
X64408000Y-160337000D01*
X65780000Y-156099000D02*
X65780000Y-166020000D01*
X55500000Y-156099000D02*
X55500000Y-166020000D01*
X55500000Y-166020000D02*
X65780000Y-166020000D01*
X55500000Y-156099000D02*
X65780000Y-156099000D01*
X55500000Y-159059000D02*
X65780000Y-159059000D01*
X55500000Y-163960000D02*
X65780000Y-163960000D01*
X55500000Y-165460000D02*
X65780000Y-165460000D01*
X64860000Y-161360000D02*
G75*
G03*
X64860000Y-161360000I-1680000J0D01*
G01*
X58128805Y-163040253D02*
G75*
G02*
X57416000Y-162895000I-28805J1680253D01*
G01*
X56564574Y-162043042D02*
G75*
G02*
X56565000Y-160676000I1535426J683042D01*
G01*
X57416958Y-159824574D02*
G75*
G02*
X58784000Y-159825000I683042J-1535426D01*
G01*
X59635426Y-160676958D02*
G75*
G02*
X59635000Y-162044000I-1535426J-683042D01*
G01*
X58783318Y-162894756D02*
G75*
G02*
X58100000Y-163040000I-683318J1534756D01*
G01*
%TO.C,J2*%
X100500000Y-166310000D02*
X101000000Y-166310000D01*
X100500000Y-165570000D02*
X100500000Y-166310000D01*
X107193000Y-162433000D02*
X107146000Y-162479000D01*
X109490000Y-160135000D02*
X109455000Y-160171000D01*
X107386000Y-162649000D02*
X107351000Y-162684000D01*
X109695000Y-160341000D02*
X109648000Y-160387000D01*
X111020000Y-156149000D02*
X111020000Y-166070000D01*
X100740000Y-156149000D02*
X100740000Y-166070000D01*
X100740000Y-166070000D02*
X111020000Y-166070000D01*
X100740000Y-156149000D02*
X111020000Y-156149000D01*
X100740000Y-159109000D02*
X111020000Y-159109000D01*
X100740000Y-164010000D02*
X111020000Y-164010000D01*
X100740000Y-165510000D02*
X111020000Y-165510000D01*
X110100000Y-161410000D02*
G75*
G03*
X110100000Y-161410000I-1680000J0D01*
G01*
X103368805Y-163090253D02*
G75*
G02*
X102656000Y-162945000I-28805J1680253D01*
G01*
X101804574Y-162093042D02*
G75*
G02*
X101805000Y-160726000I1535426J683042D01*
G01*
X102656958Y-159874574D02*
G75*
G02*
X104024000Y-159875000I683042J-1535426D01*
G01*
X104875426Y-160726958D02*
G75*
G02*
X104875000Y-162094000I-1535426J-683042D01*
G01*
X104023318Y-162944756D02*
G75*
G02*
X103340000Y-163090000I-683318J1534756D01*
G01*
%TO.C,J1*%
X82720000Y-166310000D02*
X83220000Y-166310000D01*
X82720000Y-165570000D02*
X82720000Y-166310000D01*
X94493000Y-162433000D02*
X94446000Y-162479000D01*
X96790000Y-160135000D02*
X96755000Y-160171000D01*
X94686000Y-162649000D02*
X94651000Y-162684000D01*
X96995000Y-160341000D02*
X96948000Y-160387000D01*
X89413000Y-162433000D02*
X89366000Y-162479000D01*
X91710000Y-160135000D02*
X91675000Y-160171000D01*
X89606000Y-162649000D02*
X89571000Y-162684000D01*
X91915000Y-160341000D02*
X91868000Y-160387000D01*
X98320000Y-156149000D02*
X98320000Y-166070000D01*
X82960000Y-156149000D02*
X82960000Y-166070000D01*
X82960000Y-166070000D02*
X98320000Y-166070000D01*
X82960000Y-156149000D02*
X98320000Y-156149000D01*
X82960000Y-159109000D02*
X98320000Y-159109000D01*
X82960000Y-164010000D02*
X98320000Y-164010000D01*
X82960000Y-165510000D02*
X98320000Y-165510000D01*
X97400000Y-161410000D02*
G75*
G03*
X97400000Y-161410000I-1680000J0D01*
G01*
X92320000Y-161410000D02*
G75*
G03*
X92320000Y-161410000I-1680000J0D01*
G01*
X85588805Y-163090253D02*
G75*
G02*
X84876000Y-162945000I-28805J1680253D01*
G01*
X84024574Y-162093042D02*
G75*
G02*
X84025000Y-160726000I1535426J683042D01*
G01*
X84876958Y-159874574D02*
G75*
G02*
X86244000Y-159875000I683042J-1535426D01*
G01*
X87095426Y-160726958D02*
G75*
G02*
X87095000Y-162094000I-1535426J-683042D01*
G01*
X86243318Y-162944756D02*
G75*
G02*
X85560000Y-163090000I-683318J1534756D01*
G01*
D12*
%TO.C,U2*%
X50365000Y-72160000D02*
X50365000Y-111660000D01*
X74365000Y-72160000D02*
X74365000Y-111660000D01*
X74365000Y-111660000D02*
X50365000Y-111660000D01*
X74365000Y-72160000D02*
X50365000Y-72160000D01*
D13*
X54710000Y-73660000D02*
G75*
G03*
X54710000Y-73660000I-100000J0D01*
G01*
D11*
%TO.C,R7*%
X82600436Y-103605000D02*
X83054564Y-103605000D01*
X82600436Y-102135000D02*
X83054564Y-102135000D01*
%TO.C,Q4*%
X73335000Y-98665000D02*
X73335000Y-100125000D01*
X70175000Y-98665000D02*
X70175000Y-100825000D01*
X70175000Y-98665000D02*
X71105000Y-98665000D01*
X73335000Y-98665000D02*
X72405000Y-98665000D01*
%TO.C,D4*%
X110355000Y-143970000D02*
X110355000Y-140085000D01*
X110355000Y-140085000D02*
X108085000Y-140085000D01*
X108085000Y-140085000D02*
X108085000Y-143970000D01*
%TO.C,D3*%
X88130000Y-143710000D02*
X88130000Y-139825000D01*
X88130000Y-139825000D02*
X85860000Y-139825000D01*
X85860000Y-139825000D02*
X85860000Y-143710000D01*
%TO.C,D1*%
X65905000Y-143710000D02*
X65905000Y-139825000D01*
X65905000Y-139825000D02*
X63635000Y-139825000D01*
X63635000Y-139825000D02*
X63635000Y-143710000D01*
%TO.C,Q3*%
X101125000Y-129340000D02*
X102055000Y-129340000D01*
X104285000Y-129340000D02*
X103355000Y-129340000D01*
X104285000Y-129340000D02*
X104285000Y-127180000D01*
X101125000Y-129340000D02*
X101125000Y-127880000D01*
%TO.C,Q2*%
X123350000Y-129340000D02*
X124280000Y-129340000D01*
X126510000Y-129340000D02*
X125580000Y-129340000D01*
X126510000Y-129340000D02*
X126510000Y-127180000D01*
X123350000Y-129340000D02*
X123350000Y-127880000D01*
%TO.C,Q1*%
X78900000Y-129340000D02*
X79830000Y-129340000D01*
X82060000Y-129340000D02*
X81130000Y-129340000D01*
X82060000Y-129340000D02*
X82060000Y-127180000D01*
X78900000Y-129340000D02*
X78900000Y-127880000D01*
%TO.C,D6*%
X112265000Y-127580000D02*
X116165000Y-127580000D01*
X112265000Y-129580000D02*
X116165000Y-129580000D01*
X112265000Y-127580000D02*
X112265000Y-129580000D01*
%TO.C,D5*%
X90040000Y-127580000D02*
X93940000Y-127580000D01*
X90040000Y-129580000D02*
X93940000Y-129580000D01*
X90040000Y-127580000D02*
X90040000Y-129580000D01*
%TO.C,D2*%
X67815000Y-127580000D02*
X71715000Y-127580000D01*
X67815000Y-129580000D02*
X71715000Y-129580000D01*
X67815000Y-127580000D02*
X67815000Y-129580000D01*
%TO.C,R9*%
X83054564Y-96420000D02*
X82600436Y-96420000D01*
X83054564Y-97890000D02*
X82600436Y-97890000D01*
%TO.C,R8*%
X71020000Y-93475436D02*
X71020000Y-93929564D01*
X72490000Y-93475436D02*
X72490000Y-93929564D01*
%TO.C,R4*%
X120077064Y-127845000D02*
X119622936Y-127845000D01*
X120077064Y-129315000D02*
X119622936Y-129315000D01*
%TO.C,R3*%
X97852064Y-127845000D02*
X97397936Y-127845000D01*
X97852064Y-129315000D02*
X97397936Y-129315000D01*
%TO.C,R1*%
X75627064Y-127845000D02*
X75172936Y-127845000D01*
X75627064Y-129315000D02*
X75172936Y-129315000D01*
%TO.C,R6*%
X108485000Y-136655436D02*
X108485000Y-137109564D01*
X109955000Y-136655436D02*
X109955000Y-137109564D01*
%TO.C,R5*%
X86260000Y-136655436D02*
X86260000Y-137109564D01*
X87730000Y-136655436D02*
X87730000Y-137109564D01*
%TO.C,R2*%
X64035000Y-136655436D02*
X64035000Y-137109564D01*
X65505000Y-136655436D02*
X65505000Y-137109564D01*
%TO.C,K3*%
X118015000Y-132160000D02*
X111515000Y-132160000D01*
X126915000Y-132160000D02*
X120415000Y-132160000D01*
X126915000Y-132160000D02*
X126915000Y-151360000D01*
X126915000Y-151360000D02*
X111515000Y-151360000D01*
X111515000Y-151360000D02*
X111515000Y-132160000D01*
X114915000Y-147860000D02*
X117215000Y-147860000D01*
X123515000Y-147860000D02*
X121215000Y-147860000D01*
X113215000Y-137360000D02*
X113215000Y-139660000D01*
X119215000Y-136260000D02*
X119215000Y-135360000D01*
X125215000Y-139660000D02*
X125215000Y-137360000D01*
X119215000Y-143160000D02*
X119215000Y-144660000D01*
X119215000Y-144660000D02*
X121915000Y-149160000D01*
X115515000Y-143160000D02*
X115515000Y-136260000D01*
X119215000Y-143160000D02*
X115515000Y-143160000D01*
X119215000Y-136260000D02*
X115515000Y-136260000D01*
X125215000Y-139660000D02*
X120715000Y-139660000D01*
X117715000Y-139660000D02*
X113215000Y-139660000D01*
X117715000Y-142160000D02*
X120715000Y-137160000D01*
X117715000Y-137160000D02*
X120715000Y-137160000D01*
X120715000Y-137160000D02*
X120715000Y-142160000D01*
X120715000Y-142160000D02*
X117715000Y-142160000D01*
X117715000Y-142160000D02*
X117715000Y-137160000D01*
%TO.C,K2*%
X95790000Y-132160000D02*
X89290000Y-132160000D01*
X104690000Y-132160000D02*
X98190000Y-132160000D01*
X104690000Y-132160000D02*
X104690000Y-151360000D01*
X104690000Y-151360000D02*
X89290000Y-151360000D01*
X89290000Y-151360000D02*
X89290000Y-132160000D01*
X92690000Y-147860000D02*
X94990000Y-147860000D01*
X101290000Y-147860000D02*
X98990000Y-147860000D01*
X90990000Y-137360000D02*
X90990000Y-139660000D01*
X96990000Y-136260000D02*
X96990000Y-135360000D01*
X102990000Y-139660000D02*
X102990000Y-137360000D01*
X96990000Y-143160000D02*
X96990000Y-144660000D01*
X96990000Y-144660000D02*
X99690000Y-149160000D01*
X93290000Y-143160000D02*
X93290000Y-136260000D01*
X96990000Y-143160000D02*
X93290000Y-143160000D01*
X96990000Y-136260000D02*
X93290000Y-136260000D01*
X102990000Y-139660000D02*
X98490000Y-139660000D01*
X95490000Y-139660000D02*
X90990000Y-139660000D01*
X95490000Y-142160000D02*
X98490000Y-137160000D01*
X95490000Y-137160000D02*
X98490000Y-137160000D01*
X98490000Y-137160000D02*
X98490000Y-142160000D01*
X98490000Y-142160000D02*
X95490000Y-142160000D01*
X95490000Y-142160000D02*
X95490000Y-137160000D01*
%TO.C,K1*%
X73565000Y-132160000D02*
X67065000Y-132160000D01*
X82465000Y-132160000D02*
X75965000Y-132160000D01*
X82465000Y-132160000D02*
X82465000Y-151360000D01*
X82465000Y-151360000D02*
X67065000Y-151360000D01*
X67065000Y-151360000D02*
X67065000Y-132160000D01*
X70465000Y-147860000D02*
X72765000Y-147860000D01*
X79065000Y-147860000D02*
X76765000Y-147860000D01*
X68765000Y-137360000D02*
X68765000Y-139660000D01*
X74765000Y-136260000D02*
X74765000Y-135360000D01*
X80765000Y-139660000D02*
X80765000Y-137360000D01*
X74765000Y-143160000D02*
X74765000Y-144660000D01*
X74765000Y-144660000D02*
X77465000Y-149160000D01*
X71065000Y-143160000D02*
X71065000Y-136260000D01*
X74765000Y-143160000D02*
X71065000Y-143160000D01*
X74765000Y-136260000D02*
X71065000Y-136260000D01*
X80765000Y-139660000D02*
X76265000Y-139660000D01*
X73265000Y-139660000D02*
X68765000Y-139660000D01*
X73265000Y-142160000D02*
X76265000Y-137160000D01*
X73265000Y-137160000D02*
X76265000Y-137160000D01*
X76265000Y-137160000D02*
X76265000Y-142160000D01*
X76265000Y-142160000D02*
X73265000Y-142160000D01*
X73265000Y-142160000D02*
X73265000Y-137160000D01*
%TO.C,SW4*%
X122500000Y-114500000D02*
X118000000Y-114500000D01*
X123750000Y-118500000D02*
X123750000Y-117000000D01*
X118000000Y-121000000D02*
X122500000Y-121000000D01*
X116750000Y-117000000D02*
X116750000Y-118500000D01*
%TO.C,SW3*%
X110000000Y-114500000D02*
X105500000Y-114500000D01*
X111250000Y-118500000D02*
X111250000Y-117000000D01*
X105500000Y-121000000D02*
X110000000Y-121000000D01*
X104250000Y-117000000D02*
X104250000Y-118500000D01*
%TO.C,SW2*%
X97500000Y-114485000D02*
X93000000Y-114485000D01*
X98750000Y-118485000D02*
X98750000Y-116985000D01*
X93000000Y-120985000D02*
X97500000Y-120985000D01*
X91750000Y-116985000D02*
X91750000Y-118485000D01*
%TO.C,SW1*%
X85000000Y-114500000D02*
X80500000Y-114500000D01*
X86250000Y-118500000D02*
X86250000Y-117000000D01*
X80500000Y-121000000D02*
X85000000Y-121000000D01*
X79250000Y-117000000D02*
X79250000Y-118500000D01*
%TO.C,D10*%
X116570000Y-161325000D02*
X114570000Y-161325000D01*
X114570000Y-161325000D02*
X114570000Y-165225000D01*
X116570000Y-161325000D02*
X116570000Y-165225000D01*
%TO.C,D9*%
X116570000Y-154340000D02*
X114570000Y-154340000D01*
X114570000Y-154340000D02*
X114570000Y-158240000D01*
X116570000Y-154340000D02*
X116570000Y-158240000D01*
%TO.C,D8*%
X121015000Y-161325000D02*
X119015000Y-161325000D01*
X119015000Y-161325000D02*
X119015000Y-165225000D01*
X121015000Y-161325000D02*
X121015000Y-165225000D01*
%TO.C,D7*%
X121015000Y-154340000D02*
X119015000Y-154340000D01*
X119015000Y-154340000D02*
X119015000Y-158240000D01*
X121015000Y-154340000D02*
X121015000Y-158240000D01*
%TO.C,JP4*%
D14*
X97591666Y-96607380D02*
X97591666Y-97321666D01*
X97544047Y-97464523D01*
X97448809Y-97559761D01*
X97305952Y-97607380D01*
X97210714Y-97607380D01*
X98067857Y-97607380D02*
X98067857Y-96607380D01*
X98448809Y-96607380D01*
X98544047Y-96655000D01*
X98591666Y-96702619D01*
X98639285Y-96797857D01*
X98639285Y-96940714D01*
X98591666Y-97035952D01*
X98544047Y-97083571D01*
X98448809Y-97131190D01*
X98067857Y-97131190D01*
X99496428Y-96940714D02*
X99496428Y-97607380D01*
X99258333Y-96559761D02*
X99020238Y-97274047D01*
X99639285Y-97274047D01*
%TO.C,JP3*%
X97576666Y-93432380D02*
X97576666Y-94146666D01*
X97529047Y-94289523D01*
X97433809Y-94384761D01*
X97290952Y-94432380D01*
X97195714Y-94432380D01*
X98052857Y-94432380D02*
X98052857Y-93432380D01*
X98433809Y-93432380D01*
X98529047Y-93480000D01*
X98576666Y-93527619D01*
X98624285Y-93622857D01*
X98624285Y-93765714D01*
X98576666Y-93860952D01*
X98529047Y-93908571D01*
X98433809Y-93956190D01*
X98052857Y-93956190D01*
X98957619Y-93432380D02*
X99576666Y-93432380D01*
X99243333Y-93813333D01*
X99386190Y-93813333D01*
X99481428Y-93860952D01*
X99529047Y-93908571D01*
X99576666Y-94003809D01*
X99576666Y-94241904D01*
X99529047Y-94337142D01*
X99481428Y-94384761D01*
X99386190Y-94432380D01*
X99100476Y-94432380D01*
X99005238Y-94384761D01*
X98957619Y-94337142D01*
%TO.C,JP2*%
X97591666Y-90257380D02*
X97591666Y-90971666D01*
X97544047Y-91114523D01*
X97448809Y-91209761D01*
X97305952Y-91257380D01*
X97210714Y-91257380D01*
X98067857Y-91257380D02*
X98067857Y-90257380D01*
X98448809Y-90257380D01*
X98544047Y-90305000D01*
X98591666Y-90352619D01*
X98639285Y-90447857D01*
X98639285Y-90590714D01*
X98591666Y-90685952D01*
X98544047Y-90733571D01*
X98448809Y-90781190D01*
X98067857Y-90781190D01*
X99020238Y-90352619D02*
X99067857Y-90305000D01*
X99163095Y-90257380D01*
X99401190Y-90257380D01*
X99496428Y-90305000D01*
X99544047Y-90352619D01*
X99591666Y-90447857D01*
X99591666Y-90543095D01*
X99544047Y-90685952D01*
X98972619Y-91257380D01*
X99591666Y-91257380D01*
%TO.C,JP1*%
X97591666Y-87082380D02*
X97591666Y-87796666D01*
X97544047Y-87939523D01*
X97448809Y-88034761D01*
X97305952Y-88082380D01*
X97210714Y-88082380D01*
X98067857Y-88082380D02*
X98067857Y-87082380D01*
X98448809Y-87082380D01*
X98544047Y-87130000D01*
X98591666Y-87177619D01*
X98639285Y-87272857D01*
X98639285Y-87415714D01*
X98591666Y-87510952D01*
X98544047Y-87558571D01*
X98448809Y-87606190D01*
X98067857Y-87606190D01*
X99591666Y-88082380D02*
X99020238Y-88082380D01*
X99305952Y-88082380D02*
X99305952Y-87082380D01*
X99210714Y-87225238D01*
X99115476Y-87320476D01*
X99020238Y-87368095D01*
%TO.C,J6*%
X77666666Y-111952380D02*
X77666666Y-112666666D01*
X77619047Y-112809523D01*
X77523809Y-112904761D01*
X77380952Y-112952380D01*
X77285714Y-112952380D01*
X78571428Y-111952380D02*
X78380952Y-111952380D01*
X78285714Y-112000000D01*
X78238095Y-112047619D01*
X78142857Y-112190476D01*
X78095238Y-112380952D01*
X78095238Y-112761904D01*
X78142857Y-112857142D01*
X78190476Y-112904761D01*
X78285714Y-112952380D01*
X78476190Y-112952380D01*
X78571428Y-112904761D01*
X78619047Y-112857142D01*
X78666666Y-112761904D01*
X78666666Y-112523809D01*
X78619047Y-112428571D01*
X78571428Y-112380952D01*
X78476190Y-112333333D01*
X78285714Y-112333333D01*
X78190476Y-112380952D01*
X78142857Y-112428571D01*
X78095238Y-112523809D01*
D13*
X95814285Y-102997619D02*
X95814285Y-101897619D01*
X96500000Y-102997619D02*
X95985714Y-102369047D01*
X96500000Y-101897619D02*
X95814285Y-102526190D01*
X97014285Y-102997619D02*
X97014285Y-101897619D01*
X97414285Y-102683333D01*
X97814285Y-101897619D01*
X97814285Y-102997619D01*
X99071428Y-102997619D02*
X98671428Y-102473809D01*
X98385714Y-102997619D02*
X98385714Y-101897619D01*
X98842857Y-101897619D01*
X98957142Y-101950000D01*
X99014285Y-102002380D01*
X99071428Y-102107142D01*
X99071428Y-102264285D01*
X99014285Y-102369047D01*
X98957142Y-102421428D01*
X98842857Y-102473809D01*
X98385714Y-102473809D01*
X99585714Y-102578571D02*
X100500000Y-102578571D01*
X101700000Y-102997619D02*
X101014285Y-102997619D01*
X101357142Y-102997619D02*
X101357142Y-101897619D01*
X101242857Y-102054761D01*
X101128571Y-102159523D01*
X101014285Y-102211904D01*
X102214285Y-102892857D02*
X102271428Y-102945238D01*
X102214285Y-102997619D01*
X102157142Y-102945238D01*
X102214285Y-102892857D01*
X102214285Y-102997619D01*
X102957142Y-102369047D02*
X102842857Y-102316666D01*
X102785714Y-102264285D01*
X102728571Y-102159523D01*
X102728571Y-102107142D01*
X102785714Y-102002380D01*
X102842857Y-101950000D01*
X102957142Y-101897619D01*
X103185714Y-101897619D01*
X103300000Y-101950000D01*
X103357142Y-102002380D01*
X103414285Y-102107142D01*
X103414285Y-102159523D01*
X103357142Y-102264285D01*
X103300000Y-102316666D01*
X103185714Y-102369047D01*
X102957142Y-102369047D01*
X102842857Y-102421428D01*
X102785714Y-102473809D01*
X102728571Y-102578571D01*
X102728571Y-102788095D01*
X102785714Y-102892857D01*
X102842857Y-102945238D01*
X102957142Y-102997619D01*
X103185714Y-102997619D01*
X103300000Y-102945238D01*
X103357142Y-102892857D01*
X103414285Y-102788095D01*
X103414285Y-102578571D01*
X103357142Y-102473809D01*
X103300000Y-102421428D01*
X103185714Y-102369047D01*
X104785714Y-102945238D02*
X104957142Y-102997619D01*
X105242857Y-102997619D01*
X105357142Y-102945238D01*
X105414285Y-102892857D01*
X105471428Y-102788095D01*
X105471428Y-102683333D01*
X105414285Y-102578571D01*
X105357142Y-102526190D01*
X105242857Y-102473809D01*
X105014285Y-102421428D01*
X104900000Y-102369047D01*
X104842857Y-102316666D01*
X104785714Y-102211904D01*
X104785714Y-102107142D01*
X104842857Y-102002380D01*
X104900000Y-101950000D01*
X105014285Y-101897619D01*
X105300000Y-101897619D01*
X105471428Y-101950000D01*
X105985714Y-102997619D02*
X105985714Y-101897619D01*
X106442857Y-101897619D01*
X106557142Y-101950000D01*
X106614285Y-102002380D01*
X106671428Y-102107142D01*
X106671428Y-102264285D01*
X106614285Y-102369047D01*
X106557142Y-102421428D01*
X106442857Y-102473809D01*
X105985714Y-102473809D01*
X107185714Y-102997619D02*
X107185714Y-101897619D01*
X93342857Y-68497619D02*
X92657142Y-68497619D01*
X93000000Y-68497619D02*
X93000000Y-67397619D01*
X92885714Y-67554761D01*
X92771428Y-67659523D01*
X92657142Y-67711904D01*
X93857142Y-68392857D02*
X93914285Y-68445238D01*
X93857142Y-68497619D01*
X93800000Y-68445238D01*
X93857142Y-68392857D01*
X93857142Y-68497619D01*
X94600000Y-67869047D02*
X94485714Y-67816666D01*
X94428571Y-67764285D01*
X94371428Y-67659523D01*
X94371428Y-67607142D01*
X94428571Y-67502380D01*
X94485714Y-67450000D01*
X94600000Y-67397619D01*
X94828571Y-67397619D01*
X94942857Y-67450000D01*
X95000000Y-67502380D01*
X95057142Y-67607142D01*
X95057142Y-67659523D01*
X95000000Y-67764285D01*
X94942857Y-67816666D01*
X94828571Y-67869047D01*
X94600000Y-67869047D01*
X94485714Y-67921428D01*
X94428571Y-67973809D01*
X94371428Y-68078571D01*
X94371428Y-68288095D01*
X94428571Y-68392857D01*
X94485714Y-68445238D01*
X94600000Y-68497619D01*
X94828571Y-68497619D01*
X94942857Y-68445238D01*
X95000000Y-68392857D01*
X95057142Y-68288095D01*
X95057142Y-68078571D01*
X95000000Y-67973809D01*
X94942857Y-67921428D01*
X94828571Y-67869047D01*
X96428571Y-68445238D02*
X96600000Y-68497619D01*
X96885714Y-68497619D01*
X97000000Y-68445238D01*
X97057142Y-68392857D01*
X97114285Y-68288095D01*
X97114285Y-68183333D01*
X97057142Y-68078571D01*
X97000000Y-68026190D01*
X96885714Y-67973809D01*
X96657142Y-67921428D01*
X96542857Y-67869047D01*
X96485714Y-67816666D01*
X96428571Y-67711904D01*
X96428571Y-67607142D01*
X96485714Y-67502380D01*
X96542857Y-67450000D01*
X96657142Y-67397619D01*
X96942857Y-67397619D01*
X97114285Y-67450000D01*
X97628571Y-68497619D02*
X97628571Y-67397619D01*
X98085714Y-67397619D01*
X98200000Y-67450000D01*
X98257142Y-67502380D01*
X98314285Y-67607142D01*
X98314285Y-67764285D01*
X98257142Y-67869047D01*
X98200000Y-67921428D01*
X98085714Y-67973809D01*
X97628571Y-67973809D01*
X98828571Y-68497619D02*
X98828571Y-67397619D01*
X100142857Y-67397619D02*
X100828571Y-67397619D01*
X100485714Y-68497619D02*
X100485714Y-67397619D01*
X101628571Y-67921428D02*
X101228571Y-67921428D01*
X101228571Y-68497619D02*
X101228571Y-67397619D01*
X101800000Y-67397619D01*
X102085714Y-67397619D02*
X102771428Y-67397619D01*
X102428571Y-68497619D02*
X102428571Y-67397619D01*
X104714285Y-68497619D02*
X104028571Y-68497619D01*
X104371428Y-68497619D02*
X104371428Y-67397619D01*
X104257142Y-67554761D01*
X104142857Y-67659523D01*
X104028571Y-67711904D01*
X105171428Y-67502380D02*
X105228571Y-67450000D01*
X105342857Y-67397619D01*
X105628571Y-67397619D01*
X105742857Y-67450000D01*
X105800000Y-67502380D01*
X105857142Y-67607142D01*
X105857142Y-67711904D01*
X105800000Y-67869047D01*
X105114285Y-68497619D01*
X105857142Y-68497619D01*
X106542857Y-67869047D02*
X106428571Y-67816666D01*
X106371428Y-67764285D01*
X106314285Y-67659523D01*
X106314285Y-67607142D01*
X106371428Y-67502380D01*
X106428571Y-67450000D01*
X106542857Y-67397619D01*
X106771428Y-67397619D01*
X106885714Y-67450000D01*
X106942857Y-67502380D01*
X107000000Y-67607142D01*
X107000000Y-67659523D01*
X106942857Y-67764285D01*
X106885714Y-67816666D01*
X106771428Y-67869047D01*
X106542857Y-67869047D01*
X106428571Y-67921428D01*
X106371428Y-67973809D01*
X106314285Y-68078571D01*
X106314285Y-68288095D01*
X106371428Y-68392857D01*
X106428571Y-68445238D01*
X106542857Y-68497619D01*
X106771428Y-68497619D01*
X106885714Y-68445238D01*
X106942857Y-68392857D01*
X107000000Y-68288095D01*
X107000000Y-68078571D01*
X106942857Y-67973809D01*
X106885714Y-67921428D01*
X106771428Y-67869047D01*
X107685714Y-67397619D02*
X107685714Y-67659523D01*
X107400000Y-67554761D02*
X107685714Y-67659523D01*
X107971428Y-67554761D01*
X107514285Y-67869047D02*
X107685714Y-67659523D01*
X107857142Y-67869047D01*
X109057142Y-68497619D02*
X108371428Y-68497619D01*
X108714285Y-68497619D02*
X108714285Y-67397619D01*
X108600000Y-67554761D01*
X108485714Y-67659523D01*
X108371428Y-67711904D01*
X110085714Y-67397619D02*
X109857142Y-67397619D01*
X109742857Y-67450000D01*
X109685714Y-67502380D01*
X109571428Y-67659523D01*
X109514285Y-67869047D01*
X109514285Y-68288095D01*
X109571428Y-68392857D01*
X109628571Y-68445238D01*
X109742857Y-68497619D01*
X109971428Y-68497619D01*
X110085714Y-68445238D01*
X110142857Y-68392857D01*
X110200000Y-68288095D01*
X110200000Y-68026190D01*
X110142857Y-67921428D01*
X110085714Y-67869047D01*
X109971428Y-67816666D01*
X109742857Y-67816666D01*
X109628571Y-67869047D01*
X109571428Y-67921428D01*
X109514285Y-68026190D01*
X110942857Y-67397619D02*
X111057142Y-67397619D01*
X111171428Y-67450000D01*
X111228571Y-67502380D01*
X111285714Y-67607142D01*
X111342857Y-67816666D01*
X111342857Y-68078571D01*
X111285714Y-68288095D01*
X111228571Y-68392857D01*
X111171428Y-68445238D01*
X111057142Y-68497619D01*
X110942857Y-68497619D01*
X110828571Y-68445238D01*
X110771428Y-68392857D01*
X110714285Y-68288095D01*
X110657142Y-68078571D01*
X110657142Y-67816666D01*
X110714285Y-67607142D01*
X110771428Y-67502380D01*
X110828571Y-67450000D01*
X110942857Y-67397619D01*
%TO.C,J7*%
D14*
X129706666Y-154692380D02*
X129706666Y-155406666D01*
X129659047Y-155549523D01*
X129563809Y-155644761D01*
X129420952Y-155692380D01*
X129325714Y-155692380D01*
X130087619Y-154692380D02*
X130754285Y-154692380D01*
X130325714Y-155692380D01*
%TO.C,J4*%
X72691666Y-154602380D02*
X72691666Y-155316666D01*
X72644047Y-155459523D01*
X72548809Y-155554761D01*
X72405952Y-155602380D01*
X72310714Y-155602380D01*
X73596428Y-154935714D02*
X73596428Y-155602380D01*
X73358333Y-154554761D02*
X73120238Y-155269047D01*
X73739285Y-155269047D01*
%TO.C,J3*%
X60306666Y-154552380D02*
X60306666Y-155266666D01*
X60259047Y-155409523D01*
X60163809Y-155504761D01*
X60020952Y-155552380D01*
X59925714Y-155552380D01*
X60687619Y-154552380D02*
X61306666Y-154552380D01*
X60973333Y-154933333D01*
X61116190Y-154933333D01*
X61211428Y-154980952D01*
X61259047Y-155028571D01*
X61306666Y-155123809D01*
X61306666Y-155361904D01*
X61259047Y-155457142D01*
X61211428Y-155504761D01*
X61116190Y-155552380D01*
X60830476Y-155552380D01*
X60735238Y-155504761D01*
X60687619Y-155457142D01*
%TO.C,J2*%
X105546666Y-154602380D02*
X105546666Y-155316666D01*
X105499047Y-155459523D01*
X105403809Y-155554761D01*
X105260952Y-155602380D01*
X105165714Y-155602380D01*
X105975238Y-154697619D02*
X106022857Y-154650000D01*
X106118095Y-154602380D01*
X106356190Y-154602380D01*
X106451428Y-154650000D01*
X106499047Y-154697619D01*
X106546666Y-154792857D01*
X106546666Y-154888095D01*
X106499047Y-155030952D01*
X105927619Y-155602380D01*
X106546666Y-155602380D01*
%TO.C,J1*%
X90306666Y-154602380D02*
X90306666Y-155316666D01*
X90259047Y-155459523D01*
X90163809Y-155554761D01*
X90020952Y-155602380D01*
X89925714Y-155602380D01*
X91306666Y-155602380D02*
X90735238Y-155602380D01*
X91020952Y-155602380D02*
X91020952Y-154602380D01*
X90925714Y-154745238D01*
X90830476Y-154840476D01*
X90735238Y-154888095D01*
%TO.C,U2*%
X71817380Y-75921904D02*
X72626904Y-75921904D01*
X72722142Y-75874285D01*
X72769761Y-75826666D01*
X72817380Y-75731428D01*
X72817380Y-75540952D01*
X72769761Y-75445714D01*
X72722142Y-75398095D01*
X72626904Y-75350476D01*
X71817380Y-75350476D01*
X71912619Y-74921904D02*
X71865000Y-74874285D01*
X71817380Y-74779047D01*
X71817380Y-74540952D01*
X71865000Y-74445714D01*
X71912619Y-74398095D01*
X72007857Y-74350476D01*
X72103095Y-74350476D01*
X72245952Y-74398095D01*
X72817380Y-74969523D01*
X72817380Y-74350476D01*
X66175000Y-106455595D02*
X66127380Y-106550833D01*
X66127380Y-106693690D01*
X66175000Y-106836547D01*
X66270238Y-106931785D01*
X66365476Y-106979404D01*
X66555952Y-107027023D01*
X66698809Y-107027023D01*
X66889285Y-106979404D01*
X66984523Y-106931785D01*
X67079761Y-106836547D01*
X67127380Y-106693690D01*
X67127380Y-106598452D01*
X67079761Y-106455595D01*
X67032142Y-106407976D01*
X66698809Y-106407976D01*
X66698809Y-106598452D01*
X67127380Y-105979404D02*
X66127380Y-105979404D01*
X67127380Y-105407976D01*
X66127380Y-105407976D01*
X67127380Y-104931785D02*
X66127380Y-104931785D01*
X66127380Y-104693690D01*
X66175000Y-104550833D01*
X66270238Y-104455595D01*
X66365476Y-104407976D01*
X66555952Y-104360357D01*
X66698809Y-104360357D01*
X66889285Y-104407976D01*
X66984523Y-104455595D01*
X67079761Y-104550833D01*
X67127380Y-104693690D01*
X67127380Y-104931785D01*
X63587380Y-107122261D02*
X64587380Y-106788928D01*
X63587380Y-106455595D01*
X64492142Y-105550833D02*
X64539761Y-105598452D01*
X64587380Y-105741309D01*
X64587380Y-105836547D01*
X64539761Y-105979404D01*
X64444523Y-106074642D01*
X64349285Y-106122261D01*
X64158809Y-106169880D01*
X64015952Y-106169880D01*
X63825476Y-106122261D01*
X63730238Y-106074642D01*
X63635000Y-105979404D01*
X63587380Y-105836547D01*
X63587380Y-105741309D01*
X63635000Y-105598452D01*
X63682619Y-105550833D01*
X64492142Y-104550833D02*
X64539761Y-104598452D01*
X64587380Y-104741309D01*
X64587380Y-104836547D01*
X64539761Y-104979404D01*
X64444523Y-105074642D01*
X64349285Y-105122261D01*
X64158809Y-105169880D01*
X64015952Y-105169880D01*
X63825476Y-105122261D01*
X63730238Y-105074642D01*
X63635000Y-104979404D01*
X63587380Y-104836547D01*
X63587380Y-104741309D01*
X63635000Y-104598452D01*
X63682619Y-104550833D01*
X61999761Y-107027023D02*
X62047380Y-106884166D01*
X62047380Y-106646071D01*
X61999761Y-106550833D01*
X61952142Y-106503214D01*
X61856904Y-106455595D01*
X61761666Y-106455595D01*
X61666428Y-106503214D01*
X61618809Y-106550833D01*
X61571190Y-106646071D01*
X61523571Y-106836547D01*
X61475952Y-106931785D01*
X61428333Y-106979404D01*
X61333095Y-107027023D01*
X61237857Y-107027023D01*
X61142619Y-106979404D01*
X61095000Y-106931785D01*
X61047380Y-106836547D01*
X61047380Y-106598452D01*
X61095000Y-106455595D01*
X62047380Y-106027023D02*
X61047380Y-106027023D01*
X61047380Y-105788928D01*
X61095000Y-105646071D01*
X61190238Y-105550833D01*
X61285476Y-105503214D01*
X61475952Y-105455595D01*
X61618809Y-105455595D01*
X61809285Y-105503214D01*
X61904523Y-105550833D01*
X61999761Y-105646071D01*
X62047380Y-105788928D01*
X62047380Y-106027023D01*
X61761666Y-105074642D02*
X61761666Y-104598452D01*
X62047380Y-105169880D02*
X61047380Y-104836547D01*
X62047380Y-104503214D01*
X59459761Y-107027023D02*
X59507380Y-106884166D01*
X59507380Y-106646071D01*
X59459761Y-106550833D01*
X59412142Y-106503214D01*
X59316904Y-106455595D01*
X59221666Y-106455595D01*
X59126428Y-106503214D01*
X59078809Y-106550833D01*
X59031190Y-106646071D01*
X58983571Y-106836547D01*
X58935952Y-106931785D01*
X58888333Y-106979404D01*
X58793095Y-107027023D01*
X58697857Y-107027023D01*
X58602619Y-106979404D01*
X58555000Y-106931785D01*
X58507380Y-106836547D01*
X58507380Y-106598452D01*
X58555000Y-106455595D01*
X59412142Y-105455595D02*
X59459761Y-105503214D01*
X59507380Y-105646071D01*
X59507380Y-105741309D01*
X59459761Y-105884166D01*
X59364523Y-105979404D01*
X59269285Y-106027023D01*
X59078809Y-106074642D01*
X58935952Y-106074642D01*
X58745476Y-106027023D01*
X58650238Y-105979404D01*
X58555000Y-105884166D01*
X58507380Y-105741309D01*
X58507380Y-105646071D01*
X58555000Y-105503214D01*
X58602619Y-105455595D01*
X59507380Y-104550833D02*
X59507380Y-105027023D01*
X58507380Y-105027023D01*
X68715000Y-77596904D02*
X68667380Y-77692142D01*
X68667380Y-77835000D01*
X68715000Y-77977857D01*
X68810238Y-78073095D01*
X68905476Y-78120714D01*
X69095952Y-78168333D01*
X69238809Y-78168333D01*
X69429285Y-78120714D01*
X69524523Y-78073095D01*
X69619761Y-77977857D01*
X69667380Y-77835000D01*
X69667380Y-77739761D01*
X69619761Y-77596904D01*
X69572142Y-77549285D01*
X69238809Y-77549285D01*
X69238809Y-77739761D01*
X69667380Y-77120714D02*
X68667380Y-77120714D01*
X69667380Y-76549285D01*
X68667380Y-76549285D01*
X69667380Y-76073095D02*
X68667380Y-76073095D01*
X68667380Y-75835000D01*
X68715000Y-75692142D01*
X68810238Y-75596904D01*
X68905476Y-75549285D01*
X69095952Y-75501666D01*
X69238809Y-75501666D01*
X69429285Y-75549285D01*
X69524523Y-75596904D01*
X69619761Y-75692142D01*
X69667380Y-75835000D01*
X69667380Y-76073095D01*
X66127380Y-78168333D02*
X67127380Y-77835000D01*
X66127380Y-77501666D01*
X67032142Y-76596904D02*
X67079761Y-76644523D01*
X67127380Y-76787380D01*
X67127380Y-76882619D01*
X67079761Y-77025476D01*
X66984523Y-77120714D01*
X66889285Y-77168333D01*
X66698809Y-77215952D01*
X66555952Y-77215952D01*
X66365476Y-77168333D01*
X66270238Y-77120714D01*
X66175000Y-77025476D01*
X66127380Y-76882619D01*
X66127380Y-76787380D01*
X66175000Y-76644523D01*
X66222619Y-76596904D01*
X67032142Y-75596904D02*
X67079761Y-75644523D01*
X67127380Y-75787380D01*
X67127380Y-75882619D01*
X67079761Y-76025476D01*
X66984523Y-76120714D01*
X66889285Y-76168333D01*
X66698809Y-76215952D01*
X66555952Y-76215952D01*
X66365476Y-76168333D01*
X66270238Y-76120714D01*
X66175000Y-76025476D01*
X66127380Y-75882619D01*
X66127380Y-75787380D01*
X66175000Y-75644523D01*
X66222619Y-75596904D01*
X64539761Y-78049285D02*
X64587380Y-77906428D01*
X64587380Y-77668333D01*
X64539761Y-77573095D01*
X64492142Y-77525476D01*
X64396904Y-77477857D01*
X64301666Y-77477857D01*
X64206428Y-77525476D01*
X64158809Y-77573095D01*
X64111190Y-77668333D01*
X64063571Y-77858809D01*
X64015952Y-77954047D01*
X63968333Y-78001666D01*
X63873095Y-78049285D01*
X63777857Y-78049285D01*
X63682619Y-78001666D01*
X63635000Y-77954047D01*
X63587380Y-77858809D01*
X63587380Y-77620714D01*
X63635000Y-77477857D01*
X64587380Y-77049285D02*
X63587380Y-77049285D01*
X63587380Y-76811190D01*
X63635000Y-76668333D01*
X63730238Y-76573095D01*
X63825476Y-76525476D01*
X64015952Y-76477857D01*
X64158809Y-76477857D01*
X64349285Y-76525476D01*
X64444523Y-76573095D01*
X64539761Y-76668333D01*
X64587380Y-76811190D01*
X64587380Y-77049285D01*
X64301666Y-76096904D02*
X64301666Y-75620714D01*
X64587380Y-76192142D02*
X63587380Y-75858809D01*
X64587380Y-75525476D01*
X61999761Y-78025476D02*
X62047380Y-77882619D01*
X62047380Y-77644523D01*
X61999761Y-77549285D01*
X61952142Y-77501666D01*
X61856904Y-77454047D01*
X61761666Y-77454047D01*
X61666428Y-77501666D01*
X61618809Y-77549285D01*
X61571190Y-77644523D01*
X61523571Y-77835000D01*
X61475952Y-77930238D01*
X61428333Y-77977857D01*
X61333095Y-78025476D01*
X61237857Y-78025476D01*
X61142619Y-77977857D01*
X61095000Y-77930238D01*
X61047380Y-77835000D01*
X61047380Y-77596904D01*
X61095000Y-77454047D01*
X61952142Y-76454047D02*
X61999761Y-76501666D01*
X62047380Y-76644523D01*
X62047380Y-76739761D01*
X61999761Y-76882619D01*
X61904523Y-76977857D01*
X61809285Y-77025476D01*
X61618809Y-77073095D01*
X61475952Y-77073095D01*
X61285476Y-77025476D01*
X61190238Y-76977857D01*
X61095000Y-76882619D01*
X61047380Y-76739761D01*
X61047380Y-76644523D01*
X61095000Y-76501666D01*
X61142619Y-76454047D01*
X62047380Y-75549285D02*
X62047380Y-76025476D01*
X61047380Y-76025476D01*
X59459761Y-78215952D02*
X59507380Y-78073095D01*
X59507380Y-77835000D01*
X59459761Y-77739761D01*
X59412142Y-77692142D01*
X59316904Y-77644523D01*
X59221666Y-77644523D01*
X59126428Y-77692142D01*
X59078809Y-77739761D01*
X59031190Y-77835000D01*
X58983571Y-78025476D01*
X58935952Y-78120714D01*
X58888333Y-78168333D01*
X58793095Y-78215952D01*
X58697857Y-78215952D01*
X58602619Y-78168333D01*
X58555000Y-78120714D01*
X58507380Y-78025476D01*
X58507380Y-77787380D01*
X58555000Y-77644523D01*
X59602619Y-76549285D02*
X59555000Y-76644523D01*
X59459761Y-76739761D01*
X59316904Y-76882619D01*
X59269285Y-76977857D01*
X59269285Y-77073095D01*
X59507380Y-77025476D02*
X59459761Y-77120714D01*
X59364523Y-77215952D01*
X59174047Y-77263571D01*
X58840714Y-77263571D01*
X58650238Y-77215952D01*
X58555000Y-77120714D01*
X58507380Y-77025476D01*
X58507380Y-76835000D01*
X58555000Y-76739761D01*
X58650238Y-76644523D01*
X58840714Y-76596904D01*
X59174047Y-76596904D01*
X59364523Y-76644523D01*
X59459761Y-76739761D01*
X59507380Y-76835000D01*
X59507380Y-77025476D01*
X58507380Y-76263571D02*
X59507380Y-76025476D01*
X58793095Y-75835000D01*
X59507380Y-75644523D01*
X58507380Y-75406428D01*
X55967380Y-78049285D02*
X55967380Y-77430238D01*
X56348333Y-77763571D01*
X56348333Y-77620714D01*
X56395952Y-77525476D01*
X56443571Y-77477857D01*
X56538809Y-77430238D01*
X56776904Y-77430238D01*
X56872142Y-77477857D01*
X56919761Y-77525476D01*
X56967380Y-77620714D01*
X56967380Y-77906428D01*
X56919761Y-78001666D01*
X56872142Y-78049285D01*
X56062619Y-77049285D02*
X56015000Y-77001666D01*
X55967380Y-76906428D01*
X55967380Y-76668333D01*
X56015000Y-76573095D01*
X56062619Y-76525476D01*
X56157857Y-76477857D01*
X56253095Y-76477857D01*
X56395952Y-76525476D01*
X56967380Y-77096904D01*
X56967380Y-76477857D01*
X56967380Y-76049285D02*
X55967380Y-76049285D01*
X56586428Y-75954047D02*
X56967380Y-75668333D01*
X56300714Y-75668333D02*
X56681666Y-76049285D01*
%TO.C,R7*%
X82383333Y-101417380D02*
X82050000Y-100941190D01*
X81811904Y-101417380D02*
X81811904Y-100417380D01*
X82192857Y-100417380D01*
X82288095Y-100465000D01*
X82335714Y-100512619D01*
X82383333Y-100607857D01*
X82383333Y-100750714D01*
X82335714Y-100845952D01*
X82288095Y-100893571D01*
X82192857Y-100941190D01*
X81811904Y-100941190D01*
X82716666Y-100417380D02*
X83383333Y-100417380D01*
X82954761Y-101417380D01*
%TO.C,Q4*%
X70389761Y-102782619D02*
X70294523Y-102735000D01*
X70199285Y-102639761D01*
X70056428Y-102496904D01*
X69961190Y-102449285D01*
X69865952Y-102449285D01*
X69913571Y-102687380D02*
X69818333Y-102639761D01*
X69723095Y-102544523D01*
X69675476Y-102354047D01*
X69675476Y-102020714D01*
X69723095Y-101830238D01*
X69818333Y-101735000D01*
X69913571Y-101687380D01*
X70104047Y-101687380D01*
X70199285Y-101735000D01*
X70294523Y-101830238D01*
X70342142Y-102020714D01*
X70342142Y-102354047D01*
X70294523Y-102544523D01*
X70199285Y-102639761D01*
X70104047Y-102687380D01*
X69913571Y-102687380D01*
X71199285Y-102020714D02*
X71199285Y-102687380D01*
X70961190Y-101639761D02*
X70723095Y-102354047D01*
X71342142Y-102354047D01*
%TO.C,D4*%
X105941904Y-141682380D02*
X105941904Y-140682380D01*
X106180000Y-140682380D01*
X106322857Y-140730000D01*
X106418095Y-140825238D01*
X106465714Y-140920476D01*
X106513333Y-141110952D01*
X106513333Y-141253809D01*
X106465714Y-141444285D01*
X106418095Y-141539523D01*
X106322857Y-141634761D01*
X106180000Y-141682380D01*
X105941904Y-141682380D01*
X107370476Y-141015714D02*
X107370476Y-141682380D01*
X107132380Y-140634761D02*
X106894285Y-141349047D01*
X107513333Y-141349047D01*
%TO.C,D3*%
X83716904Y-141422380D02*
X83716904Y-140422380D01*
X83955000Y-140422380D01*
X84097857Y-140470000D01*
X84193095Y-140565238D01*
X84240714Y-140660476D01*
X84288333Y-140850952D01*
X84288333Y-140993809D01*
X84240714Y-141184285D01*
X84193095Y-141279523D01*
X84097857Y-141374761D01*
X83955000Y-141422380D01*
X83716904Y-141422380D01*
X84621666Y-140422380D02*
X85240714Y-140422380D01*
X84907380Y-140803333D01*
X85050238Y-140803333D01*
X85145476Y-140850952D01*
X85193095Y-140898571D01*
X85240714Y-140993809D01*
X85240714Y-141231904D01*
X85193095Y-141327142D01*
X85145476Y-141374761D01*
X85050238Y-141422380D01*
X84764523Y-141422380D01*
X84669285Y-141374761D01*
X84621666Y-141327142D01*
%TO.C,D1*%
X61491904Y-141292380D02*
X61491904Y-140292380D01*
X61730000Y-140292380D01*
X61872857Y-140340000D01*
X61968095Y-140435238D01*
X62015714Y-140530476D01*
X62063333Y-140720952D01*
X62063333Y-140863809D01*
X62015714Y-141054285D01*
X61968095Y-141149523D01*
X61872857Y-141244761D01*
X61730000Y-141292380D01*
X61491904Y-141292380D01*
X63015714Y-141292380D02*
X62444285Y-141292380D01*
X62730000Y-141292380D02*
X62730000Y-140292380D01*
X62634761Y-140435238D01*
X62539523Y-140530476D01*
X62444285Y-140578095D01*
%TO.C,Q3*%
X102609761Y-126587619D02*
X102514523Y-126540000D01*
X102419285Y-126444761D01*
X102276428Y-126301904D01*
X102181190Y-126254285D01*
X102085952Y-126254285D01*
X102133571Y-126492380D02*
X102038333Y-126444761D01*
X101943095Y-126349523D01*
X101895476Y-126159047D01*
X101895476Y-125825714D01*
X101943095Y-125635238D01*
X102038333Y-125540000D01*
X102133571Y-125492380D01*
X102324047Y-125492380D01*
X102419285Y-125540000D01*
X102514523Y-125635238D01*
X102562142Y-125825714D01*
X102562142Y-126159047D01*
X102514523Y-126349523D01*
X102419285Y-126444761D01*
X102324047Y-126492380D01*
X102133571Y-126492380D01*
X102895476Y-125492380D02*
X103514523Y-125492380D01*
X103181190Y-125873333D01*
X103324047Y-125873333D01*
X103419285Y-125920952D01*
X103466904Y-125968571D01*
X103514523Y-126063809D01*
X103514523Y-126301904D01*
X103466904Y-126397142D01*
X103419285Y-126444761D01*
X103324047Y-126492380D01*
X103038333Y-126492380D01*
X102943095Y-126444761D01*
X102895476Y-126397142D01*
%TO.C,Q2*%
X124834761Y-126587619D02*
X124739523Y-126540000D01*
X124644285Y-126444761D01*
X124501428Y-126301904D01*
X124406190Y-126254285D01*
X124310952Y-126254285D01*
X124358571Y-126492380D02*
X124263333Y-126444761D01*
X124168095Y-126349523D01*
X124120476Y-126159047D01*
X124120476Y-125825714D01*
X124168095Y-125635238D01*
X124263333Y-125540000D01*
X124358571Y-125492380D01*
X124549047Y-125492380D01*
X124644285Y-125540000D01*
X124739523Y-125635238D01*
X124787142Y-125825714D01*
X124787142Y-126159047D01*
X124739523Y-126349523D01*
X124644285Y-126444761D01*
X124549047Y-126492380D01*
X124358571Y-126492380D01*
X125168095Y-125587619D02*
X125215714Y-125540000D01*
X125310952Y-125492380D01*
X125549047Y-125492380D01*
X125644285Y-125540000D01*
X125691904Y-125587619D01*
X125739523Y-125682857D01*
X125739523Y-125778095D01*
X125691904Y-125920952D01*
X125120476Y-126492380D01*
X125739523Y-126492380D01*
%TO.C,Q1*%
X80384761Y-126587619D02*
X80289523Y-126540000D01*
X80194285Y-126444761D01*
X80051428Y-126301904D01*
X79956190Y-126254285D01*
X79860952Y-126254285D01*
X79908571Y-126492380D02*
X79813333Y-126444761D01*
X79718095Y-126349523D01*
X79670476Y-126159047D01*
X79670476Y-125825714D01*
X79718095Y-125635238D01*
X79813333Y-125540000D01*
X79908571Y-125492380D01*
X80099047Y-125492380D01*
X80194285Y-125540000D01*
X80289523Y-125635238D01*
X80337142Y-125825714D01*
X80337142Y-126159047D01*
X80289523Y-126349523D01*
X80194285Y-126444761D01*
X80099047Y-126492380D01*
X79908571Y-126492380D01*
X81289523Y-126492380D02*
X80718095Y-126492380D01*
X81003809Y-126492380D02*
X81003809Y-125492380D01*
X80908571Y-125635238D01*
X80813333Y-125730476D01*
X80718095Y-125778095D01*
%TO.C,D6*%
X113776904Y-127032380D02*
X113776904Y-126032380D01*
X114015000Y-126032380D01*
X114157857Y-126080000D01*
X114253095Y-126175238D01*
X114300714Y-126270476D01*
X114348333Y-126460952D01*
X114348333Y-126603809D01*
X114300714Y-126794285D01*
X114253095Y-126889523D01*
X114157857Y-126984761D01*
X114015000Y-127032380D01*
X113776904Y-127032380D01*
X115205476Y-126032380D02*
X115015000Y-126032380D01*
X114919761Y-126080000D01*
X114872142Y-126127619D01*
X114776904Y-126270476D01*
X114729285Y-126460952D01*
X114729285Y-126841904D01*
X114776904Y-126937142D01*
X114824523Y-126984761D01*
X114919761Y-127032380D01*
X115110238Y-127032380D01*
X115205476Y-126984761D01*
X115253095Y-126937142D01*
X115300714Y-126841904D01*
X115300714Y-126603809D01*
X115253095Y-126508571D01*
X115205476Y-126460952D01*
X115110238Y-126413333D01*
X114919761Y-126413333D01*
X114824523Y-126460952D01*
X114776904Y-126508571D01*
X114729285Y-126603809D01*
%TO.C,D5*%
X91551904Y-127032380D02*
X91551904Y-126032380D01*
X91790000Y-126032380D01*
X91932857Y-126080000D01*
X92028095Y-126175238D01*
X92075714Y-126270476D01*
X92123333Y-126460952D01*
X92123333Y-126603809D01*
X92075714Y-126794285D01*
X92028095Y-126889523D01*
X91932857Y-126984761D01*
X91790000Y-127032380D01*
X91551904Y-127032380D01*
X93028095Y-126032380D02*
X92551904Y-126032380D01*
X92504285Y-126508571D01*
X92551904Y-126460952D01*
X92647142Y-126413333D01*
X92885238Y-126413333D01*
X92980476Y-126460952D01*
X93028095Y-126508571D01*
X93075714Y-126603809D01*
X93075714Y-126841904D01*
X93028095Y-126937142D01*
X92980476Y-126984761D01*
X92885238Y-127032380D01*
X92647142Y-127032380D01*
X92551904Y-126984761D01*
X92504285Y-126937142D01*
%TO.C,D2*%
X69326904Y-127032380D02*
X69326904Y-126032380D01*
X69565000Y-126032380D01*
X69707857Y-126080000D01*
X69803095Y-126175238D01*
X69850714Y-126270476D01*
X69898333Y-126460952D01*
X69898333Y-126603809D01*
X69850714Y-126794285D01*
X69803095Y-126889523D01*
X69707857Y-126984761D01*
X69565000Y-127032380D01*
X69326904Y-127032380D01*
X70279285Y-126127619D02*
X70326904Y-126080000D01*
X70422142Y-126032380D01*
X70660238Y-126032380D01*
X70755476Y-126080000D01*
X70803095Y-126127619D01*
X70850714Y-126222857D01*
X70850714Y-126318095D01*
X70803095Y-126460952D01*
X70231666Y-127032380D01*
X70850714Y-127032380D01*
%TO.C,R9*%
X82303333Y-95702380D02*
X81970000Y-95226190D01*
X81731904Y-95702380D02*
X81731904Y-94702380D01*
X82112857Y-94702380D01*
X82208095Y-94750000D01*
X82255714Y-94797619D01*
X82303333Y-94892857D01*
X82303333Y-95035714D01*
X82255714Y-95130952D01*
X82208095Y-95178571D01*
X82112857Y-95226190D01*
X81731904Y-95226190D01*
X82779523Y-95702380D02*
X82970000Y-95702380D01*
X83065238Y-95654761D01*
X83112857Y-95607142D01*
X83208095Y-95464285D01*
X83255714Y-95273809D01*
X83255714Y-94892857D01*
X83208095Y-94797619D01*
X83160476Y-94750000D01*
X83065238Y-94702380D01*
X82874761Y-94702380D01*
X82779523Y-94750000D01*
X82731904Y-94797619D01*
X82684285Y-94892857D01*
X82684285Y-95130952D01*
X82731904Y-95226190D01*
X82779523Y-95273809D01*
X82874761Y-95321428D01*
X83065238Y-95321428D01*
X83160476Y-95273809D01*
X83208095Y-95226190D01*
X83255714Y-95130952D01*
%TO.C,R8*%
X69048333Y-93162380D02*
X68715000Y-92686190D01*
X68476904Y-93162380D02*
X68476904Y-92162380D01*
X68857857Y-92162380D01*
X68953095Y-92210000D01*
X69000714Y-92257619D01*
X69048333Y-92352857D01*
X69048333Y-92495714D01*
X69000714Y-92590952D01*
X68953095Y-92638571D01*
X68857857Y-92686190D01*
X68476904Y-92686190D01*
X69619761Y-92590952D02*
X69524523Y-92543333D01*
X69476904Y-92495714D01*
X69429285Y-92400476D01*
X69429285Y-92352857D01*
X69476904Y-92257619D01*
X69524523Y-92210000D01*
X69619761Y-92162380D01*
X69810238Y-92162380D01*
X69905476Y-92210000D01*
X69953095Y-92257619D01*
X70000714Y-92352857D01*
X70000714Y-92400476D01*
X69953095Y-92495714D01*
X69905476Y-92543333D01*
X69810238Y-92590952D01*
X69619761Y-92590952D01*
X69524523Y-92638571D01*
X69476904Y-92686190D01*
X69429285Y-92781428D01*
X69429285Y-92971904D01*
X69476904Y-93067142D01*
X69524523Y-93114761D01*
X69619761Y-93162380D01*
X69810238Y-93162380D01*
X69905476Y-93114761D01*
X69953095Y-93067142D01*
X70000714Y-92971904D01*
X70000714Y-92781428D01*
X69953095Y-92686190D01*
X69905476Y-92638571D01*
X69810238Y-92590952D01*
%TO.C,R4*%
X119683333Y-127127380D02*
X119350000Y-126651190D01*
X119111904Y-127127380D02*
X119111904Y-126127380D01*
X119492857Y-126127380D01*
X119588095Y-126175000D01*
X119635714Y-126222619D01*
X119683333Y-126317857D01*
X119683333Y-126460714D01*
X119635714Y-126555952D01*
X119588095Y-126603571D01*
X119492857Y-126651190D01*
X119111904Y-126651190D01*
X120540476Y-126460714D02*
X120540476Y-127127380D01*
X120302380Y-126079761D02*
X120064285Y-126794047D01*
X120683333Y-126794047D01*
%TO.C,R3*%
X97458333Y-127127380D02*
X97125000Y-126651190D01*
X96886904Y-127127380D02*
X96886904Y-126127380D01*
X97267857Y-126127380D01*
X97363095Y-126175000D01*
X97410714Y-126222619D01*
X97458333Y-126317857D01*
X97458333Y-126460714D01*
X97410714Y-126555952D01*
X97363095Y-126603571D01*
X97267857Y-126651190D01*
X96886904Y-126651190D01*
X97791666Y-126127380D02*
X98410714Y-126127380D01*
X98077380Y-126508333D01*
X98220238Y-126508333D01*
X98315476Y-126555952D01*
X98363095Y-126603571D01*
X98410714Y-126698809D01*
X98410714Y-126936904D01*
X98363095Y-127032142D01*
X98315476Y-127079761D01*
X98220238Y-127127380D01*
X97934523Y-127127380D01*
X97839285Y-127079761D01*
X97791666Y-127032142D01*
%TO.C,R1*%
X75233333Y-127127380D02*
X74900000Y-126651190D01*
X74661904Y-127127380D02*
X74661904Y-126127380D01*
X75042857Y-126127380D01*
X75138095Y-126175000D01*
X75185714Y-126222619D01*
X75233333Y-126317857D01*
X75233333Y-126460714D01*
X75185714Y-126555952D01*
X75138095Y-126603571D01*
X75042857Y-126651190D01*
X74661904Y-126651190D01*
X76185714Y-127127380D02*
X75614285Y-127127380D01*
X75900000Y-127127380D02*
X75900000Y-126127380D01*
X75804761Y-126270238D01*
X75709523Y-126365476D01*
X75614285Y-126413095D01*
%TO.C,R6*%
X106513333Y-136977380D02*
X106180000Y-136501190D01*
X105941904Y-136977380D02*
X105941904Y-135977380D01*
X106322857Y-135977380D01*
X106418095Y-136025000D01*
X106465714Y-136072619D01*
X106513333Y-136167857D01*
X106513333Y-136310714D01*
X106465714Y-136405952D01*
X106418095Y-136453571D01*
X106322857Y-136501190D01*
X105941904Y-136501190D01*
X107370476Y-135977380D02*
X107180000Y-135977380D01*
X107084761Y-136025000D01*
X107037142Y-136072619D01*
X106941904Y-136215476D01*
X106894285Y-136405952D01*
X106894285Y-136786904D01*
X106941904Y-136882142D01*
X106989523Y-136929761D01*
X107084761Y-136977380D01*
X107275238Y-136977380D01*
X107370476Y-136929761D01*
X107418095Y-136882142D01*
X107465714Y-136786904D01*
X107465714Y-136548809D01*
X107418095Y-136453571D01*
X107370476Y-136405952D01*
X107275238Y-136358333D01*
X107084761Y-136358333D01*
X106989523Y-136405952D01*
X106941904Y-136453571D01*
X106894285Y-136548809D01*
%TO.C,R5*%
X84288333Y-137057380D02*
X83955000Y-136581190D01*
X83716904Y-137057380D02*
X83716904Y-136057380D01*
X84097857Y-136057380D01*
X84193095Y-136105000D01*
X84240714Y-136152619D01*
X84288333Y-136247857D01*
X84288333Y-136390714D01*
X84240714Y-136485952D01*
X84193095Y-136533571D01*
X84097857Y-136581190D01*
X83716904Y-136581190D01*
X85193095Y-136057380D02*
X84716904Y-136057380D01*
X84669285Y-136533571D01*
X84716904Y-136485952D01*
X84812142Y-136438333D01*
X85050238Y-136438333D01*
X85145476Y-136485952D01*
X85193095Y-136533571D01*
X85240714Y-136628809D01*
X85240714Y-136866904D01*
X85193095Y-136962142D01*
X85145476Y-137009761D01*
X85050238Y-137057380D01*
X84812142Y-137057380D01*
X84716904Y-137009761D01*
X84669285Y-136962142D01*
%TO.C,R2*%
X62063333Y-136977380D02*
X61730000Y-136501190D01*
X61491904Y-136977380D02*
X61491904Y-135977380D01*
X61872857Y-135977380D01*
X61968095Y-136025000D01*
X62015714Y-136072619D01*
X62063333Y-136167857D01*
X62063333Y-136310714D01*
X62015714Y-136405952D01*
X61968095Y-136453571D01*
X61872857Y-136501190D01*
X61491904Y-136501190D01*
X62444285Y-136072619D02*
X62491904Y-136025000D01*
X62587142Y-135977380D01*
X62825238Y-135977380D01*
X62920476Y-136025000D01*
X62968095Y-136072619D01*
X63015714Y-136167857D01*
X63015714Y-136263095D01*
X62968095Y-136405952D01*
X62396666Y-136977380D01*
X63015714Y-136977380D01*
%TO.C,H4*%
X51238095Y-141452380D02*
X51238095Y-140452380D01*
X51238095Y-140928571D02*
X51809523Y-140928571D01*
X51809523Y-141452380D02*
X51809523Y-140452380D01*
X52714285Y-140785714D02*
X52714285Y-141452380D01*
X52476190Y-140404761D02*
X52238095Y-141119047D01*
X52857142Y-141119047D01*
%TO.C,H3*%
X130238095Y-141452380D02*
X130238095Y-140452380D01*
X130238095Y-140928571D02*
X130809523Y-140928571D01*
X130809523Y-141452380D02*
X130809523Y-140452380D01*
X131190476Y-140452380D02*
X131809523Y-140452380D01*
X131476190Y-140833333D01*
X131619047Y-140833333D01*
X131714285Y-140880952D01*
X131761904Y-140928571D01*
X131809523Y-141023809D01*
X131809523Y-141261904D01*
X131761904Y-141357142D01*
X131714285Y-141404761D01*
X131619047Y-141452380D01*
X131333333Y-141452380D01*
X131238095Y-141404761D01*
X131190476Y-141357142D01*
%TO.C,H2*%
X130238095Y-61452380D02*
X130238095Y-60452380D01*
X130238095Y-60928571D02*
X130809523Y-60928571D01*
X130809523Y-61452380D02*
X130809523Y-60452380D01*
X131238095Y-60547619D02*
X131285714Y-60500000D01*
X131380952Y-60452380D01*
X131619047Y-60452380D01*
X131714285Y-60500000D01*
X131761904Y-60547619D01*
X131809523Y-60642857D01*
X131809523Y-60738095D01*
X131761904Y-60880952D01*
X131190476Y-61452380D01*
X131809523Y-61452380D01*
%TO.C,H1*%
X50238095Y-61452380D02*
X50238095Y-60452380D01*
X50238095Y-60928571D02*
X50809523Y-60928571D01*
X50809523Y-61452380D02*
X50809523Y-60452380D01*
X51809523Y-61452380D02*
X51238095Y-61452380D01*
X51523809Y-61452380D02*
X51523809Y-60452380D01*
X51428571Y-60595238D01*
X51333333Y-60690476D01*
X51238095Y-60738095D01*
%TO.C,K3*%
X127531904Y-133167380D02*
X127531904Y-132167380D01*
X128103333Y-133167380D02*
X127674761Y-132595952D01*
X128103333Y-132167380D02*
X127531904Y-132738809D01*
X128436666Y-132167380D02*
X129055714Y-132167380D01*
X128722380Y-132548333D01*
X128865238Y-132548333D01*
X128960476Y-132595952D01*
X129008095Y-132643571D01*
X129055714Y-132738809D01*
X129055714Y-132976904D01*
X129008095Y-133072142D01*
X128960476Y-133119761D01*
X128865238Y-133167380D01*
X128579523Y-133167380D01*
X128484285Y-133119761D01*
X128436666Y-133072142D01*
%TO.C,K2*%
X105306904Y-133167380D02*
X105306904Y-132167380D01*
X105878333Y-133167380D02*
X105449761Y-132595952D01*
X105878333Y-132167380D02*
X105306904Y-132738809D01*
X106259285Y-132262619D02*
X106306904Y-132215000D01*
X106402142Y-132167380D01*
X106640238Y-132167380D01*
X106735476Y-132215000D01*
X106783095Y-132262619D01*
X106830714Y-132357857D01*
X106830714Y-132453095D01*
X106783095Y-132595952D01*
X106211666Y-133167380D01*
X106830714Y-133167380D01*
%TO.C,K1*%
X83081904Y-133167380D02*
X83081904Y-132167380D01*
X83653333Y-133167380D02*
X83224761Y-132595952D01*
X83653333Y-132167380D02*
X83081904Y-132738809D01*
X84605714Y-133167380D02*
X84034285Y-133167380D01*
X84320000Y-133167380D02*
X84320000Y-132167380D01*
X84224761Y-132310238D01*
X84129523Y-132405476D01*
X84034285Y-132453095D01*
%TO.C,SW4*%
X118916666Y-122404761D02*
X119059523Y-122452380D01*
X119297619Y-122452380D01*
X119392857Y-122404761D01*
X119440476Y-122357142D01*
X119488095Y-122261904D01*
X119488095Y-122166666D01*
X119440476Y-122071428D01*
X119392857Y-122023809D01*
X119297619Y-121976190D01*
X119107142Y-121928571D01*
X119011904Y-121880952D01*
X118964285Y-121833333D01*
X118916666Y-121738095D01*
X118916666Y-121642857D01*
X118964285Y-121547619D01*
X119011904Y-121500000D01*
X119107142Y-121452380D01*
X119345238Y-121452380D01*
X119488095Y-121500000D01*
X119821428Y-121452380D02*
X120059523Y-122452380D01*
X120250000Y-121738095D01*
X120440476Y-122452380D01*
X120678571Y-121452380D01*
X121488095Y-121785714D02*
X121488095Y-122452380D01*
X121250000Y-121404761D02*
X121011904Y-122119047D01*
X121630952Y-122119047D01*
%TO.C,SW3*%
X106416666Y-122404761D02*
X106559523Y-122452380D01*
X106797619Y-122452380D01*
X106892857Y-122404761D01*
X106940476Y-122357142D01*
X106988095Y-122261904D01*
X106988095Y-122166666D01*
X106940476Y-122071428D01*
X106892857Y-122023809D01*
X106797619Y-121976190D01*
X106607142Y-121928571D01*
X106511904Y-121880952D01*
X106464285Y-121833333D01*
X106416666Y-121738095D01*
X106416666Y-121642857D01*
X106464285Y-121547619D01*
X106511904Y-121500000D01*
X106607142Y-121452380D01*
X106845238Y-121452380D01*
X106988095Y-121500000D01*
X107321428Y-121452380D02*
X107559523Y-122452380D01*
X107750000Y-121738095D01*
X107940476Y-122452380D01*
X108178571Y-121452380D01*
X108464285Y-121452380D02*
X109083333Y-121452380D01*
X108750000Y-121833333D01*
X108892857Y-121833333D01*
X108988095Y-121880952D01*
X109035714Y-121928571D01*
X109083333Y-122023809D01*
X109083333Y-122261904D01*
X109035714Y-122357142D01*
X108988095Y-122404761D01*
X108892857Y-122452380D01*
X108607142Y-122452380D01*
X108511904Y-122404761D01*
X108464285Y-122357142D01*
%TO.C,SW2*%
X93916666Y-122389761D02*
X94059523Y-122437380D01*
X94297619Y-122437380D01*
X94392857Y-122389761D01*
X94440476Y-122342142D01*
X94488095Y-122246904D01*
X94488095Y-122151666D01*
X94440476Y-122056428D01*
X94392857Y-122008809D01*
X94297619Y-121961190D01*
X94107142Y-121913571D01*
X94011904Y-121865952D01*
X93964285Y-121818333D01*
X93916666Y-121723095D01*
X93916666Y-121627857D01*
X93964285Y-121532619D01*
X94011904Y-121485000D01*
X94107142Y-121437380D01*
X94345238Y-121437380D01*
X94488095Y-121485000D01*
X94821428Y-121437380D02*
X95059523Y-122437380D01*
X95250000Y-121723095D01*
X95440476Y-122437380D01*
X95678571Y-121437380D01*
X96011904Y-121532619D02*
X96059523Y-121485000D01*
X96154761Y-121437380D01*
X96392857Y-121437380D01*
X96488095Y-121485000D01*
X96535714Y-121532619D01*
X96583333Y-121627857D01*
X96583333Y-121723095D01*
X96535714Y-121865952D01*
X95964285Y-122437380D01*
X96583333Y-122437380D01*
%TO.C,SW1*%
X81416666Y-122404761D02*
X81559523Y-122452380D01*
X81797619Y-122452380D01*
X81892857Y-122404761D01*
X81940476Y-122357142D01*
X81988095Y-122261904D01*
X81988095Y-122166666D01*
X81940476Y-122071428D01*
X81892857Y-122023809D01*
X81797619Y-121976190D01*
X81607142Y-121928571D01*
X81511904Y-121880952D01*
X81464285Y-121833333D01*
X81416666Y-121738095D01*
X81416666Y-121642857D01*
X81464285Y-121547619D01*
X81511904Y-121500000D01*
X81607142Y-121452380D01*
X81845238Y-121452380D01*
X81988095Y-121500000D01*
X82321428Y-121452380D02*
X82559523Y-122452380D01*
X82750000Y-121738095D01*
X82940476Y-122452380D01*
X83178571Y-121452380D01*
X84083333Y-122452380D02*
X83511904Y-122452380D01*
X83797619Y-122452380D02*
X83797619Y-121452380D01*
X83702380Y-121595238D01*
X83607142Y-121690476D01*
X83511904Y-121738095D01*
%TO.C,D10*%
X111815714Y-164027380D02*
X111815714Y-163027380D01*
X112053809Y-163027380D01*
X112196666Y-163075000D01*
X112291904Y-163170238D01*
X112339523Y-163265476D01*
X112387142Y-163455952D01*
X112387142Y-163598809D01*
X112339523Y-163789285D01*
X112291904Y-163884523D01*
X112196666Y-163979761D01*
X112053809Y-164027380D01*
X111815714Y-164027380D01*
X113339523Y-164027380D02*
X112768095Y-164027380D01*
X113053809Y-164027380D02*
X113053809Y-163027380D01*
X112958571Y-163170238D01*
X112863333Y-163265476D01*
X112768095Y-163313095D01*
X113958571Y-163027380D02*
X114053809Y-163027380D01*
X114149047Y-163075000D01*
X114196666Y-163122619D01*
X114244285Y-163217857D01*
X114291904Y-163408333D01*
X114291904Y-163646428D01*
X114244285Y-163836904D01*
X114196666Y-163932142D01*
X114149047Y-163979761D01*
X114053809Y-164027380D01*
X113958571Y-164027380D01*
X113863333Y-163979761D01*
X113815714Y-163932142D01*
X113768095Y-163836904D01*
X113720476Y-163646428D01*
X113720476Y-163408333D01*
X113768095Y-163217857D01*
X113815714Y-163122619D01*
X113863333Y-163075000D01*
X113958571Y-163027380D01*
%TO.C,D9*%
X112291904Y-157042380D02*
X112291904Y-156042380D01*
X112530000Y-156042380D01*
X112672857Y-156090000D01*
X112768095Y-156185238D01*
X112815714Y-156280476D01*
X112863333Y-156470952D01*
X112863333Y-156613809D01*
X112815714Y-156804285D01*
X112768095Y-156899523D01*
X112672857Y-156994761D01*
X112530000Y-157042380D01*
X112291904Y-157042380D01*
X113339523Y-157042380D02*
X113530000Y-157042380D01*
X113625238Y-156994761D01*
X113672857Y-156947142D01*
X113768095Y-156804285D01*
X113815714Y-156613809D01*
X113815714Y-156232857D01*
X113768095Y-156137619D01*
X113720476Y-156090000D01*
X113625238Y-156042380D01*
X113434761Y-156042380D01*
X113339523Y-156090000D01*
X113291904Y-156137619D01*
X113244285Y-156232857D01*
X113244285Y-156470952D01*
X113291904Y-156566190D01*
X113339523Y-156613809D01*
X113434761Y-156661428D01*
X113625238Y-156661428D01*
X113720476Y-156613809D01*
X113768095Y-156566190D01*
X113815714Y-156470952D01*
%TO.C,D8*%
X121816904Y-164027380D02*
X121816904Y-163027380D01*
X122055000Y-163027380D01*
X122197857Y-163075000D01*
X122293095Y-163170238D01*
X122340714Y-163265476D01*
X122388333Y-163455952D01*
X122388333Y-163598809D01*
X122340714Y-163789285D01*
X122293095Y-163884523D01*
X122197857Y-163979761D01*
X122055000Y-164027380D01*
X121816904Y-164027380D01*
X122959761Y-163455952D02*
X122864523Y-163408333D01*
X122816904Y-163360714D01*
X122769285Y-163265476D01*
X122769285Y-163217857D01*
X122816904Y-163122619D01*
X122864523Y-163075000D01*
X122959761Y-163027380D01*
X123150238Y-163027380D01*
X123245476Y-163075000D01*
X123293095Y-163122619D01*
X123340714Y-163217857D01*
X123340714Y-163265476D01*
X123293095Y-163360714D01*
X123245476Y-163408333D01*
X123150238Y-163455952D01*
X122959761Y-163455952D01*
X122864523Y-163503571D01*
X122816904Y-163551190D01*
X122769285Y-163646428D01*
X122769285Y-163836904D01*
X122816904Y-163932142D01*
X122864523Y-163979761D01*
X122959761Y-164027380D01*
X123150238Y-164027380D01*
X123245476Y-163979761D01*
X123293095Y-163932142D01*
X123340714Y-163836904D01*
X123340714Y-163646428D01*
X123293095Y-163551190D01*
X123245476Y-163503571D01*
X123150238Y-163455952D01*
%TO.C,D7*%
X121816904Y-157042380D02*
X121816904Y-156042380D01*
X122055000Y-156042380D01*
X122197857Y-156090000D01*
X122293095Y-156185238D01*
X122340714Y-156280476D01*
X122388333Y-156470952D01*
X122388333Y-156613809D01*
X122340714Y-156804285D01*
X122293095Y-156899523D01*
X122197857Y-156994761D01*
X122055000Y-157042380D01*
X121816904Y-157042380D01*
X122721666Y-156042380D02*
X123388333Y-156042380D01*
X122959761Y-157042380D01*
%TD*%
M02*
